<?xml version="1.0" encoding="UTF-8" standalone="no"?>
<!DOCTYPE svg PUBLIC "-//W3C//DTD SVG 1.1//EN" "http://www.w3.org/Graphics/SVG/1.1/DTD/svg11.dtd">
<svg width="100%" height="100%" viewBox="0 0 400 200" version="1.1" xmlns="http://www.w3.org/2000/svg" xmlns:xlink="http://www.w3.org/1999/xlink" xml:space="preserve" style="fill-rule:evenodd;clip-rule:evenodd;stroke-linejoin:round;stroke-miterlimit:1.41421;">
    <g transform="matrix(1.478,0,0,1.478,26.1726,47.1708)">
        <g transform="matrix(14.244,0,0,8.45739,-17.7082,-31.9154)">
            <rect x="0" y="0" width="19" height="16" style="fill:white;"/>
        </g>
        <g>
            <path d="M105.66,42.832C105.66,43.697 105.425,44.407 104.955,44.962C104.485,45.517 103.61,46.046 102.329,46.548C101.047,47.039 99.531,47.285 97.78,47.285C94.683,47.285 92.217,46.27 90.38,44.241C88.554,42.202 87.641,39.447 87.641,35.977C87.641,32.421 88.618,29.592 90.572,27.488C92.537,25.385 95.036,24.333 98.068,24.333C99.745,24.333 101.117,24.53 102.184,24.925C103.263,25.32 104.048,25.716 104.539,26.111C105.041,26.506 105.292,26.927 105.292,27.376C105.292,27.835 105.131,28.268 104.811,28.673C104.491,29.079 104.128,29.282 103.722,29.282C103.37,29.282 102.975,29.164 102.537,28.93C100.989,28.139 99.536,27.744 98.18,27.744C96.141,27.744 94.486,28.47 93.215,29.923C91.955,31.375 91.325,33.372 91.325,35.913C91.325,38.444 91.928,40.403 93.135,41.791C94.352,43.179 96.055,43.873 98.244,43.873C99.013,43.873 99.739,43.772 100.423,43.569C101.106,43.366 101.533,43.174 101.704,42.992C101.885,42.811 101.976,42.549 101.976,42.207L101.976,37.979L98.308,37.979C97.743,37.979 97.326,37.862 97.059,37.627C96.792,37.381 96.659,36.917 96.659,36.233C96.659,35.635 96.792,35.208 97.059,34.952C97.326,34.696 97.764,34.567 98.373,34.567L103.85,34.567C105.057,34.567 105.66,35.123 105.66,36.233L105.66,42.832L105.66,42.832Z" style="fill:rgb(59,115,185);fill-rule:nonzero;"/>
            <path d="M114.25,33.654L120.817,33.654C121.468,33.654 121.959,33.761 122.29,33.974C122.621,34.177 122.787,34.626 122.787,35.32C122.787,35.982 122.643,36.441 122.354,36.697C122.066,36.943 121.554,37.066 120.817,37.066L114.25,37.066L114.25,43.024C114.25,43.376 114.405,43.552 114.714,43.552L121.794,43.552C122.499,43.552 123.006,43.664 123.315,43.889C123.636,44.113 123.796,44.556 123.796,45.218C123.796,45.88 123.652,46.339 123.364,46.595C123.075,46.841 122.552,46.964 121.794,46.964L113.497,46.964C112.579,46.964 111.864,46.724 111.351,46.243C110.839,45.752 110.582,45.074 110.582,44.209L110.582,27.712C110.582,25.672 111.618,24.653 113.69,24.653L121.858,24.653C122.563,24.653 123.059,24.765 123.348,24.989C123.647,25.213 123.796,25.662 123.796,26.334C123.796,27.039 123.641,27.504 123.332,27.728C123.033,27.952 122.541,28.064 121.858,28.064L114.811,28.064C114.651,28.064 114.517,28.123 114.41,28.241C114.304,28.358 114.25,28.507 114.25,28.689L114.25,33.654L114.25,33.654Z" style="fill:rgb(59,115,185);fill-rule:nonzero;"/>
            <path d="M144.17,47.285C141.095,47.285 138.666,46.276 136.882,44.258C135.11,42.24 134.224,39.479 134.224,35.977C134.224,32.411 135.19,29.581 137.123,27.488C139.055,25.385 141.532,24.333 144.554,24.333C145.558,24.333 146.503,24.445 147.389,24.669C148.286,24.883 149.082,25.219 149.776,25.679C150.47,26.127 150.924,26.495 151.137,26.784C151.361,27.072 151.474,27.392 151.474,27.745C151.474,28.183 151.297,28.599 150.945,28.994C150.593,29.389 150.214,29.587 149.808,29.587C149.413,29.587 148.943,29.4 148.398,29.026C147.747,28.535 147.117,28.199 146.508,28.017C145.9,27.835 145.206,27.745 144.426,27.745C142.504,27.745 140.934,28.481 139.717,29.955C138.511,31.418 137.907,33.404 137.907,35.913C137.907,38.497 138.479,40.473 139.621,41.839C140.764,43.195 142.408,43.874 144.554,43.874C145.344,43.874 146.054,43.751 146.684,43.505C147.325,43.26 148.099,42.832 149.007,42.224C149.348,42 149.712,41.887 150.096,41.887C150.512,41.887 150.886,42.069 151.217,42.432C151.548,42.784 151.714,43.147 151.714,43.521C151.714,44.407 150.934,45.256 149.375,46.068C147.816,46.879 146.081,47.285 144.17,47.285L144.17,47.285Z" style="fill:rgb(59,115,185);fill-rule:nonzero;"/>
            <path d="M164.81,44.866C163.934,46.478 162.434,47.285 160.309,47.285C158.313,47.285 156.706,46.5 155.488,44.93C154.271,43.36 153.662,41.241 153.662,38.571C153.662,35.945 154.292,33.846 155.552,32.277C156.823,30.696 158.521,29.906 160.646,29.906C162.482,29.906 163.87,30.627 164.81,32.069L164.81,31.476C164.81,30.472 165.424,29.97 166.652,29.97C167.271,29.97 167.72,30.093 167.997,30.339C168.275,30.574 168.414,30.953 168.414,31.476L168.414,45.715C168.414,46.249 168.286,46.633 168.029,46.868C167.773,47.103 167.293,47.221 166.588,47.221C165.403,47.221 164.81,46.751 164.81,45.811L164.81,44.866L164.81,44.866ZM164.81,37.258C164.81,36.084 164.479,35.112 163.817,34.343C163.164,33.574 162.294,33.19 161.207,33.19C159.968,33.19 159.007,33.676 158.324,34.648C157.641,35.619 157.299,36.927 157.299,38.572C157.299,40.291 157.646,41.631 158.34,42.592C159.034,43.542 159.99,44.017 161.207,44.017C162.317,44.017 163.193,43.628 163.834,42.848C164.485,42.069 164.811,41.102 164.811,39.949L164.811,37.258L164.81,37.258Z" style="fill:rgb(59,115,185);fill-rule:nonzero;"/>
            <path d="M176.65,52.474C176.65,52.944 176.49,53.296 176.17,53.531C175.849,53.766 175.374,53.883 174.744,53.883C174.082,53.883 173.628,53.761 173.383,53.515C173.148,53.27 173.03,52.89 173.03,52.378L173.03,31.476C173.03,30.974 173.18,30.6 173.479,30.355C173.778,30.098 174.231,29.97 174.84,29.97C175.438,29.97 175.887,30.098 176.186,30.355C176.495,30.6 176.65,30.974 176.65,31.476L176.65,32.069C177.056,31.385 177.622,30.857 178.348,30.483C179.085,30.098 179.907,29.906 180.814,29.906C182.939,29.906 184.632,30.696 185.892,32.277C187.162,33.857 187.798,35.955 187.798,38.571C187.798,41.241 187.189,43.36 185.972,44.93C184.755,46.5 183.142,47.284 181.135,47.284C178.967,47.284 177.472,46.489 176.65,44.898L176.65,52.474L176.65,52.474ZM176.65,39.949C176.65,41.102 176.97,42.069 177.611,42.848C178.252,43.627 179.133,44.017 180.254,44.017C181.482,44.017 182.437,43.537 183.121,42.576C183.815,41.615 184.162,40.28 184.162,38.572C184.162,36.916 183.82,35.608 183.137,34.647C182.453,33.676 181.492,33.19 180.254,33.19C179.165,33.19 178.289,33.574 177.627,34.343C176.976,35.101 176.65,36.073 176.65,37.258L176.65,39.949L176.65,39.949Z" style="fill:rgb(59,115,185);fill-rule:nonzero;"/>
            <path d="M193.1,23.34C193.655,23.34 194.13,23.543 194.526,23.949C194.931,24.344 195.134,24.819 195.134,25.374C195.134,25.929 194.931,26.405 194.526,26.8C194.13,27.184 193.655,27.376 193.1,27.376C192.545,27.376 192.07,27.184 191.675,26.8C191.29,26.405 191.098,25.929 191.098,25.374C191.098,24.819 191.295,24.344 191.691,23.949C192.086,23.543 192.555,23.34 193.1,23.34L193.1,23.34ZM194.91,45.715C194.91,46.719 194.296,47.221 193.068,47.221C191.883,47.221 191.29,46.719 191.29,45.715L191.29,31.412C191.29,30.91 191.424,30.547 191.691,30.323C191.968,30.088 192.438,29.971 193.1,29.971C193.751,29.971 194.216,30.088 194.494,30.323C194.771,30.558 194.91,30.921 194.91,31.412L194.91,45.715L194.91,45.715Z" style="fill:rgb(59,115,185);fill-rule:nonzero;"/>
            <path d="M203.96,33.286L203.96,42.079C203.96,42.656 204.083,43.11 204.328,43.441C204.574,43.761 204.932,43.921 205.401,43.921C205.711,43.921 206.037,43.857 206.379,43.729C206.912,43.526 207.297,43.425 207.532,43.425C207.895,43.425 208.21,43.611 208.477,43.985C208.744,44.348 208.877,44.749 208.877,45.186C208.877,45.678 208.669,46.067 208.252,46.356C207.847,46.633 207.345,46.858 206.747,47.028C206.16,47.199 205.546,47.285 204.905,47.285C203.367,47.285 202.225,46.868 201.477,46.035C200.73,45.192 200.356,43.894 200.356,42.143L200.356,33.286L199.203,33.286C198.626,33.286 198.221,33.195 197.986,33.014C197.751,32.822 197.633,32.4 197.633,31.748C197.633,31.118 197.745,30.713 197.97,30.531C198.194,30.339 198.605,30.243 199.203,30.243L200.356,30.243L200.356,26.831C200.356,26.276 200.49,25.886 200.757,25.662C201.024,25.427 201.477,25.31 202.118,25.31C202.812,25.31 203.293,25.427 203.559,25.662C203.826,25.886 203.96,26.276 203.96,26.831L203.96,30.243L206.971,30.243C207.526,30.243 207.905,30.35 208.108,30.563C208.311,30.766 208.412,31.161 208.412,31.748C208.412,32.314 208.306,32.715 208.092,32.95C207.879,33.174 207.505,33.286 206.971,33.286L203.96,33.286L203.96,33.286Z" style="fill:rgb(59,115,185);fill-rule:nonzero;"/>
            <path d="M221.38,44.866C220.504,46.478 219.004,47.285 216.879,47.285C214.883,47.285 213.276,46.5 212.058,44.93C210.841,43.36 210.232,41.241 210.232,38.571C210.232,35.945 210.862,33.846 212.122,32.277C213.393,30.696 215.091,29.906 217.216,29.906C219.052,29.906 220.44,30.627 221.38,32.069L221.38,31.476C221.38,30.472 221.994,29.97 223.222,29.97C223.841,29.97 224.29,30.093 224.567,30.339C224.845,30.574 224.984,30.953 224.984,31.476L224.984,45.715C224.984,46.249 224.856,46.633 224.599,46.868C224.343,47.103 223.863,47.221 223.158,47.221C221.973,47.221 221.38,46.751 221.38,45.811L221.38,44.866L221.38,44.866ZM221.38,37.258C221.38,36.084 221.049,35.112 220.387,34.343C219.734,33.574 218.864,33.19 217.777,33.19C216.538,33.19 215.577,33.676 214.894,34.648C214.211,35.619 213.869,36.927 213.869,38.572C213.869,40.291 214.216,41.631 214.91,42.592C215.604,43.542 216.56,44.017 217.777,44.017C218.887,44.017 219.763,43.628 220.404,42.848C221.055,42.069 221.381,41.102 221.381,39.949L221.381,37.258L221.38,37.258Z" style="fill:rgb(59,115,185);fill-rule:nonzero;"/>
            <path d="M233.22,45.715C233.22,46.719 232.606,47.221 231.378,47.221C230.193,47.221 229.6,46.719 229.6,45.715L229.6,23.804C229.6,23.291 229.739,22.923 230.017,22.699C230.294,22.475 230.759,22.362 231.41,22.362C232.051,22.362 232.51,22.48 232.788,22.715C233.076,22.939 233.22,23.302 233.22,23.804L233.22,45.715L233.22,45.715Z" style="fill:rgb(59,115,185);fill-rule:nonzero;"/>
        </g>
        <path d="M43.315,26.956C43.315,23.124 45.909,19.398 47.327,20.105C48.941,20.913 46.119,24.527 43.315,26.956ZM25.648,28.359C25.648,25.275 28.693,19.408 30.555,20.03C32.749,20.763 28.733,26.677 25.648,28.359ZM22.563,50.42C21.163,50.481 20.228,49.585 20.228,48.09C20.228,44.071 25.799,40.236 30.006,38.178C29.259,43.786 27.366,50.2 22.563,50.42L22.563,50.42ZM48.268,37.333C45.09,37.333 42.659,39.67 42.659,42.475C42.659,44.81 44.062,46.68 45.932,46.68C46.585,46.68 47.241,46.305 47.241,45.466C47.241,44.25 45.63,43.953 45.753,42.135C45.832,40.938 46.961,40.134 48.08,40.134C50.326,40.134 51.372,42.309 51.372,44.553C51.278,48.012 48.734,50.421 45.744,50.421C41.817,50.421 39.294,46.68 39.294,42.66C39.294,36.679 43.222,34.341 45.278,33.779C45.299,33.779 50.655,34.735 50.486,32.375C50.41,31.338 48.87,30.941 47.749,30.894C46.51,30.846 45.258,31.292 45.258,31.292C44.606,30.962 44.155,30.321 43.875,29.574C47.709,26.677 50.418,23.872 50.418,20.694C50.418,19.012 49.296,17.515 47.146,17.515C43.314,17.515 40.416,22.377 40.416,26.769C40.416,27.516 40.416,28.266 40.604,28.92C38.173,30.696 36.366,31.798 33.095,33.76C33.095,33.35 33.181,32.297 33.455,30.926C34.576,29.712 36.116,27.891 36.116,26.489C36.116,25.834 35.744,25.275 34.994,25.275C33.126,25.275 31.724,28.078 31.35,30.041C30.508,31.071 28.826,32.379 27.424,32.379C26.302,32.379 25.929,31.35 25.834,30.976C29.386,29.761 33.78,24.9 33.78,20.507C33.78,19.572 33.406,17.514 30.603,17.514C26.396,17.514 22.844,23.778 22.844,28.638C21.347,28.638 20.788,27.051 20.788,25.834C20.788,24.62 21.255,23.404 21.255,23.032C21.255,22.657 21.068,22.189 20.507,22.189C19.104,22.189 18.264,24.06 18.264,26.209C18.357,29.2 20.321,31.071 22.938,31.257C23.311,33.032 24.9,34.714 26.863,34.714C28.078,34.714 29.574,34.341 30.603,33.406C30.508,34.061 30.415,34.621 30.321,35.182C26.209,37.334 23.217,38.829 20.507,41.258C18.357,43.221 17.142,45.837 17.142,47.896C17.142,50.699 18.918,53.314 22.563,53.314C26.863,53.314 30.133,49.858 31.724,45.09C32.472,42.847 32.772,39.582 32.958,36.589C37.259,34.161 39.294,32.752 41.537,31.163C41.817,31.63 42.099,32.005 42.472,32.285C40.51,33.314 35.836,36.212 35.836,43.033C35.836,47.896 39.107,53.315 45.556,53.315C50.885,53.315 54.53,48.924 54.53,44.718C54.53,40.886 52.38,37.334 48.268,37.334L48.268,37.333ZM64.34,45.361C64.324,45.39 64.267,45.433 64.165,45.396C64.084,45.369 64.061,45.328 64.065,45.275C64.069,45.222 65.196,41.897 65.187,38.081C65.174,33.967 63.504,31.443 61.355,31.443C60.045,31.443 59.111,32.379 59.111,33.779C59.111,36.305 62.194,36.49 62.194,42.007C62.194,44.25 61.729,46.398 60.981,48.737C57.521,60.419 46.491,65.842 35.744,65.842C30.79,65.842 27.268,64.823 26.22,64.351C26.176,64.332 26.142,64.248 26.175,64.164C26.199,64.101 26.272,64.054 26.312,64.071C26.737,64.238 29.76,65.188 33.5,65.188C37.614,65.188 40.042,63.505 40.042,61.449C40.042,60.14 39.016,59.111 37.706,59.111C35.182,59.111 34.995,62.288 29.575,62.288C27.236,62.288 25.181,61.82 22.75,61.075C11.158,57.524 5.635,46.586 5.643,35.742C5.648,30.464 7.125,26.26 7.151,26.219C7.167,26.19 7.237,26.161 7.319,26.19C7.401,26.219 7.423,26.289 7.417,26.311C7.28,26.748 6.298,29.763 6.298,33.5C6.298,37.613 7.981,40.044 10.13,40.044C11.344,40.044 12.374,39.109 12.374,37.8C12.374,35.277 9.288,34.997 9.288,29.575C9.288,27.237 9.756,25.181 10.505,22.751C14.056,11.161 24.992,5.727 35.742,5.645C40.737,5.607 45.11,7.102 45.276,7.233C45.305,7.258 45.338,7.324 45.305,7.401C45.271,7.49 45.211,7.5 45.18,7.494C45.128,7.489 42.285,6.3 37.983,6.3C33.965,6.298 31.443,7.983 31.443,10.131C31.443,11.347 32.376,12.374 33.778,12.374C36.301,12.374 36.489,9.289 41.911,9.289C44.247,9.289 46.305,9.759 48.732,10.505C60.416,14.058 65.738,25.088 65.838,35.741C65.89,41.201 64.352,45.332 64.338,45.361L64.34,45.361ZM35.744,3.589C17.984,3.589 3.589,17.985 3.589,35.742C3.589,53.504 17.984,67.899 35.744,67.899C46.049,67.899 55.221,63.052 61.106,55.513C65.362,50.059 67.898,43.197 67.898,35.742C67.898,18.078 53.503,3.589 35.744,3.589L35.744,3.589ZM35.744,69.487C17.142,69.487 2,54.439 2,35.742C2,17.144 17.142,2.001 35.744,2.001C54.345,2.001 69.486,17.143 69.486,35.742C69.486,54.44 54.345,69.487 35.744,69.487" style="fill:rgb(59,115,185);fill-rule:nonzero;"/>
    </g>
</svg>
