<?xml version="1.0" encoding="UTF-8" standalone="no"?>
<!DOCTYPE svg PUBLIC "-//W3C//DTD SVG 1.1//EN" "http://www.w3.org/Graphics/SVG/1.1/DTD/svg11.dtd">
<svg width="100%" height="100%" viewBox="0 0 400 200" version="1.1" xmlns="http://www.w3.org/2000/svg" xmlns:xlink="http://www.w3.org/1999/xlink" xml:space="preserve" style="fill-rule:evenodd;clip-rule:evenodd;stroke-linejoin:round;stroke-miterlimit:1.41421;">
    <g transform="matrix(1.82554,0,0,1.82554,-359.665,-624.79)">
        <g transform="matrix(1.13674,0,0,0.56837,-40.5598,171.738)">
            <rect x="209" y="300" width="192.756" height="192.756" style="fill:white;"/>
        </g>
        <rect x="217.504" y="371.398" width="50.655" height="49.959"/>
        <rect x="218.585" y="372.479" width="48.57" height="47.875" style="fill:rgb(255,242,0);"/>
        <path d="M228.083,417.42L221.983,411.01L236.577,397.266L233.874,394.641L233.797,388.386L231.558,386.61L231.481,391.243L229.627,393.482L221.596,386.069L220.284,387.536C220.978,377.344 228.855,375.491 233.025,378.965C235.187,380.895 236.809,382.517 240.438,385.914L238.816,387.69L242.832,391.397L246.847,387.69L245.303,385.914C248.932,382.439 250.477,380.895 252.716,378.965C256.885,375.49 264.684,377.343 265.457,387.536L264.067,386.069L256.036,393.404L254.183,391.242L254.106,386.609L251.866,388.385L251.866,394.64L249.086,397.265L263.68,411.009L257.58,417.419L242.831,403.288L228.083,417.42Z"/>
        <path d="M290.552,390.625L285.996,390.625L281.131,381.977L281.131,390.625L277.193,390.625L277.193,372.17L282.83,372.17C285.069,372.17 286.768,372.633 287.849,373.483C289.007,374.332 289.548,375.645 289.548,377.421C289.548,378.656 289.162,379.737 288.389,380.664C287.694,381.514 286.69,382.054 285.455,382.208L290.552,390.625ZM281.132,380.046L281.75,380.046C283.294,380.046 284.375,379.891 284.916,379.505C285.379,379.119 285.688,378.578 285.688,377.729C285.688,376.802 285.379,376.107 284.838,375.798C284.297,375.412 283.217,375.18 281.75,375.18L281.132,375.18L281.132,380.046ZM301.131,384.371C301.131,383.289 300.822,382.44 300.281,381.745C299.74,381.127 298.968,380.819 298.042,380.819C297.038,380.819 296.343,381.128 295.725,381.745C295.184,382.363 294.954,383.289 294.954,384.371C294.954,385.529 295.185,386.378 295.725,386.996C296.266,387.614 297.038,387.923 298.042,387.923C299.046,387.923 299.741,387.614 300.358,386.996C300.899,386.378 301.131,385.529 301.131,384.371ZM304.375,390.625L300.9,390.625L300.978,388.849C300.515,389.621 299.974,390.162 299.279,390.548C298.584,390.857 297.734,391.088 296.731,391.088C295.109,391.088 293.797,390.471 292.793,389.235C291.789,388.077 291.249,386.455 291.249,384.447C291.249,382.363 291.789,380.741 292.793,379.583C293.72,378.424 295.109,377.807 296.885,377.807C297.735,377.807 298.584,378.038 299.28,378.424C299.975,378.888 300.515,379.506 300.979,380.278L300.979,378.27L304.376,378.27L304.376,390.625L304.375,390.625ZM307.617,373.174C307.617,372.633 307.771,372.17 308.234,371.707C308.621,371.321 309.084,371.09 309.702,371.09C310.242,371.09 310.783,371.321 311.17,371.707C311.556,372.093 311.787,372.634 311.787,373.174C311.787,373.792 311.556,374.255 311.17,374.641C310.783,375.104 310.242,375.259 309.702,375.259C309.084,375.259 308.621,375.104 308.234,374.641C307.771,374.255 307.617,373.714 307.617,373.174ZM307.927,390.625L307.927,378.27L311.479,378.27L311.479,390.625L307.927,390.625ZM315.571,390.625L315.571,381.05L313.949,381.05L313.949,378.27L315.571,378.27L315.571,375.491C315.571,373.792 315.957,372.634 316.729,371.939C317.423,371.167 318.736,370.858 320.435,370.858C320.589,370.858 320.666,370.858 320.744,370.858C320.898,370.858 320.976,370.858 321.13,370.935C321.362,370.935 321.748,371.012 322.135,371.09L322.135,373.946C321.98,373.869 321.748,373.792 321.517,373.715C321.44,373.715 321.286,373.638 321.208,373.638C321.13,373.638 320.977,373.638 320.898,373.638C320.281,373.638 319.818,373.792 319.508,374.101C319.277,374.487 319.122,375.028 319.122,375.8L319.122,378.271L321.438,378.271L321.438,381.051L319.122,381.051L319.122,390.626L315.571,390.626L315.571,390.625ZM324.064,390.625L324.064,381.05L322.443,381.05L322.443,378.27L324.064,378.27L324.064,375.491C324.064,373.792 324.451,372.634 325.222,371.939C325.994,371.167 327.23,370.858 329.006,370.858C329.083,370.858 329.16,370.858 329.315,370.858C329.392,370.858 329.546,370.858 329.624,370.935C329.934,370.935 330.242,371.012 330.628,371.09L330.628,373.946C330.474,373.869 330.242,373.792 330.011,373.715C329.934,373.715 329.857,373.638 329.701,373.638C329.624,373.638 329.547,373.638 329.392,373.638C328.775,373.638 328.311,373.792 328.079,374.101C327.769,374.487 327.616,375.028 327.616,375.8L327.616,378.271L329.932,378.271L329.932,381.051L327.616,381.051L327.616,390.626L324.064,390.626L324.064,390.625ZM340.667,383.135C340.513,382.363 340.28,381.744 339.817,381.359C339.353,380.973 338.736,380.818 337.886,380.818C337.114,380.818 336.496,380.972 335.955,381.359C335.492,381.745 335.183,382.363 335.029,383.135L340.667,383.135ZM344.219,385.297L334.952,385.297C335.106,386.224 335.416,386.841 335.879,387.304C336.419,387.768 337.114,387.922 337.964,387.922C338.582,387.922 339.122,387.845 339.585,387.613C340.126,387.382 340.513,386.995 340.821,386.455L343.678,387.922C343.06,389.003 342.21,389.776 341.283,390.316C340.279,390.857 339.198,391.087 337.886,391.087C335.878,391.087 334.334,390.47 333.176,389.311C331.941,388.076 331.4,386.532 331.4,384.524C331.4,382.593 332.017,380.972 333.176,379.736C334.41,378.501 335.955,377.806 337.886,377.806C339.894,377.806 341.439,378.423 342.52,379.582C343.678,380.74 344.218,382.362 344.218,384.37L344.218,385.297L344.219,385.297ZM346.767,373.174C346.767,372.633 346.921,372.17 347.308,371.707C347.771,371.321 348.235,371.09 348.852,371.09C349.393,371.09 349.856,371.321 350.32,371.707C350.706,372.093 350.937,372.634 350.937,373.174C350.937,373.792 350.706,374.255 350.32,374.641C349.856,375.104 349.393,375.259 348.852,375.259C348.235,375.259 347.771,375.104 347.308,374.641C346.921,374.255 346.767,373.714 346.767,373.174ZM347.075,390.625L347.075,378.27L350.628,378.27L350.628,390.625L347.075,390.625ZM353.021,388.463L355.801,386.996C355.878,387.459 356.11,387.846 356.495,388.155C356.959,388.386 357.422,388.541 358.039,388.541C358.58,388.541 359.043,388.463 359.43,388.232C359.739,388.001 359.893,387.691 359.893,387.382C359.893,386.764 359.353,386.224 358.118,385.838L357.268,385.529C355.801,384.988 354.797,384.447 354.256,383.907C353.716,383.366 353.407,382.671 353.407,381.822C353.407,380.664 353.87,379.66 354.797,378.888C355.801,378.193 357.036,377.807 358.58,377.807C359.661,377.807 360.665,378.038 361.436,378.424C362.208,378.888 362.827,379.506 363.213,380.355L360.587,381.668C360.433,381.205 360.2,380.819 359.815,380.587C359.506,380.355 359.043,380.278 358.502,380.278C357.961,380.278 357.575,380.355 357.267,380.587C356.881,380.818 356.726,381.05 356.726,381.437C356.726,382.054 357.576,382.595 359.198,383.136L359.661,383.29C360.974,383.676 361.9,384.217 362.518,384.834C363.058,385.452 363.368,386.147 363.368,387.074C363.368,388.309 362.904,389.313 361.9,390.008C360.973,390.703 359.738,391.089 358.117,391.089C356.804,391.089 355.723,390.858 354.874,390.395C353.948,389.93 353.33,389.235 353.021,388.463ZM374.488,383.135C374.411,382.363 374.102,381.744 373.638,381.359C373.175,380.973 372.557,380.818 371.707,380.818C370.935,380.818 370.317,380.972 369.776,381.359C369.313,381.745 369.005,382.363 368.85,383.135L374.488,383.135ZM380.743,390.625L380.743,378.27L384.218,378.27L384.218,380.201C384.912,379.429 385.608,378.811 386.303,378.425C387.074,378.039 387.924,377.808 388.774,377.808C389.778,377.808 390.55,378.039 391.168,378.349C391.863,378.658 392.327,379.121 392.713,379.816C392.944,380.125 393.022,380.511 393.099,380.974C393.176,381.438 393.253,382.133 393.253,382.982L393.253,390.626L389.7,390.626L389.7,384.526C389.7,382.982 389.469,381.978 389.16,381.515C388.773,380.974 388.155,380.743 387.306,380.743C386.843,380.743 386.38,380.897 385.994,381.052C385.607,381.283 385.222,381.592 384.912,381.978C384.758,382.21 384.603,382.519 384.449,382.982C384.372,383.368 384.295,383.909 384.295,384.681L384.295,390.626L380.743,390.626L380.743,390.625ZM378.04,385.297L368.774,385.297C368.928,386.224 369.237,386.841 369.7,387.304C370.241,387.768 370.935,387.922 371.785,387.922C372.403,387.922 372.943,387.845 373.484,387.613C373.947,387.382 374.334,386.995 374.642,386.455L377.576,387.922C376.882,389.003 376.032,389.776 375.105,390.316C374.179,390.857 373.021,391.087 371.708,391.087C369.7,391.087 368.156,390.47 366.998,389.311C365.84,388.076 365.223,386.532 365.223,384.524C365.223,382.593 365.84,380.972 367.076,379.736C368.234,378.501 369.856,377.806 371.709,377.806C373.717,377.806 375.261,378.423 376.342,379.582C377.184,380.423 377.74,381.51 377.982,382.811C378.15,383.727 378.04,384.416 378.04,385.297Z"/>
        <path d="M275.649,421.436L278.584,403.057L283.525,403.057L281.286,417.034L287.386,417.034L286.691,421.436L275.649,421.436L275.649,421.436ZM294.413,417.342L300.128,417.342L299.433,421.436L288.853,421.436L291.788,403.057L302.367,403.057L301.672,407.305L296.035,407.305L295.572,410.317L300.822,410.317L300.204,414.255L294.875,414.255L294.413,417.342ZM300.899,421.436L306.228,421.436L308.004,417.959L314.413,417.959L315.184,421.436L320.204,421.436L316.266,403.057L310.088,403.057L300.899,421.436ZM309.856,413.867L311.787,409.697L312.173,408.847L312.637,407.458L312.714,408.462L312.868,409.542L313.718,413.866L309.856,413.866L309.856,413.867ZM322.829,415.104C323.601,415.954 324.373,416.571 325.068,416.958C325.763,417.267 326.459,417.497 327.23,417.497C327.848,417.497 328.311,417.343 328.698,417.034C329.084,416.725 329.238,416.339 329.238,415.8C329.238,415.181 328.467,414.486 326.999,413.636L326.69,413.484C325.222,412.711 324.219,412.015 323.678,411.32C323.137,410.627 322.906,409.777 322.906,408.773C322.906,406.996 323.524,405.453 324.682,404.294C325.917,403.136 327.538,402.595 329.469,402.595C330.473,402.595 331.477,402.749 332.404,403.136C333.331,403.445 334.258,403.984 335.106,404.679L332.944,408.31C332.327,407.769 331.786,407.382 331.169,407.074C330.628,406.842 330.088,406.687 329.624,406.687C329.161,406.687 328.698,406.841 328.389,407.074C328.08,407.383 327.926,407.769 327.926,408.154C327.926,408.695 328.543,409.236 329.779,409.931L330.783,410.472C332.096,411.167 332.945,411.861 333.486,412.634C334.026,413.327 334.258,414.333 334.258,415.413C334.258,417.343 333.563,418.964 332.173,420.124C330.86,421.282 329.007,421.899 326.613,421.899C325.377,421.899 324.219,421.667 323.215,421.126C322.135,420.587 321.13,419.813 320.281,418.81L322.829,415.104ZM336.033,421.436L338.968,403.057L343.988,403.057L341.053,421.436L336.033,421.436ZM376.65,411.475L385.917,411.475C385.917,413.096 385.685,414.485 385.222,415.799C384.758,417.033 384.14,418.192 383.214,419.119C381.515,420.971 379.121,421.898 376.188,421.898C373.331,421.898 371.014,421.125 369.238,419.582C367.54,417.959 366.69,415.875 366.69,413.172C366.69,411.705 366.92,410.317 367.461,409.002C368.002,407.689 368.774,406.531 369.777,405.527C370.705,404.601 371.785,403.906 373.098,403.365C374.333,402.902 375.8,402.594 377.268,402.594C379.043,402.594 380.587,402.979 381.823,403.674C383.136,404.369 384.295,405.451 385.298,406.918L381.36,409.621C380.896,408.771 380.356,408.152 379.662,407.767C379.352,407.535 378.967,407.38 378.581,407.304C378.117,407.148 377.731,407.148 377.268,407.148C375.723,407.148 374.488,407.689 373.484,408.771C372.48,409.929 371.94,411.318 371.94,413.017C371.94,414.408 372.326,415.566 373.175,416.415C373.946,417.265 374.951,417.649 376.263,417.649C376.804,417.649 377.268,417.649 377.654,417.495C378.117,417.419 378.503,417.265 378.812,417.032C379.198,416.802 379.429,416.569 379.739,416.261C379.97,415.952 380.125,415.566 380.279,415.179L376.109,415.179L376.65,411.475ZM345.068,421.436L348.003,403.057L353.562,403.057L357.5,412.092L357.654,412.555C357.885,413.018 358.04,413.483 358.195,413.868C358.349,414.333 358.426,414.718 358.504,415.104L358.504,414.639C358.504,414.485 358.504,414.254 358.504,414.022C358.581,413.79 358.581,413.635 358.581,413.559C358.658,413.096 358.658,412.864 358.658,412.788C358.658,412.71 358.735,412.477 358.735,412.093L360.202,403.058L365.067,403.058L362.21,421.437L356.805,421.437L352.636,412.093C352.404,411.398 352.172,410.857 352.018,410.472C351.864,410.007 351.709,409.544 351.555,409.081L351.555,410.626L351.4,412.093L350.01,421.437L345.068,421.437L345.068,421.436Z"/>
    </g>
</svg>
