<svg xmlns="http://www.w3.org/2000/svg" viewBox="0 0 3084.6 2384.8"><style type="text/css">
	.st0{fill:#D4EFF2;}
	.st1{fill:#75A0A0;}
	.st2{fill:#FFFFFF;}
	.st3{fill:#415F79;}
	.st4{opacity:0.34;fill:#020202;}
	.st5{fill:#EB5A49;}
	.st6{fill:#E9F0F6;}
	.st7{fill:#0E3757;}
	.st8{fill:#93A3A3;}
	.st9{fill:#BEC2C7;}
	.st10{fill:#FFEDDC;}
	.st11{fill:#282928;}
	.st12{fill:#EBFAFD;}
	.st13{fill:#F6F4F4;}
	.st14{fill:#F8F8F8;}
</style><path class="st0" d="M1109.5 1469.1c-23.4-5.9-24.7 1.2-27.4-10.6 -2.6-11.8-18.2-11.8-32.6-11.8 -14.3 0-19.5-1.2-31.3-10.6 -11.7-9.4-36.5-10.6-44.3-13 -7.8-2.3-3.9-22.4-19.5-41.2 -15.6-18.8-48.2-22.4-69-33 -20.9-10.6-14.3-51.8-44.3-48.3 -30 3.5-32.6 14.1-59.9 1.2 -27.4-13-45.6-21.2-59.9-11.8 -14.3 9.4-32.6 27.1-41.7 31.8 -9.1 4.7-24.8-3.5-33.9-2.4 -9.1 1.2-19.5-8.3-26-16.5 -6.5-8.3 11.7-49.5-5.2-49.5 -16.9 0-39.1-7.1-39.1-13 0-5.9 35.2-41.2 24.8-47.1 -10.4-5.9-31.3-2.3-49.5 20 -18.2 22.4-35.2 21.2-44.3 13 -9.1-8.2-30-56.5-13-83.6 16.9-27.1 39.3-43.1 60.2-41.9 20.8 1.2 29.2-4.7 50-5.8 20.8-1.2 40.9 7.7 46.1 14.7 5.2 7.1-5.2 18.8 7.8 33 13 14.1 20.9 8.2 22.1 14.1 1.3 5.9-10.4 11.8-15.6 11.8 -5.2 0-48.2 10.6-31.3 17.7 16.9 7.1 46.9 1.2 53.4 10.6 6.5 9.4-20.8 29.4 18.2 30.6 39.1 1.2 65.1 5.9 87.3 7.1 22.1 1.2 37.8 2.4 40.4 7.1 2.6 4.7 18.2-17.7-18.2-17.7 -36.5 0-65.1-18.9-84.7-22.4 -19.5-3.5-32.6-15.3-33.9-29.4 -1.3-14.1 1.3-24.7-6.5-36.5 -7.8-11.8-27.4-40-9.1-51.8 18.2-11.8 54.7-34.2 63.8-49.5 9.1-15.3 9.1-18.8 29.9-30.6 20.9-11.8 45.6-27.1 57.3-37.7 11.7-10.6 31.3-27.1 35.2-18.8 3.9 8.2 22.2 10.6 44.3 3.5 22.2-7.1 49.5-24.7 26.1-24.7 -23.5 0-37.8-5.9-31.3-14.1 6.5-8.2-15.6-11.8-22.1-10.6 -6.5 1.2-6.5-11.8 15.6-15.3 22.1-3.5 4.3 17.9 22.5 16.8 18.2-1.2 29.6-17.9 42.6-20.3 13-2.4 18.2 8.2 1.3 18.9 -16.9 10.6-22.1 7.1 0 11.8 22.1 4.7 28.7 15.3 41.7 4.7 13-10.6-2.6-14.1-3.9-28.3 -1.3-14.1 9.3-42.3-5-51.7 -14.3-9.4-21.1-19-21.1-28.4 0-9.4 2.6-29.4-11.7-20 -14.3 9.4-26.1 15.3-31.3 10.6 -5.2-4.7 2.6-14.1-9.1-21.2 -11.7-7.1-13-17.7-27.4-16.5 -14.3 1.2-28.7-9.4-36.5 5.9 -7.8 15.3-15.6 28.3-18.2 33 -2.6 4.7 9.1 21.2-1.3 29.4 -10.4 8.2-39.1 20-43 28.3 -3.9 8.2-19.5 29.4-23.4 15.3 -3.9-14.1 13-35.3-10.4-41.2 -23.5-5.9-41.7-1.2-45.6-14.1 -3.9-13-14.3-24.7 9.1-35.3 23.5-10.6 46.9-29.4 69-31.8 22.1-2.4 6.5 14.1 24.8 13 18.2-1.2-2.6-9.4 19.5-13 22.2-3.5 18.2-3.5 11.7-10.6 -6.5-7.1-2.6-8.2 14.3-15.3 16.9-7.1 3.9-11.8 20.8-17.7 16.9-5.9 20.8-11.8 30-11.8 9.1 0 7.8 3.5 2.6 14.1 -5.2 10.6-9.1 17.7 6.5 10.6 15.6-7.1 23.4-11.8 11.7-1.2 -11.7 10.6-19.5 10.6-36.5 13 -16.9 2.3-11.7 4.7-3.9 12.9 7.8 8.2 27.4 9.4 33.9 14.1 6.5 4.7 14.3 21.2 29.9 12.9 15.6-8.2 3.9-9.4 24.8-17.7 20.8-8.2 50.8-13 48.2-23.5 -2.6-10.6-23.4-16.5-26.1-29.4 -2.6-13 28.7-20-11.7-25.9 -40.4-5.9-16.9-10.6-36.5-10.6 -19.5 0-56 0-69 5.9 -13 5.9-20.8-3.5-27.4 5.9 -6.5 9.4 1.3 22.4-5.2 22.4 -6.5 0-18.2 9.4-23.5 0 -5.2-9.4-16.9-18.8-1.3-22.4 15.6-3.5 18.2-1.2 20.9-11.8 2.6-10.6-22.1-9.4-7.8-11.8 14.3-2.3 20.8 1.2 40.4 1.2 19.5 0 63.8 7 70.3-3.5 6.5-10.6-10.4-10.6-30-11.8 -19.5-1.2-53.4-7.1-67.7-1.2 -14.3 5.9-32.6 15.3-39.1 24.7 -6.5 9.4-6.5-2.4-19.5 0 -13 2.3-35.2 15.3-23.4 22.4 11.7 7.1 11.7 15.3-1.3 15.3 -13 0-16.9 11.8-26 11.8 -9.1 0-33.9-1.2-22.2-7.1 11.7-5.9 24.8-5.9 23.4-20 -1.3-14.1 13-18.8 13-23.6 0-4.7-31.2 10.6-56 3.5 -24.8-7.1-35.2-17.7-59.9-16.5 -24.8 1.2-57.3 30.6-41.7 33 15.6 2.3 27.4-2.4 30 4.7 2.6 7.1-2.6 13 6.5 16.5 9.1 3.5 26.1 12.9 3.9 8.2 -22.2-4.7-11.7-13-45.6-14.1 -33.9-1.2-54.7-10.6-89.9-2.4 -35.2 8.2-30 15.3-53.4 8.2 -23.4-7.1-80.1-33.6-119.2-26.6 -39.1 7.1-80.1 28.9-91.8 36 -11.7 7.1-18.1-10.8-39-9.7 -20.8 1.2-70.9-5.8-60.5 6 10.4 11.8 23.5 13 7.8 15.3 -15.6 2.4-36.5 3.5-44.3 14.1 -7.8 10.6-36.5 16.5-18.2 21.2 18.2 4.7 48.2 15.3 35.2 16.5 -13.1 1.2-79.5 24.7-108.1 30.6C-7.4 813-6 879.9 18.8 871.6c31.4-10.5 91-72.8 106.7-78.7 15.6-5.9 22.1-1.2 20.8 7.1 -1.3 8.2 18.2-3.5 33.9-14.1 15.6-10.6 19.9-35.7 32.9-28.6 13 7.1 16.6 3.9 27.1 1.5 10.4-2.4 61.7 14.2 70.9 18.9 9.1 4.7 22.1 17.7 28.6 22.5 6.5 4.7 9.1 15.3 2.6 16.5 -6.5 1.2-7.8 7.1-6.5 16.5 1.3 9.4 6.5 17.7-6.5 20 -13 2.4-10.4 16.5-2.6 15.3 7.8-1.2 13-4.7 14.3-11.8 1.3-7.1 18.2-20 15.6-10.6 -2.6 9.4-9.1 18.8-9.1 25.9 0 7.1-9.1 5.9-10.4 13 -1.3 7.1 1.3 7.1 7.8 12.9 6.5 5.9 2.6 9.4 1.3 22.4 -1.3 13-40.4 48.3-45.6 60.1 -5.2 11.8-2.6 28.3-2.6 41.2s-5.2 29.4 9.1 34.2c14.3 4.7 15.6 7.1 15.6 18.8 0 11.8 0 25.9 7.8 34.2 7.8 8.2 3.9 7.1 3.9 20 0 13 9.1 5.9 10.4 16.5 1.3 10.6-6.5 15.3 6.5 23.6 13 8.2 27.4 14.1 20.9 1.2 -6.5-13-10.4-23.6-17-42.4 -6.5-18.8-10.4-53-2.6-42.4 7.8 10.6 18.2 42.4 30 64.8 11.7 22.4 26.1 20 26.1 36.5 0 16.5-14.3 31.8 14.3 42.4 28.7 10.6 49.5 33 66.4 30.6 16.9-2.4 27.4-11.8 33.9-1.2 6.5 10.6 20.8 24.7 36.5 24.7s20.9 9.4 23.4 23.6c2.6 14.1 13 16.5 28.7 21.2 15.7 4.7 19.6 20 31.3 18.8 11.7-1.2 27.4-5.9 27.4 4.7 0 10.6 5.2 36.5-14.3 53 -19.5 16.5-28.6 28.3-18.2 38.9 10.4 10.6 1.3 21.2-3.9 29.4 -5.2 8.2 3.9 15.3 14.3 28.3 10.4 13 24.7 28.3 33.9 54.2 9.1 25.9 22.1 35.3 44.3 43.6 22.2 8.2 39.1 22.4 39.1 42.4 0 20-1.3 88.3-1.3 108.3 0 20 11.7 40.1 7.8 55.4 -3.9 15.3 0 28.3 5.2 34.1 5.2 5.9 3.9 18.9 5.2 31.8 1.3 13 16.9 3.5 16.9 15.3 0 11.8-6.5 29.4 1.3 35.3 7.8 5.9-9.1 27.1 26 47.1 35.2 20 37.8 21.2 40.4 24.7 2.6 3.5 14.3-7.1 14.3-1.2 0 5.9-19.5 40.5 17 40.5 36.5 0 58.6-12.3 36.5-27.6 -22.1-15.3-35.2-8.2-39.1-23.5 -3.9-15.3-9.1-13-11.7-23.6 -2.6-10.6 9.1-15.3 5.2-25.9 -3.9-10.6-22.7-11.7-21.4-22.3 1.3-10.6 13.5-20.1 16.1-24.8 2.6-4.7 2.6-9.4-3.9-14.1 -6.5-4.7-5.2-5.9 3.9-8.3 9.1-2.3 10.4 1.2 14.3-10.6 3.9-11.8 15.6-10.6 20.8-14.1 5.2-3.5 23.4-8.2 16.9-23.5 -6.5-15.3-23.9-24.2-9.5-24.2 14.3 0 33 0.6 42.1-15.9 9.1-16.5 5.2-20 15.6-33 10.4-13 5.7-24.2 5.7-33.6 0-9.4 0.8-18.2 15.1-24.1 14.3-5.9 61.2-13 67.8-30.6 6.5-17.7 13-36.5 10.4-55.4 -2.6-18.8-3.9-30.6 10.4-45.9 14.3-15.3 32.6-28.3 32.6-42.4C1126.4 1495 1132.9 1475 1109.5 1469.1z"/><path class="st0" d="M1353.1 672c14.3-14.1 10.4-21.2 30-28.3 19.5-7.1 14.3-16.5 11.7-30.6 -2.6-14.1 8-8.4 15.8-13.1 7.8-4.7 11.6-8.1 29.8-9.2 18.2-1.2 1.3-7.1 1.3-14.1 0-7.1-13-5.9-31.3-3.5 -18.2 2.4-15.6 0-28.7-4.7 -13-4.7-89.9-4.7-109.4-4.7 -19.5 0-54.7 3.5-73 4.7 -18.2 1.2-16.9 0-52.1-3.5 -35.2-3.5-127.7-1.2-161.5 2.3 -33.9 3.5-53.2-5.3-75.4 7.6 -22.1 12.9-32.4 7.3-57.1 9.6 -24.8 2.3-41.9-3.4-53.6-3.4 -11.7 0-10.4-5.9-31.3 1.2 -20.8 7.1-14.3 11.8-22.1 2.4 -7.8-9.4-18.2 0-54.7 8.2 -36.5 8.2 18 36.9 29.8 40.4 0 0 24.8-1.2 39.1-4.7 14.3-3.5 20.9 4.7 30 2.3 9.1-2.3 11.7-10.6 63.9-21.2 52.1-10.6 88.6-2.3 109.4 5.9 20.8 8.2 20.8 3.5 39.1-7.1 18.2-10.6 49.5-18.8 82.1-23.5 32.6-4.7 11.7 5.9-9.1 13 -20.9 7.1-39.1 4.7-35.2 16.5 3.9 11.8 44.3 8.2 56 8.2 11.7 0 13 16.5 14.3 25.9 1.3 9.4-1.3 14.1 1.3 23.6 2.6 9.4 9.1 8.2-2.6 17.7 -11.7 9.4-18.2 8.2-18.2 24.7 0 16.5 7.8 34.1 26.1 45.9 18.2 11.8 28.6 13 39.1-5.9 10.4-18.8 35.2-30.6 48.2-36.5 13-5.9 31.2 0 48.2-14.1 16.9-14.1 39.1-8.2 63.8-15.3C1341.4 681.4 1338.8 686.1 1353.1 672z"/><path class="st1" d="M1376.1 738.9c-39.1 4.7-75.6-7.1-69 11.8 6.5 18.9 9.4 54.6 30.2 48.7 35.8-10.1 68-22.6 58.8-37.9C1387 746.1 1415.2 734.1 1376.1 738.9z"/><path class="st1" d="M1627.9 648.4c1.4 0.4 2.8 0.5 4 0.9 13 4.7 22.1-2.3 23.5-11.8 14.3-18.8 9.1 15.3 24.7 9.4 15.6-5.9 37.8-20 56-28.3 18.2-8.2-22.1-4.7-54.7-9.4 -32.6-4.7-78.2 3.5-91.2 11.8C1578.1 628.7 1608.9 643.5 1627.9 648.4z"/><path class="st1" d="M1820.6 599.6c0 0-6.5 8.2 9.1 8.2 15.6 0 48.2-9.4 74.3-9.4 26.1 0 18.2-8.2 13-8.2 -5.2 0-19.5-12.9-40.4-11.8 -20.9 1.2-19.5 9.4-32.6 9.4 -13 0-10.4-3.5-37.8-2.4C1778.9 586.7 1806.3 597.3 1820.6 599.6z"/><path class="st0" d="M3046.3 667c-2.6-14.1-1-39.4-45-37.1 -78.1 4-97.8-2.1-112.2-2.1 -14.3 0-7-9.1 3.4-9.1 10.4 0 10.1-10.4-0.3-15.1 -10.4-4.7-25-1.1-28.9 9.5 -3.9 10.6 14.8 13.9-15.1 13.9 -30 0-70.6 39.6-105.8 33.7 -35.2-5.9-45.9-27.1-75.8-28.3 -30-1.2-55 26.1-86.3 26.1 -31.3 0-20.9-10.6-33.9-23.6 -13-13-19.5-9.4-58.6-9.4 -39.1 0-18.2 14.1-10.4 16.5 7.8 2.3 28.6 8.2 43 20 14.3 11.7-26.1 7.1-43 8.2 -16.9 1.2-15.6-8.2-35.1-18.8 -19.6-10.6-67.7-4.7-95.1-5.9 -27.3-1.2-28.6 0-39-17.7 -10.4-17.7-32.6-8.2-61.2-8.2 -28.7 0-44.3-13-58.6-21.2 -14.3-8.2-36.5-9.4-67.8-14.1 -31.3-4.7-14.3 17.7-2.6 18.8 0 0 13 4.7 26 5.9 13 1.2 40.4 2.4 54.7 17.7 14.3 15.3-44.3 9.4-70.3 22.4 -26.1 13-46.9 7.1-65.1 14.1 -18.3 7.1 9.1 18.9 15.6 34.2 6.5 15.3 0 15.3-11.7 18.8 -11.7 3.5 3.9-16.5-1.3-22.4 -5.2-5.9-24.7-36.5-40.4-45.9 -15.6-9.4-13 8.3-10.4 21.2 2.6 13 6.5 13 10.4 22.4 3.9 9.4-16.9 0-27.4-7.1 -10.4-7.1-44.3 9.4-59.9 2.3 -15.7-7.1 5.2-4.7 5.2-11.8 0-7-18.2-1.2-23.5-11.8 -5.2-10.6 32.6-23.5 56-27 23.4-3.6 20.8-3.6 20.8-14.2 0-10.6-41.7-7.1-76.9 8.2 -35.2 15.3-26 25.9-31.3 36.5 -5.2 10.6 11.7 11.8 19.5 17.7 7.9 5.9-9.1 8.2-24.7 13 -15.7 4.7-19.6 0-37.8 5.9 -18.2 5.9-7.8 13-23.4 18.8 -15.6 5.9-14.3 5.9-27.3 10.6 -13 4.7 2.6-17.7 20.9-20 18.2-2.4 13-11.8 7.8-15.3 -5.2-3.5-39.1-13-75.5-22.4 -36.5-9.4-95.1 3.5-114.7 11.8 -19.5 8.3-18.3 14.2-20.8 25.9 -2.6 11.8-46.9 29.5-69 40 -22.2 10.6-2.7 24.7 3.9 34.2 6.5 9.4 20.8 4.7 39.1 0 18.3-4.8 15.6 15.3 18.3 22.4 2.6 7.1 13 8.3 30 1.2 16.9-7.1 13-23.5 13-33 0-9.4-3.9-14.1 7.8-27.1 11.7-13 22.2-21.2 32.6-27 10.4-5.9 9.1 4.7-6.5 16.5 -15.6 11.8-5.2 15.3 2.6 29.4 7.8 14.2 23.4 0 43-2.3 19.6-2.3-17 15.3-31.3 15.3 -14.3 0 0 14.2-9.1 14.2 -9.1 0-10.4 5.9-11.7 20 -1.3 14.2-6.5 10.6-16.9 14.2 -10.4 3.5-26.1 4.7-43 1.2 -16.9-3.5-15.6-17.7-27.3-27.1 -11.7-9.4-14.3 4.7-14.3 10.6 0 5.9-11.7 18.8-16.9 18.8 -5.3 0-20.9 14.1-30 25.9 -9.1 11.8-15.6 4.7-18.2 0 -2.6-4.7 6.5-11.8 1.3-23.6 -5.2-11.8-26.1-21.2-19.6-48.3 6.5-27.1-7.8-13-28.6-10.6 -20.9 2.3-27.4 10.6-28.7 17.7 -1.3 7.1-13 21.2-26.1 34.2 -13 12.9-3.9 23.5 2.6 37.7 6.5 14.2 23.4-4.7 28.7-16.5 5.2-11.8 11.7-17.7 19.5-11.8 7.8 5.9-11.7 16.5-14.3 30.6 -2.6 14.1 5.2 13 23.5 8.2 18.2-4.7 9.1-8.2 23.4-2.3 14.3 5.9-13 10.6-30 11.8 -16.9 1.1-10.4 11.8 3.9 21.2 14.3 9.4 7.8 23.6-1.3 24.7 -9.1 1.2-26 3.5-52.1 8.2 -26.1 4.7-2.6 23.6-7.8 34.1 -5.2 10.6-6.5 34.2 5.2 35.3 11.7 1.2 11.7 18.8 5.2 24.7 -6.5 5.9-7.8 11.8-23.4 22.4 -15.6 10.6-3.9 20-9.1 34.1 -5.2 14.2-18.3 5.9-33.9 21.2 -15.6 15.3-22.1 27.1-33.9 44.8 -11.7 17.7-13 18.8 1.3 40.1 14.3 21.2 0 27.1-11.7 45.9 -11.7 18.8 3.9 20 9.1 36.5 5.2 16.5 15.6 13 19.6 29.5 3.9 16.5 9.1 21.2 27.3 33 18.3 11.8 36.5 28.3 45.6 24.7 9.1-3.5 23.4-13 53.4-11.8 30 1.2 19.6-11.8 50.8-16.5 31.3-4.7 4.7 6.7 8.6 15 3.9 8.2 30.5 13.3 53.9 14.5 23.4 1.2 3.9 27.1 2.6 43.6 -1.3 16.5 0 16.5 11.7 30.6 11.7 14.1 27.4 45.9 31.3 62.4 3.9 16.5-3.9 35.3-14.3 50.6 -10.4 15.3-6.5 50.6 15.6 76.6 22.1 25.9 9.1 24.7 9.1 51.8 0 27.1 15.6 22.4 27.4 37.6 11.7 15.4 6.5 43.6 16.9 58.9 10.4 15.3 28.7 1.1 49.5-5.9 20.8-7.1 30-4.7 54.7-21.2 24.7-16.4 44.3-49.4 44.3-58.9 0-9.4 7.8-13 20.9-17.6 13-4.7 10.4-35.3 9.1-43.6 -1.3-8.3 2.6-15.3 7.8-20 5.2-4.7 37.8-33 49.5-44.7 11.7-11.8 1.3-28.3-1.3-47.1 -2.6-18.8-10.4-25.9-10.4-48.3 0-22.4-7.8-20 35.2-56.5 43-36.5 83.4-94.2 87.3-107.2 3.9-13 2.6-23.6 0-33 -2.6-9.4-58.6 9.4-71.7 9.4 -13 0-46.3-25.1-48.9-34.5 -2.6-9.4-12.3-19.7-29.3-33.8 -16.9-14.1-3.9-34.2-16.9-49.5 -13-15.3-19.6-37.7-22.2-50.6 -2.6-13 19.6 9.4 36.4 27 17 17.7 39.1 50.7 45.6 62.4 6.5 11.8 11.7 29.4 13 43.6 1.3 14.1 11.7 16.5 27.4 15.3 15.6-1.2 70.3-27.1 89.9-35.4 19.6-8.2 43-32.9 52.1-56.5 9.1-23.6-19.5-20-32.6-31.8 -13-11.8-13 0-28.7 3.5 -15.6 3.5-28.7-15.3-53.4-36.5 -24.8-21.2-9.1-14.1-3.9-18.8 5.2-4.7 30 10.6 44.3 25.9 14.3 15.3 16.9 9.4 33.9 9.4 16.9 0 20.9 7.1 43 13 22.1 5.9 33.8-2.4 52.8-0.5 19 1.8 16.3 9.9 29.3 28.8 13 18.8 7.9 13 36.5 15.3 28.7 2.4 7.8 0 7.8 16.5 0 16.5 2.6 22.4 19.6 42.4 16.9 20 23.4 57.7 28.6 76.6 5.2 18.8 15.7 0 32.6 0 17 0-4.9 17.9 14.4 31.8 22.2 16 20.9-6.9 20.9-13.9 0-7.1-6.6-23.7-14.4-29.6 -7.8-5.9-18.3-4.7-9.1-14.1 9.1-9.4-10.6-15.5-10.6-28.5 0-13 5.2-30.4 11.7-36.3 6.5-5.9 38-22.4 52.3-37.7 14.3-15.3 26.1-17.6 45.6-16.5 19.5 1.2 3.9 3.5 15.6 17.7 11.7 14.2 14.3 34.2 27.3 48.3 13 14.1 14.3-2.4 24.7-7.1 10.4-4.7 3.9 14.1 11.7 28.3 7.8 14.1 2.6 33 2.6 45.9s17 25.9 27.4 37.7c10.4 11.8 6.5 17.7 0 22.4 -6.5 4.7-19.6-11.8-30-21.2 -10.4-9.4-26-3.5-15.6 7.1 10.4 10.6 16.9 29.4 28.6 49.4 11.7 20 36.5 43.6 53.4 64.8 16.9 21.2 71.6 30.6 92.5 30.6 20.8 0 62.5 16.5 83.4 18.9 20.8 2.3 36.5 0 50.8-7.1 14.4-7.1 7.9-15.3 6.6-18.9 -1.3-3.5-11.7 3.5-26.1 5.9 -14.3 2.3-18.2 2.3-36.5 3.5 -18.2 1.2-6.5-5.9-26-7.1 -19.5-1.2-39.1-4.7-61.2-11.8 -22.1-7.1-33.9-13-49.5-17.7 -15.7-4.7-1.3-13-2.6-33 -1.3-20-15.6-11.8-27.4-18.9 -11.7-7-7.8-22.4-2.6-17.6 5.2 4.7 6.5 10.6 6.5-14.2 0-24.7-24.7-41.2-40.4-62.4 -15.7-21.2-13.1-33-11.7-43.6 1.3-10.6 28.7 9.4 43 24.8 14.3 15.3 14.3 15.3 22.2 11.8 7.8-3.5 31.3-15.3 36.4-34.2 5.3-18.8-41.7-56.5-48.2-74.2 -6.5-17.7 9.1-7.1 16.9-18.8 7.9-11.8 17 4.7 11.7 13 -5.2 8.3 1.3 13 6.5 21.2 5.2 8.2 5.2 0 10.4-10.6 5.2-10.6 1.3-14.1 10.4-21.2 9.1-7.1 44.3-16.5 53.4-24.8 9.1-8.2 15.6-17.7 27.3-47.1 11.7-29.5-1.3-28.2-6.5-38.9 -5.2-10.6-20.8-28.3-30-38.9 -9.1-10.6-1.3-8.2 5.2-11.8 6.5-3.5 1.3-11.8-14.3-16.5 -15.6-4.7-13 4.7-27.3 2.4 -14.4-2.4-6.5-11.8 9.1-28.3 15.6-16.5 7.8 3.5 18.2 10.6 10.4 7.1 13-5.9 20.9-2.3 7.8 3.5 23.4 10.6 35.2 24.7 11.7 14.1 11.6 34.6 23.3 33.4 11.7-1.2 11.8-9.9 17.1-20.5 5.2-10.6-11.9-21.2-21-29.4 -9.1-8.3-20.6-7.1-12.8-14.1 7.8-7.1 1.3-17.7 5.2-25.9 3.9-8.3 18.3-3.5 32.6-9.4 14.3-5.9 15.6-25.9 15.6-47.1 0-21.2-11.7-30.6-18.2-37.7 -6.5-7.1 7.8-3.5 19.6 4.7 11.7 8.3 30 53 33.9 70.7 3.9 17.7 1.3 17.7 16.9 33 15.6 15.3 10.4 13 5.2 30.6 -5.2 17.7-18.2 22.4-37.8 27.1 -19.6 4.7-13 8.3-24.7 25.9 -11.7 17.7 6.5 18.8 16.9 23.6 10.4 4.7 11.7-14.8 24.7-23 13-8.3 31.3-12.3 53.4-12.3 22.2 0-6.5-27.1-7.8-41.2 -1.3-14.1-2.6-23.5-7.9-34.1 -5.2-10.6 5.2-10.6 20.9-17.7 15.6-7.1 14.4-21.2 5.2-21.2 -9.1 0-16.9 5.9-37.8 4.7 -20.9-1.2-15.6-16.5-20.9-22.4 -5.2-5.9-11.7-18.8-13-29.4 -1.3-10.6-19.6-24.7-32.6-35.3 -13-10.6-20.9-17.6-20.9-13 0 4.7-7.8-1.2-26.1-2.4 -18.2-1.2-22.1 2.4-37.7 1.2 -15.6-1.2 1.3-24.7 7.8-41.2 6.6-16.5 24.8-7.1 39.1-7.1 14.3 0 64.7-56.3 85.5-51.5 20.9 4.7 11.7-11.8 15.7-24.7 3.9-13 13-5.9 24.7-1.2 11.7 4.7 15.6 5.9 15.6-4.7 0-10.6 10.4-13 19.5-3.5 4.6 4.7 3.7 12.5 1.7 19 -3.8 12.3-5 25.4-3 38.1 1.9 12.3 5.6 25 12.4 28.4 14.3 7.1 8.5 46.3 25.5 56.9 16.9 10.6 11.9-17.8 11.9-37.8 0-20-8.1-53.9-19.8-72.8 -11.7-18.9-3.9-10.6 18.2-10.6 22.2 0 23.5-7.1 28.7-13 5.2-5.9 9.1-7.1 28.6-7.1s7.9-7.1-1.3-16.5c-9.1-9.4-27.3-7.1-20.8-13 6.5-5.9 41.7 3.6 58.7 9.4C3052.8 685.9 3048.9 681.2 3046.3 667zM1831.3 1059c-7.8 14.2-11.7 23.6-23.4 20 -11.7-3.5-50.8-2.4-70.4-8.3 -19.6-5.9-48.2-16.5-53.4-3.5 -5.2 12.9 13 23.5-19.6 12.9 -32.6-10.6-67.7-23.5-71.6-33 -3.9-9.4 13-35.3-10.4-35.3 -23.4 0-56-1.2-66.4 5.9 -10.4 7.1-50.8 20-63.9 16.5 -11.8-3.2-29.9-7.1-9.1-15.3 20.9-8.3 45.6-3.5 48.2-15.3 2.6-11.8-18.3-14.1 2.6-24.7 20.8-10.6 13-20 27.4-25.9 14.3-5.9 33.9-4.7 44.3-8.2 10.4-3.5-3.9-7.1 17 3.5 20.8 10.6 33.9 30.7 44.3 31.8 10.4 1.1 17 8.2 10.4 12.9 -6.5 4.7-17 8.3-20.9 8.3 -3.9 0-6.5 9.4-2.6 10.6 3.9 1.2 13 16.5 19.5 11.8 6.5-4.7-2.3-12.4 9.4-15.9 11.7-3.5 25.8-7.6 20.6-14.7 -5.2-7.1-10.4-15.3 0-10.6 10.4 4.7 22.7 3.9 10.9-6.7 -11.7-10.6-18.8-12.1-33.1-21.6 -14.3-9.4-29.9-14.1-29.9-21.2 0-7.1-9.1-20 5.2-15.3 14.3 4.7 63.8 29.5 63.8 38.9 0 9.4 13 25.9 1.3 34.1 -11.7 8.3 11.8 10.6 16.9 15.3 5.2 4.7 2.7 17.7 17 15.3 14.3-2.3 24.8-1.2 16.9-14.1 -7.8-13-20.8-18.8-7.8-23.5 13-4.7 15.6-10.6 19.5 9.4 3.9 20-1.3 27.1 30 28.3 31.3 1.2 52.1-7.1 56 1.2C1833.9 1030.7 1839.1 1044.8 1831.3 1059zM1882.1 970.6c-20.8-1.2-51.7 0.1-68.7 0.1 -16.9 0-33.9 4.1-33.9 4.1 -14.3-2.3-42-3-25.1-23 17-20 6.5-45.9 27.4-38.8 20.8 7 21.7 32.2 34.7 15.6 13-16.5 27.7-33.3 31.7-20.3 3.9 13-18.3 23.6 9.1 34.1C1884.7 953 1903 971.8 1882.1 970.6zM2010.4 1020.6c-19.5 0-45.9-10-45.9-19.4 0-9.4-2.1-21.4-2.1-21.4 -6.6-26.5-26.9-29.1-26.9-44.4 0-15.3 15.7-27.3 36.6-27.3 20.8 0 47.1 0.3 31.5 16.8 -15.6 16.5-45.8 15-25 40.9C1999.5 991.8 2029.9 1020.6 2010.4 1020.6z"/><path class="st1" d="M2721.2 1185.6c10.3 2.6 13.2-35.7-5.8-30.4C2696.3 1160.5 2709.2 1182.5 2721.2 1185.6z"/><path class="st0" d="M2744.8 1300.6c8.8 5.3 10.3 14.6 8.8 29.1 -1.5 14.6-16.1 13.2 8.8 22.5 24.9 9.3 54.2 25.1 46.8-4 -7.3-29.1-1.5-33.1-27.8-55.6 -26.3-22.5-27.8-7.9-30.7-26.5 -2.9-18.5-10.3-52.9-20.5-39.7 -9 11.7-16.1 15.9-5.8 35.7C2734.5 1282 2736 1295.3 2744.8 1300.6z"/><path class="st0" d="M2689.2 1346.9c-8.9 10.3-26.4 33.1-38.1 41 -11.7 8-32.2-2.6-30.7 15.9 1.5 18.5 2.9 26.5 4.4 39.7 1.5 13.2 4.4 21.2 26.4 21.2 22 0 32.2 6.6 39.5 4 7.3-2.7 5.9-14.6 14.6-30.4 8.8-15.9 23.4-11.9 17.6-23.8 -5.9-11.9-5.9-9.3-5.9-21.2 0-11.9 7.3-4 2.9-23.8C2715.5 1349.5 2699.4 1335 2689.2 1346.9z"/><path class="st0" d="M2998 1470c-19-18.5-51.2-31.8-64.4-30.4 -13.2 1.3-24.9 19.8-32.2 13.2 -7.3-6.6-29.3-38.4-41-29.1 -11.7 9.3 1.5 19.9-13.2 19.9s-19 15.9-22-5.3c-2.9-21.2-14.6-31.8-17.6-15.9 -2.9 15.9-4.4 26.5-11.7 14.6 -7.3-11.9-11.7-4-11.7-15.9 0-11.9-29.3-25.2-41-11.9 -7.3 8.3-10.3 9.2-13.2 27.8 -2.9 18.5-10.3 47.6 5.8 39.7 16.1-7.9 19-1.3 26.4-10.6 7.3-9.3 16.1-14.6 29.3-9.3 13.2 5.3 7.3 5.3 30.7 2.7 23.4-2.7 35.1-2.7 51.2 6.6 16.1 9.3 48.3 4 48.3 13.2 0 9.3-33.7 15.9 0 25.1 33.7 9.3 41 30.4 51.2 19.9 10.2-10.6 24.9-25.2 35.1-14.6 10.2 10.6 49.8 39.7 42.5 23.8 -7.3-15.9-5.9-30.4 17.6-47.6 23.4-17.2 17.6-25.1 7.3-25.1 -10.2 0-10.2 11.9-33.7 14.6C3018.5 1477.9 3017.1 1488.5 2998 1470z"/><path class="st0" d="M3008.3 1640.7c-13.2-30.4-13.2-54.3-20.5-67.5 -7.3-13.2-1.5-29.1-23.4-29.1 -8.9 0-8.8 5.3-16.1 22.5 -7.3 17.2 1.5 49-17.6 45 -19-4-27.8-11.9-32.2-29.1 -4.4-17.2 5.9-33.1-8.8-33.1 -14.6 0-55.6-9.3-65.9 5.3 -10.3 14.6 2.9 19.9-19 19.9 -22 0-30.7 0-42.5 13.2 -11.7 13.2-27.8 50.3-90.8 53 -63 2.7-30.7 33.1-30.7 66.2 0 33.1-33.7 52.9-19 64.9 14.6 11.9-4.4 27.8 26.3 18.5 30.7-9.3 58.6-11.9 106.9-18.5 48.3-6.6 70.3-9.3 71.7 11.9 1.5 21.2-5.9 6.6 13.2 10.6 19 4-1.5 31.8 20.5 34.4 21.9 2.6 3.7 21.5 22.7 21.5 19 0 14 14-2.1 14 -16.1 0-16.6 37.5 6.8 26.9 23.4-10.6 41.4-20.1 41.4-36 0-15.9-2.9-17.2 24.9-37.1 27.8-19.8 92.2-67.5 87.8-105.9C3037.6 1673.8 3021.5 1671.1 3008.3 1640.7z"/><path class="st2" d="M1567.9 2236.7h-0.3v-6h0.3c8.8 0 17.8-0.1 26.6-0.3l0.1 6C1585.7 2236.6 1576.7 2236.7 1567.9 2236.7zM1540.5 2236.4c-9-0.2-18.1-0.6-27-1l0.3-6c8.9 0.5 18 0.8 26.9 1L1540.5 2236.4zM1621.7 2235.4l-0.3-6c8.9-0.4 18-1 26.9-1.7l0.5 6C1639.7 2234.3 1630.6 2234.9 1621.7 2235.4zM1486.4 2233.6c-9-0.7-18-1.5-27-2.4l0.6-6c8.9 0.9 17.9 1.7 26.8 2.4L1486.4 2233.6zM1675.6 2231.3l-0.6-6c8.9-0.9 17.9-1.9 26.7-3.1l0.8 6C1693.6 2229.3 1684.6 2230.4 1675.6 2231.3zM1432.5 2228.1c-8.9-1.1-17.9-2.4-26.8-3.8l0.9-5.9c8.8 1.4 17.8 2.6 26.7 3.8L1432.5 2228.1zM1729.3 2224.4l-0.9-5.9c8.8-1.4 17.8-2.9 26.5-4.4l1.1 5.9C1747.2 2221.5 1738.2 2223 1729.3 2224.4zM1379 2219.8c-8.8-1.6-17.8-3.3-26.6-5.2l1.2-5.9c8.7 1.8 17.6 3.5 26.4 5.1L1379 2219.8zM1782.6 2214.8l-1.2-5.9c8.8-1.8 17.6-3.8 26.3-5.8l1.4 5.8C1800.3 2211 1791.4 2212.9 1782.6 2214.8zM1326 2208.8c-8.7-2.1-17.6-4.3-26.3-6.5l1.5-5.8c8.7 2.3 17.4 4.5 26.1 6.5L1326 2208.8zM1835.3 2202.4l-1.5-5.8c8.6-2.3 17.4-4.7 25.9-7.2l1.7 5.8C1852.8 2197.7 1844 2200.1 1835.3 2202.4zM1273.7 2195c-8.6-2.5-17.3-5.2-25.9-7.9l1.8-5.7c8.5 2.7 17.2 5.4 25.7 7.9L1273.7 2195zM1887.3 2187.3l-1.8-5.7c8.5-2.7 17.1-5.6 25.5-8.5l2 5.7C1904.5 2181.7 1895.8 2184.6 1887.3 2187.3zM1222 2178.5c-8.5-3-17.1-6.1-25.5-9.3l2.1-5.6c8.4 3.2 16.9 6.3 25.4 9.2L1222 2178.5zM1938.4 2169.5l-2.1-5.6c8.3-3.1 16.8-6.4 25.1-9.8l2.3 5.6C1955.3 2163 1946.8 2166.4 1938.4 2169.5zM1171.2 2159.3c-8.3-3.4-16.8-7-25-10.6l2.4-5.5c8.2 3.6 16.6 7.1 24.9 10.5L1171.2 2159.3zM1988.5 2149.2l-2.4-5.5c8.1-3.6 16.4-7.3 24.4-11.1l2.5 5.4C2005 2141.8 1996.7 2145.6 1988.5 2149.2zM1121.5 2137.5c-8.2-3.8-16.4-7.8-24.4-11.9l2.7-5.4c8 4 16.2 8 24.3 11.8L1121.5 2137.5zM2037.4 2126.3l-2.7-5.4c8-4 16-8.1 23.9-12.3l2.8 5.3C2053.5 2118.1 2045.4 2122.3 2037.4 2126.3zM1073 2113.2c-7.9-4.2-15.9-8.6-23.7-13.1l3-5.2c7.8 4.4 15.7 8.8 23.6 13L1073 2113.2zM2085 2100.9l-3-5.2c7.8-4.4 15.6-8.9 23.2-13.5l3.1 5.1C2100.7 2091.9 2092.8 2096.5 2085 2100.9zM1025.9 2086.4c-7.7-4.6-15.4-9.5-23-14.3l3.2-5.1c7.5 4.8 15.2 9.6 22.9 14.2L1025.9 2086.4zM2131.4 2073.1l-3.2-5.1c7.5-4.8 15.1-9.7 22.5-14.7l3.3 5C2146.5 2063.3 2138.9 2068.2 2131.4 2073.1zM980.2 2057.2c-7.5-5-14.9-10.2-22.3-15.5l3.5-4.9c7.3 5.2 14.7 10.4 22.1 15.4L980.2 2057.2zM2176.2 2042.9l-3.5-4.9c7.3-5.2 14.6-10.5 21.7-15.9l3.6 4.8C2190.9 2032.3 2183.5 2037.7 2176.2 2042.9zM936.1 2025.7c-7.2-5.4-14.4-11-21.4-16.6l3.7-4.7c7 5.6 14.2 11.1 21.3 16.5L936.1 2025.7zM2219.5 2010.4l-3.7-4.7c7-5.5 14-11.2 20.9-17l3.8 4.6C2233.6 1999.1 2226.5 2004.8 2219.5 2010.4zM893.7 1992c-6.9-5.8-13.8-11.7-20.5-17.6l4-4.5c6.7 5.9 13.6 11.8 20.4 17.5L893.7 1992zM2261 1975.8l-4-4.5c6.7-5.9 13.4-12 20-18l4.1 4.4C2274.5 1963.8 2267.8 1969.8 2261 1975.8zM853 1956.2c-6.6-6.1-13.2-12.4-19.6-18.7l4.2-4.3c6.4 6.3 13 12.5 19.5 18.6L853 1956.2zM2300.7 1939l-4.2-4.3c6.4-6.2 12.8-12.6 19-19l4.3 4.2C2313.6 1926.3 2307.2 1932.8 2300.7 1939zM814.3 1918.4c-6.2-6.4-12.5-13-18.6-19.6l4.4-4.1c6.1 6.6 12.3 13.1 18.5 19.5L814.3 1918.4zM2338.6 1900.3l-4.4-4.1c6.1-6.5 12.2-13.3 18.1-20l4.5 4C2350.8 1887 2344.7 1893.7 2338.6 1900.3zM777.6 1878.6c-5.9-6.7-11.8-13.7-17.6-20.6l4.6-3.8c5.7 6.9 11.6 13.7 17.5 20.4L777.6 1878.6zM2374.4 1859.7l-4.6-3.8c5.7-6.9 11.5-13.9 17-20.9l4.7 3.7C2385.9 1845.7 2380.1 1852.8 2374.4 1859.7zM743 1837.1c-5.6-7-11.1-14.2-16.5-21.4l4.8-3.6c5.3 7.1 10.9 14.3 16.4 21.3L743 1837.1zM2408 1817.2l-4.8-3.6c5.4-7.1 10.7-14.4 15.9-21.7l4.9 3.5C2418.8 1802.7 2413.4 1810.1 2408 1817.2zM710.5 1793.8c-5.2-7.3-10.4-14.8-15.4-22.2l5-3.3c5 7.4 10.1 14.9 15.3 22.1L710.5 1793.8zM2439.5 1773.1l-5-3.4c5-7.4 10-15 14.8-22.5l5.1 3.2C2449.5 1758.1 2444.5 1765.7 2439.5 1773.1zM680.4 1749c-4.8-7.6-9.6-15.3-14.2-23l5.1-3.1c4.6 7.6 9.3 15.3 14.1 22.9L680.4 1749zM2468.7 1727.4l-5.1-3.1c4.6-7.7 9.2-15.5 13.6-23.3l5.2 3C2477.9 1711.8 2473.3 1719.7 2468.7 1727.4zM652.5 1702.6c-4.4-7.8-8.8-15.8-13-23.7l5.3-2.8c4.2 7.9 8.5 15.8 12.9 23.5L652.5 1702.6zM2495.5 1680.3l-5.3-2.8c4.2-7.9 8.4-15.9 12.4-24l5.4 2.7C2503.9 1664.3 2499.7 1672.4 2495.5 1680.3zM627.2 1655c-4-8-8-16.2-11.8-24.3l5.4-2.5c3.8 8.1 7.7 16.2 11.7 24.2L627.2 1655zM2519.8 1631.8l-5.4-2.5c3.8-8.1 7.6-16.4 11.1-24.6l5.5 2.4C2527.4 1615.3 2523.6 1623.6 2519.8 1631.8zM604.3 1606.1c-3.6-8.2-7.1-16.6-10.5-24.9l5.6-2.3c3.4 8.3 6.9 16.6 10.4 24.7L604.3 1606.1zM2541.6 1582.1l-5.6-2.3c3.4-8.3 6.7-16.8 9.9-25.1l5.6 2.1C2548.3 1565.2 2545 1573.7 2541.6 1582.1zM583.9 1556c-3.2-8.4-6.3-17-9.2-25.5l5.7-2c2.9 8.4 6 17 9.2 25.3L583.9 1556zM2560.7 1531.3l-5.7-2c2.9-8.5 5.8-17.1 8.5-25.6l5.7 1.8C2566.6 1514.1 2563.7 1522.7 2560.7 1531.3zM566.2 1504.9c-2.7-8.6-5.4-17.3-7.9-25.9l5.8-1.7c2.5 8.6 5.1 17.2 7.8 25.8L566.2 1504.9zM2577.2 1479.6l-5.8-1.7c2.5-8.6 4.9-17.3 7.2-25.9l5.8 1.5C2582.2 1462.2 2579.7 1470.9 2577.2 1479.6zM551.1 1452.9c-2.3-8.7-4.5-17.5-6.5-26.3l5.8-1.4c2 8.7 4.2 17.5 6.5 26.1L551.1 1452.9zM2591 1427.2l-5.8-1.4c2-8.7 4-17.5 5.8-26.3l5.9 1.2C2595 1409.6 2593 1418.5 2591 1427.2zM538.7 1400.1c-1.8-8.8-3.6-17.7-5.2-26.6l5.9-1.1c1.6 8.8 3.3 17.7 5.1 26.4L538.7 1400.1zM2602 1374.2l-5.9-1.1c1.6-8.8 3.1-17.7 4.5-26.5l5.9 0.9C2605.1 1356.4 2603.6 1365.4 2602 1374.2zM529.1 1346.9c-1.4-8.9-2.6-17.9-3.8-26.8l6-0.8c1.1 8.9 2.4 17.8 3.8 26.7L529.1 1346.9zM2610.3 1320.7l-6-0.8c1.1-8.9 2.2-17.9 3.1-26.7l6 0.6C2612.5 1302.8 2611.4 1311.8 2610.3 1320.7zM522.3 1293.2c-0.9-8.9-1.7-18-2.4-27l6-0.5c0.7 8.9 1.5 17.9 2.4 26.8L522.3 1293.2zM2615.8 1266.9l-6-0.5c0.7-8.9 1.3-17.9 1.7-26.9l6 0.3C2617 1248.8 2616.5 1257.9 2615.8 1266.9zM518.2 1239.2c-0.4-9-0.8-18.1-1-27.1l6-0.1c0.2 8.9 0.6 18 1 26.9L518.2 1239.2zM2618.5 1212.8l-6-0.2c0.2-8.9 0.3-18 0.3-26.9h6C2618.9 1194.7 2618.7 1203.8 2618.5 1212.8zM522.9 1185.1l-6 0c0-9 0.1-18.1 0.4-27.1l6 0.2C523 1167.1 522.9 1176.1 522.9 1185.1zM2612.6 1160.1c-0.2-8.9-0.5-18-1-26.9l6-0.3c0.4 9 0.8 18.1 1 27.1L2612.6 1160.1zM524.3 1131.3l-6-0.3c0.5-9 1-18.1 1.7-27l6 0.5C525.3 1113.3 524.7 1122.3 524.3 1131.3zM2609.9 1106.3c-0.7-8.9-1.5-18-2.4-26.8l6-0.6c0.9 8.9 1.7 18 2.4 27L2609.9 1106.3zM528.4 1077.6l-6-0.6c0.9-8.9 2-18 3.1-26.9l6 0.8C530.3 1059.7 529.3 1068.7 528.4 1077.6zM2604.5 1052.8c-1.1-8.8-2.4-17.8-3.7-26.7l5.9-0.9c1.4 8.9 2.6 17.9 3.8 26.8L2604.5 1052.8zM535.3 1024.2l-5.9-0.9c1.4-8.9 2.9-17.9 4.5-26.7l5.9 1.1C538.1 1006.4 536.6 1015.4 535.3 1024.2zM2596.3 999.6c-1.6-8.8-3.3-17.7-5.1-26.4l5.9-1.2c1.8 8.8 3.5 17.7 5.1 26.6L2596.3 999.6zM544.9 971.2L539 970c1.8-8.8 3.8-17.7 5.9-26.4l5.8 1.4C548.7 953.7 546.7 962.5 544.9 971.2zM2585.4 946.9c-2-8.7-4.2-17.5-6.5-26.1l5.8-1.5c2.3 8.7 4.5 17.5 6.5 26.3L2585.4 946.9zM557.2 918.9l-5.8-1.5c2.3-8.7 4.7-17.5 7.2-26.1l5.8 1.7C561.9 901.5 559.5 910.2 557.2 918.9zM2571.8 894.8c-2.5-8.6-5.1-17.2-7.8-25.8l5.7-1.8c2.7 8.6 5.4 17.3 7.9 25.9L2571.8 894.8zM572.3 867.2l-5.7-1.8c2.7-8.6 5.6-17.3 8.6-25.8l5.7 2C577.9 850 575 858.6 572.3 867.2zM2555.5 843.5c-2.9-8.4-6-16.9-9.1-25.3l5.6-2.1c3.2 8.4 6.3 17 9.2 25.5L2555.5 843.5zM590.1 816.2l-5.6-2.1c3.2-8.4 6.5-16.9 9.9-25.3l5.6 2.3C596.6 799.3 593.2 807.8 590.1 816.2zM2536.6 793.1c-3.3-8.2-6.8-16.6-10.4-24.7l5.5-2.4c3.6 8.2 7.1 16.6 10.5 24.9L2536.6 793.1zM610.5 766.2l-5.5-2.4c3.6-8.2 7.4-16.6 11.2-24.7l5.4 2.6C617.8 749.7 614.1 758 610.5 766.2zM2515.1 743.9c-3.8-8.1-7.7-16.2-11.7-24.2l5.4-2.7c4 8 7.9 16.2 11.7 24.3L2515.1 743.9zM633.4 717.4l-5.4-2.7c4-8.1 8.2-16.2 12.5-24.1l5.3 2.8C641.6 701.3 637.5 709.4 633.4 717.4zM2491.2 695.9c-4.2-7.9-8.5-15.8-12.9-23.5l5.2-3c4.4 7.8 8.8 15.8 13 23.7L2491.2 695.9zM658.9 669.8l-5.2-3c4.4-7.8 9.1-15.7 13.7-23.4l5.1 3.1C667.9 654.2 663.3 662 658.9 669.8zM2464.8 649.1c-4.6-7.6-9.3-15.3-14.1-22.9l5.1-3.2c4.8 7.6 9.6 15.3 14.2 23L2464.8 649.1zM686.7 623.7l-5.1-3.2c4.8-7.6 9.9-15.2 14.9-22.6l5 3.4C696.5 608.5 691.6 616.1 686.7 623.7zM2435.9 603.8c-5-7.4-10.1-14.8-15.3-22.1l4.9-3.5c5.2 7.3 10.4 14.8 15.4 22.2L2435.9 603.8zM716.9 579l-4.9-3.5c5.2-7.3 10.6-14.7 16-21.8l4.8 3.6C727.5 564.4 722.1 571.7 716.9 579zM2404.8 559.9c-5.3-7.1-10.9-14.3-16.4-21.3l4.7-3.7c5.6 7 11.1 14.3 16.5 21.4L2404.8 559.9zM749.3 536l-4.7-3.7c5.6-7 11.4-14.1 17.1-21l4.6 3.9C760.6 522 754.9 529 749.3 536zM2371.5 517.7c-5.7-6.9-11.6-13.7-17.5-20.5l4.5-4c5.9 6.7 11.8 13.7 17.6 20.6L2371.5 517.7zM783.9 494.7l-4.5-4c5.9-6.7 12.1-13.5 18.2-20.1l4.4 4.1C795.9 481.3 789.8 488 783.9 494.7zM2336 477.3c-6-6.6-12.3-13.1-18.5-19.5l4.3-4.2c6.3 6.4 12.5 13.1 18.6 19.7L2336 477.3zM820.6 455.3l-4.3-4.2c6.3-6.4 12.7-12.9 19.2-19.1l4.2 4.3C833.2 442.5 826.8 448.9 820.6 455.3zM2298.6 438.7c-6.4-6.2-12.9-12.5-19.5-18.6l4.1-4.4c6.6 6.1 13.2 12.4 19.6 18.7L2298.6 438.7zM859.2 417.8l-4.1-4.4c6.6-6.1 13.4-12.2 20.1-18.1l4 4.5C872.5 405.6 865.7 411.7 859.2 417.8zM2259.1 402c-6.7-5.9-13.6-11.8-20.4-17.6l3.9-4.6c6.9 5.8 13.8 11.7 20.5 17.7L2259.1 402zM899.6 382.3l-3.8-4.6c6.9-5.8 14-11.5 21-17l3.7 4.7C913.5 370.9 906.5 376.6 899.6 382.3zM2217.8 367.4c-7-5.6-14.1-11.1-21.3-16.5l3.6-4.8c7.2 5.4 14.4 11 21.4 16.6L2217.8 367.4zM941.8 348.9l-3.6-4.8c7.2-5.4 14.5-10.7 21.8-15.9l3.5 4.9C956.3 338.3 948.9 343.6 941.8 348.9zM2174.8 335c-7.3-5.2-14.7-10.4-22.1-15.4l3.4-5c7.5 5 14.9 10.3 22.2 15.5L2174.8 335zM985.6 317.8l-3.3-5c7.4-5 15.1-10 22.6-14.8l3.2 5.1C1000.6 307.9 993 312.8 985.6 317.8zM2130.2 304.8c-7.5-4.8-15.2-9.6-22.9-14.2l3.1-5.1c7.7 4.7 15.5 9.5 23 14.3L2130.2 304.8zM1031 289l-3.1-5.1c7.7-4.6 15.5-9.2 23.3-13.6l3 5.2C1046.4 279.9 1038.6 284.4 1031 289zM2084.1 276.9c-7.8-4.4-15.7-8.8-23.6-13l2.8-5.3c7.9 4.2 15.9 8.7 23.7 13.1L2084.1 276.9zM1077.7 262.6l-2.8-5.3c7.9-4.2 16-8.4 24-12.4l2.7 5.4C1093.6 254.2 1085.6 258.4 1077.7 262.6zM2036.5 251.5c-8-4-16.2-8-24.3-11.8l2.6-5.4c8.1 3.8 16.4 7.8 24.4 11.9L2036.5 251.5zM1125.8 238.6l-2.5-5.4c8.1-3.8 16.4-7.5 24.6-11.1l2.4 5.5C1142.1 231.1 1133.8 234.8 1125.8 238.6zM1987.7 228.5c-8.2-3.6-16.6-7.1-24.8-10.5l2.3-5.6c8.3 3.4 16.8 7 25 10.6L1987.7 228.5zM1174.9 217.1l-2.3-5.6c8.3-3.4 16.8-6.7 25.2-9.9l2.1 5.6C1191.6 210.5 1183.2 213.8 1174.9 217.1zM1937.7 208.1c-8.4-3.2-16.9-6.3-25.4-9.2l2-5.7c8.5 3 17.1 6.1 25.5 9.3L1937.7 208.1zM1225.3 198.2l-2-5.7c8.5-2.9 17.1-5.8 25.7-8.5l1.8 5.7C1242.4 192.4 1233.8 195.2 1225.3 198.2zM1886.7 190.3c-8.5-2.7-17.2-5.4-25.7-7.9l1.7-5.8c8.6 2.5 17.3 5.2 25.9 7.9L1886.7 190.3zM1276.6 181.9l-1.7-5.8c8.6-2.5 17.4-4.9 26.1-7.2l1.5 5.8C1293.9 177 1285.2 179.4 1276.6 181.9zM1835 175.2c-8.6-2.3-17.4-4.5-26.1-6.5l1.4-5.8c8.8 2.1 17.6 4.3 26.3 6.6L1835 175.2zM1328.7 168.2l-1.4-5.8c8.7-2 17.6-4 26.4-5.8l1.2 5.9C1346.2 164.2 1337.4 166.2 1328.7 168.2zM1782.7 162.8c-8.7-1.8-17.6-3.6-26.4-5.2l1.1-5.9c8.8 1.6 17.8 3.4 26.6 5.2L1782.7 162.8zM1381.4 157.3l-1.1-5.9c8.8-1.6 17.8-3.1 26.7-4.5l0.9 5.9C1399.1 154.2 1390.2 155.7 1381.4 157.3zM1729.7 153.2c-8.8-1.4-17.8-2.6-26.6-3.8l0.8-6c8.9 1.2 17.9 2.4 26.8 3.8L1729.7 153.2zM1434.6 149.1l-0.8-6c8.9-1.1 18-2.2 26.9-3.1l0.6 6C1452.5 147 1443.5 148 1434.6 149.1zM1676.3 146.3c-8.9-0.9-17.9-1.7-26.8-2.4l0.5-6c9 0.7 18 1.5 27 2.4L1676.3 146.3zM1488.2 143.7l-0.5-6c9-0.7 18-1.2 27-1.7l0.3 6C1506.1 142.5 1497.1 143.1 1488.2 143.7zM1622.7 142.1c-8.9-0.5-18-0.8-26.9-1l0.2-6c9 0.2 18.1 0.6 27 1.1L1622.7 142.1zM1541.9 141l-0.1-6c8.6-0.2 17.4-0.3 26.1-0.3l1 0 0 6 -1 0C1559.2 140.7 1550.5 140.8 1541.9 141z"/><path class="st3" d="M1702.7 2384.8h-162.7c-11.9 0-21.6-9.7-21.6-21.6v-320.3c0-11.9 9.7-21.6 21.6-21.6h162.7c11.9 0 21.6 9.7 21.6 21.6v320.3C1724.3 2375.2 1714.6 2384.8 1702.7 2384.8z"/><path class="st4" d="M1724.4 2042.9v320.3c0 11.9-9.7 21.6-21.7 21.6h-22.2l-73.8-363.4 96 0C1714.6 2021.4 1724.4 2031 1724.4 2042.9z"/><rect x="1524.3" y="2061" class="st2" width="194.2" height="283"/><path class="st2" d="M1648.6 2044.8h-54.1c-1.7 0-3.1-1.4-3.1-3.1l0 0c0-1.7 1.4-3.1 3.1-3.1h54.1c1.7 0 3.1 1.4 3.1 3.1l0 0C1651.6 2043.5 1650.3 2044.8 1648.6 2044.8z"/><path class="st2" d="M1642.3 2372.3h-41.9c-2.3 0-4.2-1.9-4.2-4.2v-6.9c0-2.3 1.9-4.2 4.2-4.2h41.9c2.3 0 4.2 1.9 4.2 4.2v6.9C1646.6 2370.4 1644.7 2372.3 1642.3 2372.3z"/><path class="st2" d="M1279.2 2158.5c0 32.9-20.1 61-48.6 73 -6.4 3.9-13.9 6.1-21.9 6.1H971.9c-2 0-3.9-0.1-5.8-0.4 -17.2-1.7-32.8-9-45-20 0 0 0 0 0 0 -16-14.5-26.1-35.4-26.1-58.6 0-39.9 29.5-72.8 67.9-78.2 5.7-31.2 33.1-54.8 65.9-54.8 11 0 21.3 2.6 30.4 7.3 17.4-21.5 44.1-35.3 73.9-35.3 16 0 31 3.9 44.2 10.9 0 0 0 0 0 0 0 0 0 0 0 0 23.7 12.5 41.5 34.7 48 61.4 0 0.2 0.1 0.4 0.1 0.5 13.6 1.6 24.2 13 24.6 27 7.9 6.4 14.5 14.4 19.4 23.4C1275.7 2131.8 1279.2 2144.7 1279.2 2158.5z"/><path class="st5" d="M1279.2 2158.5c0 32.9-20.1 61-48.6 73 -6.4 3.9-13.9 6.1-21.9 6.1H971.9c-2 0-3.9-0.1-5.8-0.4 -17.2-1.7-32.8-9-45-20 0.9 0.5 56 29.6 93.6-24.3 0 0 13.5-15.4 6.9-33.7 0 0 61.8 16.2 65.5-39.4 0 0 55.4 50.9 99.8-10 0 0 29.3-43-9.5-101.4 0 0 0 0 0 0 1 0.5 39.2 19.1 48 61.4 3.6 17.1 2.3 38-8 63.2 0 0-5 27.5-52.5 49.2 0 0 4.4 58.7 74.4 25.4 0 0 55.6-26.7 29.8-86.7l0.5-0.2C1275.7 2131.8 1279.2 2144.7 1279.2 2158.5z"/><path class="st6" d="M1289 1214.3c-2.8 0.7-58.7 56.8-145.3 79.4l49.7-116.6L1289 1214.3z"/><path class="st2" d="M1067.1 1282.4l76.6-109.8c0 0 6.4-8.2 16-15.8 10-7.9 22.5-11.9 35.2-11.4l167.8 6.6 -67 62.1 -83.5-7.3c0 0-11.3-0.9-19.3 22.4l-25.9 59.7c-9.1 21-3.9 45.6 13.2 60.7 3.1 2.7 6.5 5.1 10.2 6.8l-99.5 60.9 -27.4-71.4C1063.4 1345.9 1047.7 1310.8 1067.1 1282.4z"/><path class="st7" d="M1906.1 1546.7h-669.5c-15 0-27.2-12.2-27.2-27.2v-1015c0-15 12.2-27.2 27.2-27.2h669.5c15 0 27.2 12.2 27.2 27.2v1015C1933.2 1534.6 1921.1 1546.7 1906.1 1546.7z"/><rect x="1235.6" y="557.9" class="st3" width="670.3" height="943.6"/><rect x="1416" y="484.8" class="st8" width="292.9" height="62.7"/><path class="st2" d="M1719 521.8c7.6 0 13.8 6.2 13.8 13.8v34.5c0 7.6-6.2 13.8-13.8 13.8h-312.9c-7.6 0-13.8-6.2-13.8-13.8v-34.5c0-7.6 6.2-13.8 13.8-13.8H1719M1719 513h-312.9c-12.5 0-22.6 10.2-22.6 22.6v34.5c0 12.5 10.2 22.6 22.6 22.6H1719c12.5 0 22.6-10.2 22.6-22.6v-34.5C1741.6 523.1 1731.5 513 1719 513L1719 513z"/><rect x="1408.6" y="507.1" class="st2" width="307.1" height="18.7"/><rect x="1408.6" y="516.2" class="st9" width="307.1" height="9.7"/><path class="st2" d="M1442.1 1250.9v98.2h-98.2v-98.2H1442.1M1458.6 1234.3h-16.6 -98.2 -16.6v16.6 98.2 16.6h16.6 98.2 16.6v-16.6 -98.2V1234.3L1458.6 1234.3z"/><path class="st5" d="M1435.8 885l-10-10.3c-1-1-2.5-1-3.5-0.1l-39.9 38.8 -20.6-20.4c-1-1-2.5-1-3.5-0.1l-10.3 10c-1 1-1 2.5-0.1 3.5l32.6 32.3c1 1 2.5 1 3.5 0.1l7.4-7.2c0 0 0 0 0 0l1.1-1.1 1.8-1.7c0 0 0 0 0-0.1l41.4-40.2C1436.7 887.5 1436.8 885.9 1435.8 885z"/><rect x="1522.7" y="871.5" class="st2" width="320" height="6.8"/><rect x="1522.7" y="1266.2" class="st2" width="320" height="9.6"/><rect x="1522.7" y="1299.6" class="st2" width="320" height="9.9"/><rect x="1522.7" y="1334.1" class="st2" width="320" height="8.4"/><rect x="1522.7" y="905" class="st2" width="320" height="7.2"/><rect x="1522.7" y="938.2" class="st2" width="320" height="8"/><rect x="1522.7" y="1069.8" class="st2" width="320" height="8.4"/><rect x="1522.7" y="1103.4" class="st2" width="320" height="8.4"/><rect x="1522.7" y="1136.4" class="st2" width="320" height="9.7"/><path class="st2" d="M1246.7 1332.2c6.2-6.3 28.8-33.2 39.1-62.5l22.1-59.7c0 0 8.3-19.7 30.2-21 1-0.1 2 0 3 0.1 5.8 0.9 25.6 5.1 34.6 23.9 1 2.1 1.5 4.4 1.5 6.7 -0.1 5.2-1.5 16-9 34.7l-58.7 163c0 0-16.7 40.4-35.8 64.5 -0.3 0.4-0.6 0.8-0.8 1.1 -2.5 3.9-17.1 25.9-26.6 35 -1.5 1.5-2.8 3.3-3.6 5.3l-9.9 24.2c-0.2 0.4-0.6 0.6-1 0.4l-128.9-52.3 5.8-14.2c1.4-3.4 1.5-7.2 0.3-10.7l-18.2-53.5 92.6-56.6c2.1-1.3 4.8-3 6.9-4.3C1192 1355.4 1204.7 1375.2 1246.7 1332.2z"/><path class="st10" d="M1350.8 1250.8l-32.4-13.9c-2.8-1.2-4-4.4-2.8-7.1l7.9-17.5c0 0 7.1-13.5 25.8-8.2 0 0 15.5 5.1 16.6 21 0 0 0 6.4-5.7 17.2l-2.4 5.7C1356.7 1250.7 1353.5 1251.9 1350.8 1250.8z"/><path class="st6" d="M1659.4 1018.8c5.2 1 123 99.8 286.8 129.4l-124.2-216L1659.4 1018.8z"/><path class="st2" d="M1960.9 1019.4l-89.2-99.9c0 0-7.3-7.3-17.7-13.7 -10.9-6.6-23.7-9.1-36.3-7.1l-165.8 26.7 74 53.6 82-17.3c0 0 11.1-2.2 21.9 19.9l32.9 56.2c11.5 19.7 9.4 44.8-5.8 61.9 -2.7 3.1-5.8 5.8-9.3 8l106.1 48.5 18.7-74.1C1972.2 1082.1 1983.6 1045.3 1960.9 1019.4z"/><polygon class="st3" points="2270.7 1725.3 2033.1 1725.3 1812.6 1326.7 1912.3 1271 1994.3 1224.5 "/><polygon class="st7" points="2160 1725.3 2032.9 1725.3 1813.3 1327.6 1909.8 1272.2 "/><polygon class="st3" points="1263.1 1557.2 1160.9 1810.8 936.3 1810.8 1070.4 1479 1165.6 1518.7 1263.1 1557.2 "/><polygon class="st7" points="1263.1 1557.2 1160.7 1810.8 1040.7 1810.8 1158.7 1518.7 "/><path class="st2" d="M1442.1 854.8V953h-98.2v-98.2H1442.1M1458.6 838.3h-16.6 -98.2 -16.6v16.6V953v16.6h16.6 98.2 16.6V953v-98.2V838.3L1458.6 838.3z"/><path class="st2" d="M1435.8 1084l-10-10.3c-1-1-2.5-1-3.5-0.1l-39.9 38.8 -20.6-20.4c-1-1-2.5-1-3.5-0.1l-10.3 10c-1 1-1 2.5-0.1 3.5l32.6 32.3c1 1 2.5 1 3.5 0.1l7.4-7.2c0 0 0 0 0 0l1.1-1.1 1.8-1.7c0 0 0 0 0-0.1l41.4-40.2C1436.7 1086.5 1436.8 1085 1435.8 1084z"/><path class="st2" d="M1442.1 1053.8v98.2h-98.2v-98.2H1442.1M1458.6 1037.3h-16.6 -98.2 -16.6v16.6 98.2 16.6h16.6 98.2 16.6v-16.6 -98.2V1037.3L1458.6 1037.3z"/><path class="st2" d="M1643 920.9c0 0-70.1-8.3-71.7-5.5 -1.6 2.8 49.3 57.7 49.3 57.7l16.8-21.5L1643 920.9z"/><path class="st11" d="M1598.2 916.8c0 0-26.7-3.2-27.3-1.7 -0.7 2 17 21.3 17 21.3L1598.2 916.8z"/><path class="st5" d="M1642.7 920.8l305.2 131.9 -22.1 50.8L1620.5 973c0 0-2.8-8.4 4.8-9.9 0 0-4.6-7.3 4.8-10.1 0 0-4.3-7 4.7-11.7 0 0-4.3-6.9 3.6-9.8C1638.3 931.5 1634.5 926.5 1642.7 920.8z"/><path class="st2" d="M1788.5 1090.4c-6.9-5.5-32.6-29.5-46.3-57.4l-29.1-56.6c0 0-10.6-18.6-32.5-17.2 -1 0.1-2 0.2-3 0.5 -5.6 1.5-24.8 8.1-31.5 27.8 -0.7 2.2-1 4.6-0.7 6.9 0.7 5.2 3.4 15.7 13.1 33.4l77.9 154.8c0 0 21.4 38.1 43.3 59.8 0.3 0.3 0.7 0.7 1 1 3 3.5 20 23.6 30.6 31.5 1.7 1.3 3.1 2.9 4.2 4.8l12.7 22.8c0.2 0.4 0.7 0.5 1.1 0.3l121.7-67.3 -7.4-13.4c-1.8-3.2-2.3-7-1.6-10.6l11.6-55.3 -98.7-45.1c-2.3-1-5.1-2.4-7.4-3.4C1845.7 1106.8 1835.5 1128.1 1788.5 1090.4z"/><path class="st2" d="M1675.5 1022l30.5-17.6c2.6-1.5 3.5-4.9 1.9-7.4l-10-16.5c0 0-8.7-12.6-26.6-5 0 0-14.7 6.9-13.9 22.8 0 0 0.8 6.4 7.7 16.4l3.1 5.4C1669.6 1022.6 1672.9 1023.5 1675.5 1022z"/><path class="st7" d="M1981.3 1066.8l-42.8-18.3 -21.8 51 42.8 18.3c15.4 6.6 32.9 0.5 38.9-13.5l0 0C2004.4 1090.2 1996.7 1073.4 1981.3 1066.8z"/><rect x="1059.5" y="1516" transform="matrix(0.9299 0.3679 -0.3679 0.9299 642.6754 -321.3174)" class="st2" width="209.2" height="17.8"/><rect x="1795.6" y="1260.9" transform="matrix(0.8741 -0.4858 0.4858 0.8741 -377.5611 1083.0382)" class="st2" width="209.3" height="17.8"/><path class="st3" d="M717.7 1282.8H473.5l-36 32.1 2.6-32.1h-17.3c-7.4 0-13.5-6-13.5-13.5v-176.8c0-7.4 6-13.5 13.5-13.5h294.9c7.4 0 13.5 6 13.5 13.5v176.8C731.2 1276.7 725.1 1282.8 717.7 1282.8z"/><path class="st6" d="M610.1 1342.3h198.2l29.2 25.7 -2.1-25.7h14c6 0 10.9-4.8 10.9-10.8v-141.4c0-5.9-4.9-10.8-10.9-10.8H610.1c-6 0-10.9 4.8-10.9 10.8v141.4C599.2 1337.5 604.1 1342.3 610.1 1342.3z"/><path class="st2" d="M599 1331.2c0 5.9 4.9 10.8 10.9 10.8h198.2l29.2 25.7 -2.1-25.7h14c6 0 10.9-4.8 10.9-10.8v-68.6H599V1331.2z"/><circle class="st7" cx="683.3" cy="1262.8" r="12.1"/><circle class="st7" cx="730.2" cy="1262.8" r="12.1"/><circle class="st7" cx="774.3" cy="1262.8" r="12.1"/><polygon class="st7" points="607.2 535.5 776.8 381.5 946.4 534.1 945 744.1 611.7 744.1 "/><rect x="637.2" y="456.9" class="st2" width="281.6" height="273.8"/><polygon class="st7" points="607.2 775.2 946.4 775.2 826.5 662.5 727.8 662.5 "/><polygon class="st5" points="607.5 775.1 607.5 541.9 728 662.5 "/><polygon class="st5" points="946.6 775.1 946.6 541.9 826.5 662.5 "/><circle class="st2" cx="1342.1" cy="148.4" r="148.4"/><circle class="st3" cx="2444.3" cy="589.4" r="162.8"/><path class="st7" d="M1418.5 141.9c-1 0.6-2 1.1-3.1 1.4 -1.2 0.3-1.5 2.3-0.5 3.2 1.7 1.6 2.6 3.5 3 5.8 0.7 4-0.8 7.3-3.8 9.9 -1.2 1.1-2.6 1.9-4.1 2.6 -1.6 0.7-1.9 2.8-0.6 3.9 3 2.5 3.8 6.1 2.3 9.9 -1.3 3.1-3.3 5.5-6.2 7.2 -0.4 0.2-0.8 0.4-1.2 0.5 -1 0.3-1.5 0.8-1.6 1.9 -0.1 0.8 0.2 1.5 0.8 2 1.6 1.4 2.8 3.1 3 5.3 0.2 1.7-0.1 3.2-0.8 4.7 -1.1 2.3-2.7 4.1-4.6 5.7 -0.9 0.8-3.2 1.9-5 2.7 -1 0.4-4 1.1-4.9 1.2 -43.7 8.9-74.5-2.6-78.4-4 -0.8-0.3-3.5-2.1-4.3-2.1 -0.1 0-1-0.2-1-0.3v-65.5c1.6-1.1 3.3-2.3 4.9-3.4 0.2-0.1 0.3-0.2 0.4-0.4 0.1-0.1 0.1-0.1 0.1-0.2 8.7-10.9 14.3-22.5 20.7-34.9 4.3-8.3 5.4-25.9 5.4-32.5 0-2.7 2-7 7.2-7 1.3 0 4.1 0.1 5.7 0.7 2 0.7 3.6 3.3 5.3 6.6 2.3 4.5 3.7 9.3 5.1 14.2 0.5 1.8 0.9 3.7 1.2 5.5 0.2 1.4 0.2 2.8 0.1 4.1 -0.1 1.6-0.2 3.2-0.4 4.7 -0.3 3.1-0.7 6.2-1.3 9.2 -0.6 3.3-1.2 6.6-1.9 9.9 0 0 0 0.1 0 0.1 0 0.2 0 0.5-0.1 0.8 -1.1 4.2 3.2 6.7 5.8 7.8 0.7 0.3 3.5 0.6 4.2 0.6 14 0 37.4-0.1 40.3-0.1 1.9 0 3.8 0 5.7 0.1 3.1 0.2 6.5 2.2 7.5 6.3C1424.7 134.6 1422.6 139.4 1418.5 141.9z"/><path class="st7" d="M1309.6 207.5c0 3.4-2.7 6.1-6.1 6.1H1281c-3.4 0-6.1-2.7-6.1-6.1v-74.9c0-3.4 2.7-6.1 6.1-6.1h22.5c3.4 0 6.1 2.7 6.1 6.1V207.5z"/><path class="st12" d="M2433.5 560.5l-0.1-56.5h65v168.1H2377V560.5L2433.5 560.5zM2368.5 557.6v114.6 8.6h8.6 121.4 8.6v-8.6V504v-8.6h-8.6 -67.3L2368.5 557.6z"/><rect x="2389.3" y="579.9" transform="matrix(-1 -1.224647e-16 1.224647e-16 -1 4872.3906 1167.3802)" class="st12" width="93.9" height="7.5"/><rect x="2389.3" y="609.7" transform="matrix(-1 -1.224647e-16 1.224647e-16 -1 4872.3906 1226.8344)" class="st12" width="93.9" height="7.5"/><rect x="2389.3" y="639.5" transform="matrix(-1 -1.224647e-16 1.224647e-16 -1 4872.3906 1286.5612)" class="st12" width="93.9" height="7.5"/><path class="st5" d="M2698.5 1177.1l-15.3-12c5.5-11.3 7.9-21.3 9.1-32.1l0.3-0.2 19.4-2.4c4.3-0.5 7.4-4.5 6.9-8.8l-4-33.6c-0.5-4.3-4.4-7.4-8.7-6.9l-20.5 1.3c-3.9-10.5-6-17.3-17.4-29.5l0.1-0.1 13.4-14.2c2.7-3.4 2.1-7.7-1.3-10.4l-26.3-20.6c-3.4-2.7-6.4-1.1-9.1 2.3l-11.9 15.4c-11.3-5.5-21.6-8.1-32.4-9.3l-0.4-0.4 -2.5-19.5c-0.5-4.3-4.5-7.4-8.8-6.9l-33.6 4c-4.3 0.5-7.4 4.4-6.9 8.7l1.4 20.4c-10.5 3.9-17.2 5.9-29.5 17.3l-0.1-0.1 -14.7-12.7c-3.4-2.7-6.5-2.5-9.2 0.9l-20.8 26.4c-2.7 3.4-2.6 7.2 0.8 9.9l15.3 12c-5.5 11.3-7.6 21-8.8 31.8l-0.1 0.1 -19.3 2.4c-4.3 0.5-7.4 4.4-6.9 8.7l4 33.6c0.5 4.3 4.4 7.4 8.7 6.8l20-1.8c3.9 10.5 8.7 19.5 16.9 29.1l-0.1 0.1 -12 15.3c-2.7 3.4-3.7 7.5-0.3 10.2l26.6 20.9c3.4 2.7 8.8 2 11.4-1.4l11.1-16c11.3 5.5 20.5 7.2 30.6 7.9l0 0 3.2 20c0.5 4.3 4.9 7.7 9.1 7.2l33.8-3.8c4.3-0.5 7.5-4.3 7-8.6l-1.6-20c10.5-3.9 17-5.6 29.2-16.9l0.1 0.1 14.8 12.7c3.4 2.7 8.7 3.3 11.4-0.1l20.8-26.4C2704.2 1184.3 2701.9 1179.8 2698.5 1177.1zM2544.7 1143.3c-0.2-0.5-0.5-0.9-0.7-1.4 -0.7-1.4-1.3-2.9-1.9-4.3 -0.3-0.7-0.5-1.5-0.8-2.2s-0.5-1.5-0.7-2.2c-0.1-0.4-0.2-0.8-0.3-1.1 -0.5-2.2-0.9-4.4-1.1-6.7 -0.2-2.2-0.3-4.5-0.2-6.8 0-0.9 0.1-1.8 0.2-2.7 0.3-2.7 0.7-5.4 1.4-8 1.7-6.2 4.6-12.1 8.8-17.5 8.8-11.2 21.6-17.5 34.8-18.5 1.2-0.1 2.3-0.1 3.5-0.1 0.4 0 0.8 0 1.2 0 0.8 0 1.6 0.1 2.3 0.1 2.3 0.2 4.7 0.5 7 1 0.8 0.2 1.5 0.4 2.3 0.6 6.1 1.7 12 4.6 17.3 8.7 6.3 4.9 11 11.1 14.1 17.9 0.3 0.7 0.6 1.4 0.9 2.2 0.4 1.1 0.8 2.2 1.2 3.3 0.2 0.7 0.5 1.5 0.7 2.2 0.1 0.4 0.2 0.8 0.3 1.1 0.2 0.8 0.4 1.5 0.5 2.3 0.2 1.1 0.4 2.3 0.5 3.5 0.1 0.8 0.2 1.5 0.2 2.3 0.1 1.9 0.2 3.9 0.1 5.8 0 0.8-0.1 1.6-0.2 2.3 -0.1 0.8-0.2 1.6-0.3 2.3 -0.2 1.2-0.4 2.3-0.6 3.5 -1.5 6.9-4.6 13.6-9.3 19.6 -2.6 3.3-5.5 6.2-8.7 8.6 -0.6 0.5-1.3 1-1.9 1.4 -1 0.7-2 1.3-3 1.9 -0.7 0.4-1.4 0.8-2.1 1.1 -0.5 0.2-0.9 0.5-1.4 0.7 -0.9 0.5-1.9 0.9-2.9 1.3 -0.7 0.3-1.5 0.6-2.2 0.8 -0.6 0.2-1.2 0.4-1.8 0.6 -0.5 0.2-1.1 0.3-1.6 0.5 -0.4 0.1-0.8 0.2-1.1 0.3 -0.8 0.2-1.5 0.4-2.3 0.5 -0.4 0.1-0.8 0.1-1.2 0.2 -0.8 0.1-1.5 0.2-2.3 0.3 -0.4 0-0.8 0.1-1.2 0.1 -1.6 0.1-3.1 0.2-4.7 0.2 -0.4 0-0.8 0-1.2 0 -0.8 0-1.6-0.1-2.3-0.1 -0.8-0.1-1.6-0.1-2.3-0.2 -0.4 0-0.8-0.1-1.2-0.2 -0.8-0.1-1.6-0.2-2.3-0.4 -7.3-1.4-14.5-4.6-20.7-9.5 -5.1-4-9.1-8.7-12.1-14C2545.3 1144.2 2545 1143.8 2544.7 1143.3z"/><path class="st7" d="M2590.1 989.1c3.9 0 7.4 3 7.9 7l2.5 19.5 0.4 0.4c10.8 1.2 21.1 3.8 32.4 9.3l11.9-15.4c1.7-2.2 3.6-3.7 5.7-3.7 1.1 0 2.2 0.4 3.4 1.3l26.3 20.6c3.4 2.7 3.9 7 1.3 10.4l-13.4 14.2 -0.1 0.1c11.4 12.2 13.5 19.1 17.4 29.5l20.5-1.3c0.3 0 0.6-0.1 0.9-0.1 3.9 0 7.3 2.9 7.8 6.9l4 33.6c0.5 4.3-2.6 8.3-6.9 8.8l-19.4 2.4 -0.3 0.2c-1.2 10.8-3.6 20.9-9.1 32.1l15.3 12c3.4 2.7 5.7 7.2 3 10.6l-20.8 26.4c-1.3 1.6-3.2 2.3-5.2 2.3 -2.2 0-4.5-0.8-6.2-2.2l-14.8-12.7 -0.1-0.1c-12.3 11.3-18.8 13-29.2 16.9l1.6 20c0.5 4.3-2.7 8.1-7 8.6l-33.8 3.8c-0.3 0-0.6 0.1-0.9 0.1 -4 0-7.8-3.3-8.3-7.3l-3.2-20 0 0c-10.2-0.7-19.4-2.4-30.6-7.9l-11.1 16c-1.6 2-4.1 3.1-6.5 3.1 -1.7 0-3.5-0.5-4.9-1.6l-26.6-20.9c-3.4-2.7-2.4-6.8 0.3-10.2l12-15.3 0.1-0.1c-8.2-9.6-13-18.6-16.9-29.1l-20 1.8c-0.3 0-0.6 0.1-0.9 0.1 -3.9 0-7.3-2.9-7.8-6.9l-4-33.6c-0.5-4.3 2.6-8.2 6.9-8.7l19.3-2.4 0.1-0.1c1.2-10.8 3.3-20.5 8.8-31.8l-15.3-12c-3.4-2.7-3.5-6.5-0.8-9.9l20.8-26.4c1.4-1.8 3-2.7 4.7-2.7 1.4 0 2.9 0.6 4.5 1.9l14.7 12.7 0.1 0.1c12.2-11.4 19-13.4 29.5-17.3l-1.4-20.4c-0.5-4.3 2.6-8.2 6.9-8.7l33.6-4C2589.5 989.2 2589.8 989.1 2590.1 989.1M2587.8 1071.7C2587.8 1071.7 2587.8 1071.7 2587.8 1071.7c-1.2 0-2.3 0-3.5 0.1 -13.2 0.9-26 7.2-34.8 18.5 -4.2 5.4-7.1 11.3-8.8 17.5 -0.7 2.6-1.2 5.3-1.4 8 -0.1 0.9-0.1 1.8-0.2 2.7 -0.1 2.3 0 4.5 0.2 6.8 0.2 2.2 0.6 4.5 1.1 6.7 0.1 0.4 0.2 0.8 0.3 1.1 0.2 0.8 0.4 1.5 0.7 2.2 0.2 0.7 0.5 1.5 0.8 2.2 0.6 1.5 1.2 2.9 1.9 4.3 0.2 0.5 0.5 0.9 0.7 1.4 0.3 0.5 0.5 1 0.8 1.5 3 5.3 7.1 10 12.1 14 6.3 4.9 13.4 8.1 20.7 9.5 0.8 0.2 1.5 0.3 2.3 0.4 0.4 0.1 0.8 0.1 1.2 0.2 0.8 0.1 1.6 0.2 2.3 0.2 0.8 0.1 1.6 0.1 2.3 0.1 0.4 0 0.8 0 1.2 0 0 0 0 0 0 0 1.6 0 3.1-0.1 4.7-0.2 0.4 0 0.8-0.1 1.2-0.1 0.8-0.1 1.5-0.2 2.3-0.3 0.4-0.1 0.8-0.1 1.2-0.2 0.8-0.1 1.5-0.3 2.3-0.5 0.4-0.1 0.8-0.2 1.1-0.3 0.5-0.1 1.1-0.3 1.6-0.5 0.6-0.2 1.2-0.4 1.8-0.6 0.7-0.3 1.5-0.5 2.2-0.8 1-0.4 1.9-0.8 2.9-1.3 0.5-0.2 0.9-0.5 1.4-0.7 0.7-0.4 1.4-0.7 2.1-1.1 1-0.6 2-1.2 3-1.9 0.7-0.5 1.3-0.9 1.9-1.4 3.2-2.4 6.1-5.3 8.7-8.6 4.7-5.9 7.7-12.6 9.3-19.6 0.3-1.2 0.5-2.3 0.6-3.5 0.1-0.8 0.2-1.6 0.3-2.3 0.1-0.8 0.1-1.6 0.2-2.3 0.1-2 0.1-3.9-0.1-5.8 -0.1-0.8-0.1-1.6-0.2-2.3 -0.1-1.2-0.3-2.3-0.5-3.5 -0.1-0.8-0.3-1.5-0.5-2.3 -0.1-0.4-0.2-0.8-0.3-1.1 -0.2-0.8-0.4-1.5-0.7-2.2 -0.4-1.1-0.8-2.2-1.2-3.3 -0.3-0.7-0.6-1.4-0.9-2.2 -3.1-6.8-7.9-13-14.1-17.9 -5.3-4.2-11.2-7-17.3-8.7 -0.8-0.2-1.5-0.4-2.3-0.6 -2.3-0.5-4.6-0.8-7-1 -0.8-0.1-1.6-0.1-2.3-0.1C2588.6 1071.7 2588.2 1071.7 2587.8 1071.7 2587.8 1071.7 2587.8 1071.7 2587.8 1071.7M2590.1 982.1c-0.6 0-1.2 0-1.8 0.1l-33.6 4c-8.1 1-13.9 8.2-13 16.3l1 15c-7.2 2.7-13.5 5.5-22.2 12.7l-10.2-8.8 -0.1-0.1 -0.1-0.1c-2.8-2.2-5.8-3.4-8.8-3.4 -2.7 0-6.7 0.9-10.2 5.4l-20.8 26.4c-2.4 3.1-3.6 6.5-3.4 10 0.2 3.8 2.1 7.2 5.3 9.7l11 8.6c-3.7 8.7-5.4 16.6-6.4 23.5l-14.1 1.7c-8.1 1-13.9 8.4-13 16.5l4 33.6c0.9 7.5 7.2 13.1 14.7 13.1 0.5 0 1.1 0 1.6-0.1l14.7-1.3c3.4 8.2 7.4 15 12.5 21.7l-8.6 11c-5.5 7-5.2 15.3 0.9 20l26.6 20.9c2.6 2 5.8 3.1 9.2 3.1 4.7 0 9.2-2.1 12-5.7l0.1-0.2 0.1-0.2 7.8-11.3c8.3 3.4 15.5 4.9 22.1 5.6l2.3 14.6c1 7.5 7.6 13.3 15.2 13.3 0.6 0 1.1 0 1.7-0.1l33.8-3.8c3.9-0.5 7.4-2.4 9.9-5.4 2.5-3.1 3.6-6.9 3.2-10.8l-1.2-14.6c7.1-2.6 13.3-5.3 21.9-12.4l10.2 8.8 0.1 0.1 0.1 0.1c3 2.4 6.8 3.7 10.5 3.7 4.4 0 8.2-1.8 10.7-5l20.8-26.4c2.7-3.4 3.4-7.9 1.9-12.2 -1.1-3-3.2-5.9-6.1-8.2l-11-8.6c3.2-7.6 5.4-15.3 6.7-24l14.3-1.8c3.9-0.5 7.4-2.5 9.9-5.6 2.5-3.1 3.6-7 3.1-11l-4-33.6c-0.9-7.5-7.2-13.1-14.7-13.1 -0.5 0-1 0-1.6 0.1l-15.1 1c-2.7-7.1-5.5-13.5-12.6-22l9-9.6 0.2-0.2 0.2-0.2c2.5-3.1 3.5-6.9 3.1-10.6 -0.5-3.7-2.4-7.1-5.5-9.6l-26.3-20.6c-3-2.3-5.9-2.8-7.7-2.8 -4.1 0-7.9 2.1-11.2 6.3l-8.6 11c-7.8-3.3-15.7-5.5-24.3-6.9l-1.8-14.4C2604 987.8 2597.7 982.1 2590.1 982.1L2590.1 982.1C2590.1 982.1 2590.1 982.1 2590.1 982.1L2590.1 982.1zM2587.7 1162.1c-0.3 0-0.7 0-1 0 -0.7 0-1.3 0-2-0.1 -0.7 0-1.3-0.1-2-0.2 -0.3 0-0.7-0.1-1-0.1 -0.7-0.1-1.3-0.2-2-0.3 -6.5-1.3-12.5-4-17.7-8.2 -4.2-3.3-7.7-7.4-10.4-12 -0.2-0.4-0.5-0.8-0.7-1.2 -0.2-0.4-0.4-0.8-0.6-1.2 -0.6-1.2-1.1-2.4-1.6-3.7 -0.2-0.6-0.5-1.3-0.7-1.9 -0.2-0.6-0.4-1.3-0.6-1.9 -0.1-0.3-0.2-0.6-0.2-1 -0.5-1.9-0.8-3.8-1-5.7 -0.2-1.9-0.3-3.9-0.2-5.8 0-0.8 0.1-1.5 0.2-2.3 0.2-2.3 0.6-4.6 1.2-6.9 1.5-5.5 4-10.5 7.5-15 7.3-9.2 18.1-15 29.8-15.8 1-0.1 2-0.1 3-0.1 0.4 0 0.7 0 1 0 0.7 0 1.3 0 2 0.1 2 0.1 4 0.4 6 0.9 0.7 0.1 1.3 0.3 2 0.5 5.4 1.5 10.4 4 14.8 7.5 5.3 4.1 9.3 9.3 12.1 15.3 0.3 0.6 0.6 1.2 0.8 1.9 0.4 0.9 0.7 1.9 1 2.8 0.2 0.6 0.4 1.3 0.6 1.9 0.1 0.3 0.2 0.6 0.2 1 0.2 0.6 0.3 1.3 0.4 2 0.2 1 0.3 2 0.5 3 0.1 0.7 0.1 1.3 0.2 2 0.1 1.7 0.1 3.3 0.1 5 0 0.7-0.1 1.3-0.1 2 -0.1 0.7-0.1 1.3-0.2 2 -0.1 1-0.3 2-0.5 3 -1.4 6.1-4 11.8-7.9 16.8 -2.2 2.8-4.7 5.3-7.5 7.4 -0.5 0.4-1.1 0.8-1.7 1.2 -0.8 0.6-1.7 1.1-2.6 1.6 -0.6 0.3-1.2 0.7-1.8 1 -0.4 0.2-0.8 0.4-1.2 0.6 -0.8 0.4-1.7 0.8-2.5 1.1 -0.6 0.2-1.3 0.5-1.9 0.7 -0.5 0.2-1 0.3-1.5 0.5 -0.5 0.1-0.9 0.3-1.4 0.4 -0.3 0.1-0.7 0.2-1 0.2 -0.6 0.2-1.3 0.3-2 0.4 -0.3 0.1-0.7 0.1-1 0.2 -0.7 0.1-1.3 0.2-2 0.3 -0.3 0-0.7 0.1-1 0.1C2590.4 1162.1 2589.1 1162.1 2587.7 1162.1L2587.7 1162.1 2587.7 1162.1z"/><path class="st7" d="M2462.3 1222.6l-8.6-3.7c1.2-5.9 1-10.9 0.2-16.1l0.1-0.1 8.7-3.5c1.9-0.8 2.9-3 2.1-4.9l-6-15.1c-0.8-1.9-3-2.9-4.9-2.1l-9.4 3.2c-3.1-4.4-4.9-7.3-11.7-11.6l0 0 4.5-8.3c0.8-1.9 0-3.9-1.9-4.7l-14.8-6.3c-1.9-0.8-3.1 0.3-3.9 2.2l-3.6 8.6c-5.9-1.2-11-1.1-16.2-0.3l-0.2-0.1 -3.6-8.7c-0.8-1.9-3-2.9-4.9-2.1l-15.2 6c-1.9 0.8-2.9 3-2.1 4.9l3.2 9.3c-4.4 3.1-7.3 4.9-11.6 11.7l0 0 -8.4-4.1c-1.9-0.8-3.4-0.4-4.2 1.5l-6.4 14.9c-0.8 1.9-0.3 3.7 1.6 4.5l8.6 3.7c-1.2 5.9-0.9 10.7-0.2 15.9l-0.1 0.1 -8.7 3.5c-1.9 0.8-2.9 3-2.1 4.9l6 15.1c0.8 1.9 3 2.9 4.9 2.1l9.1-3.3c3.1 4.4 6.5 8 11.5 11.4l0 0 -3.7 8.6c-0.8 1.9-0.8 4 1.1 4.8l15 6.4c1.9 0.8 4.3-0.2 5.1-2.1l3.2-8.8c5.9 1.2 10.4 0.8 15.2-0.1l0 0 4 8.9c0.8 1.9 3.2 3 5.1 2.2l15.3-6c1.9-0.8 2.9-2.9 2.2-4.9l-3.2-9.1c4.4-3.1 7.2-4.7 11.5-11.5l0 0 8.4 4.1c1.9 0.8 4.5 0.4 5.3-1.5l6.4-14.9C2465.8 1225.2 2464.2 1223.4 2462.3 1222.6zM2386.6 1225.9c-0.2-0.2-0.3-0.4-0.5-0.6 -0.5-0.6-1-1.2-1.4-1.8 -0.2-0.3-0.4-0.6-0.6-0.9 -0.2-0.3-0.4-0.6-0.6-1 -0.1-0.2-0.2-0.3-0.3-0.5 -0.5-1-1-1.9-1.4-3 -0.4-1-0.7-2.1-0.9-3.1 -0.1-0.4-0.2-0.9-0.3-1.3 -0.2-1.3-0.3-2.6-0.3-3.9 0-3.1 0.6-6.2 1.9-9.2 2.7-6.3 7.9-10.8 13.9-12.9 0.5-0.2 1.1-0.3 1.6-0.5 0.2 0 0.4-0.1 0.5-0.1 0.4-0.1 0.7-0.2 1.1-0.2 1.1-0.2 2.2-0.3 3.4-0.4 0.4 0 0.8 0 1.1 0 3 0 6.1 0.6 9.1 1.9 3.5 1.5 6.5 3.8 8.8 6.6 0.2 0.3 0.5 0.6 0.7 0.9 0.3 0.5 0.7 0.9 1 1.4 0.2 0.3 0.4 0.6 0.6 1 0.1 0.2 0.2 0.3 0.3 0.5 0.2 0.3 0.4 0.7 0.5 1 0.2 0.5 0.5 1 0.7 1.5 0.1 0.3 0.3 0.7 0.4 1.1 0.3 0.9 0.6 1.8 0.8 2.7 0.1 0.4 0.2 0.7 0.2 1.1 0.1 0.4 0.1 0.7 0.2 1.1 0.1 0.6 0.1 1.1 0.1 1.7 0.1 3.4-0.4 6.9-1.9 10.3 -0.8 1.9-1.8 3.6-3 5.1 -0.2 0.3-0.5 0.6-0.7 0.9 -0.4 0.4-0.8 0.9-1.2 1.3 -0.3 0.3-0.5 0.5-0.8 0.8 -0.2 0.2-0.4 0.3-0.6 0.5 -0.4 0.3-0.8 0.6-1.2 0.9 -0.3 0.2-0.6 0.4-0.9 0.7 -0.2 0.2-0.5 0.3-0.8 0.5 -0.2 0.1-0.5 0.3-0.7 0.4 -0.2 0.1-0.3 0.2-0.5 0.3 -0.3 0.2-0.7 0.4-1 0.5 -0.2 0.1-0.3 0.2-0.5 0.2 -0.3 0.2-0.7 0.3-1 0.4 -0.2 0.1-0.3 0.1-0.5 0.2 -0.7 0.3-1.4 0.5-2.1 0.7 -0.2 0-0.4 0.1-0.5 0.1 -0.4 0.1-0.7 0.2-1.1 0.2 -0.4 0.1-0.7 0.1-1.1 0.2 -0.2 0-0.4 0.1-0.6 0.1 -0.4 0-0.8 0.1-1.1 0.1 -3.6 0.2-7.3-0.3-10.8-1.9 -2.8-1.2-5.3-2.9-7.4-5C2386.9 1226.3 2386.8 1226.1 2386.6 1225.9z"/><circle class="st13" cx="2404.6" cy="1668.2" r="175.4"/><path class="st7" d="M2404.6 1851.4c-24.7 0-48.7-4.8-71.3-14.4 -21.8-9.2-41.4-22.4-58.2-39.3 -16.8-16.8-30-36.4-39.3-58.2 -9.6-22.6-14.4-46.6-14.4-71.3 0-24.7 4.8-48.7 14.4-71.3 9.2-21.8 22.4-41.4 39.3-58.2 16.8-16.8 36.4-30 58.2-39.3 22.6-9.6 46.6-14.4 71.3-14.4 24.7 0 48.7 4.8 71.3 14.4 21.8 9.2 41.4 22.4 58.2 39.3 16.8 16.8 30 36.4 39.3 58.2 9.6 22.6 14.4 46.6 14.4 71.3 0 24.7-4.8 48.7-14.4 71.3 -9.2 21.8-22.4 41.4-39.3 58.2 -16.8 16.8-36.4 30-58.2 39.3C2453.4 1846.5 2429.4 1851.4 2404.6 1851.4zM2404.6 1500.7c-92.4 0-167.5 75.1-167.5 167.5 0 92.4 75.1 167.5 167.5 167.5 92.4 0 167.5-75.1 167.5-167.5C2572.2 1575.8 2497 1500.7 2404.6 1500.7z"/><path class="st7" d="M2404.6 1533.3c-0.8 0-1.5-0.6-1.5-1.5v-25.3c0-0.8 0.7-1.5 1.5-1.5s1.5 0.7 1.5 1.5v25.3C2406.1 1532.6 2405.4 1533.3 2404.6 1533.3z"/><path class="st7" d="M2418.5 1528.9C2418.5 1528.9 2418.5 1528.9 2418.5 1528.9c-0.3 0-0.4-0.2-0.4-0.4 0 0 0 0 0 0l1.2-12.6c0-0.2 0.2-0.4 0.4-0.4 0.2 0 0.4 0.2 0.4 0.4 0 0 0 0 0 0l-1.2 12.6C2418.9 1528.8 2418.7 1528.9 2418.5 1528.9z"/><path class="st7" d="M2428.9 1530.4C2428.8 1530.4 2428.8 1530.4 2428.9 1530.4c-0.3 0-0.4-0.2-0.4-0.4 0 0 0 0 0-0.1l2.2-12.5c0-0.2 0.3-0.4 0.5-0.3 0.2 0 0.3 0.2 0.3 0.4 0 0 0 0 0 0.1l-1.1 6.2 0 0 -1.1 6.2C2429.2 1530.2 2429.1 1530.4 2428.9 1530.4z"/><path class="st7" d="M2439.1 1532.6c0 0-0.1 0-0.1 0 -0.2 0-0.3-0.2-0.3-0.4 0 0 0-0.1 0-0.1l3.1-12.3c0.1-0.2 0.3-0.4 0.5-0.3 0.2 0 0.3 0.2 0.3 0.4 0 0 0 0.1 0 0.1l-1.5 6.1 0 0 -1.5 6.1C2439.5 1532.4 2439.3 1532.6 2439.1 1532.6z"/><path class="st7" d="M2449.2 1535.5c0 0-0.1 0-0.1 0 -0.2-0.1-0.3-0.2-0.3-0.4 0 0 0-0.1 0-0.1l4-12c0.1-0.2 0.3-0.3 0.5-0.3 0.2 0.1 0.3 0.2 0.3 0.4 0 0 0 0.1 0 0.1l-4 12C2449.5 1535.4 2449.3 1535.5 2449.2 1535.5z"/><path class="st7" d="M2459 1539.2c-0.1 0-0.1 0-0.2 0 -0.2-0.1-0.3-0.2-0.3-0.4 0-0.1 0-0.1 0-0.2l2.4-5.9v0l2.4-5.9c0.1-0.2 0.3-0.3 0.5-0.2 0.2 0.1 0.3 0.2 0.3 0.4 0 0.1 0 0.1 0 0.2l-4.9 11.7C2459.3 1539.1 2459.1 1539.2 2459 1539.2z"/><path class="st7" d="M2487.9 1555.6c-0.1 0-0.2 0-0.2-0.1 -0.1-0.1-0.2-0.2-0.2-0.3 0-0.1 0-0.2 0.1-0.2l7.5-10.2c0.1-0.2 0.4-0.2 0.6-0.1 0.1 0.1 0.2 0.2 0.2 0.3 0 0.1 0 0.2-0.1 0.2l-7.5 10.2C2488.2 1555.6 2488.1 1555.6 2487.9 1555.6z"/><path class="st7" d="M2496.1 1562.2c-0.1 0-0.2 0-0.3-0.1 -0.1-0.1-0.1-0.2-0.1-0.3 0-0.1 0-0.2 0.1-0.3l4.1-4.8 0 0 4.1-4.8c0.1-0.2 0.4-0.2 0.6 0 0.1 0.1 0.1 0.2 0.1 0.3 0 0.1 0 0.2-0.1 0.3l-8.3 9.6C2496.3 1562.1 2496.2 1562.2 2496.1 1562.2z"/><path class="st7" d="M2503.8 1569.3c-0.1 0-0.2 0-0.3-0.1 -0.1-0.1-0.1-0.2-0.1-0.3 0-0.1 0-0.2 0.1-0.3l8.9-9c0.2-0.2 0.4-0.2 0.6 0 0.1 0.1 0.1 0.2 0.1 0.3 0 0.1 0 0.2-0.1 0.3l-8.9 9C2504 1569.2 2503.9 1569.3 2503.8 1569.3z"/><path class="st7" d="M2510.9 1577c-0.1 0-0.2 0-0.3-0.1 -0.1-0.1-0.1-0.2-0.1-0.3 0-0.1 0-0.2 0.1-0.3l4.8-4.1 0 0 4.8-4.1c0.2-0.1 0.4-0.1 0.6 0 0.1 0.1 0.1 0.2 0.1 0.3 0 0.1 0 0.2-0.1 0.3l-9.6 8.3C2511.1 1576.9 2511 1577 2510.9 1577z"/><rect x="2516.2" y="1580.5" transform="matrix(0.8031 -0.5959 0.5959 0.8031 -445.2862 1814.5837)" class="st7" width="12.7" height="0.8"/><path class="st7" d="M2534 1614.1c-0.2 0-0.3-0.1-0.4-0.3 0-0.1 0-0.1 0-0.2 0-0.2 0.1-0.3 0.3-0.4l11.7-4.9 0.3 0.8 -11.7 4.9C2534.1 1614.1 2534 1614.1 2534 1614.1z"/><path class="st7" d="M2537.7 1623.9c-0.2 0-0.3-0.1-0.4-0.3 0 0 0-0.1 0-0.1 0-0.2 0.1-0.3 0.3-0.4l12-4.1c0.2-0.1 0.4 0 0.5 0.3 0 0 0 0.1 0 0.1 0 0.2-0.1 0.3-0.3 0.4l-12 4.1C2537.8 1623.9 2537.7 1623.9 2537.7 1623.9z"/><path class="st7" d="M2540.6 1633.9c-0.2 0-0.4-0.1-0.4-0.3 0 0 0-0.1 0-0.1 0-0.2 0.1-0.4 0.3-0.4l6.1-1.6 0 0 6.1-1.6c0.2-0.1 0.4 0.1 0.5 0.3 0 0 0 0.1 0 0.1 0 0.2-0.1 0.4-0.3 0.4l-12.3 3.2C2540.7 1633.9 2540.7 1633.9 2540.6 1633.9z"/><path class="st7" d="M2542.8 1644.2c-0.2 0-0.4-0.1-0.4-0.3 0 0 0 0 0-0.1 0-0.2 0.1-0.4 0.3-0.4l12.5-2.2c0.2 0 0.4 0.1 0.5 0.3 0 0 0 0 0 0.1 0 0.2-0.1 0.4-0.3 0.4l-6.2 1.1 0 0L2542.8 1644.2C2542.9 1644.2 2542.9 1644.2 2542.8 1644.2z"/><path class="st7" d="M2544.3 1654.5c-0.2 0-0.4-0.2-0.4-0.4 0 0 0 0 0 0 0-0.2 0.2-0.4 0.4-0.4l12.6-1.3c0.2 0 0.4 0.1 0.5 0.4 0 0 0 0 0 0 0 0.2-0.2 0.4-0.4 0.4L2544.3 1654.5C2544.3 1654.5 2544.3 1654.5 2544.3 1654.5z"/><path class="st7" d="M2556.2 1689.6C2556.2 1689.6 2556.2 1689.6 2556.2 1689.6l-12.6-1.7c-0.2 0-0.4-0.2-0.4-0.4 0 0 0 0 0-0.1 0-0.2 0.2-0.4 0.5-0.4l12.6 1.7c0.2 0 0.4 0.2 0.4 0.4 0 0 0 0 0 0.1C2556.6 1689.4 2556.4 1689.6 2556.2 1689.6z"/><path class="st7" d="M2554.2 1700.8C2554.2 1700.8 2554.2 1700.8 2554.2 1700.8l-12.5-2.7c-0.2 0-0.3-0.2-0.3-0.4 0 0 0-0.1 0-0.1 0-0.2 0.3-0.4 0.5-0.3l12.4 2.7c0.2 0 0.3 0.2 0.3 0.4 0 0 0 0.1 0 0.1C2554.6 1700.7 2554.4 1700.8 2554.2 1700.8z"/><path class="st7" d="M2551.4 1711.9c0 0-0.1 0-0.1 0l-12.2-3.6c-0.2-0.1-0.3-0.2-0.3-0.4 0 0 0-0.1 0-0.1 0.1-0.2 0.3-0.3 0.5-0.3l12.2 3.6c0.2 0.1 0.3 0.2 0.3 0.4 0 0 0 0.1 0 0.1C2551.8 1711.8 2551.6 1711.9 2551.4 1711.9z"/><path class="st7" d="M2547.8 1722.7c0 0-0.1 0-0.1 0l-11.9-4.5c-0.2-0.1-0.3-0.2-0.3-0.4 0 0 0-0.1 0-0.1 0.1-0.2 0.3-0.3 0.5-0.2l11.9 4.5c0.2 0.1 0.3 0.2 0.3 0.4 0 0 0 0.1 0 0.1C2548.1 1722.6 2547.9 1722.7 2547.8 1722.7z"/><path class="st7" d="M2543.3 1733.2c-0.1 0-0.1 0-0.2 0l-11.5-5.3c-0.2-0.1-0.2-0.2-0.2-0.4 0-0.1 0-0.1 0-0.2 0.1-0.2 0.3-0.3 0.5-0.2l11.5 5.3c0.2 0.1 0.2 0.2 0.2 0.4 0 0.1 0 0.1 0 0.2C2543.6 1733.1 2543.5 1733.2 2543.3 1733.2z"/><rect x="2518.8" y="1753.4" transform="matrix(0.6231 -0.7822 0.7822 0.6231 -426.8411 2633.7207)" class="st7" width="0.8" height="12.7"/><path class="st7" d="M2516.7 1772.7c-0.1 0-0.2 0-0.3-0.1l-9.3-8.6c-0.1-0.1-0.1-0.2-0.1-0.3 0-0.1 0-0.2 0.1-0.3 0.2-0.2 0.4-0.2 0.6 0l9.3 8.6c0.1 0.1 0.1 0.2 0.1 0.3 0 0.1 0 0.2-0.1 0.3C2517 1772.7 2516.9 1772.7 2516.7 1772.7z"/><path class="st7" d="M2508.7 1780.8c-0.1 0-0.2 0-0.3-0.1l-8.6-9.3c-0.1-0.1-0.1-0.2-0.1-0.3 0-0.1 0-0.2 0.1-0.3 0.2-0.2 0.4-0.1 0.6 0l8.6 9.3c0.1 0.1 0.1 0.2 0.1 0.3 0 0.1 0 0.2-0.1 0.3C2508.9 1780.8 2508.8 1780.8 2508.7 1780.8z"/><path class="st7" d="M2500 1788.3c-0.1 0-0.2-0.1-0.3-0.2l-4-5 0 0 -4-5c-0.1-0.1-0.1-0.2-0.1-0.3 0-0.1 0.1-0.2 0.2-0.3 0.2-0.1 0.4-0.1 0.6 0.1l7.9 9.9c0.1 0.1 0.1 0.2 0.1 0.3 0 0.1-0.1 0.2-0.2 0.3C2500.2 1788.2 2500.1 1788.3 2500 1788.3z"/><path class="st7" d="M2490.8 1795c-0.1 0-0.3-0.1-0.3-0.2l-7.2-10.5c0-0.1-0.1-0.2-0.1-0.2 0-0.1 0.1-0.3 0.2-0.3 0.2-0.1 0.4-0.1 0.6 0.1l7.2 10.5c0 0.1 0.1 0.2 0.1 0.2 0 0.1-0.1 0.3-0.2 0.3C2491 1795 2490.9 1795 2490.8 1795z"/><path class="st7" d="M2458.6 1811.8c-0.2 0-0.3-0.1-0.4-0.3l-4.5-11.9c0 0 0-0.1 0-0.1 0-0.2 0.1-0.3 0.3-0.4 0.2-0.1 0.5 0 0.5 0.2l4.5 11.9c0 0 0 0.1 0 0.1 0 0.2-0.1 0.3-0.3 0.4C2458.7 1811.8 2458.6 1811.8 2458.6 1811.8z"/><path class="st7" d="M2447.8 1815.4c-0.2 0-0.3-0.1-0.4-0.3l-3.6-12.2c0 0 0-0.1 0-0.1 0-0.2 0.1-0.3 0.3-0.4 0.2-0.1 0.4 0.1 0.5 0.3l3.6 12.2c0 0 0 0.1 0 0.1 0 0.2-0.1 0.3-0.3 0.4C2447.8 1815.4 2447.8 1815.4 2447.8 1815.4z"/><path class="st7" d="M2436.7 1818.2c-0.2 0-0.4-0.1-0.4-0.3l-1.3-6.2 0 0 0 0 0 0 -1.3-6.2c0 0 0-0.1 0-0.1 0-0.2 0.1-0.4 0.3-0.4 0.2 0 0.4 0.1 0.5 0.3l2.7 12.4c0 0 0 0.1 0 0.1C2437.1 1818 2437 1818.2 2436.7 1818.2 2436.7 1818.2 2436.7 1818.2 2436.7 1818.2z"/><path class="st7" d="M2425.4 1820.2c-0.2 0-0.4-0.1-0.4-0.4l-0.9-6.3 0 0 -0.9-6.3c0 0 0 0 0-0.1 0-0.2 0.1-0.4 0.4-0.4 0.2 0 0.4 0.1 0.5 0.4l1.7 12.6c0 0 0 0 0 0.1C2425.8 1820 2425.7 1820.2 2425.4 1820.2 2425.5 1820.2 2425.5 1820.2 2425.4 1820.2z"/><path class="st7" d="M2414.1 1821.3c-0.2 0-0.4-0.2-0.4-0.4l-0.8-12.7c0 0 0 0 0 0 0-0.2 0.2-0.4 0.4-0.4 0.2 0 0.4 0.2 0.4 0.4l0.8 12.7c0 0 0 0 0 0C2414.5 1821.1 2414.3 1821.3 2414.1 1821.3 2414.1 1821.3 2414.1 1821.3 2414.1 1821.3z"/><path class="st7" d="M2383.9 1820.2C2383.9 1820.2 2383.8 1820.2 2383.9 1820.2c-0.3 0-0.4-0.2-0.4-0.4 0 0 0 0 0-0.1l1.7-12.6c0-0.2 0.2-0.4 0.5-0.4 0.2 0 0.4 0.2 0.4 0.4 0 0 0 0 0 0.1l-0.9 6.3 0 0 -0.9 6.3C2384.2 1820 2384.1 1820.2 2383.9 1820.2z"/><path class="st7" d="M2372.6 1818.2C2372.6 1818.2 2372.6 1818.2 2372.6 1818.2c-0.3-0.1-0.4-0.2-0.4-0.4 0 0 0-0.1 0-0.1l2.6-12.4c0-0.2 0.3-0.4 0.5-0.3 0.2 0 0.3 0.2 0.3 0.4 0 0 0 0.1 0 0.1l-2.6 12.4C2373 1818.1 2372.8 1818.2 2372.6 1818.2z"/><path class="st7" d="M2361.6 1815.4c0 0-0.1 0-0.1 0 -0.2-0.1-0.3-0.2-0.3-0.4 0 0 0-0.1 0-0.1l3.6-12.2c0.1-0.2 0.3-0.3 0.5-0.3 0.2 0.1 0.3 0.2 0.3 0.4 0 0 0 0.1 0 0.1l-1.8 6.1 0 0 -1.8 6.1C2361.9 1815.3 2361.7 1815.4 2361.6 1815.4z"/><path class="st7" d="M2351.1 1811.5l-0.8-0.3 2.2-5.9 0 0 2.2-5.9c0.1-0.2 0.3-0.3 0.5-0.2 0.2 0.1 0.3 0.2 0.3 0.4 0 0 0 0.1 0 0.1L2351.1 1811.5z"/><path class="st7" d="M2340.2 1807.4c-0.1 0-0.1 0-0.2 0 -0.2-0.1-0.2-0.2-0.2-0.4 0-0.1 0-0.1 0-0.2l5.3-11.5c0.1-0.2 0.3-0.3 0.5-0.2 0.2 0.1 0.2 0.2 0.2 0.4 0 0.1 0 0.1 0 0.2l-5.3 11.5C2340.5 1807.3 2340.4 1807.4 2340.2 1807.4z"/><path class="st7" d="M2310.9 1789.5c-0.1 0-0.2 0-0.3-0.1 -0.1-0.1-0.2-0.2-0.2-0.3 0-0.1 0-0.2 0.1-0.3l7.8-10 0.7 0.5 -7.8 10C2311.1 1789.5 2311 1789.5 2310.9 1789.5z"/><path class="st7" d="M2302.1 1782.2c-0.1 0-0.2 0-0.3-0.1 -0.1-0.1-0.1-0.2-0.1-0.3 0-0.1 0-0.2 0.1-0.3l8.5-9.4c0.2-0.2 0.4-0.2 0.6 0 0.1 0.1 0.1 0.2 0.1 0.3 0 0.1 0 0.2-0.1 0.3l-8.5 9.4C2302.3 1782.1 2302.2 1782.2 2302.1 1782.2z"/><path class="st7" d="M2293.9 1774.2c-0.1 0-0.2 0-0.3-0.1 -0.1-0.1-0.1-0.2-0.1-0.3 0-0.1 0-0.2 0.1-0.3l9.2-8.8 0.6 0.6 -4.6 4.4 0 0 -4.6 4.4C2294.1 1774.2 2294 1774.2 2293.9 1774.2z"/><path class="st7" d="M2286.4 1765.7c-0.1 0-0.2-0.1-0.3-0.1 -0.1-0.1-0.1-0.2-0.1-0.3 0-0.1 0.1-0.2 0.1-0.3l9.8-8.1c0.2-0.1 0.4-0.1 0.6 0.1 0.1 0.1 0.1 0.2 0.1 0.3 0 0.1-0.1 0.2-0.1 0.3l-9.8 8.1C2286.5 1765.6 2286.5 1765.7 2286.4 1765.7z"/><path class="st7" d="M2279.5 1756.6c-0.1 0-0.3-0.1-0.3-0.2 -0.1-0.1-0.1-0.2-0.1-0.2 0-0.1 0.1-0.3 0.2-0.3l5.2-3.7 0 0 5.2-3.7c0.2-0.1 0.4-0.1 0.6 0.1 0.1 0.1 0.1 0.2 0.1 0.2 0 0.1-0.1 0.3-0.2 0.3l-10.4 7.3C2279.6 1756.6 2279.5 1756.6 2279.5 1756.6z"/><path class="st7" d="M2263 1726.4c-0.2 0-0.3-0.1-0.4-0.3 0-0.1 0-0.1 0-0.2 0-0.2 0.1-0.3 0.3-0.4l5.9-2.4 0 0 5.9-2.4c0.2-0.1 0.5 0 0.5 0.2 0 0.1 0 0.1 0 0.2 0 0.2-0.1 0.3-0.3 0.4l-11.7 4.8C2263.1 1726.4 2263 1726.4 2263 1726.4z"/><path class="st7" d="M2259.1 1715.7c-0.2 0-0.3-0.1-0.4-0.3 0 0 0-0.1 0-0.1 0-0.2 0.1-0.3 0.3-0.4l6-2 0 0 6-2c0.2-0.1 0.4 0 0.5 0.3 0 0 0 0.1 0 0.1 0 0.2-0.1 0.3-0.3 0.4l-12.1 3.9C2259.1 1715.7 2259.1 1715.7 2259.1 1715.7z"/><path class="st7" d="M2256 1704.7c-0.2 0-0.4-0.1-0.4-0.3 0 0 0-0.1 0-0.1 0-0.2 0.1-0.4 0.3-0.4l6.2-1.5v0l6.2-1.5c0.2-0.1 0.4 0.1 0.5 0.3 0 0 0 0.1 0 0.1 0 0.2-0.1 0.4-0.3 0.4L2256 1704.7C2256 1704.7 2256 1704.7 2256 1704.7z"/><path class="st7" d="M2253.7 1693.5c-0.2 0-0.4-0.1-0.4-0.3 0 0 0 0 0-0.1 0-0.2 0.1-0.4 0.3-0.4l12.5-2.1c0.2 0 0.4 0.1 0.5 0.3 0 0 0 0 0 0.1 0 0.2-0.1 0.4-0.3 0.4l-6.3 1 0 0L2253.7 1693.5C2253.7 1693.5 2253.7 1693.5 2253.7 1693.5z"/><path class="st7" d="M2252.2 1682.2c-0.2 0-0.4-0.2-0.4-0.4 0 0 0 0 0 0 0-0.2 0.2-0.4 0.4-0.4l12.6-1.1c0.2 0 0.4 0.1 0.4 0.4 0 0 0 0 0 0 0 0.2-0.2 0.4-0.4 0.4L2252.2 1682.2C2252.3 1682.2 2252.2 1682.2 2252.2 1682.2z"/><path class="st7" d="M2265.6 1649.6C2265.6 1649.6 2265.6 1649.6 2265.6 1649.6l-12.6-1.7c-0.2 0-0.4-0.2-0.4-0.4 0 0 0 0 0-0.1 0-0.2 0.2-0.4 0.5-0.4l12.6 1.7c0.2 0 0.4 0.2 0.4 0.4 0 0 0 0 0 0.1C2266 1649.4 2265.8 1649.6 2265.6 1649.6z"/><path class="st7" d="M2267.3 1639.3l-6.2-1.3 0 0 -6.2-1.3c-0.2 0-0.3-0.2-0.3-0.4 0 0 0-0.1 0-0.1 0-0.2 0.3-0.4 0.5-0.3l12.4 2.6L2267.3 1639.3z"/><path class="st7" d="M2269.9 1629.1l-6.1-1.8 0 0 -6.1-1.8c-0.2-0.1-0.3-0.2-0.3-0.4 0 0 0-0.1 0-0.1 0.1-0.2 0.3-0.3 0.5-0.3l12.2 3.5L2269.9 1629.1z"/><path class="st7" d="M2273.3 1619.2c0 0-0.1 0-0.1 0l-11.9-4.4c-0.2-0.1-0.3-0.2-0.3-0.4 0 0 0-0.1 0-0.1 0.1-0.2 0.3-0.3 0.5-0.2l5.9 2.2 0 0 5.9 2.2c0.2 0.1 0.3 0.2 0.3 0.4 0 0 0 0.1 0 0.1C2273.6 1619.1 2273.5 1619.2 2273.3 1619.2z"/><path class="st7" d="M2277.3 1609.5c-0.1 0-0.1 0-0.2 0l-5.8-2.7v0l-5.8-2.7 0.3-0.7 11.5 5.3c0.2 0.1 0.2 0.2 0.2 0.4 0 0.1 0 0.1 0 0.2C2277.6 1609.4 2277.5 1609.5 2277.3 1609.5z"/><path class="st7" d="M2293.7 1582.6c-0.1 0-0.2 0-0.3-0.1l-10-7.8c-0.1-0.1-0.2-0.2-0.2-0.3 0-0.1 0-0.2 0.1-0.3 0.1-0.2 0.4-0.2 0.6-0.1l10 7.8c0.1 0.1 0.2 0.2 0.2 0.3 0 0.1 0 0.2-0.1 0.3C2294 1582.6 2293.8 1582.6 2293.7 1582.6z"/><path class="st7" d="M2300.4 1574.6c-0.1 0-0.2 0-0.3-0.1l-9.4-8.5c-0.1-0.1-0.1-0.2-0.1-0.3 0-0.1 0-0.2 0.1-0.3 0.2-0.2 0.4-0.2 0.6 0l4.7 4.2h0l4.7 4.2c0.1 0.1 0.1 0.2 0.1 0.3 0 0.1 0 0.2-0.1 0.3C2300.7 1574.6 2300.5 1574.6 2300.4 1574.6z"/><path class="st7" d="M2307.7 1567.1c-0.1 0-0.2 0-0.3-0.1l-4.4-4.6 0 0 -4.4-4.6c-0.1-0.1-0.1-0.2-0.1-0.3 0-0.1 0-0.2 0.1-0.3 0.2-0.2 0.4-0.2 0.6 0l8.8 9.2c0.1 0.1 0.1 0.2 0.1 0.3 0 0.1 0 0.2-0.1 0.3C2307.9 1567.1 2307.8 1567.1 2307.7 1567.1z"/><path class="st7" d="M2315.6 1560.1c-0.1 0-0.2-0.1-0.3-0.2l-8.1-9.8c-0.1-0.1-0.1-0.2-0.1-0.3 0-0.1 0.1-0.2 0.1-0.3 0.2-0.1 0.4-0.1 0.6 0.1l8.1 9.8c0.1 0.1 0.1 0.2 0.1 0.3 0 0.1-0.1 0.2-0.1 0.3C2315.8 1560.1 2315.7 1560.1 2315.6 1560.1z"/><path class="st7" d="M2323.9 1553.8c-0.1 0-0.3-0.1-0.3-0.2l-3.7-5.2 0 0 -3.7-5.2c-0.1-0.1-0.1-0.2-0.1-0.2 0-0.1 0.1-0.3 0.2-0.3 0.2-0.1 0.4-0.1 0.6 0.1l7.3 10.4c0.1 0.1 0.1 0.2 0.1 0.2 0 0.1-0.1 0.3-0.2 0.3C2324.1 1553.8 2324 1553.8 2323.9 1553.8z"/><path class="st7" d="M2351.5 1538.7c-0.2 0-0.3-0.1-0.4-0.3l-4.8-11.7c0-0.1 0-0.1 0-0.2 0-0.2 0.1-0.3 0.3-0.4 0.2-0.1 0.5 0 0.5 0.2l2.4 5.9 0 0 2.4 5.9c0 0.1 0 0.1 0 0.2 0 0.2-0.1 0.3-0.3 0.4C2351.6 1538.7 2351.6 1538.7 2351.5 1538.7z"/><path class="st7" d="M2361.4 1535.1c-0.2 0-0.3-0.1-0.4-0.3l-3.9-12.1c0 0 0-0.1 0-0.1 0-0.2 0.1-0.3 0.3-0.4 0.2-0.1 0.4 0 0.5 0.3l2 6v0l2 6c0 0 0 0.1 0 0.1 0 0.2-0.1 0.3-0.3 0.4C2361.5 1535.1 2361.4 1535.1 2361.4 1535.1z"/><rect x="2369.5" y="1519.3" transform="matrix(0.9713 -0.238 0.238 0.9713 -294.9837 607.8109)" class="st7" width="0.8" height="12.7"/><path class="st7" d="M2381.7 1530.1c-0.2 0-0.4-0.1-0.4-0.3l-1-6.3 0 0 -1-6.3c0 0 0 0 0-0.1 0-0.2 0.1-0.4 0.3-0.4 0.2 0 0.4 0.1 0.5 0.3l2.1 12.5c0 0 0 0 0 0.1C2382.1 1529.9 2382 1530.1 2381.7 1530.1 2381.8 1530.1 2381.7 1530.1 2381.7 1530.1z"/><path class="st7" d="M2392.1 1528.8c-0.2 0-0.4-0.2-0.4-0.4l-0.6-6.3v0l-0.6-6.3c0 0 0 0 0 0 0-0.2 0.2-0.4 0.4-0.4 0.2 0 0.4 0.1 0.4 0.4l0.6 6.3v0l0.6 6.3c0 0 0 0 0 0C2392.5 1528.6 2392.3 1528.8 2392.1 1528.8 2392.1 1528.8 2392.1 1528.8 2392.1 1528.8z"/><path class="st7" d="M2473.1 1551.7c-0.2 0-0.5-0.1-0.7-0.2 -0.5-0.3-0.7-0.8-0.7-1.3 0-0.2 0.1-0.5 0.2-0.7l6.3-10.9v0l6.3-10.9c0.4-0.7 1.3-0.9 2-0.5 0.5 0.3 0.7 0.8 0.7 1.3 0 0.2-0.1 0.5-0.2 0.7l-12.7 21.8C2474.1 1551.4 2473.6 1551.7 2473.1 1551.7z"/><rect x="2521.4" y="1592.8" transform="matrix(0.8683 -0.496 0.496 0.8683 -457.096 1466.8126)" class="st7" width="25.3" height="2.9"/><path class="st7" d="M2566.3 1670.8C2566.3 1670.8 2566.3 1670.8 2566.3 1670.8l-25.3-0.2c-0.8 0-1.4-0.7-1.4-1.5 0 0 0 0 0 0 0-0.8 0.7-1.4 1.5-1.4 0 0 0 0 0 0l25.3 0.2c0.8 0 1.4 0.7 1.4 1.5 0 0 0 0 0 0C2567.7 1670.1 2567.1 1670.8 2566.3 1670.8z"/><path class="st7" d="M2543.8 1751.8c-0.3 0-0.5-0.1-0.7-0.2l-21.8-12.8c-0.5-0.3-0.7-0.8-0.7-1.3 0-0.3 0.1-0.5 0.2-0.7 0.4-0.7 1.3-0.9 2-0.5l21.8 12.8c0.5 0.3 0.7 0.8 0.7 1.3 0 0.3-0.1 0.5-0.2 0.7C2544.8 1751.5 2544.3 1751.8 2543.8 1751.8z"/><path class="st7" d="M2482.5 1809.8l-12.4-22c-0.1-0.2-0.2-0.5-0.2-0.7 0-0.5 0.3-1 0.7-1.3 0.7-0.4 1.6-0.1 2 0.6l12.4 22L2482.5 1809.8z"/><path class="st7" d="M2402.4 1831.2C2402.4 1831.2 2402.4 1831.2 2402.4 1831.2c-0.8 0-1.5-0.7-1.5-1.5 0 0 0 0 0 0l0.4-25.3c0-0.8 0.7-1.4 1.5-1.4 0 0 0 0 0 0 0.8 0 1.4 0.7 1.4 1.5 0 0 0 0 0 0l-0.4 25.3C2403.8 1830.6 2403.2 1831.2 2402.4 1831.2z"/><path class="st7" d="M2321.5 1808.3c-0.3 0-0.5-0.1-0.7-0.2 -0.5-0.3-0.7-0.8-0.7-1.2 0-0.3 0.1-0.5 0.2-0.7l13-21.7 2.5 1.5 -13 21.7C2322.5 1808 2322 1808.3 2321.5 1808.3z"/><path class="st7" d="M2263.2 1747.8c-0.5 0-1-0.3-1.3-0.7 -0.1-0.2-0.2-0.5-0.2-0.7 0-0.5 0.3-1 0.7-1.3l22.1-12.2c0.7-0.4 1.6-0.1 2 0.6 0.1 0.2 0.2 0.5 0.2 0.7 0 0.5-0.3 1-0.7 1.3l-22.1 12.2C2263.7 1747.7 2263.4 1747.8 2263.2 1747.8z"/><path class="st7" d="M2268.3 1666.7C2268.3 1666.7 2268.3 1666.7 2268.3 1666.7l-25.3-0.5c-0.8 0-1.4-0.7-1.4-1.5 0 0 0 0 0 0 0-0.8 0.7-1.4 1.5-1.4l25.3 0.5c0.8 0 1.4 0.7 1.4 1.5 0 0 0 0 0 0C2269.7 1666.1 2269.1 1666.7 2268.3 1666.7z"/><rect x="2275.9" y="1578" transform="matrix(0.5202 -0.854 0.854 0.5202 -265.8266 2708.1692)" class="st7" width="2.9" height="25.3"/><path class="st7" d="M2339.5 1549.8c-0.5 0-1-0.3-1.3-0.8l-12.1-22.2c-0.1-0.2-0.2-0.5-0.2-0.7 0-0.5 0.3-1 0.8-1.3 0.7-0.4 1.6-0.1 2 0.6l6 11.1 0 0 6 11.1c0.1 0.2 0.2 0.5 0.2 0.7 0 0.5-0.3 1-0.8 1.3C2340 1549.8 2339.8 1549.8 2339.5 1549.8z"/><path class="st7" d="M2480.2 1720.6c-1 0-2-0.3-2.8-0.8l-71.1-43c-2.6-1.6-3.4-5-1.9-7.6 1.6-2.6 5-3.4 7.6-1.9l71.1 43c2.6 1.6 3.4 5 1.9 7.6C2483.9 1719.6 2482.1 1720.6 2480.2 1720.6z"/><path class="st7" d="M2301.4 1731.6c-1.4 0-2.8-0.7-3.5-2 -1.1-1.9-0.4-4.4 1.5-5.5l99.7-57c2-1.1 4.4-0.4 5.5 1.5 1.1 1.9 0.4 4.4-1.5 5.5l-99.7 57C2302.8 1731.5 2302.1 1731.6 2301.4 1731.6z"/><path class="st7" d="M2404.5 1669.1c-0.7-0.2-1.2-0.7-1.4-1.5l-29-124.1c-0.3-1.1 0.4-2.2 1.5-2.4 1.1-0.3 2.2 0.4 2.4 1.5l29 124.1c0.3 1.1-0.4 2.2-1.5 2.4C2405.1 1669.3 2404.8 1669.2 2404.5 1669.1z"/><circle class="st5" cx="2404.6" cy="1668.2" r="9.1"/><path class="st14" d="M2283 2020.8l0 154.9c0 11.3-9.3 20.5-20.6 20.5l-143.3 0 -100.4 0c-7.1 0-13.3-3.6-17-9.1 -2.2-3.3-3.5-7.2-3.5-11.5l0-154.9c0-11.3 9.3-20.5 20.6-20.5l243.7 0.1C2273.8 2000.3 2283 2009.5 2283 2020.8z"/><rect x="2041.6" y="2098.3" class="st5" width="121.6" height="17.5"/><rect x="2041.6" y="2130.7" class="st5" width="121.6" height="4.7"/><rect x="2041.6" y="2144.1" class="st5" width="121.6" height="4.7"/><rect x="1998.2" y="2033.9" class="st3" width="284.8" height="48.8"/><rect x="1829.1" y="63.9" class="st7" width="285.7" height="231.1"/><circle class="st2" cx="1971.9" cy="177.3" r="81.5"/><polygon class="st5" points="2023.5 179.4 1947.3 223.4 1947.3 135.4 "/><path class="st3" d="M802.7 1859.8c-68.4 75.5-185 81.3-260.5 12.9 -75.5-68.4-81.3-185-12.9-260.5 68.4-75.5 185-81.2 260.5-12.9C865.3 1667.7 871.1 1784.3 802.7 1859.8"/><path class="st2" d="M609.6 1799.8c0.3-1.6 2.1-8.6 0.8-9.6 -2.5-1.9-3.6-4-8-3.9 -3.2 0.1-5.9 0.4-9.1 0 2.9-5.8 1.9-10.7 5.3-16.3 2.7-4.5-8.6-2.4-10.1-2 -2.6 0.8-2 2-2.4 4.4 -0.3 1.6-2.6 3.4-2.3 4.8 -1.1-0.3-2.4-0.1-3.7 0 -1.9 0.2-3.8 0.4-5-0.6 -2.2-1.8-3.8 0.9-5.4-2 -1-1.8-0.8-4.6-1.9-6.3 -2.4-3.8-3.3-11.4-0.8-15.2 2.2-3.3-1.5-6.8 2.1-9.5 1.6-1.2 3.4-6 3.4-8.5 3-0.2 8.6 3 11.2 3.2 0.7 1.7 4.7 3.5 5 0.9 0.9 0.8 1.8 2.2 3.2 1.2 -0.1-0.9-0.6-1.5-1.5-1.8 0.5-0.8 0.6-1.7 0.3-2.7 1.9-1.1 3.8 0.5 5 0.6 1.4-0.7 2.7-0.4 3.9-0.1 1 0.2 3.4-1.3 4.3-1.6 -0.3 2.3 0.8 3.9 2.1 2.9 2.3-1.7 2.7 0.8 4.4 2.4 2.4 2.3-0.7 7.3 3.9 9.9 -0.3 2 2.6 7.2 3.7 7.1 8-1-2.7-19.1-1.3-23.9 0.9-3.3 2.2-4.7 5-6.2 2.4-1.3-0.2-6.8 2.2-7.6 2.5-0.8 6.3 0.4 8.7-0.5 1.4-0.5 2.2-1.4 0.6-2.2 0.4-0.5 3.4-2.4 3.5-2.4 -0.1-1.9-3-4.9-2.7-6.2 0.3 0.2 1.3-0.6 1.2-0.2 0.4 1.1 2.4-2.8 2.5-3 1.4-2.4-2.2-3.9-1.7-5.9 1.2 0.3 4.5 1.4 5.3-0.5 0.7-1.8-1.4-10.9-2.4-10.8 3.1-3.5 10.7 6 13.6 3.2 2.4 0.2 3.5 0.4 3.5-2.1 -1-1.1-2.6 0-3.2-1.5 0.4-2.6 2.4-3.7 5-4.6 1.1-0.4 1.2-2 1.7-3 1.6-0.1 2.7-1.2 4.2-1.7 4.1-1.6 1.3-1.2 2.6-1.8 0.2-0.1 6.8-0.6 6.5-1.2 0.6 1.2-4.7 2.7-4.4 5.2 0.5 3.7 4.8-0.9 7.1-1.4 2-4.2 7.1-2 11.5-2.9 0.4-1.2-1.1-0.6-0.9-1.8 1.9 0.4 3.7-0.5 4.3-1.4 0.6-0.9 0.3-1.7-1.7-1.5 0-1-2-9.1-4.9-5.5 -1.5 1.8 1.1 5.5 1.1 7.6 -1.2-0.4-2.5-0.3-3.8-0.3 -0.9 0-1.8 0.1-2.7 0 -0.9-1.3-1.4-1.2-2.8-1.8 -1.1-0.5-2.3-3.6-2.8-3.5 0.6-0.8 1.1-1.7 1.5-2.7 -0.2-0.2-3.5-0.8-4.5-0.9 2.2 0.1 8.3-1.3 5.2-4 -2.2-2-5.5 0.3-8 1.1 -2.4 0.8-4.7 2.1-6.7 3.5 -0.6 0.5-3.3 0.2-4.6 0.6 0-1.6 4.4-4.5 5.6-5.2 2.1-1.2 3.6-0.3 4.9-2.8 0.4-1.9 1.4-2.7 3.3-2.3 2.4-0.1 6.1-1.5 8.7-1.4 4.6 0.3 8.2 2.2 12.1 1 2-0.6 3.1-2.4 4.4-3.8 1.8 0 3.5-0.1 5.3-0.3 2.5-0.2 4.4-2.3 3.7-4.1 -0.7-1.7 0.2-7.4-4.3-5 -0.8-0.2-0.5-2.9-3.5-2.3 0.9-0.4 1.6-0.9 2.4-1.5 -0.9-1.7-8.8-2.3-10.6-1.5 -0.4-1 1-3-1.1-4.7 -1.1-0.8-4.5-0.8-4.2-2.9 2 2 4.6-1.3 0.3-2.7 -0.1-0.9 3-0.3-0.2-2.2 -0.7-0.4-3.1-2-2.6-2.8 0.9-1.7-6.2-8.2-8.1-1.1 -0.3 1-8.2 3.8-8.8 2.5 -1-2.1-1.5-1-2.6-0.6 -0.7 0.2-1.9-0.3-3.1-1 -0.4-1.2 2-0.8 1.3-3.9 -0.6-2.9-0.9-1.8 0.5-4 1.2-1.8-8-0.3-7.2-3.4 -2.4-1.3-4.7-3.8-7.5-2.7 -2.3 0.8-4 2.5-6.5 1.9 -1.8-0.5-4.1-2.6-5.5-1 -1.1 1.2-1.2 2.8 0.7 3.4 -0.9 1-1.7 2.1-2.3 3.2 0.6 0.4 1.3 0.5 2.1 0.3 -0.2 1 0 1.9 0.6 2.7 -0.4 0.7-0.6 2-1.3 2.3 -0.6 2.8-4.6 2.7-0.6 4.8 3 1.6 8 5 6.2 8.7 -1.3 2.7-9.6 4.6-12.8 5.2 -0.3 2.8 1.5 2.7 1.6 5.4 0 1.5 0.9 3.2 0.8 4.6 -0.2 3.4-1.6 1.8-3.2 3.4 -1.8 1.8-3-1.6-4.6-2.4 -2.5-1.2-3-2.9-2.8-5.3 0.3-2.3 0.9-6.3-1.6-6.8 -4.5-0.9-10.1 0.6-14.1-2.3 -2-1.4-3.4-4.1-6.2-4.6 -1.4-0.3-3.3 1.4-4.4 1.8 -0.9 0.3-2.4-0.3-3 0.6 0.9-1.3-0.4-6.6-3.3-6.5 -2.9 0.1-3.4-3.6-2.7-5 0.8-1.7 6.1-3.4 6.3-5 0.1-0.6 5.6-4.9 3.8-4.7 5.5-1.9 4.4-2-0.6-3.2 0.5-0.5 2.1-1.6 3.6-1.5 2.5 0.2 5 1.5 3.8-1.2 3.5 1.2 7.4-1.4 8.5-4.7 -0.8-0.3-8.2-0.3-7.7-1.7 3 1 6 1.9 8.7-0.1 2.2-1.7 3.8-2.3 1.1-3.2 2.6-0.7 5.5-0.9 8.2-0.6 -0.5-1.2-1.4-1.8-2.7-1.8 1.3-1.2 2.6 0.4 3.8 0.5 2.3 0.3 3.9-0.5 5.3-2.1 3.4-3.7-4-2.1-2.7-5.4 0.4-0.4 1.9-0.3 2.5-0.1 0.8 0.3 1.6 0.6 1.8-0.8 0.3-2.1-1.7-1.5-3.3-1.9 -2.7-0.7-11.4 1.7-5.9 2.8 -0.8 0.6-1.7 1-2.7 1.2 -0.6 1.3-1.4 2.5-2.4 3.5 -2 2.1-3.7 2.7-5.5 0 0.3-0.5 3.9-5.2-0.5-3.7 -1.7 0.6-2.7 2.5-4.3 3.4 0.8-1.1-1-2.6 0.6-3.2 -0.7-0.7-1.8-0.4-2.8-0.1 -0.6 0.2-1.2 0.4-1.7 0.4 -0.2-1.7 1.9-0.9 2.4-2.1 -1-1.5-2.8-0.4-2.4-2.4 0.4-2.1-3.9-0.5-4.6-0.2 -2 0.8-3.2 2.8-5.1 4.1 0.3 0.3 0.7 0.4 1.2 0.3 -0.2 0.8-2.7 2.2 0.1 2.5 1.1 0.1 2.2-0.1 3.3-0.3 0.9-0.2 1.9-0.4 2.8-0.4 0 0.5-3.9 1.9-4.1 2.1 0.1 0.8 0.7 0.6 1.4 0.4 0.4-0.1 0.8-0.2 1-0.1 -0.9 1.7-3.7 2.3-5 3.2 -2.1 1.5-0.1 1.5-1.2 3 -2.4 0.3-0.9-1.7-0.6-2.7 -1.5-0.5-6-0.4-5.6 2.1 -1.7 0.8-8.6 4.1-10.3 3.3 -3.7-2-8.4 3.2-10.6 5.8 0 0 0-0.1 0-0.1 -4.8-0.2-7.3 4-11.8 4.7 0.9-0.8 1.7-1.6 2.6-2.4 -1.8-1.3-9.6 5.4-10.9 6.8 -5.6 6.2-1.7-1.1-7.7-1.7 -0.8 0.7 1.2 1.3 0.9 2.4 -1 0-3.8 1.4-4.7 1.8 -1.1 0.5-3.6 1.1-5.2 2.2 -0.4 0.5-0.8 1-1.2 1.5 -0.1 0.1-0.2 0.3-0.2 0.3 -7.9 9.9-14.6 20.4-20.1 31.4 2.4 0 5 0.1 5.6 0.6 -1 2.8 6.4 2 6.2 3.7 0.7-0.3-0.5 3.4-0.4 3.3 -0.5 1.3-0.8 2.7-1 3.8 1.5-0.6 0.3-2.9 1.8-3.5 0.2 0.6-0.2 5-0.3 5.1 0.4 2.2-1.8 8.5-1 9.4 0.5 0.7 2.8 3.5 2.2 4.3 -0.9 1.3-0.2 5.8-0.5 7.6 -0.4 2.5-1 4.9-1.2 7.5 -0.7 3.8-1.5 8.1-1 12.1 0.7 4.9 2.3 9.3 3.7 14.1 0.9 3.3 2.6 1.2 3.9 4 1.5 3.4 2.5 8 4.1 11.6 0.6 1.4 5.3 7.7 1.5 7.1 -0.3 3.9 5.5 4.1 5.9 7.6 0.5 4.2 3.9 5.5 5 9.4 3.2 0.1-0.3-4.5-0.3-5.3 -1.9-0.1-3-5.4-3.3-7.7 -1.9-0.8-2.8-4.9-3.8-6.6 -1.8-3-3.3-5.7-3-9.3 3.8 1 4.7 4.6 6 8.4 0.6 1.7 1.6 4.7 2.5 5.7 2.3 1.7 2.4 2.9 2.7 5.3 4.3 2.4 7.1 9.1 9.1 13.3 1.2 2.4-0.6 3.9 0.8 6.2 1.3 2.1 3.9 3.1 4.9 5.5 4.3 1.3 8.4 4.3 12.1 6.4 2.2 1.2 4.2 2.7 6.7 3.3 2 0.4 3.5-1.3 5.4-1.4 3.7 0 7.2 6.1 10 8.1 1.3 0 11.1 4.2 11.2 2.6 0.5 0 5.1 7.2 6.5 7.9 0.4 1.7-1.2 1.9 0.8 3.4 -0.3-0.2 0.3 0.3 1 0.7 2-0.9 4-1.6 6.1-2.5C610.1 1803.3 609.3 1801.7 609.6 1799.8"/><path class="st2" d="M751.2 1861.5c-0.9-3.3-6.6-0.3-8.8-1.8 -1.9-1.3-4.1-3.8-6.7-3.6 -3.2 0.3-5.5-0.5-8.8-1.1 -2.3-0.4-3 2.3-5 2.3 0.4-3.1-2.9-4.2-6.5-3.6 -1.2-1.6-3.5-1.4-5.5-0.2 0.3-0.5 0.4-1.1 0.5-1.8 -1.6-1.4-3.3 0.2-5.1 0 -1.6 1.5-3.2 3.1-6.1 3.3 1.2-3.5 4.9-4.3 6.7-7.3 0.9-1.5-2.4-3.3-2.9-4.6 -1.6-4.4-1.3-3.8-5.1-6.5 -2.4-1.7-5.7-2.8-8.8-3 -2.7-0.2-3 1.1-5.5 0.1 -1.6-0.6-5.1-1.8-7.4-1.5 1-5.2-5.2-6.3-8.3-5.9 0.7-0.9 1.4-1.7 2.4-2.4 -0.6-0.8-1.4-1.2-2.4-1.5 1.4-0.3 0.7-2.7 1.2-3.5 -2.5-0.4-3.8 3.6-5.3 1.8 0.4-0.6 1.9 0 1.8-1.2 -2.2-1.3-6.4-0.6-8.4 0.8 -2.7 1.9-5.2-1.5-8-1.2 -2.4 0.3-3.3 0.8-4.5-1.2 -0.9-1.5-2.5-1.8-4.2-1.6 -0.8-0.6-1-3.5-2.6-2.4 -0.9 0.6-1 2.1 0.5 2.1 -1.3 1.2-3.6 0.6-4.7 1.8 -0.6-0.1-1.4-1.9-0.3-2.2 4.8-1.2-1.7-2.6-2.6-4.2 -0.7-1.2-1.6-1.9-2.7-2.4 -3.7-1.6-9.2 0.2-12.8 0.6 -1.1-1.5-2.9-3.1-4.2-4.9 -2.1 0.9-4.1 1.6-6.1 2.5 0.9 0.5 1.9 0.9 1.5-0.2 1.1 2.6 3.5 0.8 3.5 4.1 0.4 1 3.2 1.5 3.8 1.5 0.7 0 1.3 0.1 1.9 0.3 1.1 0.4 2 1.1 3 1.8 1.6 1.2 1.5 0.8 3.9 0.8 -0.3-1-0.7-2-1.2-2.9 2.5 0 2.5-1.5 5.3-0.9 -0.1 1.1 1.8 3.7 1.2 4.4 -2.4 0.6-5.1-0.1-6.8 1.9 -0.7 0.8-0.7 4-1.8 4.1 -1.4 0.2-2.7 1.7-2.9 3.2 -0.4-0.6-1-1-1.8-1.2 -1.1 0.8 1.5 1.6 0.6 2.4 -0.8 0.2-1.4 0.7-1.8 1.5 -0.1 1.6 1.9 3 2.1 4.7 0.2 1.8 1 6 0.2 7.4 -0.4 0.7-4.4 3.1-3.1 3.2 -2 0.1-0.5 2.2-2.7 2.3 -1.6-0.4-2.1 0.3-1.6 2.1 -0.3 1.3-4 6.4-1 7.5 0.2 0.1 2.7 0.4 2.9 0.1 0 2.6-3 2.2-4.1 4 -0.2 1.8 3.6 3.8 0.9 3.8 0.7 1.4 2.5 1.8 3.8 2.3 0.8 1.4 1.7 2.6 2.8 3.8 2.1 2.4 4.4 4.6 5.5 7.7 3.1 2.2 4 5.8 6.6 8 2.3 2 5.2 3.3 8 4.4 3.2 1.2 5.8 2.6 8.7 4.3 0.5 1.5 2.1 6.4 0.9 7.7 -0.4 0.5-0.8 9.7-0.3 9.7 -0.3 2.2-2.3-1.1-0.4 2.4 0.4 0.5 0.6 1 0.3 1.5 0 0.2-1.7 3.2-3.1 2.4 0.2 0.6 0.6 1 1.1 1.3 13.2 1.8 26.6 2.2 39.9 1.1 -1.1-0.5-1.2-1.5-3-1.3 4.8-0.8 9 1.6 13.6-0.8 1-0.5 2.7-2.5 4-3.3 -0.1 0.1-0.1 0.1-0.2 0.2 2.6 0.1 8.8-4.7 9-6.9 0.5-5.4 8.6-6.1 10.9-9.8 5.7-0.7 8.4 1.2 12.3-2.2 3.2-2.8 4.1-5.7 6.2-8.7 1.4-2-2.2-6.6-1-8.8 2.7-0.7 6.9-1.2 8.1-3.5C746.2 1872.3 752.7 1867.1 751.2 1861.5z"/><path class="st2" d="M538.4 1608.4c2.8 0.3 2.6 1.5 4.4 3.3 0.3-0.7 6.7-7.9 7.3-7.1 -0.6 0.4-1.1 0.9-1.5 1.5 0.3-0.2 0.6-0.2 0.9 0 -0.9 0.6-1.6 1.4-2.1 2.4 1.9 0 4.9-1.3 6-1.9 2.7-1.3 5.2-3 7.5-5 1.9 0.3 3.8-2.4 6.1-2.6 2.7-0.2 5.8-1.4 7.4-3.7 -1-1-2.3 1.3-2.9 0.6 1.3-1.2 6.2-1.6 5.6-3.5 -2-0.7-4 1.2-5.9 0 1.3-1.1 0.7-2.4 0.6-3.8 -3.7-0.3-4.5 2.5-5.9 5 -1.1 0-0.1-1.5-0.6-1.5 -2 0.3-2.9 2.1-4.4 3.3 0 0.3-7 3.4-9.2 3.1 -2.7-0.3-2.9-1.8-5.8-1.5 -0.5 0.1-0.9 0.1-1.4 0.2 -1.2 1.1-2.5 2.2-3.7 3.3 0 0.3-0.1 0.8-0.5 1.4 -1.5 2.4-1.6 1.4-1.8 4.2C538.3 1607 535.4 1608 538.4 1608.4z"/><path class="st2" d="M529.7 1611.8c-0.6 0.7-1.4 1.5-2 2.3 1.6-0.7 3.1-1.2 3.7-1.8C531.1 1611.9 530.5 1611.8 529.7 1611.8z"/><path class="st2" d="M841.2 1684.6c0.1-2.1-0.2-3.7-0.9-5C839.4 1681.1 839.9 1683.6 841.2 1684.6z"/><path class="st2" d="M810.7 1633.4c-0.4-0.4-0.1-2.3 0.6-1.5 -2.2 2.3 5.3 5.9 5 8.8 -0.7-0.4-1.4-0.4-2.1 0 0.4 0.8 0.8 1.6 1.2 2.4 -0.5 0.2-1 0.3-1.5 0.3 0.2 2.4 3.1 2 4.1 3.8 -0.7-0.2-1.4-0.5-2.1-0.9 -1.5 5.4-1.7 1.3 2.4 4.1 -0.1-0.5 0-0.8 0.3-1.2 2.2 0.8 3.5 1.9 6.2 2.3 0.2-0.3-0.2-3.6-0.3-4.1 -1-2.4-3.6-5.1-5.1-7.3 -1.6-2.5-3.6-4.8-5.3-7.1 -0.3-4.5-2-2.9-3.8-6.2 0.6 0 1-0.3 1.2-0.9 -1.2-0.8-2.5-1.6-3.8-2.3 0 0.7 0.2 1.4 0.6 2.1 -0.2-0.1-0.4-0.2-0.6-0.3C807.9 1626.9 809.1 1633.1 810.7 1633.4z"/><path class="st2" d="M849 1710.8c-1-2.1-2.2-3.8-3.2-4 -2.3-0.4 1.6-10.6-2.8-11.1 -1.2 1.1-4-0.2-5.5-0.6 -2.6-0.6-4.4 0.2-6 1.8 0.2 0.7-7.2 2.1-8.9-1.2 -1-2 3-1.9 3.8-1.9 3.4 0.2 2.9-2.7 4.3-4.8 1-1.4 0.1-1.8-0.8-3.3 0.6-1.3 1.1-2.7 1.5-4.1 4.7 0.5 0.6-4.7 2.6-5.9 0.9 1 2 1.8 3.2 2.4 0.4-0.9 1-1.7 1.8-2.4 2.3 3.1 3 7 4.7 10.3 0 0.1 0.1 0.1 0.1 0.2 -3.6-13.1-8.7-25.8-15.2-37.9 -0.7 0.6-1.4 1.9-1.1 3.3 -2.3-1.1-1.9 1.7-3 2.5 -1.1 0.8-1.4 0.1-1.9-0.5 -0.3-0.4-0.6-0.9-1.4-0.8 0.5 1 0.8 2.1 0.9 3.2 -2-1.6-2.4-1.3-5-1.8 -0.3 2.6 5.3 6.9 6.9 9.2 1 1.5 2.6 7.1 1.4 9 -2.7-2-11.3-5.2-13.6-2.9 -0.3 1.4 1.6 6.9 2 8.6 0.3 1.5-0.2 5.6-0.7 7 4.1 2.3-1.1 7.2 5.9 5.9 3 3.6 2.9 8.2-0.7 10.8 -3.2 2.3-1.8 3.9-3.6 6.4 -2 2.6 1.3 5.4-1.3 8.4 -1.8 2.1-4.5 3.1-5.3 5.5 -1.2 3.5-4.5 4.9-4.5 9 -3.3 1.5-2.5 4.3-4.7 6.5 -1.7 1.7-0.3 4.3-0.6 6.5 0.5-0.1 0.8 0 1.2 0.3 0.7 1.2 1.1 6.7 0.9 8 -0.2 2.1-0.7 7.2-2 8.8 -2.5 3.1 0.4 4-0.3 6.9 -0.6 2.3 0.6 5.4 3.5 4.9 -1.7 3.5 5.1 5.7 4.1 10.3 0.9 2.8 5.8 5.8 8.2 8 2.6 2.3 4.5 0.8 6.4-0.8 1.8-1.4 3.7-2.8 6.2-1.2 0.9 0.6 8.9-6.1 10.4-7 1.1 1.2 0.8 3.3 1.2 4.7 1.3-0.3 2.4-1 3.2-2.1 1 5.7-3.1 10.2-2.7 15.6 0 0.2 0 0.4 0 0.6C849.7 1772.2 853.1 1741.1 849 1710.8"/><path class="st2" d="M803.6 1639.6c3 4.9 11.7 4.1 7.1-2.4 2.4-0.2-3-6.2-4.4-5.9 -0.6 0.4-1.1 0.9-1.5 1.5 0.6 0 1 0.3 1.2 0.9 -1.1 0-1.8-0.8-2.9-0.9C802.2 1634.2 807.2 1640.2 803.6 1639.6"/><path class="st2" d="M679.6 1551.9c-1.6 0.2-3.3 0.2-4.9 0.2 -3-0.1-6-0.1-8.5 1.2 1.4-0.1 2.6 0.2 3.8 0.9 -0.3 0-0.8 0-1.3 0 -1.2-0.1-2.6-0.2-3.1 0.6 0.8 0.2 1.3 0.2 1.5 0.1 0.3-0.1 2.7 1.6 2.3 2.6 7.7 1 12.9-3 19.5 2 0 0.4-3 2.5-2.5 2.8 2.2-0.5 2.8-0.8 4.6-0.4 -0.4 0.1-0.8 0.3-1.2 0.6 1.1 0.1 2.1 0.5 3 1.2 -0.1 0-3 0-2.6 0.3 0.6-0.2 1.1-0.1 1.5 0.3 -0.6 0.1-1.1 0.4-1.5 0.9 0.4-0.1 0.7 0 0.9 0.3 -0.5 0-0.9 0-1.4 0 -1.4 0.7 3.7 1 5.8 0.8 0.1-0.3 0.4-0.4 0.8-0.3 0.1 0.1-0.2 0.2-0.8 0.3 0 0.1-0.1 0.2-0.1 0.3 2 0.7 5.4 0.5 6.5 2 -0.7-0.1-0.5 0.1-0.4 0.4 0.2 0.4 0.5 0.7-1.8 0 -2-0.6-5.3-1.8-7.2-0.3 0.5 0.1 0.9 0.4 1.2 0.9 -1.9-0.3-3 4-2.9 4.1 1.4 1.4 8.8 0.6 10-2.1 -0.9-0.4-1.7-0.8-2.7-1.2 1.4 0.2 2.8 0.5 4.1 0.9 -0.4-0.1-0.7 0-0.9 0.3 0.1 0.6 0.6 0.5 1.1 0.5 0.3 0 0.6-0.1 0.7 0.1 1 3.7-4.9 2.7-6.8 3.8 1.6 0.3-1 1.3-1.3 2.1 -0.6 1-0.3 1.5 0.7 1.2 -0.3 0.2-0.6 0.4-0.9 0.5 1.1 1.2 3.5 0.2 4.4 1.2 -5.3 0-1.9 3 2.3 3.7 0 2.2-1.2 2.9 1 3.4 -1.8-0.1-1.5 1-0.6 2 0.8 1 2 2.1 2 2 0.5 1.5-0.1 0.7 1.5 1.8 0.5 0.4 2.7 0.3 3.1 0.9 -0.5 1.8-0.4 3.4-0.1 5.6 2.4 0.8 3.9-1.7 5 0 0.2 0.3 1.2 1 1.5 1l0.1-0.1c0 0.1 0 0.1-0.1 0.1 -2 1.9 3.7 1.9 4.5 2 0.1 0.8 0.5 1.2 1.3 1.3 1.1 0 1.1 0.4-0.1 1.1 2.2 0.2 4.1-0.1 6.2-0.6 -0.5 0.3-0.6 0.7-0.3 1.2 1.9 0.4 1.5-1.4 1.8-1.5 0.2 0 3.2 0.3 3.2 0.6 -0.8 0.3-1.4 0.7-1.8 1.5 1.5 0.3 3 0.6 4.4 0.9 -1.8 2.1 0.8 1.2 2.7 2.1 1-0.4 1.9-0.4 2.9-0.3 0.9 0 1.8 0.1 2.7-0.3 0.6-1.8-0.1-1.5-0.4-1.2 -0.4 0.4-0.2 0.2 0 0 0.2-0.2 0.6-0.7 1.3-1.5 -0.5-1.5-1.9-0.7-0.9-3.7 1.1-3.3-1.1-2.5-2.4-5.2 0.6 0 1.2-0.1 1.8-0.3 0-0.7-0.3-1.2-0.9-1.5 1.5-0.2 3 0.2 3.8-2.4 -1.1-0.6-2.1-1.3-3-2.1 0.7 0.2 1.4 0.1 2.1-0.3 -0.6-0.7-1.3-1.4-2.1-2.1 0.7 0.1 1.4 0 2.1-0.3 -0.1-0.8-0.5-1.4-1.2-1.8 3.8 1.3 6.5 3.4 10.1 3.3 -0.2-0.5-0.4-5.2-0.3-5.7 0.8 0.6 1.7 0.9 2.7 0.9 0.6-1.9-1-3.8 0.9-5.3 1.3 0.5 3.2 1.4 4.6 0.6 0 0 3-0.3 4.3-1C738.5 1563.3 709.2 1554 679.6 1551.9"/><path class="st2" d="M846.1 1695.1c-0.1-0.1-0.3-0.2-0.5 0.1 0.1 1.4 0.6 2.4 1.3 3.5C846.7 1697.5 846.4 1696.3 846.1 1695.1z"/><path class="st2" d="M842.6 1691.1c-0.2-3.2-0.6-4.7-2.4-6.2 0.5 2.1 0.5 4.6 1.8 6.5C842.1 1690.8 842.2 1690.7 842.6 1691.1z"/><path class="st2" d="M628.1 1557.8c1.8-0.5 3.5-0.9 5.3-0.9C632 1557.2 630 1557.4 628.1 1557.8c-1.1 0.3-2.2 0.6-3.4 0.8 -1 0.3-1.8 0.7-2.4 1.2 0.4-0.2 0.2 0.6-0.1 0.9 0.6-0.1 2-0.2 0.9-0.8 1-0.3 5.7-0.7 6.5 0 -1.5-0.1-10.4 0.7-10.6 3 1.7-0.1 6.1-1.4 7.4-0.3 -1.6 0.5-15.7 1.4-15 5.3 2.4 0 5.6-1.5 8.1-1.9 2.8-0.4 5.9-1.2 8.6-2 3.1-0.9 9.8 0.6 11.9-2.9 -3.1-0.1-6.7 1.5-9.7 0.6 2.4-0.7 5-0.3 7.5-1 1.8-0.5 2-1.5 3.8-1.6 1.6-0.1 6.2-1.4 7-3 -1.7-0.2-3.7 0.8-5.3 0.3 3-1 6.5-0.1 9.4-1.5 -0.6 0.2-1.2 0.1-1.8-0.3 1.9 0.1 13.2-2.4 18.8-3 -0.4 0-0.7 0-1-0.1 -5.3-0.1-10.6 0.1-15.9 0.5 -4.8 0.7-9.6 1.6-14.3 2.7 -4.6 1.1-11.1 1.4-15 4.1 0.4 0 0.9-0.1 1.3-0.2C625.7 1558.2 626.9 1558 628.1 1557.8z"/><path class="st2" d="M621.6 1559.3c0.3-0.1 0.7-0.3 0.9-0.6C622.1 1558.6 620.9 1559.2 621.6 1559.3z"/><path class="st2" d="M604.3 1566.3c0.3 0 0.5-0.2 0.7-0.2h0c0.2 0 0.3 0 0.4-0.2 3-0.9 6.8-1.7 8.6-1.7 1.9-1.6 5.1-2.6 7.2-3.6 -0.4 0.2-1.6-0.4-1.7-0.5 0.1-0.1 0.2-0.3 0.4-0.3 -0.3 0.1-0.7 0.2-1.1 0.4 -0.9 0-2.4 0.8-3.2 0.9 0 0 0.1 0 0.1 0 0.1 0-0.3 0.3-0.2 0.3l0.4-0.3c0.4 0-1.1 0.4-0.6 0.4 -0.5 0 1-0.4 0.6-0.4 -5.6 1.7-14.1 4.3-13.7 6.2C602.7 1566.9 603.4 1566.6 604.3 1566.3z"/><path class="st2" d="M782.3 1596.6c-0.1-1.1-3-3.3-4-3.9 -0.7-0.4-0.7-0.2-0.8 0 -0.1 0.3-0.4 0.5-2.1-0.3 -0.7-0.3-5.7-2.1-5.8-1.7 0.5 0.3 0.6 0.7 0.3 1.2 0-0.6-4.6-3.8-6.2-4.1 -0.4 0.7 1.1 1 0.6 1.2 -1-0.4-2.8-1.2-2.9 0.3 1 2.1 4.9 0.3 5.6 2.6 -0.3 0.1-0.8 0-1.4-0.2 -0.9-0.2-1.9-0.5-2.2 0.5 1.5 0.9 3.9 0.7 5 2.3 -0.9-0.3-1.4 0-1.5 0.9 1.7 0.5 18.5 6.9 18.3 3.8 0 0-0.3-0.7-0.8-1.3C783.9 1597.2 783.2 1596.5 782.3 1596.6"/><path class="st2" d="M640.7 1773.8c0-2.7-3-2.7-5-2.6 -0.1-0.7 0.9-0.9 0.3-1.5 -1.9-0.9-4.1-1.3-6.2-1.8 -0.5-1.5-2.1-2.1-3.4-2.5 -2.5-0.7-4.8-3-7.1-2.9 -3.2 0.1-5.7-1.4-9.2-0.4 -1.6 0.4-6.1 2.9-4.7 5.3 1.7 0.4 6.5-2.6 8.2-3.6 0.5 2.8 4 2.2 6.8 3.5 2.4 1.1 4.2 0 5.2 2.3 0.9 2 2.8 1.3 4.5 2.4 -0.6 1-2 0.8-1.8 2.4C632.4 1773.7 636.6 1774.3 640.7 1773.8z"/><path class="st2" d="M628.1 1780.8c0.3 0.2 5.9 1.3 5.5-0.3C632.2 1777.8 622.9 1777.9 628.1 1780.8z"/><path class="st2" d="M644.3 1780.3c1.2 0.3 2.5 0.4 3.7 0.2 0.6 1 1.5 1.6 2.7 1.8 0.7-5.7 10.2 0.7 10.3-3.6 -2.4-2.8-7.3-5-10.4-4.7 -1.6 0.2-7.6-1.4-8.1 0.6 0 0 3.8 3.9 3.5 3.8 -2.2 1-4.3-1.2-6.5-0.3C639 1781.6 642.8 1780.1 644.3 1780.3z"/><path class="st2" d="M664.5 1780c0.1 2.9 6.4 1.3 6-0.4C669.7 1779.5 664.3 1777.1 664.5 1780z"/><path class="st2" d="M558.2 1591.4c-1.2 0-4.3-0.6-4.4 1.5 2.2 1.8 9.8-0.7 9.1-3.9 -0.9-0.1-1.7-0.5-2.4-1.2 -1.6 0-3.1 0.4-4.4 1.2C555.4 1589.1 557.9 1591.3 558.2 1591.4z"/><path class="st2" d="M602.8 1573.5c5.6-0.6 10.8-3.6 16.4-3.7 1.6 0 4.1-0.4 5.1-2 1.3 1.7 3.9 0.5 5.4 0.2 2.1-0.5 2.8-1.4 4.9-2.6 -5-1.5-11 0.2-15.8 2 -2.2 0.8-3.5 0.6-5.7 1.4 -1.4 0.5-5.2 0-6.2 1 0.7-1.2 2.4-0.7 3.2-1.8 -2.7 0.1-5.2 1-7.7 2.1 -0.1 1.3 1.1 0.3 1.2 0.9C603 1572.2 602.4 1572 602.8 1573.5z"/><path class="st2" d="M643.2 1585.5c-3.1-1-7.1-0.2-7.1 3.6C638.9 1590.1 643.5 1589.3 643.2 1585.5z"/><path class="st2" d="M663.9 1577.4c-1.3 0.2-2.9 0.9-4.2 0.6 1.1-0.3 2.2-0.7 3.2-1.2 -0.3-1.4-2.5-1.2-4.6-1.1 -1.9 0.1-4.9 1.7-5.1 0.8 1.7-0.1-2.5-4.8-4.1-1.5 -0.2-1.8-1.5-1.5-2.8-1.1 -0.7 0.2-1.4 0.4-1.9 0.2 1-0.3 1.9-0.8 2.7-1.5 -2.1-1.5-12.9-2.7-13 1.5 -1.3-0.9-2.2-0.5-3.1-0.1 -0.8 0.3-1.5 0.7-2.5 0.1 0.8-0.8 1.5-1.7 2.1-2.7 -3.1-3-8.8-0.4-11.8 1.5 0.6-0.2 1.1-0.1 1.5 0.3 -1.3 0-3.5 0-3.8 1.8 0.5 0.2 0.9 0.5 1.2 0.9 -0.9 0-1.5 0.3-1.8 1.2 0.4 1 2.1 0.1 2.4 1.2 -0.9 0.9-2 1.2-3.2 0.9 0.7 0 1.3-0.3 1.8-0.9 -0.9-1.5-2.7-1.6-3-3.2 1.4-1.6 3.7-1.9 5-3.6 -3.7 0.5-14.2 3.2-12.7 7.4 -1.1 0.1-1.8 0.7-2.1 1.8 0.8 0.1 1.6 0 2.3-0.1 1.2-0.2 2.4-0.3 3.6 0.1 -1.1 0.9-4 0-4.4 1.8 1.2 1.3 3.6 0.7 5 0.3 1.6-0.5 1.6-0.3 1.9 0 0.3 0.2 0.8 0.4 2.8 0.2 4.2-0.5 8.1-0.9 12.2-0.7 0.3-1.7 1.2-1.4 2.4-1.1 0.8 0.2 1.8 0.4 2.8 0 3.1-1.2-0.6-1.7-0.8-2.1 1.3-0.8 8.6 2.6 9.7 3.2 -1 0.5-2.1 0.7-3.2 0.6 -0.4 2.6 2.7 1 4 0.7 2.7-0.8 2.2 0.8 4.7 1.3 6.5 1.4 1.1 6.5-2.8 7.4 0 1.1 2.6 1.8 2.1 2.6 -3.4 0.3-5.9 0.8-9.2 1 -1.6 0.1-5.1 1.6-4.6 4.1 2 0.1 10.2-1.3 10.3-2.9 0.1-0.9 8.9 3.9 10 4.9 -0.7 0.1-1.1 0.5-1.2 1.2 2.5 1.9 6.3 1.6 8.3 4.4 3.5-0.4 6.9 0.6 10.3 0.8 0-4.7-3.3-4.7-9.4-6.1 3.8 0.8 9-0.2 9.7 0.2 1.7 1.1 1.6 3.2 3.5 3.2 0.1-0.4 0.2-3 0-3.2 0.4 0.2 0.8 0.3 1.2 0.3 0.5-2.8-1.7-2.7-3-4.4 0.5 0.1 0.8-0.1 0.9-0.6 -1.5 0-9.7-4.9-9.1-5.6 0.8 0.7 1.6 0.9 2.7 0.6 0.3-1.5-1.3-0.9-1.5-2.1 2.8-1 6.3-1.3 8.5 0.4 1.8 1.4 2.5 4.9 4.7 4.8 0.3-0.9-1.1-2-0.3-2.7 1.2-0.1 2.9-0.6 4.1-0.6 0.9-0.5-1-1 0-1.5 2.2 0.2 3.9-1.5 1-2.5 -2.4-0.8-2.7 0.2-3.9-1.3 -1.4 0.1-3.4 0.9-4.7 0 0.9 0.3 1.5 0.1 2.1-0.6 -2.1-3.3-10.1-2.3-13.6-4.4 0.4-0.4 0.9-0.5 1.5-0.3 0.3-0.8-1.5-1.1-0.9-1.5 1.5 0.6 3.1 0.8 4.7 0.6 0.2-1.4-0.9-1.4-2-1.4 -0.9 0-1.8 0-2.1-0.7C669.9 1579.2 665.9 1577.1 663.9 1577.4"/><path class="st2" d="M615.8 1604.4c1.2 0 9.2 4.6 9.1 0 -1.5-0.6-3.1-0.8-4.7-0.6 0.8-2.7-3.3-0.9-5.2-1.7 -4.2-1.7-0.4-1.2-3.4-1.5 0.1-1.1-0.4-1.8-1.5-2.1 -0.8 1.6-2.2 2.8-2.7 4.6 -0.9 3.1-2.1 2.1-3.4 4.9 1.6 0.2 3.2-1.2 4.7-0.9 -0.2 0.6-0.2 1.2 0 1.8 2.5-0.1 4-2.5 6.5-2.7C615.9 1605.6 614.7 1604.6 615.8 1604.4z"/><path class="st2" d="M588.4 1592.1c-1 0.1-3.6-1.3-5-1.5 -0.9 0.9-3.8 3.1-4.1 4.1C582.6 1594.4 586.2 1595.3 588.4 1592.1z"/><path class="st2" d="M619.9 1559.8c0.3-0.1 0.5-0.2 0.7-0.3C620.3 1559.6 620.1 1559.7 619.9 1559.8z"/><path class="st2" d="M601.2 1574.3c-2.2-0.8-19.4 2.1-19.7 4.1C586.3 1577.7 599.8 1582.3 601.2 1574.3z"/><path class="st2" d="M704.1 1651.8c-0.4 0-0.7 0-1 0.1 -2.2 0.5-3.5 2.4-4.5 4.5 -1 2.1-1.7 4.3-2.8 5.4 -0.1 0.1-0.2 0.2-0.3 0.3 -0.8 0.7-0.9 1.5-0.3 2.4 -1.1 0.1-1.9 0.7-2.5 1.7 -0.1 0.3-0.2 0.6-0.1 0.9 0.1 0.7 1 1 2 1.1 0.3 0 0.7 0 1 0 0.3 0 0.7 0 1 0 0.3 0 0.6 0 0.8 0 0.1 0 0.2 0 0.3 0 0.2 0 0.4 0 0.8 0 0.7 0 1.6 0 2.6 0 1 0 2.1 0 3.1 0 0.7 0 1.4 0 1.9 0 0.6 0 1 0.1 1 0.2 -0.2 0.1-0.3 0.1-0.4 0.2 -1 0.5-1.8 1.2-2.5 2.2 0.5 0.3 0.9 0.4 1.4 0.4 1 0 1.7-0.6 2.5-1.2 0.1-0.1 0.1-0.1 0.2-0.2 0.7-0.6 1.4-1.1 2.2-1.1 0.2 0 0.3 0 0.5 0.1 -0.3 2.5-0.8 2.5 2.1 3.4 0.4 0.1 0.7 0.2 1 0.2 1.1 0 1.2-1.1 1.6-2.4 0.8-2.8-2.9-2.3-3.5-3 -0.1-0.8 0.4-1.1 1-1.3 0.7-0.3 1.4-0.5 1.1-1.7 -0.2-0.1-0.4-0.2-0.6-0.2 -0.3 0-0.6 0.1-0.9 0.3 -0.3 0.1-0.6 0.3-0.9 0.3 -0.1 0-0.2 0-0.2 0 0-1.4 2.3-3.2-0.4-3.8 -0.4-0.1-0.8-0.1-1.2-0.1 -0.5 0-1 0.1-1.4 0.2 -0.4 0.1-0.8 0.2-1.3 0.2 -0.7 0-1.5-0.2-2.5-1.1 3.4-1-0.9-1.2-2.2-1.2 -0.2 0-0.4 0-0.4 0 0.8-1.2 2.7-3.3 3.6-4.9 0.3-0.5 0.5-0.9 0.5-1.3C705.3 1651.9 704.7 1651.8 704.1 1651.8"/></svg>
 