<svg xmlns="http://www.w3.org/2000/svg" viewBox="0 0 710.8 704.1"><style type="text/css">
	.st0{fill:#D4EFF2;}
	.st1{opacity:0.3;}
	.st2{fill-opacity:0;}
	.st3{opacity:9.090909e-02;fill:#020202;enable-background:new    ;}
	.st4{opacity:0.1818;fill:#050505;enable-background:new    ;}
	.st5{opacity:0.2727;fill:#070707;enable-background:new    ;}
	.st6{opacity:0.3636;fill:#090909;enable-background:new    ;}
	.st7{opacity:0.4545;fill:#0C0C0C;enable-background:new    ;}
	.st8{opacity:0.5455;fill:#0E0E0E;enable-background:new    ;}
	.st9{opacity:0.6364;fill:#111111;enable-background:new    ;}
	.st10{opacity:0.7273;fill:#131313;enable-background:new    ;}
	.st11{opacity:0.8182;fill:#151515;enable-background:new    ;}
	.st12{opacity:0.9091;fill:#181818;enable-background:new    ;}
	.st13{fill:#1A1A1A;}
	.st14{opacity:9.090909e-02;enable-background:new    ;}
	.st15{opacity:0.1818;enable-background:new    ;}
	.st16{opacity:0.2727;enable-background:new    ;}
	.st17{opacity:0.3636;enable-background:new    ;}
	.st18{opacity:0.4545;enable-background:new    ;}
	.st19{opacity:0.5455;enable-background:new    ;}
	.st20{opacity:0.6364;enable-background:new    ;}
	.st21{opacity:0.7273;enable-background:new    ;}
	.st22{opacity:0.8182;enable-background:new    ;}
	.st23{opacity:0.9091;enable-background:new    ;}

	.st24{opacity:0.5;fill:none;stroke:#FFFFFF;stroke-width:4.824;stroke-miterlimit:10;stroke-dasharray:11.5775;enable-background:new    ;}
	.st25{opacity:0.2;}
	.st26{fill:#103754;}
	.st27{fill:#174F78;}
	.st28{fill:#B1B6B2;}
	.st29{fill:#0D2F44;}
	.st30{opacity:0.1;enable-background:new    ;}
	.st31{fill:#A6DAE9;}
	.st32{fill:#D1ECFB;}
	.st33{fill:#F8FDFF;}
	.st34{fill:#FFFFFF;}
	.st35{fill:#F9A818;}
	.st36{fill:#15B0BF;}
	.st37{fill:#2C5871;}
	.st38{fill:#0E303F;}
	.st39{fill:#F99B1C;}
	.st40{fill:#333333;}
	.st41{fill:#F9D19B;}
	.st42{fill:#F1C08B;}
	.st43{opacity:0.1;fill:#DDAC8C;enable-background:new    ;}
	.st44{fill:#FFE1AB;}
	.st45{fill:#F8CB96;}
	.st46{fill:#353535;}
	.st47{fill:#1B1B1B;}
	.st48{opacity:0.1;fill:#FFFFFF;enable-background:new    ;}
	.st49{fill:none;}
	.st50{opacity:0.6;fill:#FFFFFF;enable-background:new    ;}
	.st51{fill:#164866;}
	.st52{fill:#FD6120;}
	.st53{fill:#FFC640;}
	.st54{fill:#FFB733;}
	.st55{fill:#FF6D3B;}
	.st56{fill:#B8D1E6;}
	.st57{fill:#E1EFFA;}
	.st58{fill:#CEE2F2;}
	.st59{fill:#FFD55C;}
	.st60{fill:#CCCCCC;}
	.st61{fill:#F2F2F2;}
	.st62{fill:#2F4F6B;}
	.st63{fill:#4C8EB4;}
	.st64{fill:#F5E6B6;}
	.st65{fill:#F0B16C;}
	.st66{fill:#C62229;}
	.st67{fill:#F85A68;}
</style><g class="st1"><path class="st2" d="M518.4 577.5c-1.2-2.2-2.8-4.4-4.7-6.6 -11.9-13.4-34.9-23.3-55.6-30.3l0.2-1.8c-9.9-3.5-35.2-9.1-35.2-9.1l-0.1 0.7c-3-0.8-5.8-1.5-8.6-2.2v-4.8 -28.7c3.3-2 6.4-4.4 9.5-7 27.4 5.2 38.6 14.2 38.6 14.2s53-97.6 28-171c-27.4-80.8-107.3-69.2-107.3-69.2s-79.9-11.6-107.3 69.2c-24.9 73.4 28 171 28 171s10.9-8.7 37.3-13.9c2.9 2.5 6 4.8 9.2 6.7v5.6 27.9c-1.9 0.5-3.9 1-5.9 1.5l0 0c-11.1 1.7-22.6 4.7-33.6 8.4 -0.5 0.2-1 0.3-1.4 0.5l0 0c-17 5.9-32.9 13.6-44.7 21.4 -8.5 5.4-15 11.2-18.3 17.4 -13.5 48.1-24.9 92.7-24.9 92.7h60.7 71.4 9.3 19.3 22.1 5.2 4.1 68.2 61.3C543.2 670.2 535.6 621.1 518.4 577.5z"/><path class="st3" d="M517.2 576.7c-1.2-2.2-2.8-4.4-4.7-6.6 -12-13.3-34.9-23.3-55.6-30.3l0.2-1.8c-9.9-3.5-35.2-9.1-35.2-9.1l-0.1 0.7c-3-0.8-5.8-1.5-8.6-2.2v-4.8V494c3.3-2 6.4-4.4 9.5-7 27.4 5.2 38.6 14.2 38.6 14.2s53-97.6 28-171C461.9 249.4 382 261 382 261s-79.9-11.6-107.3 69.2c-24.9 73.4 28 171 28 171s10.9-8.7 37.3-13.9c2.9 2.5 6 4.8 9.2 6.7v5.6 27.9c-1.9 0.5-3.9 1-5.9 1.5l0 0c-11.1 1.7-22.5 4.8-33.6 8.4 -0.5 0.2-1 0.3-1.4 0.5l0 0c-17 5.9-32.8 13.7-44.7 21.4 -8.4 5.5-15 11.2-18.3 17.4 -13.5 48.1-24.9 94.2-24.9 94.2h60.8 71.4 9.3 19.3 22.1 5.2 4.1 68.2 61.3C542.1 670.9 534.4 620.4 517.2 576.7z"/><path class="st4" d="M516.1 576c-1.2-2.2-2.8-4.4-4.7-6.6 -12-13.3-34.9-23.3-55.6-30.3l0.2-1.8c-9.9-3.5-35.2-9.1-35.2-9.1l-0.1 0.7c-3-0.8-5.8-1.5-8.6-2.2v-4.8 -28.7c3.3-2 6.4-4.4 9.5-7 27.4 5.2 38.6 14.2 38.6 14.2s53-97.6 28-171c-27.4-80.8-107.3-69.2-107.3-69.2s-79.9-11.6-107.3 69.2c-24.9 73.4 28 171 28 171s10.9-8.7 37.3-13.9c2.9 2.5 6 4.8 9.2 6.7v5.6 27.9c-1.9 0.5-3.9 1-5.9 1.5l0 0c-11.1 1.7-22.5 4.8-33.6 8.4 -0.5 0.2-1 0.3-1.4 0.5l0 0c-17 5.9-32.8 13.7-44.7 21.4 -8.4 5.5-15 11.2-18.3 17.4 -13.5 48.1-24.9 95.7-24.9 95.7h60.8 71.4 9.3 19.3 22.1 5.2 4.1 68.2H541C540.9 671.7 533.3 619.6 516.1 576z"/><path class="st5" d="M514.9 575.2c-1.2-2.2-2.8-4.4-4.7-6.6 -12-13.3-34.9-23.3-55.6-30.3l0.2-1.8c-9.9-3.5-35.2-9.1-35.2-9.1l-0.1 0.7c-3-0.8-5.8-1.5-8.6-2.2v-4.8 -28.7c3.3-2 6.4-4.4 9.5-7 27.4 5.2 38.6 14.2 38.6 14.2s53-97.6 28-171c-27.4-80.8-107.3-69.2-107.3-69.2s-79.9-11.6-107.3 69.2c-24.9 73.4 28 171 28 171s10.9-8.7 37.3-13.9c2.9 2.5 6 4.8 9.2 6.7v5.6 27.9c-1.9 0.5-3.9 1-5.9 1.5l0 0c-11.1 1.7-22.5 4.8-33.6 8.4 -0.5 0.2-1 0.3-1.4 0.5l0 0c-17 5.9-32.8 13.7-44.7 21.4 -8.4 5.5-15 11.2-18.3 17.4 -13.5 48.1-24.9 97.2-24.9 97.2h60.8 71.4 9.3 19.3H401h5.2 4.1 68.2 61.3C539.8 672.4 532.1 618.9 514.9 575.2z"/><path class="st6" d="M513.8 574.5c-1.2-2.2-2.8-4.4-4.7-6.6 -12-13.3-34.9-23.3-55.6-30.3l0.2-1.8c-9.9-3.5-35.2-9.1-35.2-9.1l-0.1 0.7c-3-0.8-5.8-1.5-8.6-2.2v-4.8 -28.7c3.3-2 6.4-4.4 9.5-7 27.4 5.2 38.6 14.2 38.6 14.2s53-97.6 28-171c-27.4-80.8-107.3-69.2-107.3-69.2s-79.9-11.6-107.3 69.2c-24.9 73.4 28 171 28 171s10.9-8.7 37.3-13.9c2.9 2.5 6 4.8 9.2 6.7v5.6 27.9c-1.9 0.5-3.9 1-5.9 1.5l0 0c-11.1 1.7-22.5 4.8-33.6 8.4 -0.5 0.2-1 0.3-1.4 0.5l0 0c-17 5.9-32.8 13.7-44.7 21.4 -8.4 5.5-15 11.2-18.3 17.4 -13.5 48.1-24.9 98.7-24.9 98.7h60.8 71.4 9.3 19.3 22.1 5.2 4.1 68.2 61.3C538.6 673.2 531 618.1 513.8 574.5z"/><path class="st7" d="M512.6 573.7c-1.2-2.2-2.8-4.4-4.7-6.6 -12-13.3-34.9-23.3-55.6-30.3l0.2-1.8c-9.9-3.5-35.2-9.1-35.2-9.1l-0.1 0.7c-3-0.8-5.8-1.5-8.6-2.2v-4.8V491c3.3-2 6.4-4.4 9.5-7 27.4 5.2 38.6 14.2 38.6 14.2s53-97.6 28-171C457.3 246.4 377.4 258 377.4 258s-79.9-11.6-107.3 69.2c-24.9 73.4 28 171 28 171s10.9-8.7 37.3-13.9c2.9 2.5 6 4.8 9.2 6.7v5.6 27.9c-1.9 0.5-3.9 1-5.9 1.5l0 0c-11.1 1.7-22.5 4.8-33.6 8.4 -0.5 0.2-1 0.3-1.4 0.5l0 0c-17 5.9-32.8 13.7-44.7 21.4 -8.4 5.5-15 11.2-18.3 17.4 -13.5 48.1-24.9 100.2-24.9 100.2h60.8H348h9.3 19.3 22.1 5.2 4.1 68.2 61.3C537.5 673.9 529.8 617.4 512.6 573.7z"/><path class="st8" d="M511.5 573c-1.2-2.2-2.8-4.4-4.7-6.6 -12-13.3-34.9-23.3-55.6-30.3l0.2-1.8c-9.9-3.5-35.2-9.1-35.2-9.1l-0.1 0.7c-3-0.8-5.8-1.5-8.6-2.2v-4.8 -28.7c3.3-2 6.4-4.4 9.5-7 27.4 5.2 38.6 14.2 38.6 14.2s53-97.6 28-171c-27.4-80.8-107.3-69.2-107.3-69.2s-79.9-11.6-107.3 69.2c-24.9 73.4 28 171 28 171s10.9-8.7 37.3-13.9c2.9 2.5 6 4.8 9.2 6.7v5.6 27.9c-1.9 0.5-3.9 1-5.9 1.5l0 0c-11.1 1.7-22.5 4.8-33.6 8.4 -0.5 0.2-1 0.3-1.4 0.5l0 0c-17 5.9-32.8 13.7-44.7 21.4 -8.4 5.5-15 11.2-18.3 17.4 -13.5 48.1-24.9 101.7-24.9 101.7h60.8 71.4 9.3 19.3 22.1 5.2 4.1 68.2 61.2C536.3 674.7 528.7 616.6 511.5 573z"/><path class="st9" d="M510.4 572.2c-1.2-2.2-2.8-4.4-4.7-6.6 -12-13.3-34.9-23.3-55.6-30.3l0.2-1.8c-9.9-3.5-35.2-9.1-35.2-9.1l-0.1 0.7c-3-0.8-5.8-1.5-8.6-2.2v-4.8 -28.7c3.3-2 6.4-4.4 9.5-7 27.4 5.2 38.6 14.2 38.6 14.2s53-97.6 28-171c-27.4-80.8-107.3-69.2-107.3-69.2s-79.9-11.6-107.3 69.2c-24.9 73.4 28 171 28 171s10.9-8.7 37.3-13.9c2.9 2.5 6 4.8 9.2 6.7v5.6 27.9c-1.9 0.5-3.9 1-5.9 1.5l0 0c-11.1 1.7-22.5 4.8-33.6 8.4 -0.5 0.2-1 0.3-1.4 0.5l0 0c-17 5.9-32.8 13.7-44.7 21.4 -8.4 5.5-15 11.2-18.3 17.4 -13.5 48.1-24.9 103.2-24.9 103.2h60.7 71.4 9.3 19.3 22.1 5.2 4.1 68.2 61.3C535.2 675.4 527.6 615.9 510.4 572.2z"/><path class="st10" d="M509.2 571.5c-1.2-2.2-2.8-4.4-4.7-6.6 -12-13.3-34.9-23.3-55.6-30.3l0.2-1.8c-9.9-3.5-35.2-9.1-35.2-9.1l-0.1 0.7c-3-0.8-5.8-1.5-8.6-2.2v-4.8 -28.7c3.3-2 6.4-4.4 9.5-7 27.4 5.2 38.6 14.2 38.6 14.2s53-97.6 28-171C453.9 244.1 374 255.7 374 255.7s-79.9-11.6-107.3 69.2c-24.9 73.4 28 171 28 171s10.9-8.7 37.3-13.9c2.9 2.5 6 4.8 9.2 6.7v5.6 27.9c-1.9 0.5-3.9 1-5.9 1.5l0 0c-11.1 1.7-22.5 4.8-33.6 8.4 -0.5 0.2-1 0.3-1.4 0.5l0 0c-17 5.9-32.8 13.7-44.7 21.4 -8.4 5.5-15 11.2-18.3 17.4 -13.7 48.1-25 104.8-25 104.8h60.8 71.4 9.3 19.3 22.2 5.2 4.1 68.2 61.3C534.1 676.2 526.4 615.1 509.2 571.5z"/><path class="st11" d="M508.1 570.7c-1.2-2.2-2.8-4.4-4.7-6.6 -12-13.3-34.9-23.3-55.6-30.3l0.2-1.8c-9.9-3.5-35.2-9.1-35.2-9.1l-0.1 0.7c-3-0.8-5.8-1.5-8.6-2.2v-4.8V488c3.3-2 6.4-4.4 9.5-7 27.4 5.2 38.6 14.2 38.6 14.2s53-97.6 28-171C452.8 243.4 372.9 255 372.9 255s-79.9-11.6-107.3 69.2c-24.9 73.4 28 171 28 171s10.9-8.7 37.3-13.9c2.9 2.5 6 4.8 9.2 6.7v5.6 27.9c-1.9 0.5-3.9 1-5.9 1.5l0 0c-11.1 1.7-22.5 4.8-33.6 8.4 -0.5 0.2-1 0.3-1.4 0.5l0 0c-17 5.9-32.8 13.7-44.7 21.4 -8.4 5.5-15 11.2-18.3 17.4 -13.5 48.1-24.9 106.2-24.9 106.2h60.8 71.4 9.3 19.3 22.1 5.2 4.1 68.2H533C532.9 676.9 525.3 614.4 508.1 570.7z"/><path class="st12" d="M506.9 570c-1.2-2.2-2.8-4.4-4.7-6.6 -12.1-13.3-34.9-23.3-55.6-30.3l0.2-1.8c-9.9-3.5-35.2-9.1-35.2-9.1l-0.1 0.7c-3-0.8-5.8-1.5-8.6-2.2v-4.8 -28.7c3.3-2 6.4-4.4 9.5-7 27.4 5.2 38.6 14.2 38.6 14.2s53-97.6 28-171c-27.4-80.8-107.3-69.2-107.3-69.2s-79.9-11.6-107.3 69.2c-24.9 73.4 28 171 28 171s10.9-8.7 37.3-13.9c2.9 2.5 6 4.8 9.2 6.7v5.6 27.9c-1.9 0.5-3.9 1-5.9 1.5l0 0c-11.1 1.7-22.5 4.8-33.6 8.4 -0.5 0.2-1 0.3-1.4 0.5l0 0c-17 5.9-32.8 13.7-44.7 21.4 -8.4 5.5-15 11.2-18.3 17.4 -13.5 48.1-24.9 107.7-24.9 107.7h60.8 71.4 9.3 19.3H393h5.2 4.1 68.2 61.3C531.8 677.7 524.1 613.6 506.9 570z"/><path class="st13" d="M505.8 569.2c-1.2-2.2-2.8-4.4-4.7-6.6 -11.9-13.4-34.9-23.3-55.6-30.3l0.2-1.8c-9.9-3.5-35.2-9.1-35.2-9.1l-0.1 0.7c-3-0.8-5.8-1.5-8.6-2.2v-4.8 -28.7c3.3-2 6.4-4.4 9.5-7 27.4 5.2 38.6 14.2 38.6 14.2s53-97.6 28-171c-27.4-80.8-107.3-69.2-107.3-69.2s-79.9-11.6-107.3 69.2c-24.9 73.4 28 171 28 171s10.9-8.7 37.3-13.9c2.9 2.5 6 4.8 9.2 6.7v5.6 27.9c-1.9 0.5-3.9 1-5.9 1.5l0 0c-11.1 1.7-22.6 4.7-33.6 8.4 -0.5 0.2-1 0.3-1.4 0.5l0 0c-17 5.9-32.9 13.6-44.7 21.4 -8.5 5.4-15 11.2-18.3 17.4C220.4 617.2 209 678.3 209 678.3h60.8 71.4 9.3 19.3 22.1 5.2 4.1 68.2 61.3C530.6 678.4 523 612.9 505.8 569.2z"/></g><g class="st1"><circle class="st2" cx="165.8" cy="88.9" r="25.9"/><circle class="st14" cx="165" cy="87.8" r="25.9"/><circle class="st15" cx="164.1" cy="86.7" r="25.9"/><circle class="st16" cx="163.3" cy="85.6" r="25.9"/><circle class="st17" cx="162.4" cy="84.5" r="25.9"/><circle class="st18" cx="161.6" cy="83.4" r="25.9"/><circle class="st19" cx="160.7" cy="82.3" r="25.9"/><circle class="st20" cx="159.9" cy="81.2" r="25.9"/><circle class="st21" cx="159" cy="80.1" r="25.9"/><circle class="st22" cx="158.2" cy="79" r="25.9"/><circle class="st23" cx="157.3" cy="77.9" r="25.9"/><circle cx="156.5" cy="76.8" r="25.9"/></g><g class="st1"><path class="st2" d="M708 350.1l2.8-2.8 -43-42.2 -2.8 2.8 0 0 -0.6 0.6 -4.6-4.4c5-6.6 7.6-14.5 7.5-22.9 -0.2-20.6-17.2-37.2-37.8-37 -10 0.1-19.3 4.1-26.3 11.2 -7 7.2-10.8 16.6-10.7 26.6s4.1 19.3 11.3 26.3 16.6 10.8 26.6 10.7c8.4-0.1 16.3-2.9 22.8-8.1l4.6 4.4 -3.4 3.5 43 42.2 5.1-5.2L708 350.1 708 350.1z"/><path class="st14" d="M707.1 349.3l2.8-2.8 -43-42.2 -2.8 2.8 0 0 -0.6 0.6 -4.6-4.4c5-6.6 7.6-14.5 7.5-22.9 -0.2-20.6-17.2-37.2-37.8-37 -10 0.1-19.3 4.1-26.3 11.2 -7 7.2-10.8 16.6-10.7 26.6s4.1 19.3 11.3 26.3 16.6 10.8 26.6 10.7c8.4-0.1 16.3-2.9 22.8-8.1l4.6 4.4 -3.4 3.5 43 42.2 5.1-5.2L707.1 349.3 707.1 349.3z"/><path class="st15" d="M706.2 348.4l2.8-2.8 -43-42.2 -2.8 2.8 0 0 -0.6 0.6 -4.6-4.4c5-6.6 7.6-14.5 7.5-22.9 -0.2-20.6-17.2-37.2-37.8-37 -10 0.1-19.3 4.1-26.3 11.2 -7 7.2-10.8 16.6-10.7 26.6s4.1 19.3 11.3 26.3 16.6 10.8 26.6 10.7c8.4-0.1 16.3-2.9 22.8-8.1l4.6 4.4 -3.4 3.5 43 42.2 5.1-5.2L706.2 348.4 706.2 348.4z"/><path class="st16" d="M705.2 347.6l2.8-2.8 -43-42.2 -2.8 2.8 0 0 -0.6 0.6 -4.6-4.4c5-6.6 7.6-14.5 7.5-22.9 -0.2-20.6-17.2-37.2-37.8-37 -10 0.1-19.3 4.1-26.3 11.2 -7 7.2-10.8 16.6-10.7 26.6s4.1 19.3 11.3 26.3 16.6 10.8 26.6 10.7c8.4-0.1 16.3-2.9 22.8-8.1l4.6 4.4 -3.4 3.5 43 42.2 5.1-5.2L705.2 347.6 705.2 347.6z"/><path class="st17" d="M704.3 346.7l2.8-2.8 -43-42.2 -2.8 2.8 0 0 -0.6 0.6 -4.6-4.4c5-6.6 7.6-14.5 7.5-22.9 -0.2-20.6-17.2-37.2-37.8-37 -10 0.1-19.3 4.1-26.3 11.2 -7 7.2-10.8 16.6-10.7 26.6s4.1 19.3 11.3 26.3 16.6 10.8 26.6 10.7c8.4-0.1 16.3-2.9 22.8-8.1l4.6 4.4 -3.4 3.5 43 42.2 5.1-5.2L704.3 346.7 704.3 346.7z"/><path class="st18" d="M703.4 345.9l2.8-2.8 -43-42.2 -2.8 2.8 0 0 -0.6 0.6 -4.6-4.4c5-6.6 7.6-14.5 7.5-22.9 -0.2-20.6-17.2-37.2-37.8-37 -10 0.1-19.3 4.1-26.3 11.2 -7 7.2-10.8 16.6-10.7 26.6s4.1 19.3 11.3 26.3 16.6 10.8 26.6 10.7c8.4-0.1 16.3-2.9 22.8-8.1l4.6 4.4 -3.4 3.5 43 42.2 5.1-5.2L703.4 345.9 703.4 345.9z"/><path class="st19" d="M702.5 345l2.8-2.8 -43-42.2 -2.8 2.8 0 0 -0.6 0.6 -4.6-4.4c5-6.6 7.6-14.5 7.5-22.9 -0.2-20.6-17.2-37.2-37.8-37 -10 0.1-19.3 4.1-26.3 11.2 -7 7.2-10.8 16.6-10.7 26.6s4.1 19.3 11.3 26.3 16.6 10.8 26.6 10.7c8.4-0.1 16.3-2.9 22.8-8.1l4.6 4.4 -3.4 3.5 43 42.2 5.1-5.2L702.5 345 702.5 345z"/><path class="st20" d="M701.5 344.2l2.8-2.8 -43-42.2 -2.8 2.8 0 0 -0.6 0.6 -4.6-4.4c5-6.6 7.6-14.5 7.5-22.9 -0.2-20.6-17.2-37.2-37.8-37 -10 0.1-19.3 4.1-26.3 11.2 -7 7.2-10.8 16.6-10.7 26.6s4.1 19.3 11.3 26.3 16.6 10.8 26.6 10.7c8.4-0.1 16.3-2.9 22.8-8.1l4.6 4.4 -3.4 3.5 43 42.2 5.1-5.2L701.5 344.2 701.5 344.2z"/><path class="st21" d="M700.6 343.3l2.8-2.8 -43-42.2 -2.8 2.8 0 0 -0.6 0.6 -4.6-4.4c5-6.6 7.6-14.5 7.5-22.9 -0.2-20.6-17.2-37.2-37.8-37 -10 0.1-19.3 4.1-26.3 11.2 -7 7.2-10.8 16.6-10.7 26.6s4.1 19.3 11.3 26.3 16.6 10.8 26.6 10.7c8.4-0.1 16.3-2.9 22.8-8.1l4.6 4.4L647 312l43 42.2 5.1-5.2L700.6 343.3 700.6 343.3z"/><path class="st22" d="M699.7 342.5l2.8-2.8 -43-42.2 -2.8 2.8 0 0 -0.6 0.6 -4.6-4.4c5-6.6 7.6-14.5 7.5-22.9 -0.2-20.6-17.2-37.2-37.8-37 -10 0.1-19.3 4.1-26.3 11.2 -7 7.2-10.8 16.6-10.7 26.6s4.1 19.3 11.3 26.3 16.6 10.8 26.6 10.7c8.4-0.1 16.3-2.9 22.8-8.1l4.6 4.4 -3.4 3.5 43 42.2 5.1-5.2L699.7 342.5 699.7 342.5z"/><path class="st23" d="M698.8 341.6l2.8-2.8 -43-42.2 -2.8 2.8 0 0 -0.6 0.6 -4.6-4.4c5-6.6 7.6-14.5 7.5-22.9 -0.2-20.6-17.2-37.2-37.8-37 -10 0.1-19.3 4.1-26.3 11.2 -7 7.2-10.8 16.6-10.7 26.6s4.1 19.3 11.3 26.3 16.6 10.8 26.6 10.7c8.4-0.1 16.3-2.9 22.8-8.1l4.6 4.4 -3.4 3.5 43 42.2 5.1-5.2L698.8 341.6 698.8 341.6z"/><path d="M697.9 340.8l2.8-2.8 -43-42.2 -2.8 2.8 0 0 -0.6 0.6 -4.6-4.4c5-6.6 7.6-14.5 7.5-22.9 -0.2-20.6-17.2-37.2-37.8-37 -10 0.1-19.3 4.1-26.3 11.2 -7 7.2-10.8 16.6-10.7 26.6s4.1 19.3 11.3 26.3 16.6 10.8 26.6 10.7c8.4-0.1 16.3-2.9 22.8-8.1l4.6 4.4 -3.4 3.5 43 42.2 5.1-5.2L697.9 340.8 697.9 340.8z"/></g><g class="st1"><path class="st2" d="M201.1 301.3h-39.8c-2 0-3.7 1.6-3.7 3.7v17.5 36.3c0 2 1.6 3.7 3.7 3.7h39.8c2 0 3.7-1.6 3.7-3.7v-36.3V305C204.8 303 203.1 301.3 201.1 301.3z"/><path class="st14" d="M200 300.4h-39.8c-2 0-3.7 1.6-3.7 3.7v17.5 36.3c0 2 1.6 3.7 3.7 3.7H200c2 0 3.7-1.6 3.7-3.7v-36.3 -17.5C203.6 302.1 202 300.4 200 300.4z"/><path class="st15" d="M198.8 299.6H159c-2 0-3.7 1.6-3.7 3.7v17.5V357c0 2 1.6 3.7 3.7 3.7h39.8c2 0 3.7-1.6 3.7-3.7v-36.3 -17.5C202.4 301.2 200.8 299.6 198.8 299.6z"/><path class="st16" d="M197.6 298.7h-39.8c-2 0-3.7 1.6-3.7 3.7v17.5 36.3c0 2 1.6 3.7 3.7 3.7h39.8c2 0 3.7-1.6 3.7-3.7v-36.3 -17.5C201.3 300.3 199.6 298.7 197.6 298.7z"/><path class="st17" d="M196.5 297.8h-39.8c-2 0-3.7 1.6-3.7 3.7V319v36.3c0 2 1.6 3.7 3.7 3.7h39.8c2 0 3.7-1.6 3.7-3.7V319v-17.5C200.1 299.4 198.5 297.8 196.5 297.8z"/><path class="st18" d="M195.3 296.9h-39.8c-2 0-3.7 1.6-3.7 3.7v17.5 36.3c0 2 1.6 3.7 3.7 3.7h39.8c2 0 3.7-1.6 3.7-3.7v-36.3 -17.5C199 298.5 197.3 296.9 195.3 296.9z"/><path class="st19" d="M194.1 296h-39.8c-2 0-3.7 1.6-3.7 3.7v17.5 36.3c0 2 1.6 3.7 3.7 3.7h39.8c2 0 3.7-1.6 3.7-3.7v-36.3 -17.5C197.8 297.6 196.2 296 194.1 296z"/><path class="st20" d="M193 295.1h-39.8c-2 0-3.7 1.6-3.7 3.7v17.5 36.3c0 2 1.6 3.7 3.7 3.7H193c2 0 3.7-1.6 3.7-3.7v-36.3 -17.5C196.6 296.8 195 295.1 193 295.1z"/><path class="st21" d="M191.8 294.2H152c-2 0-3.7 1.6-3.7 3.7v17.5 36.3c0 2 1.6 3.7 3.7 3.7h39.8c2 0 3.7-1.6 3.7-3.7v-36.3 -17.5C195.5 295.9 193.8 294.2 191.8 294.2z"/><path class="st22" d="M190.6 293.4h-39.8c-2 0-3.7 1.6-3.7 3.7v17.5 36.3c0 2 1.6 3.7 3.7 3.7h39.8c2 0 3.7-1.6 3.7-3.7v-36.3V297C194.3 295 192.7 293.4 190.6 293.4z"/><path class="st23" d="M189.5 292.5h-39.8c-2 0-3.7 1.6-3.7 3.7v17.5V350c0 2 1.6 3.7 3.7 3.7h39.8c2 0 3.7-1.6 3.7-3.7v-36.3 -17.5C193.1 294.1 191.5 292.5 189.5 292.5z"/><path d="M188.3 291.6h-39.8c-2 0-3.7 1.6-3.7 3.7v17.5V349c0 2 1.6 3.7 3.7 3.7h39.8c2 0 3.7-1.6 3.7-3.7v-36.3 -17.5C192 293.2 190.3 291.6 188.3 291.6z"/></g><g class="st1"><path class="st2" d="M52 206.9v73.3h120.3v-73.3l-10.2-7.4v-40.3c0-6.8-5.5-12.2-12.2-12.2H50c-6.8 0-12.2 5.5-12.2 12.2v6.9H13.3c0 6.8 5.5 12.2 12.2 12.2h36.8v21.2L52 206.9z"/><path class="st14" d="M50.8 205.7V279h120.3v-73.3l-10.2-7.4V158c0-6.8-5.5-12.2-12.2-12.2H48.8c-6.8 0-12.2 5.5-12.2 12.2v6.9H12.1c0 6.8 5.5 12.2 12.2 12.2H61v21.2L50.8 205.7z"/><path class="st15" d="M49.6 204.5v73.3h120.3v-73.3l-10.2-7.4v-40.3c0-6.8-5.5-12.2-12.2-12.2H47.6c-6.8 0-12.2 5.5-12.2 12.2v6.9H10.9c0 6.8 5.5 12.2 12.2 12.2h36.7v21.2L49.6 204.5z"/><path class="st16" d="M48.4 203.3v73.3h120.3v-73.3l-10.2-7.4v-40.3c0-6.8-5.5-12.2-12.2-12.2H46.4c-6.8 0-12.2 5.5-12.2 12.2v6.9H9.7c0 6.8 5.5 12.2 12.2 12.2h36.7v21.2L48.4 203.3z"/><path class="st17" d="M47.2 202.1v73.3h120.3v-73.3l-10.2-7.4v-40.3c0-6.8-5.5-12.2-12.2-12.2H45.2c-6.8 0-12.2 5.5-12.2 12.2v6.9H8.5c0 6.8 5.5 12.2 12.2 12.2h36.7v21.2L47.2 202.1z"/><path class="st18" d="M46 200.9v73.3h120.3v-73.3l-10.2-7.4v-40.3c0-6.8-5.5-12.2-12.2-12.2H44c-6.8 0-12.2 5.5-12.2 12.2v6.9H7.3c0 6.8 5.5 12.2 12.2 12.2h36.7v21.2L46 200.9z"/><path class="st19" d="M44.8 199.7V273h120.3v-73.3l-10.2-7.4V152c0-6.8-5.5-12.2-12.2-12.2H42.8c-6.8 0-12.2 5.5-12.2 12.2v6.9H6.1c0 6.8 5.5 12.2 12.2 12.2H55v21.2L44.8 199.7z"/><path class="st20" d="M43.6 198.5v73.3h120.3v-73.3l-10.2-7.4v-40.3c0-6.8-5.5-12.2-12.2-12.2H41.6c-6.8 0-12.2 5.5-12.2 12.2v6.9H4.9c0 6.8 5.5 12.2 12.2 12.2h36.7v21.2L43.6 198.5z"/><path class="st21" d="M42.4 197.3v73.3h120.3v-73.3l-10.2-7.4v-40.3c0-6.8-5.5-12.2-12.2-12.2H40.4c-6.8 0-12.2 5.5-12.2 12.2v6.9H3.7c0 6.8 5.5 12.2 12.2 12.2h36.7v21.2L42.4 197.3z"/><path class="st22" d="M41.2 196.1v73.3h120.3v-73.3l-10.2-7.4v-40.3c0-6.8-5.5-12.2-12.2-12.2H39.2c-6.8 0-12.2 5.5-12.2 12.2v6.9H2.4c0 6.8 5.5 12.2 12.2 12.2h36.7v21.2L41.2 196.1z"/><path class="st23" d="M40 194.9v73.3h120.3v-73.3l-10.2-7.4v-40.3c0-6.8-5.5-12.2-12.2-12.2H38c-6.8 0-12.2 5.5-12.2 12.2v6.9H1.2c0 6.8 5.5 12.2 12.2 12.2h36.7v21.2L40 194.9z"/><path d="M38.8 193.8V267h120.3v-73.3l-10.2-7.4V146c0-6.8-5.5-12.2-12.2-12.2H36.8c-6.8 0-12.2 5.5-12.2 12.2v6.9H0c0 6.8 5.5 12.2 12.2 12.2h36.7v21.2L38.8 193.8z"/></g><g class="st1"><polygon class="st2" points="534.7 502.4 552.9 542.1 576.2 514.3 597.7 520.4 644.1 433.4 504.6 493.9 "/><polygon class="st14" points="533.7 501.3 551.8 540.9 575.2 513.1 596.6 519.2 643 432.2 503.5 492.7 "/><polygon class="st15" points="532.6 500.1 550.7 539.7 574.1 511.9 595.6 518 641.9 431.1 502.4 491.5 "/><polygon class="st16" points="531.5 498.9 549.6 538.6 573 510.7 594.5 516.8 640.9 429.9 501.4 490.3 "/><polygon class="st17" points="530.4 497.7 548.6 537.4 571.9 509.5 593.4 515.7 639.8 428.7 500.3 489.2 "/><polygon class="st18" points="529.4 496.6 547.5 536.2 570.9 508.4 592.3 514.5 638.7 427.5 499.2 488 "/><polygon class="st19" points="528.3 495.4 546.4 535 569.8 507.2 591.3 513.3 637.6 426.4 498.1 486.8 "/><polygon class="st20" points="527.2 494.2 545.3 533.8 568.7 506 590.2 512.1 636.6 425.2 497.1 485.6 "/><polygon class="st21" points="526.1 493 544.3 532.7 567.6 504.8 589.1 510.9 635.5 424 496 484.5 "/><polygon class="st22" points="525.1 491.9 543.2 531.5 566.6 503.7 588 509.8 634.4 422.8 494.9 483.3 "/><polygon class="st23" points="524 490.7 542.1 530.3 565.5 502.5 587 508.6 633.3 421.7 493.8 482.1 "/><polygon points="522.9 489.5 541 529.1 564.4 501.3 585.9 507.4 632.3 420.5 492.8 480.9 "/></g><g class="st1"><path class="st2" d="M581.1 340.7h-46c-1.3 0-2.4 1.2-2.4 2.6v29.3c0 1.4 1.1 2.6 2.4 2.6h4.7v9.7l11.5-9.7h1.8v6.7c0 1.4 1.1 2.6 2.4 2.6h29.8l11.5 9.7v-9.7h4.7c1.3 0 2.4-1.2 2.4-2.6v-29.3c0-1.4-1.1-2.6-2.4-2.6h-18v-6.7C583.5 341.9 582.5 340.7 581.1 340.7z"/><path class="st14" d="M580 340.1h-46c-1.3 0-2.4 1.2-2.4 2.6V372c0 1.4 1.1 2.6 2.4 2.6h4.7v9.7l11.5-9.7h1.8v6.7c0 1.4 1.1 2.6 2.4 2.6h29.8l11.5 9.7v-9.7h4.7c1.3 0 2.4-1.2 2.4-2.6V352c0-1.4-1.1-2.6-2.4-2.6h-18v-6.7C582.4 341.2 581.3 340.1 580 340.1z"/><path class="st15" d="M578.9 339.4h-46c-1.3 0-2.4 1.2-2.4 2.6v29.3c0 1.4 1.1 2.6 2.4 2.6h4.7v9.7l11.5-9.7h1.8v6.7c0 1.4 1.1 2.6 2.4 2.6h29.8l11.5 9.7v-9.7h4.7c1.3 0 2.4-1.2 2.4-2.6v-29.3c0-1.4-1.1-2.6-2.4-2.6h-18V342C581.3 340.5 580.2 339.4 578.9 339.4z"/><path class="st16" d="M577.7 338.7h-46c-1.3 0-2.4 1.2-2.4 2.6v29.3c0 1.4 1.1 2.6 2.4 2.6h4.7v9.7l11.5-9.7h1.8v6.7c0 1.4 1.1 2.6 2.4 2.6h29.8l11.5 9.7v-9.7h4.7c1.3 0 2.4-1.2 2.4-2.6v-29.3c0-1.4-1.1-2.6-2.4-2.6h-18v-6.7C580.1 339.9 579.1 338.7 577.7 338.7z"/><path class="st17" d="M576.6 338h-46c-1.3 0-2.4 1.2-2.4 2.6V370c0 1.4 1.1 2.6 2.4 2.6h4.7v9.7l11.5-9.7h1.8v6.7c0 1.4 1.1 2.6 2.4 2.6h29.8l11.5 9.7v-9.7h4.7c1.3 0 2.4-1.2 2.4-2.6V350c0-1.4-1.1-2.6-2.4-2.6h-18v-6.7C579 339.2 577.9 338 576.6 338z"/><path class="st18" d="M575.4 337.4h-46c-1.3 0-2.4 1.2-2.4 2.6v29.3c0 1.4 1.1 2.6 2.4 2.6h4.7v9.7l11.5-9.7h1.8v6.7c0 1.4 1.1 2.6 2.4 2.6h29.8l11.5 9.7v-9.7h4.7c1.3 0 2.4-1.2 2.4-2.6v-29.3c0-1.4-1.1-2.6-2.4-2.6h-18V340C577.9 338.5 576.8 337.4 575.4 337.4z"/><path class="st19" d="M574.3 336.7h-46c-1.3 0-2.4 1.2-2.4 2.6v29.3c0 1.4 1.1 2.6 2.4 2.6h4.7v9.7l11.5-9.7h1.8v6.7c0 1.4 1.1 2.6 2.4 2.6h29.8l11.5 9.7v-9.7h4.7c1.3 0 2.4-1.2 2.4-2.6v-29.3c0-1.4-1.1-2.6-2.4-2.6h-18v-6.7C576.7 337.8 575.6 336.7 574.3 336.7z"/><path class="st20" d="M573.2 336h-46c-1.3 0-2.4 1.2-2.4 2.6v29.3c0 1.4 1.1 2.6 2.4 2.6h4.7v9.7l11.5-9.7h1.8v6.7c0 1.4 1.1 2.6 2.4 2.6h29.8l11.5 9.7v-9.7h4.7c1.3 0 2.4-1.2 2.4-2.6v-29.3c0-1.4-1.1-2.6-2.4-2.6h-18v-6.7C575.6 337.2 574.5 336 573.2 336z"/><path class="st21" d="M572 335.3h-46c-1.3 0-2.4 1.2-2.4 2.6v29.3c0 1.4 1.1 2.6 2.4 2.6h4.7v9.7l11.5-9.7h1.8v6.7c0 1.4 1.1 2.6 2.4 2.6h29.9l11.5 9.7v-9.7h4.7c1.3 0 2.4-1.2 2.4-2.6v-29.3c0-1.4-1.1-2.6-2.4-2.6h-18v-6.7C574.4 336.5 573.4 335.3 572 335.3z"/><path class="st22" d="M570.9 334.6h-46c-1.3 0-2.4 1.2-2.4 2.6v29.3c0 1.4 1.1 2.6 2.4 2.6h4.7v9.7l11.5-9.7h1.8v6.7c0 1.4 1.1 2.6 2.4 2.6h29.8l11.5 9.7v-9.7h4.7c1.3 0 2.4-1.2 2.4-2.6v-29.3c0-1.4-1.1-2.6-2.4-2.6h-18v-6.7C573.3 335.8 572.2 334.6 570.9 334.6z"/><path class="st23" d="M569.7 334h-46c-1.3 0-2.4 1.2-2.4 2.6v29.3c0 1.4 1.1 2.6 2.4 2.6h4.7v9.7l11.5-9.7h1.8v6.7c0 1.4 1.1 2.6 2.4 2.6h29.8l11.5 9.7v-9.7h4.7c1.3 0 2.4-1.2 2.4-2.6v-29.3c0-1.4-1.1-2.6-2.4-2.6h-18v-6.7C572.2 335.1 571.1 334 569.7 334z"/><path d="M568.6 333.3h-46c-1.3 0-2.4 1.2-2.4 2.6v29.3c0 1.4 1.1 2.6 2.4 2.6h4.7v9.7l11.5-9.7h1.8v6.7c0 1.4 1.1 2.6 2.4 2.6h29.8l11.5 9.7v-9.7h4.7c1.3 0 2.4-1.2 2.4-2.6v-29.3c0-1.4-1.1-2.6-2.4-2.6h-18v-6.7C571 334.5 569.9 333.3 568.6 333.3z"/></g><g class="st1"><path class="st2" d="M344.5 48.4l9.5-9.5L343.3 36l-2.9-10.7 -9.5 9.5 2.3 8.7 -0.8 0.8c-10.9-10.6-25.8-17.1-42.2-17.1 -33.5 0-60.7 27.2-60.7 60.7s27.2 60.7 60.7 60.7 60.7-27.2 60.7-60.7c0-15.8-6.1-30.2-16-41l0.8-0.8L344.5 48.4z"/><path class="st14" d="M343.4 47.1l9.5-9.5 -10.7-2.9 -2.9-10.8 -9.5 9.5 2.3 8.7 -0.8 0.9c-10.9-10.6-25.8-17.1-42.2-17.1 -33.5 0-60.7 27.2-60.7 60.7s27.2 60.7 60.7 60.7 60.7-27.2 60.7-60.7c0-15.8-6.1-30.2-16-41l0.8-0.8L343.4 47.1z"/><path class="st15" d="M342.3 45.7l9.5-9.5 -10.7-2.9 -2.8-10.7 -9.5 9.5 2.3 8.7 -0.8 0.8c-10.9-10.6-25.8-17.1-42.2-17.1 -33.5 0-60.7 27.2-60.7 60.7s27.2 60.7 60.7 60.7 60.7-27.2 60.7-60.7c0-15.8-6.1-30.2-16-41l0.8-0.8L342.3 45.7z"/><path class="st16" d="M341.3 44.4l9.5-9.5L340.1 32l-2.9-10.7 -9.5 9.5 2.3 8.7 -0.8 0.8c-10.9-10.6-25.8-17.1-42.2-17.1 -33.5 0-60.7 27.2-60.7 60.7s27.2 60.7 60.7 60.7 60.7-27.2 60.7-60.7c0-15.8-6.1-30.2-16-41l0.8-0.8L341.3 44.4z"/><path class="st17" d="M340.2 43.1l9.5-9.5L339 30.7 336.1 20l-9.5 9.5 2.3 8.7 -0.8 0.8c-10.9-10.6-25.8-17.1-42.2-17.1 -33.5 0-60.6 27.1-60.6 60.7 0 33.5 27.2 60.7 60.7 60.7s60.7-27.2 60.7-60.7c0-15.8-6.1-30.2-16-41l0.8-0.8L340.2 43.1z"/><path class="st18" d="M339.1 41.7l9.5-9.5 -10.7-2.9L335 18.6l-9.5 9.5 2.3 8.7 -0.8 0.8c-10.8-10.6-25.7-17.1-42.1-17.1 -33.5 0-60.7 27.2-60.7 60.7s27.2 60.7 60.7 60.7 60.7-27.2 60.7-60.7c0-15.8-6.1-30.2-16-41l0.8-0.8L339.1 41.7z"/><path class="st19" d="M338.1 40.4l9.5-9.5L336.9 28 334 17.3l-9.5 9.5 2.3 8.7 -0.8 0.8c-10.9-10.6-25.8-17.1-42.2-17.1 -33.5 0-60.7 27.2-60.7 60.7s27.2 60.7 60.7 60.7 60.7-27.2 60.7-60.7c0-15.8-6.1-30.2-16-41l0.8-0.8L338.1 40.4z"/><path class="st20" d="M337 39l9.5-9.5 -10.7-2.9 -2.9-10.7 -9.5 9.5 2.3 8.7 -0.8 0.8c-10.9-10.6-25.8-17.1-42.2-17.1C249.2 17.8 222 45 222 78.5s27.2 60.7 60.7 60.7 60.7-27.2 60.7-60.7c0-15.8-6.1-30.2-16-41l0.8-0.8L337 39z"/><path class="st21" d="M335.9 37.7l9.5-9.5 -10.7-2.9 -2.9-10.7 -9.5 9.5 2.3 8.7 -0.8 0.8C312.9 23 298 16.5 281.6 16.5c-33.5 0-60.7 27.2-60.7 60.7s27.2 60.7 60.7 60.7 60.7-27.2 60.7-60.7c0-15.8-6.1-30.2-16-41l0.8-0.8L335.9 37.7z"/><path class="st22" d="M334.9 36.4l9.5-9.5L333.7 24l-2.9-10.7 -9.5 9.5 2.3 8.7 -0.8 0.8c-10.9-10.6-25.8-17.1-42.2-17.1 -33.5 0-60.7 27.2-60.7 60.7s27.2 60.7 60.7 60.7 60.7-27.2 60.7-60.7c0-15.8-6.1-30.2-16-41l0.8-0.8L334.9 36.4z"/><path class="st23" d="M333.8 35l9.5-9.5 -10.7-2.9 -2.9-10.7 -9.5 9.5 2.3 8.7 -0.8 0.8c-10.9-10.6-25.8-17.1-42.2-17.1 -33.5 0-60.7 27.2-60.7 60.7s27.2 60.7 60.7 60.7 60.7-27.2 60.7-60.7c0-15.8-6.1-30.2-16-41l0.8-0.8L333.8 35z"/><path d="M332.8 33.7l9.5-9.5 -10.7-2.9 -2.9-10.7 -9.5 9.5 2.3 8.7 -0.8 0.8c-10.9-10.6-25.8-17.1-42.2-17.1 -33.5 0-60.7 27.2-60.7 60.7s27.2 60.7 60.7 60.7 60.7-27.2 60.7-60.7c0-15.8-6.1-30.2-16-41l0.8-0.8L332.8 33.7z"/></g><g class="st1"><path class="st2" d="M401.7 43.3c-11.3 0-20.5 9.2-20.5 20.5s9.2 20.5 20.5 20.5c5.7 0 10.8-2.3 14.5-6s6-8.8 6-14.5C422.2 52.5 413 43.3 401.7 43.3z"/><path class="st14" d="M400.6 42.4c-11.3 0-20.5 9.2-20.5 20.5s9.2 20.5 20.5 20.5c5.7 0 10.8-2.3 14.5-6s6-8.8 6-14.5C421.1 51.5 411.9 42.4 400.6 42.4z"/><path class="st15" d="M399.6 41.4c-11.3 0-20.5 9.2-20.5 20.5s9.2 20.5 20.5 20.5c5.7 0 10.8-2.3 14.5-6s6-8.8 6-14.5C420 50.5 410.9 41.4 399.6 41.4z"/><path class="st16" d="M398.5 40.4c-11.3 0-20.5 9.2-20.5 20.5s9.2 20.5 20.5 20.5c5.7 0 10.8-2.3 14.5-6s6-8.8 6-14.5C419 49.6 409.8 40.4 398.5 40.4z"/><path class="st17" d="M397.4 39.4c-11.3 0-20.5 9.2-20.5 20.5s9.2 20.5 20.5 20.5c5.7 0 10.8-2.3 14.5-6s6-8.8 6-14.5C417.9 48.6 408.7 39.4 397.4 39.4z"/><path class="st18" d="M396.3 38.4c-11.3 0-20.5 9.2-20.5 20.5s9.2 20.5 20.5 20.5c5.7 0 10.8-2.3 14.5-6s6-8.8 6-14.5C416.8 47.6 407.6 38.4 396.3 38.4z"/><path class="st19" d="M395.2 37.4c-11.3 0-20.5 9.2-20.5 20.5s9.2 20.5 20.5 20.5c5.7 0 10.8-2.3 14.5-6s6-8.8 6-14.5C415.7 46.6 406.5 37.4 395.2 37.4z"/><path class="st20" d="M394.2 36.5c-11.3 0-20.5 9.2-20.5 20.5s9.2 20.5 20.5 20.5c5.7 0 10.8-2.3 14.5-6s6-8.8 6-14.5C414.6 45.6 405.5 36.5 394.2 36.5z"/><path class="st21" d="M393.1 35.5c-11.3 0-20.5 9.2-20.5 20.5s9.2 20.5 20.5 20.5c5.7 0 10.8-2.3 14.5-6s6-8.8 6-14.5C413.6 44.6 404.4 35.5 393.1 35.5z"/><path class="st22" d="M392 34.5c-11.3 0-20.5 9.2-20.5 20.5s9.2 20.5 20.5 20.5c5.7 0 10.8-2.3 14.5-6s6-8.8 6-14.5C412.5 43.7 403.3 34.5 392 34.5z"/><path class="st23" d="M390.9 33.5c-11.3 0-20.5 9.2-20.5 20.5s9.2 20.5 20.5 20.5c5.7 0 10.8-2.3 14.5-6s6-8.8 6-14.5C411.4 42.7 402.2 33.5 390.9 33.5z"/><path d="M389.8 32.5c-11.3 0-20.5 9.2-20.5 20.5s9.2 20.5 20.5 20.5c5.7 0 10.8-2.3 14.5-6 3.7-3.7 6-8.8 6-14.5C410.3 41.7 401.2 32.5 389.8 32.5z"/></g><g class="st1"><path class="st2" d="M581.8 70.1L581.8 70.1 581.8 70.1 581.8 70.1zM539.8 203.5L614.4 92l-31.6-21.2 0.4-0.8 0 0 -0.1-5.8 0 0 -0.1-5.6 -4.5 3.3 0 0 -3.8 2.8V42.9 21.5l-4.9-3.3v-5.1h-71.4l-25.6 25.6v25.6 10.1V133l-11.9 17.7L539.8 203.5z"/><path class="st14" d="M580.7 68.9L580.7 68.9 580.7 68.9 580.7 68.9zM538.7 202.3l74.6-111.5 -31.6-21.2 0.4-0.8 0 0L582 63l0 0 -0.1-5.6 -4.5 3.3 0 0 -3.8 2.8V41.7 20.3l-4.9-3.3v-5h-71.4l-25.6 25.6v25.6 10.1 58.6l-11.9 17.7L538.7 202.3z"/><path class="st15" d="M579.6 67.7L579.6 67.7 579.6 67.7 579.6 67.7zM537.6 201.1l74.7-111.5 -31.6-21.2 0.4-0.8 0 0 -0.1-5.8 0 0 -0.1-5.6 -4.5 3.3 0 0 -3.8 2.8V40.5 19.1l-4.9-3.3v-5.1h-71.4l-25.6 25.6v25.6V72v58.6l-11.9 17.7L537.6 201.1z"/><path class="st16" d="M578.5 66.5L578.5 66.5 578.5 66.5 578.5 66.5zM536.5 200l74.7-111.5 -31.6-21.2 0.4-0.8 0 0 -0.1-5.8 0 0 -0.1-5.6 -4.5 3.3 0 0 -3.8 2.8V39.3 17.9l-4.9-3.3v-5h-71.4l-25.6 25.6v25.6 10.1 58.6l-11.9 17.7L536.5 200z"/><path class="st17" d="M577.4 65.3L577.4 65.3 577.4 65.3 577.4 65.3zM535.4 198.8l74.7-111.5L578.4 66l0.4-0.8 0 0 -0.1-5.8 0 0 -0.1-5.6 -4.5 3.3 0 0 -3.8 2.8V38.1 16.7l-4.9-3.3v-5H494L468.4 34v25.6 10.1 58.6L456.5 146 535.4 198.8z"/><path class="st18" d="M576.3 64.2L576.3 64.2C576.3 64.1 576.3 64.1 576.3 64.2L576.3 64.2zM534.3 197.6L608.9 86l-31.6-21.2 0.4-0.8 0 0 -0.1-5.8 0 0 -0.1-5.6 -4.5 3.3 0 0 -3.8 2.8V36.9 15.5l-4.9-3.3v-5h-71.4l-25.6 25.6v25.6 10.1 58.6l-11.9 17.7L534.3 197.6z"/><path class="st19" d="M575.2 63L575.2 63C575.2 62.9 575.2 62.9 575.2 63L575.2 63zM533.2 196.4l74.7-111.5 -31.6-21.2 0.4-0.8 0 0 -0.1-5.8 0 0 -0.1-5.6 -4.5 3.3 0 0 -3.8 2.8V35.7 14.3l-4.9-3.3V6h-71.4l-25.6 25.6v25.6 10.1 58.6l-12 17.7L533.2 196.4z"/><path class="st20" d="M574.1 61.8L574.1 61.8C574.1 61.7 574.1 61.7 574.1 61.8L574.1 61.8zM532.1 195.2l74.7-111.5 -31.6-21.2 0.4-0.8 0 0 -0.1-5.8 0 0 -0.1-5.6 -4.5 3.3 0 0 -3.8 2.8V34.5 13.1l-4.9-3.3v-5h-71.4l-25.6 25.6V56v10.1 58.6l-11.9 17.7L532.1 195.2z"/><path class="st21" d="M573 60.6L573 60.6C573 60.5 573 60.6 573 60.6L573 60.6zM531 194l74.7-111.5 -31.6-21.2 0.4-0.8 0 0 -0.1-5.8 0 0 -0.1-5.6 -4.5 3.3 0 0 -3.8 2.8V33.3 11.9l-4.9-3.3v-5h-71.4l-25.6 25.6v25.6 10.1 58.6l-11.9 17.7L531 194z"/><path class="st22" d="M571.9 59.4L571.9 59.4C571.9 59.3 571.9 59.4 571.9 59.4L571.9 59.4zM529.9 192.8l74.7-111.5L573 60.1l0.4-0.8 0 0 -0.1-5.8 0 0 -0.1-5.6 -4.5 3.3 0 0 -3.8 2.8V32.1 10.7L560 7.4v-5h-71.4L462.9 28v25.6 10.1 58.6L451 140 529.9 192.8z"/><path class="st23" d="M570.8 58.2L570.8 58.2 570.8 58.2 570.8 58.2zM528.8 191.6l74.7-111.5 -31.6-21.2 0.4-0.8 0 0 -0.1-5.8 0 0 -0.1-5.6 -4.5 3.3 0 0 -3.8 2.8V30.9 9.5l-4.9-3.3v-5h-71.4l-25.6 25.6v25.6 10.1 58.6L450 138.8 528.8 191.6z"/><path d="M569.7 57L569.7 57 569.7 57 569.7 57zM527.7 190.4l74.6-111.5 -31.6-21.2 0.4-0.8 0 0 -0.1-5.8 0 0 -0.1-5.6 -4.5 3.3 0 0 -3.8 2.8V29.7 8.4l-4.9-3.3V0h-71.4l-25.6 25.6v25.6 10.1 58.6l-11.9 17.7L527.7 190.4z"/></g><path class="st24" d="M529.9 497.8c69.8-49 115.4-130 115.4-221.8 0-149.5-121.2-270.7-270.7-270.7S103.9 126.5 103.9 276c0 98.4 52.5 184.6 131 231.9"/><g class="st25"><path class="st2" d="M146.4 408v3.9c-1.2 0.6-2.1 1.9-2.2 3.4h-7.3 -19 -7.3c0-1.5-0.9-2.7-2.2-3.4V408C120.6 403.2 134.2 403.2 146.4 408zM57.8 515.4h139.3c2.7 0 4.9-2.2 4.9-4.9v-3.7 -49.3 -4.1 -29.1 -1.1 -3c0-2.7-2.2-4.9-4.9-4.9h-45c0-1.5-0.9-2.7-2.2-3.4v-3c0.5-0.2 1-0.7 1.4-1.4 0-0.1 0.1-0.2 0.1-0.3 0.6-1.2 0.3-2.6-0.6-3 -7.4-3.3-15.4-5-23.4-5s-15.9 1.7-23.3 5c-0.6 0.3-0.9 0.9-0.9 1.6 0 0.4 0.1 0.9 0.3 1.4 0 0.1 0.1 0.2 0.1 0.3 0.3 0.7 0.8 1.2 1.4 1.4v3c-1.2 0.6-2.1 1.9-2.2 3.4h-45c-2.4 0-4.3 1.7-4.8 3.9 -0.1 0.3-0.1 0.6-0.1 1v3 1.1 29.1 4.1 49.3 3.7C52.9 513.2 55 515.4 57.8 515.4z"/><path class="st14" d="M145.4 406.7v3.9c-1.2 0.6-2.1 1.9-2.2 3.4h-7.3 -19 -7.3c0-1.5-0.9-2.7-2.2-3.4v-3.9C119.7 401.9 133.2 401.9 145.4 406.7zM56.8 514.1h139.3c2.7 0 4.9-2.2 4.9-4.9v-3.7 -49.3V452v-29.1 -1.1 -3c0-2.7-2.2-4.9-4.9-4.9h-45c0-1.5-0.9-2.7-2.2-3.4v-3c0.5-0.3 1-0.7 1.4-1.4 0-0.1 0.1-0.2 0.1-0.3 0.6-1.2 0.3-2.6-0.6-3 -7.4-3.3-15.4-5-23.4-5s-15.9 1.7-23.3 5c-0.6 0.3-0.9 0.9-0.9 1.6 0 0.4 0.1 0.9 0.3 1.4 0 0.1 0.1 0.2 0.1 0.3 0.3 0.7 0.8 1.2 1.4 1.4v3c-1.3 0.6-2.1 1.9-2.2 3.4h-45c-2.4 0-4.3 1.7-4.8 3.9 -0.1 0.3-0.1 0.6-0.1 1v3 1.1V452v4.1 49.3 3.7C51.9 511.9 54.1 514.1 56.8 514.1z"/><path class="st15" d="M144.4 405.4v3.9c-1.2 0.6-2.1 1.9-2.2 3.4h-7.3 -19 -7.3c0-1.5-0.9-2.7-2.2-3.4v-3.9C118.7 400.6 132.2 400.6 144.4 405.4zM55.8 512.8h139.3c2.7 0 4.9-2.2 4.9-4.9v-3.7 -49.3 -4.1 -29.1 -1.1 -3c0-2.7-2.2-4.9-4.9-4.9h-45c0-1.5-0.9-2.7-2.2-3.4v-3c0.5-0.3 1-0.7 1.4-1.4 0-0.1 0.1-0.2 0.1-0.3 0.6-1.2 0.3-2.6-0.6-3 -7.4-3.3-15.4-5-23.4-5s-15.9 1.7-23.3 5c-0.6 0.3-0.9 0.9-0.9 1.6 0 0.4 0.1 0.9 0.3 1.4 0 0.1 0.1 0.2 0.1 0.3 0.3 0.7 0.8 1.2 1.4 1.4v3c-1.3 0.6-2.1 1.9-2.2 3.4h-45c-2.4 0-4.3 1.7-4.8 3.9 -0.1 0.3-0.1 0.6-0.1 1v3 1.1 29.1 4.1 49.3 3.7C50.9 510.6 53.1 512.8 55.8 512.8z"/><path class="st16" d="M143.4 404v3.9c-1.2 0.6-2.1 1.9-2.2 3.4h-7.3 -19 -7.3c0-1.5-0.9-2.7-2.2-3.4V404C117.7 399.2 131.2 399.2 143.4 404zM54.8 511.4h139.3c2.7 0 4.9-2.2 4.9-4.9v-3.7 -49.3 -4.1 -29.1 -1.1 -3c0-2.7-2.2-4.9-4.9-4.9h-45c0-1.5-0.9-2.7-2.2-3.4v-3c0.5-0.3 1-0.7 1.4-1.4 0-0.1 0.1-0.2 0.1-0.3 0.6-1.2 0.3-2.6-0.6-3 -7.4-3.3-15.4-5-23.4-5s-15.9 1.7-23.3 5c-0.6 0.3-0.9 0.9-0.9 1.6 0 0.4 0.1 0.9 0.3 1.4 0 0.1 0.1 0.2 0.1 0.3 0.3 0.7 0.8 1.2 1.4 1.4v3c-1.3 0.6-2.1 1.9-2.2 3.4h-45c-2.4 0-4.3 1.7-4.8 3.9 -0.1 0.3-0.1 0.6-0.1 1v3 1.1 29.1 4.1 49.3 3.7C49.9 509.2 52.1 511.4 54.8 511.4z"/><path class="st17" d="M142.4 402.7v3.9c-1.2 0.6-2.1 1.9-2.2 3.4h-7.3 -19 -7.3c0-1.5-0.9-2.7-2.2-3.4v-3.9C116.7 397.9 130.3 397.9 142.4 402.7zM53.8 510.1h139.3c2.7 0 4.9-2.2 4.9-4.9v-3.7 -49.3 -4.1V419v-1.1 -3c0-2.7-2.2-4.9-4.9-4.9h-45c0-1.5-0.9-2.7-2.2-3.4v-3c0.5-0.3 1-0.7 1.4-1.4 0-0.1 0.1-0.2 0.1-0.3 0.6-1.2 0.3-2.6-0.6-3 -7.4-3.3-15.4-5-23.4-5s-15.9 1.7-23.3 5c-0.6 0.3-0.9 0.9-0.9 1.6 0 0.4 0.1 0.9 0.3 1.4 0 0.1 0.1 0.2 0.1 0.3 0.3 0.7 0.8 1.2 1.4 1.4v3c-1.3 0.6-2.1 1.9-2.2 3.4h-45c-2.4 0-4.3 1.7-4.8 3.9 -0.1 0.3-0.1 0.6-0.1 1v3 1.1 29.1 4.1 49.3 3.7C48.9 507.9 51.1 510.1 53.8 510.1z"/><path class="st18" d="M141.5 401.4v3.9c-1.2 0.6-2.1 1.9-2.2 3.4H132h-19 -7.3c0-1.5-0.9-2.7-2.2-3.4v-3.9C115.7 396.6 129.3 396.6 141.5 401.4zM52.9 508.8h139.3c2.7 0 4.9-2.2 4.9-4.9v-3.7 -49.3 -4.1 -29.1 -1.1 -3c0-2.7-2.2-4.9-4.9-4.9h-45c0-1.5-0.9-2.7-2.2-3.4v-3c0.5-0.3 1-0.7 1.4-1.4 0-0.1 0.1-0.2 0.1-0.3 0.6-1.2 0.3-2.6-0.6-3 -7.4-3.3-15.4-5-23.4-5s-15.9 1.7-23.3 5c-0.6 0.3-0.9 0.9-0.9 1.6 0 0.4 0.1 0.9 0.3 1.4 0 0.1 0.1 0.2 0.1 0.3 0.3 0.7 0.8 1.2 1.4 1.4v3c-1.3 0.6-2.1 1.9-2.2 3.4h-45c-2.4 0-4.3 1.7-4.8 3.9 -0.1 0.3-0.1 0.6-0.1 1v3 1.1 29.1 4.1 49.3 3.7C48 506.6 50.2 508.8 52.9 508.8z"/><path class="st19" d="M140.5 400.1v3.9c-1.2 0.6-2.1 1.9-2.2 3.4H131h-19 -7.3c0-1.5-0.9-2.7-2.2-3.4v-3.9C114.8 395.3 128.3 395.3 140.5 400.1zM51.9 507.5h139.3c2.7 0 4.9-2.2 4.9-4.9v-3.7 -49.3 -4.1 -29.1 -1.1 -3c0-2.7-2.2-4.9-4.9-4.9h-45c-0.1-1.5-0.9-2.7-2.2-3.4v-3c0.5-0.3 1-0.7 1.4-1.4 0-0.1 0.1-0.2 0.1-0.3 0.6-1.2 0.3-2.6-0.6-3 -7.4-3.3-15.4-5-23.4-5s-15.9 1.7-23.3 5c-0.6 0.3-0.9 0.9-0.9 1.6 0 0.4 0.1 0.9 0.3 1.4 0 0.1 0.1 0.2 0.1 0.3 0.3 0.7 0.8 1.2 1.4 1.4v3c-1.3 0.6-2.1 1.9-2.2 3.4h-45c-2.4 0-4.3 1.7-4.8 3.9 -0.1 0.3-0.1 0.6-0.1 1v3 1.1 29.1 4.1 49.3 3.7C47 505.3 49.2 507.5 51.9 507.5z"/><path class="st20" d="M139.5 398.8v3.9c-1.2 0.6-2.1 1.9-2.2 3.4H130h-19 -7.3c0-1.5-0.9-2.7-2.2-3.4v-3.9C113.8 394 127.3 394 139.5 398.8zM50.9 506.2h139.3c2.7 0 4.9-2.2 4.9-4.9v-3.7 -49.3 -4.1V415v-1.1 -3c0-2.7-2.2-4.9-4.9-4.9h-45c-0.1-1.5-0.9-2.7-2.2-3.4v-3c0.5-0.3 1-0.7 1.4-1.4 0-0.1 0.1-0.2 0.1-0.3 0.6-1.2 0.3-2.6-0.6-3 -7.4-3.3-15.4-5-23.4-5s-15.9 1.7-23.3 5c-0.6 0.3-0.9 0.9-0.9 1.6 0 0.4 0.1 0.9 0.3 1.4 0 0.1 0.1 0.2 0.1 0.3 0.3 0.7 0.8 1.2 1.4 1.4v3c-1.3 0.6-2.1 1.9-2.2 3.4h-45c-2.4 0-4.3 1.7-4.8 3.9 -0.1 0.3-0.1 0.6-0.1 1v3 1.1 29.1 4.1 49.3 3.7C46 504 48.2 506.2 50.9 506.2z"/><path class="st21" d="M138.5 397.5v3.9c-1.2 0.6-2.1 1.9-2.2 3.4H129h-19 -7.3c0-1.5-0.9-2.7-2.2-3.4v-3.9C112.8 392.7 126.3 392.7 138.5 397.5zM49.9 504.9h139.3c2.7 0 4.9-2.2 4.9-4.9v-3.7V447v-4.1 -29.1 -1.1 -3c0-2.7-2.2-4.9-4.9-4.9h-45c-0.1-1.5-0.9-2.7-2.2-3.4v-3c0.5-0.3 1-0.7 1.4-1.4 0-0.1 0.1-0.2 0.1-0.3 0.6-1.2 0.3-2.6-0.6-3 -7.4-3.3-15.4-5-23.4-5s-15.9 1.7-23.3 5c-0.6 0.3-0.9 0.9-0.9 1.6 0 0.4 0.1 0.9 0.3 1.4 0 0.1 0.1 0.2 0.1 0.3 0.3 0.7 0.8 1.2 1.4 1.4v3c-1.3 0.6-2.1 1.9-2.2 3.4h-45c-2.4 0-4.3 1.7-4.8 3.9 -0.1 0.3-0.1 0.6-0.1 1v3 1.1 29.1 4.1 49.3 3.7C45 502.7 47.2 504.9 49.9 504.9z"/><path class="st22" d="M137.5 396.1v3.9c-1.2 0.6-2.1 1.9-2.2 3.4H128h-19 -7.3c0-1.5-0.9-2.7-2.2-3.4v-3.9C111.8 391.3 125.4 391.3 137.5 396.1zM49 503.5h139.3c2.7 0 4.9-2.2 4.9-4.9v-3.7 -49.3 -4.1 -29.1 -1.1 -3c0-2.7-2.2-4.9-4.9-4.9h-45c-0.1-1.5-0.9-2.7-2.2-3.4v-3c0.5-0.3 1-0.7 1.4-1.4 0-0.1 0.1-0.2 0.1-0.3 0.6-1.2 0.3-2.6-0.6-3 -7.4-3.3-15.4-5-23.3-5 -8 0-15.9 1.7-23.3 5 -0.6 0.3-0.9 0.9-0.9 1.6 0 0.4 0.1 0.9 0.3 1.4 0 0.1 0.1 0.2 0.1 0.3 0.3 0.7 0.8 1.2 1.4 1.4v3c-1.3 0.6-2.1 1.9-2.2 3.4h-45c-2.4 0-4.3 1.7-4.8 3.9 -0.1 0.3-0.1 0.6-0.1 1v3 1.1 29.1 4.1 49.3 3.7C44.1 501.3 46.2 503.5 49 503.5z"/><path class="st23" d="M136.6 394.8v3.9c-1.2 0.6-2.1 1.9-2.2 3.4h-7.3 -19 -7.3c0-1.5-0.9-2.7-2.2-3.4v-3.9C110.8 390 124.4 390 136.6 394.8zM48 502.2h139.3c2.7 0 4.9-2.2 4.9-4.9v-3.7 -49.3 -4.1 -29.1V410v-3c0-2.7-2.2-4.9-4.9-4.9h-45c-0.1-1.5-0.9-2.7-2.2-3.4v-3c0.5-0.3 1-0.7 1.4-1.4 0-0.1 0.1-0.2 0.1-0.3 0.6-1.2 0.3-2.6-0.6-3 -7.4-3.3-15.4-5-23.3-5 -8 0-15.9 1.7-23.3 5 -0.6 0.3-0.9 0.9-0.9 1.6 0 0.4 0.1 0.9 0.3 1.4 0 0.1 0.1 0.2 0.1 0.3 0.3 0.7 0.8 1.2 1.4 1.4v3c-1.3 0.6-2.1 1.9-2.2 3.4h-45c-2.4 0-4.3 1.7-4.8 3.9 -0.1 0.3-0.1 0.6-0.1 1v3 1.1 29.1 4.1 49.3 3.7C43.1 500 45.3 502.2 48 502.2z"/><path d="M135.6 393.5v3.9c-1.2 0.6-2.1 1.9-2.2 3.4h-7.3 -19 -7.3c0-1.5-0.9-2.7-2.2-3.4v-3.9C109.9 388.7 123.4 388.7 135.6 393.5zM47 500.9h139.3c2.7 0 4.9-2.2 4.9-4.9v-3.7V443v-4.1 -29.1 -1.1 -3c0-2.7-2.2-4.9-4.9-4.9h-45c-0.1-1.5-0.9-2.7-2.2-3.4v-3c0.5-0.3 1-0.7 1.4-1.4 0-0.1 0.1-0.2 0.1-0.3 0.6-1.2 0.3-2.6-0.6-3 -7.4-3.3-15.4-5-23.3-5 -8 0-15.9 1.7-23.3 5 -0.6 0.3-0.9 0.9-0.9 1.6 0 0.4 0.1 0.9 0.3 1.4 0 0.1 0.1 0.2 0.1 0.3 0.3 0.7 0.8 1.2 1.4 1.4v3c-1.3 0.6-2.1 1.9-2.2 3.4h-45c-2.4 0-4.3 1.7-4.8 3.9 -0.1 0.3-0.1 0.6-0.1 1v3 1.1 29.1 4.1 49.3 3.7C42.1 498.7 44.3 500.9 47 500.9z"/></g><path class="st26" d="M140.5 393c-0.6 1.2-1.8 1.9-2.6 1.5 -13.5-6.1-28.9-6.1-42.4 0 -0.9 0.4-2-0.3-2.6-1.5 0-0.1-0.1-0.2-0.1-0.3 -0.6-1.2-0.3-2.6 0.6-3 14.8-6.7 31.8-6.7 46.7 0 1 0.4 1.2 1.8 0.6 3C140.6 392.8 140.5 392.9 140.5 393z"/><path class="st27" d="M140 389.7c-14.8-6.7-31.9-6.7-46.7 0 -1 0.4-1.2 1.8-0.6 3 15.1-7.4 32.8-7.4 47.9 0C141.2 391.5 140.9 390.1 140 389.7z"/><path class="st28" d="M97.7 407c0 0.9-0.7 1.6-1.6 1.6h-0.3c-0.9 0-1.6-0.7-1.6-1.6v-13.9c0-0.9 0.7-1.6 1.6-1.6h0.3c0.9 0 1.6 0.7 1.6 1.6V407z"/><path class="st28" d="M139.1 407c0 0.9-0.7 1.6-1.6 1.6h-0.3c-0.9 0-1.6-0.7-1.6-1.6v-13.9c0-0.9 0.7-1.6 1.6-1.6h0.3c0.9 0 1.6 0.7 1.6 1.6V407z"/><circle class="st28" cx="137.4" cy="400.9" r="3.9"/><path class="st26" d="M191.2 496c0 2.7-2.2 4.9-4.9 4.9H47c-2.7 0-4.9-2.2-4.9-4.9v-90.3c0-2.7 2.2-4.9 4.9-4.9h139.3c2.7 0 4.9 2.2 4.9 4.9V496z"/><path class="st29" d="M186.3 497.2H47c-2.7 0-4.9-2.2-4.9-4.9v3.7c0 2.7 2.2 4.9 4.9 4.9h139.3c2.7 0 4.9-2.2 4.9-4.9v-3.7C191.2 495 189 497.2 186.3 497.2z"/><path class="st30" d="M191.2 442.9c0 2.7-2.2 5.4-4.8 6.1 -45.8 11-93.6 11-139.4 0 -2.7-0.6-4.8-3.4-4.8-6.1 0-11.1 0-22.1 0-33.2 0-2.7 2.2-4.9 4.9-4.9 46.4 0 92.9 0 139.3 0 2.7 0 4.9 2.2 4.9 4.9C191.2 420.8 191.2 431.9 191.2 442.9z"/><path class="st27" d="M191.2 438.9c0 2.7-2.2 5.4-4.8 6.1 -45.8 11-93.6 11-139.4 0 -2.7-0.7-4.8-3.4-4.8-6.1 0-11.1 0-22.1 0-33.2 0-2.7 2.2-4.9 4.9-4.9 46.4 0 92.9 0 139.3 0 2.7 0 4.9 2.2 4.9 4.9C191.2 416.7 191.2 427.8 191.2 438.9z"/><path class="st26" d="M107.1 400.8V444c0 2.2 0.7 3.9 1.6 3.9h15.8c0.9 0 1.6-1.8 1.6-3.9v-43.2H107.1z"/><path class="st30" d="M191.2 408.7c0-1 0-2 0-3 0-2.7-2.2-4.9-4.9-4.9 -46.4 0-92.9 0-139.3 0 -2.7 0-4.9 2.2-4.9 4.9 0 1 0 2 0 3C91.8 408.7 141.5 408.7 191.2 408.7z"/><path class="st31" d="M125.1 463.4c0 0.8-0.6 1.7-1.4 1.9 -4.6 1.4-9.5 1.4-14.1 0 -0.8-0.3-1.4-1.1-1.4-1.9 0-5.6 0-11.2 0-16.9 0-0.8 0.6-1.7 1.4-1.9 4.6-1.4 9.5-1.4 14.1 0 0.8 0.2 1.4 1.1 1.4 1.9C125.1 452.1 125.1 457.7 125.1 463.4z"/><path class="st32" d="M123.7 445.1c-4.6-1.3-9.5-1.3-14.1 0 -0.8 0.2-1.4 1.1-1.4 1.8 0 2.4 0 4.9 0 7.3 0.1 0 0.1 0 0.2 0 5.6 0 11.1 0 16.7 0 0-2.5 0-4.9 0-7.4C125.1 446.2 124.4 445.4 123.7 445.1z"/><path class="st33" d="M122.5 445.8c-3.8-1.1-7.8-1.1-11.6 0 -0.6 0.2-1.2 0.9-1.2 1.5 0 2 0 4.1 0 6.1h0.1c4.6 0 9.2 0 13.8 0 0-2 0-4.1 0-6.1C123.6 446.7 123.1 446 122.5 445.8z"/><path class="st31" d="M108.2 455.9c0 2.5 0 5 0 7.5 0 0.8 0.6 1.7 1.4 1.9 4.6 1.4 9.5 1.4 14.1 0 0.8-0.3 1.4-1.1 1.4-1.9 0-2.5 0-5 0-7.5H108.2z"/><path class="st32" d="M116.6 464.9c-2.2 0-4.5-0.3-6.6-1 -0.2-0.1-0.4-0.4-0.4-0.5v-6h14v6c0 0.2-0.2 0.5-0.4 0.6C121.1 464.6 118.9 464.9 116.6 464.9L116.6 464.9z"/><g class="st25"><path class="st2" d="M657.4 137.6l-43.6-0.1v7.7h-6.6l-0.1 51.5v3.9c0 1.6 1.3 3 2.9 3 0.1 0 0.1 0 0.2 0h-0.1 0.9l35.8 0.1h25.1c3.7 0 6.7-3 6.7-6.7v-8.6l0.1-29.6v-0.1l0 0 0 0L657.4 137.6z"/><path class="st14" d="M656.4 137.1l-43.6-0.1v7.7h-6.6l-0.1 51.5v3.9c0 1.6 1.3 3 2.9 3 0.1 0 0.1 0 0.2 0h-0.1 0.9l35.8 0.1h25.1c3.7 0 6.7-3 6.7-6.7v-8.6l0.1-29.6v-0.1l0 0 0 0L656.4 137.1z"/><path class="st15" d="M655.4 136.5l-43.6-0.1v7.7h-6.6l-0.1 51.5v3.9c0 1.6 1.3 3 2.9 3 0.1 0 0.1 0 0.2 0h-0.1 0.9l35.8 0.1h25.1c3.7 0 6.7-3 6.7-6.7v-8.6l0.1-29.6v-0.1l0 0 0 0L655.4 136.5z"/><path class="st16" d="M654.4 136l-43.6-0.1v7.7h-6.6l-0.1 51.5v3.9c0 1.6 1.3 3 2.9 3 0.1 0 0.1 0 0.2 0h-0.1 0.9l35.8 0.1h25.1c3.7 0 6.7-3 6.7-6.7v-8.6l0.1-29.6v-0.1l0 0 0 0L654.4 136z"/><path class="st17" d="M653.4 135.5l-43.6-0.1v7.7h-6.6l-0.1 51.5v3.9c0 1.6 1.3 3 2.9 3 0.1 0 0.1 0 0.2 0h-0.1 0.9l35.8 0.1h25.1c3.7 0 6.7-3 6.7-6.7v-8.6l0.1-29.6v-0.1l0 0 0 0L653.4 135.5z"/><path class="st18" d="M652.3 135l-43.6-0.1v7.7h-6.6l-0.1 51.5v3.9c0 1.6 1.3 3 2.9 3 0.1 0 0.1 0 0.2 0H605h0.9l35.8 0.1h25.1c3.7 0 6.7-3 6.7-6.7v-8.6l0.1-29.6v-0.1l0 0 0 0L652.3 135z"/><path class="st19" d="M651.3 134.5l-43.6-0.1v7.7h-6.6l-0.1 51.5v3.9c0 1.6 1.3 3 2.9 3 0.1 0 0.1 0 0.2 0H604h0.9l35.8 0.1h25.1c3.7 0 6.7-3 6.7-6.7v-8.6l0.1-29.6v-0.1l0 0 0 0L651.3 134.5z"/><path class="st20" d="M650.3 134l-43.6-0.1v7.7h-6.6l-0.1 51.5v3.9c0 1.6 1.3 3 2.9 3 0.1 0 0.1 0 0.2 0H603h0.9l35.8 0.1h25.1c3.7 0 6.7-3 6.7-6.7v-8.6l0.1-29.6v-0.1l0 0 0 0L650.3 134z"/><path class="st21" d="M649.3 133.4l-43.6-0.1v7.7h-6.6l-0.1 51.5v3.9c0 1.6 1.3 3 2.9 3 0.1 0 0.1 0 0.2 0H602h0.9l35.8 0.1h25.1c3.7 0 6.7-3 6.7-6.7v-8.6l0.1-29.6v-0.1l0 0 0 0L649.3 133.4z"/><path class="st22" d="M648.3 132.9l-43.6-0.1v7.7h-6.6L598 192v3.9c0 1.6 1.3 3 2.9 3 0.1 0 0.1 0 0.2 0H601h0.9l35.8 0.1h25.1c3.7 0 6.7-3 6.7-6.7v-8.6l0.1-29.6V154l0 0 0 0L648.3 132.9z"/><path class="st23" d="M647.2 132.4l-43.6-0.1v7.7H597l-0.1 51.5v3.9c0 1.6 1.3 3 2.9 3 0.1 0 0.1 0 0.2 0h-0.1 0.9l35.8 0.1h25.1c3.7 0 6.7-3 6.7-6.7v-8.6l0.1-29.6v-0.1l0 0 0 0L647.2 132.4z"/><path d="M646.2 131.9l-43.6-0.1v7.7H596l-0.1 51.5v3.9c0 1.6 1.3 3 2.9 3 0.1 0 0.1 0 0.2 0h-0.1 0.9l35.8 0.1h25.1c3.7 0 6.7-3 6.7-6.7v-8.6l0.1-29.6V153l0 0 0 0L646.2 131.9z"/></g><path class="st34" d="M602.5 191.3v-8.6 -28.9 -21.9l43.6 0.1 21.2 21.3 -0.1 29.6v8.6c0 3.7-3 6.7-6.7 6.7h-25.1l-35.8-0.1h-0.9C602.7 197 602.5 194.6 602.5 191.3z"/><polygon class="st35" points="646.2 153.1 667.4 153.2 646.2 131.9 "/><polygon class="st32" points="667.4 153.2 646.2 153.1 667.4 174.4 "/><path class="st35" d="M602.5 194.1v-4.9 -16.4l0.1-33.3H596l-0.1 51.5v3.9c0 1.6 1.3 3 2.9 3C600.8 197.9 602.5 196.2 602.5 194.1z"/><rect x="619" y="159.4" transform="matrix(0.001783341 -1 1 0.001783341 448.3151 790.2852)" class="st31" width="2" height="22.4"/><rect x="615.5" y="149.9" transform="matrix(0.00181001 -1 1 0.00181001 457.8762 780.9356)" class="st31" width="9.3" height="22.4"/><rect x="625.3" y="119.8" transform="matrix(0.001856303 -1 1 0.001856303 487.8618 762.1604)" class="st31" width="0.9" height="33.7"/><rect x="625.3" y="135.9" transform="matrix(0.001769908 -1 1 0.001769908 471.9308 778.2349)" class="st31" width="0.9" height="33.7"/><rect x="619" y="165.3" transform="matrix(0.001765509 -1 1 0.001765509 442.4699 796.1664)" class="st31" width="2" height="22.4"/><polygon class="st31" points="608.9 183.3 631.3 183.4 631.3 181.3 608.9 181.3 "/><rect x="619.1" y="177" transform="matrix(0.001872341 -1 1 0.001872341 430.6833 807.9354)" class="st31" width="2" height="22.4"/><rect x="646.3" y="159.4" transform="matrix(0.001810018 -1 1 0.001810018 475.502 817.6317)" class="st31" width="2" height="22.4"/><rect x="646.3" y="165.3" transform="matrix(0.001894631 -1 1 0.001894631 469.5826 823.5063)" class="st31" width="2" height="22.4"/><polygon class="st31" points="636.1 183.4 658.5 183.4 658.5 181.4 636.1 181.4 "/><rect x="646.4" y="177.1" transform="matrix(0.001765509 -1 1 0.001765509 457.9552 835.3065)" class="st31" width="2" height="22.4"/><path class="st36" d="M616.3 150.2h-2l-3.2-6.7 0 0v6.7h-2v-10.4h2l3.2 6.7 0 0v-6.7h2V150.2z"/><path class="st36" d="M623.4 145.7h-3.5v3h4.1v1.6h-6.2v-10.4h6.2v1.6h-4.1v2.6h3.5V145.7z"/><path class="st36" d="M632.1 146.5L632.1 146.5l1.2-6.7h2l-2 10.4h-1.9l-1.5-6.4 0 0 -1.5 6.4h-1.9l-2-10.4h2l1.1 6.7 0 0 1.5-6.7h1.5L632.1 146.5z"/><path class="st36" d="M640.8 147.6c0-0.4-0.1-0.7-0.3-1 -0.2-0.2-0.6-0.5-1.1-0.7 -1.1-0.4-1.9-0.8-2.4-1.3s-0.8-1.2-0.8-2c0-0.9 0.3-1.6 1-2.1 0.6-0.5 1.4-0.8 2.4-0.8s1.8 0.3 2.4 0.9c0.6 0.6 0.9 1.4 0.9 2.3l0 0h-2c0-0.5-0.1-0.9-0.4-1.2 -0.2-0.3-0.6-0.4-1-0.4s-0.7 0.1-0.9 0.4c-0.2 0.2-0.3 0.6-0.3 0.9 0 0.3 0.1 0.6 0.4 0.8 0.3 0.2 0.7 0.5 1.3 0.7 1 0.3 1.7 0.8 2.2 1.3s0.7 1.2 0.7 2.1c0 0.9-0.3 1.6-0.9 2.1 -0.6 0.5-1.4 0.8-2.4 0.8s-1.9-0.3-2.6-0.9c-0.7-0.6-1.1-1.4-1.1-2.5l0 0h2c0 0.6 0.1 1.1 0.4 1.4 0.3 0.3 0.7 0.4 1.2 0.4 0.4 0 0.7-0.1 1-0.3C640.7 148.3 640.8 148 640.8 147.6z"/><circle class="st37" cx="156.5" cy="76.8" r="25.9"/><path class="st38" d="M156.5 50.9c14.3 0 25.9 11.6 25.9 25.9s-11.6 25.9-25.9 25.9"/><circle class="st34" cx="156.5" cy="76.8" r="21.3"/><circle class="st38" cx="156.5" cy="76.8" r="3.8"/><path class="st38" d="M165.5 61.4c-0.1 0-0.1 0-0.2 0 -0.1-0.1-0.2-0.3-0.1-0.4l0.6-1c0.1-0.1 0.3-0.2 0.4-0.1 0.1 0.1 0.2 0.3 0.1 0.4l-0.6 1C165.7 61.4 165.6 61.4 165.5 61.4L165.5 61.4z"/><path class="st38" d="M146.8 93.8c-0.1 0-0.1 0-0.2 0 -0.1-0.1-0.2-0.3-0.1-0.4l0.6-1c0.1-0.1 0.3-0.2 0.4-0.1 0.1 0.1 0.2 0.3 0.1 0.4l-0.6 1C147 93.8 146.9 93.8 146.8 93.8L146.8 93.8z"/><path class="st38" d="M173.1 86.8c-0.1 0-0.1 0-0.2 0l-1-0.6c-0.1-0.1-0.2-0.3-0.1-0.4 0.1-0.1 0.3-0.2 0.4-0.1l1 0.6c0.1 0.1 0.2 0.3 0.1 0.4C173.4 86.7 173.3 86.8 173.1 86.8L173.1 86.8z"/><path class="st38" d="M140.8 68.1c-0.1 0-0.1 0-0.2 0l-1-0.6c-0.1-0.1-0.2-0.3-0.1-0.4 0.1-0.1 0.3-0.2 0.4-0.1l1 0.6c0.1 0.1 0.2 0.3 0.1 0.4C141 68 140.9 68.1 140.8 68.1L140.8 68.1z"/><path class="st38" d="M147.4 61.4c-0.1 0-0.2-0.1-0.3-0.2l-0.6-1c-0.1-0.1 0-0.3 0.1-0.4 0.1-0.1 0.3 0 0.4 0.1l0.6 1c0.1 0.1 0 0.3-0.1 0.4C147.5 61.4 147.5 61.4 147.4 61.4L147.4 61.4z"/><path class="st38" d="M166.1 93.8c-0.1 0-0.2-0.1-0.3-0.2l-0.6-1c-0.1-0.1 0-0.3 0.1-0.4s0.3 0 0.4 0.1l0.6 1C166.4 93.4 166.3 93.6 166.1 93.8 166.2 93.8 166.2 93.8 166.1 93.8L166.1 93.8z"/><path class="st38" d="M139.8 86.8c-0.1 0-0.2-0.1-0.3-0.2s0-0.3 0.1-0.4l1-0.6c0.1-0.1 0.3 0 0.4 0.1 0.1 0.1 0 0.3-0.1 0.4L139.8 86.8C139.9 86.7 139.8 86.8 139.8 86.8L139.8 86.8z"/><path class="st38" d="M172.1 68.1c-0.1 0-0.2-0.1-0.3-0.2s0-0.3 0.1-0.4l1-0.6c0.1-0.1 0.3 0 0.4 0.1 0.1 0.1 0 0.3-0.1 0.4L172.1 68.1C172.2 68 172.2 68.1 172.1 68.1L172.1 68.1z"/><path class="st38" d="M138.4 77.1L138.4 77.1h-1.2c-0.2 0-0.3-0.1-0.3-0.3 0-0.2 0.1-0.3 0.3-0.3l0 0h1.2c0.2 0 0.3 0.1 0.3 0.3S138.5 77.1 138.4 77.1L138.4 77.1z"/><path class="st38" d="M174.6 77.1c-0.2 0-0.3-0.1-0.3-0.3 0-0.2 0.1-0.3 0.3-0.3h1.2l0 0c0.2 0 0.3 0.1 0.3 0.3 0 0.2-0.1 0.3-0.3 0.3H174.6L174.6 77.1 174.6 77.1z"/><path class="st38" d="M156.5 96.4L156.5 96.4c-0.2 0-0.3-0.1-0.3-0.3v-1.2c0-0.2 0.1-0.3 0.3-0.3l0 0c0.2 0 0.3 0.1 0.3 0.3v1.2C156.8 96.3 156.6 96.4 156.5 96.4L156.5 96.4z"/><path class="st38" d="M156.5 59c-0.2 0-0.3-0.1-0.3-0.3v-1.2c0-0.3 0.6-0.3 0.6 0v1.2C156.8 58.9 156.6 59 156.5 59L156.5 59z"/><path class="st38" d="M157.4 76.8c0 0.6-0.5 1-1 1h-15.1c-0.6 0-1-0.5-1-1 0-0.6 0.5-1 1-1h15.1C156.9 75.7 157.4 76.2 157.4 76.8L157.4 76.8z"/><path class="st38" d="M164 83.4c0 0.3-0.1 0.5-0.3 0.7 -0.4 0.4-1 0.4-1.4 0l-6.3-6.3c-0.4-0.4-0.4-1 0-1.4s1-0.4 1.4 0l6.3 6.3C163.9 82.8 164 83.1 164 83.4L164 83.4z"/><circle class="st34" cx="156.5" cy="76.8" r="2.3"/><circle class="st39" cx="156.5" cy="76.8" r="1.2"/><path class="st39" d="M156.5 77.3c-0.2 0-0.4-0.1-0.5-0.4s0.1-0.6 0.3-0.6l13.2-4c0.3-0.1 0.6 0.1 0.6 0.3 0.1 0.3-0.1 0.6-0.3 0.6l-13.2 4C156.6 77.3 156.5 77.3 156.5 77.3L156.5 77.3z"/><path class="st40" d="M291.3 493.7c0 0 22-17.7 79.3-17.7 0-75 0-222.6 0-222.6s-79.9-11.6-107.3 69.2C238.3 396 291.3 493.7 291.3 493.7z"/><path class="st13" d="M449.8 493.7c0 0-22-17.7-79.3-17.7 0-75 0-222.6 0-222.6s79.9-11.6 107.3 69.2C502.8 396 449.8 493.7 449.8 493.7z"/><path class="st41" d="M505.8 569.2c-18.3-34.7-136-56.4-136-56.4s-117.7 21.7-136 56.4c-13.5 48.1-24.9 109.2-24.9 109.2h160.9 160.9C530.6 678.4 523 612.9 505.8 569.2z"/><path class="st42" d="M369.8 512.8c0 0 117.7 21.7 136 56.4 17.2 43.7 24.8 109.2 24.8 109.2H369.8V512.8z"/><rect x="337.7" y="442.3" class="st41" width="64.1" height="107.3"/><rect x="369.8" y="442.3" class="st42" width="32" height="107.3"/><path class="st43" d="M337.7 492c5.8 16.5 29 26 46.1 26 6.2 0 12.2-1 18-2.9v-72.8h-64.1V492z"/><path class="st44" d="M452.1 374.7c0-67-36.9-105.1-82.4-105.1s-82.4 38.1-82.4 105.1S324.2 496 369.7 496C415.3 496 452.1 441.7 452.1 374.7z"/><path class="st45" d="M439.6 421.1c-14.9-1.7-25-18.8-22.5-38.2 2.5-19.4 16.6-33.9 31.6-32.2 14.9 1.7 25 18.8 22.5 38.2C468.7 408.3 454.5 422.8 439.6 421.1z"/><path class="st44" d="M268.9 388.9c-2.5-19.4 7.5-36.5 22.5-38.2 14.9-1.6 29.1 12.8 31.6 32.2 2.5 19.4-7.6 36.5-22.5 38.2C285.5 422.8 271.4 408.3 268.9 388.9z"/><path class="st45" d="M452.1 374.7c0-67-36.9-105.1-82.4-105.1V496C415.3 496 452.1 441.7 452.1 374.7z"/><polygon class="st34" points="269.7 678.4 369.8 678.4 469.4 678.4 469.4 570.2 269.7 570.2 "/><path class="st46" d="M350.4 678.4l-18.6-157c-41.6 6.5-88.8 30.3-98.1 47.8 -13.5 48.1-24.9 109.2-24.9 109.2H350.4z"/><path class="st46" d="M397 678.4h133.6c0 0-7.6-65.5-24.8-109.2 -15-26.8-74.4-41.2-95.1-47.3L397 678.4z"/><path class="st47" d="M296.8 530.4l3.9 46.9h21.9L311 601.6l30.1 76.8h9.3l-18.6-157C331.8 521.4 306.7 526.9 296.8 530.4z"/><path class="st47" d="M445.6 530.6l-4.1 46.7h-21.9l11.6 24.3 -30.1 76.8h-9.3l18.6-157C410.5 521.4 435.7 527.1 445.6 530.6z"/><path class="st38" d="M290.9 379.4c1.6-3.6 5-6.6 8.7-7.2 18.1-2.9 36.4-2.8 54.5 0.3 3.6 0.7 6.9 3.4 8.5 6.8h3.4c-1.8-5.1-6.4-9.5-11.7-10.5 -9.1-1.6-18.3-2.5-27.4-2.6s-18.4 0.7-27.4 2.2c-4.4 0.8-14.1 7.7-14.1 7.7 -1 0.1-1.8 1.2-1.8 2.2 0 0.3 0 0.6 0 0.9h7.3V379.4z"/><path class="st48" d="M360.7 403.6c-1.5 5.1-6.8 9.7-11.1 9.9 -15.1 0.7-30.3 0.7-45.4 0 -4.3-0.3-9.6-4.8-11.1-10 -1.7-6.2-2.7-12.3-3-18.5 -0.2-5.2 4.4-10.4 9.6-11.2 18.1-2.8 36.4-2.7 54.5 0.3 5.2 0.9 9.8 6.1 9.6 11.3C363.4 391.4 362.4 397.5 360.7 403.6z"/><path class="st38" d="M354.3 370.5c-9.1-1.6-18.3-2.4-27.4-2.5s-18.4 0.7-27.4 2.1c-4.4 0.7-14.1 7.5-14.1 7.5 -1 0.1-1.8 1.1-1.8 2.2 0 4.1 0 8.1 0 12.2 0 1 0.9 1.4 1.8 1.7 1.2 0.4 2.7 2.7 3 4.2 0.5 2.3 1 4.5 1.6 6.8 1.9 6.3 8.3 12.1 14 12.4 7.6 0.4 15.3 0.6 22.9 0.6s15.3-0.2 22.9-0.6c5.7-0.4 12.1-6.1 14-12.4 1.8-6.3 2.8-12.6 3.1-18.9C367.2 379 361.5 371.8 354.3 370.5zM360.7 403.6c-1.5 5.1-6.8 9.7-11.1 9.9 -15.1 0.7-30.3 0.7-45.4 0 -4.3-0.3-9.6-4.8-11.1-10 -1.7-6.2-2.7-12.3-3-18.5 -0.2-5.2 4.4-10.4 9.6-11.2 18.1-2.8 36.4-2.7 54.5 0.3 5.2 0.9 9.8 6.1 9.6 11.3C363.4 391.4 362.4 397.5 360.7 403.6z"/><path class="st37" d="M295.9 408.6c-1.3-1.5-2.3-3.2-2.8-5.1 -1.7-6.2-2.7-12.3-3-18.5 -0.2-5.2 4.4-10.4 9.6-11.2 18.1-2.8 36.4-2.7 54.5 0.3 2.4 0.4 4.8 1.8 6.5 3.7 -1.8-2.5-4.6-4.5-7.6-5 -18.1-3-36.4-3-54.5-0.1 -5.2 0.9-9.8 6.1-9.6 11.3 0.3 6.2 1.3 12.3 3 18.5C292.7 404.7 294.1 406.8 295.9 408.6z"/><path class="st38" d="M452.1 379.4c-1.5-3.6-5-6.6-8.7-7.2 -18.1-2.9-36.4-2.8-54.5 0.3 -3.6 0.7-6.9 3.4-8.5 6.8H377c1.8-5.1 6.4-9.5 11.7-10.5 9.1-1.6 18.3-2.5 27.4-2.6s18.4 0.7 27.4 2.2c4.4 0.8 14 7.7 14 7.7 1 0.1 1.8 1.2 1.8 2.2 0 0.3 0 0.6 0 0.9h-7.2L452.1 379.4 452.1 379.4z"/><path class="st48" d="M382.3 403.6c1.5 5.1 6.8 9.7 11.1 9.9 15.1 0.7 30.3 0.7 45.4 0 4.3-0.3 9.6-4.8 11.1-10 1.7-6.2 2.7-12.3 3-18.5 0.2-5.2-4.4-10.4-9.6-11.2 -18.1-2.8-36.4-2.7-54.5 0.3 -5.2 0.9-9.8 6.1-9.6 11.3C379.6 391.4 380.6 397.5 382.3 403.6z"/><path class="st38" d="M388.7 370.5c9.1-1.6 18.3-2.4 27.4-2.5s18.4 0.7 27.4 2.1c4.4 0.7 14 7.5 14 7.5 1 0.1 1.8 1.1 1.8 2.2 0 4.1 0 8.1 0 12.2 0 1-0.9 1.4-1.8 1.7 -1.2 0.4-2.7 2.7-3 4.2 -0.4 2.3-1 4.5-1.6 6.8 -1.9 6.3-8.3 12.1-14 12.4 -7.6 0.4-15.3 0.6-22.9 0.6s-15.3-0.2-22.9-0.6c-5.7-0.4-12.1-6.1-14-12.4 -1.8-6.3-2.8-12.6-3.1-18.9C375.8 379 381.5 371.8 388.7 370.5zM382.3 403.6c1.5 5.1 6.8 9.7 11.1 9.9 15.1 0.7 30.3 0.7 45.4 0 4.3-0.3 9.6-4.8 11.1-10 1.7-6.2 2.7-12.3 3-18.5 0.2-5.2-4.4-10.4-9.6-11.2 -18.1-2.8-36.4-2.7-54.5 0.3 -5.2 0.9-9.8 6.1-9.6 11.3C379.6 391.4 380.6 397.5 382.3 403.6z"/><path class="st37" d="M447.1 408.6c1.3-1.5 2.3-3.2 2.8-5.1 1.7-6.2 2.7-12.3 3-18.5 0.2-5.2-4.4-10.4-9.6-11.2 -18.1-2.8-36.4-2.7-54.5 0.3 -2.4 0.4-4.8 1.8-6.5 3.7 1.8-2.5 4.6-4.5 7.6-5 18.1-3 36.4-3 54.5-0.1 5.2 0.9 9.8 6.1 9.6 11.3 -0.3 6.2-1.3 12.3-3 18.5C450.3 404.7 448.9 406.8 447.1 408.6z"/><path class="st38" d="M372.7 376.6c-3.2 0.2-6.5-0.4-9.7-1.6 3 4.4 4.2 12 3.3 16.4 0.8-4.1 3.8-5.1 6.5-4.5L372.7 376.6 372.7 376.6z"/><path class="st38" d="M370.2 376.6c3.2 0.2 6.5-0.4 9.7-1.6 -3 4.4-4.2 12-3.3 16.4 -0.8-4.1-3.8-5.1-6.5-4.5L370.2 376.6 370.2 376.6z"/><path class="st40" d="M316.3 315.7c0 0 39.4 83.3 136.7 59.1 14-7 28.6-86.5-50.2-101.7C323.9 257.9 305.5 288.4 316.3 315.7z"/><path class="st40" d="M283.9 392c0 0 13.4-59.1 48.3-82 -3.2-19.1 0-41 0-41S264.2 289 283.9 392z"/><path class="st13" d="M402.8 273.1c-12.1-2.3-22.8-3.6-32.2-4v99.4c20.8 9.9 48 14.9 82.4 6.3C467 367.9 481.6 288.4 402.8 273.1z"/><path class="st48" d="M599.9 252.7c5.2-5.3 12.2-8.3 19.6-8.3 15.4-0.2 28 12.2 28.1 27.5 0.1 7.4-2.8 14.5-8 19.8l0 0c-5.2 5.3-12.1 8.3-19.5 8.3 -7.4 0.1-14.4-2.7-19.8-8 -5.3-5.2-8.3-12.2-8.4-19.6C591.8 265 594.7 258 599.9 252.7L599.9 252.7z"/><path class="st31" d="M641.3 289.8c-0.3 0.3-0.5 0.6-0.8 0.9C640.8 290.4 641 290.1 641.3 289.8z"/><path class="st31" d="M640.5 290.8c-0.3 0.3-0.6 0.6-0.8 0.9C639.9 291.4 640.2 291.1 640.5 290.8z"/><path class="st50" d="M599.9 252.7c-4.7 4.8-7.4 10.9-7.9 17.4 0.1-1.3 0.3-2.5 0.5-3.8 1.3-3 3.2-5.9 5.6-8.3 5.2-5.3 12.2-8.3 19.6-8.3 15.3-0.2 28 12.2 28.1 27.5 0 2.1-0.2 4.2-0.6 6.1 -1 2.3-2.3 4.4-3.9 6.4 4.1-5.1 6.3-11.3 6.3-17.9 -0.2-15.4-12.8-27.7-28.1-27.5C612.1 244.4 605.1 247.4 599.9 252.7z"/><path class="st31" d="M592 270.2c0 0.2 0 0.4 0 0.7C592 270.6 592 270.4 592 270.2z"/><path class="st31" d="M592 271c0 0.2 0 0.4 0 0.6C591.9 271.4 591.9 271.2 592 271z"/><path class="st31" d="M591.9 271.7c0 0.2 0 0.5 0 0.7C591.9 272.2 591.9 272 591.9 271.7z"/><path class="st38" d="M654.6 306.1c1.8-1.9 1.8-4.9-0.1-6.8l-6.2-5.9c-1.9-1.8-4.9-1.8-6.8 0.1l0 0c-1.8 1.9-1.8 4.9 0.1 6.8l6.2 5.9C649.8 308.1 652.8 308 654.6 306.1L654.6 306.1z"/><path class="st37" d="M593.1 246c-7 7.2-10.8 16.6-10.7 26.6s4.1 19.3 11.3 26.3 16.6 10.8 26.6 10.7c10-0.1 19.3-4.1 26.3-11.2l0 0c7-7.2 10.8-16.6 10.7-26.6 -0.2-20.6-17.2-37.2-37.8-37C609.4 234.9 600.1 238.9 593.1 246zM647.6 271.9c0.1 7.4-2.8 14.5-8 19.8s-12.1 8.3-19.5 8.3c-7.4 0.1-14.4-2.7-19.8-8 -5.3-5.2-8.3-12.2-8.4-19.6 -0.1-7.4 2.8-14.5 8-19.8s12.2-8.3 19.6-8.3C634.8 244.2 647.4 256.5 647.6 271.9z"/><rect x="662.8" y="293.5" transform="matrix(0.7006 -0.7136 0.7136 0.7006 -29.6225 576.7349)" class="st26" width="19.2" height="60.3"/><rect x="666.7" y="293.5" transform="matrix(0.7005 -0.7136 0.7136 0.7005 -29.6345 576.7505)" class="st37" width="11.3" height="60.3"/><rect x="680.9" y="336.9" transform="matrix(0.7006 -0.7135 0.7135 0.7006 -36.9952 594.9221)" class="st38" width="19.2" height="9.2"/><rect x="685" y="336.9" transform="matrix(0.7007 -0.7135 0.7135 0.7007 -36.8971 595.0004)" class="st51" width="11.3" height="9.2"/><path class="st50" d="M600.1 285c-3.3-6.6-3.9-14.2-1.6-21.2 0.8-2.4 1.9-4.7 3.3-6.7l5.5 2c-1.8 2.4-3.2 5.1-4.2 8.1 -2.3 7-1.7 14.6 1.6 21.2 1.5 3.1 3.7 5.8 6.1 8C606.2 293.7 602.5 289.8 600.1 285z"/><path class="st31" d="M188.3 291.6h-39.8c-2 0-3.7 1.6-3.7 3.7V349c0 2 1.6 3.7 3.7 3.7h39.8c2 0 3.7-1.6 3.7-3.7v-53.8C192 293.2 190.3 291.6 188.3 291.6z"/><path class="st26" d="M188.3 291.6h-39.8c-2 0-3.7 1.6-3.7 3.7v17.5h47.1v-17.5C192 293.2 190.3 291.6 188.3 291.6z"/><path class="st26" d="M187.1 335.5c0 0.7-0.5 1.2-1.2 1.2h-7.1c-0.7 0-1.2-0.5-1.2-1.2v-4.7c0-0.7 0.5-1.2 1.2-1.2h7.1c0.7 0 1.2 0.5 1.2 1.2V335.5z"/><path class="st34" d="M159.3 345.6c0 0.7-0.5 1.2-1.2 1.2H151c-0.7 0-1.2-0.5-1.2-1.2v-4.7c0-0.7 0.5-1.2 1.2-1.2h7.1c0.7 0 1.2 0.5 1.2 1.2V345.6z"/><path class="st34" d="M159.3 334.2c0 0.7-0.5 1.2-1.2 1.2H151c-0.7 0-1.2-0.5-1.2-1.2v-4.7c0-0.7 0.5-1.2 1.2-1.2h7.1c0.7 0 1.2 0.5 1.2 1.2V334.2z"/><path class="st34" d="M159.3 322.9c0 0.7-0.5 1.2-1.2 1.2H151c-0.7 0-1.2-0.5-1.2-1.2v-4.7c0-0.7 0.5-1.2 1.2-1.2h7.1c0.7 0 1.2 0.5 1.2 1.2V322.9z"/><path class="st34" d="M173.2 345.6c0 0.7-0.5 1.2-1.2 1.2h-7.1c-0.7 0-1.2-0.5-1.2-1.2v-4.7c0-0.7 0.5-1.2 1.2-1.2h7.1c0.7 0 1.2 0.5 1.2 1.2V345.6z"/><path class="st34" d="M173.2 334.2c0 0.7-0.5 1.2-1.2 1.2h-7.1c-0.7 0-1.2-0.5-1.2-1.2v-4.7c0-0.7 0.5-1.2 1.2-1.2h7.1c0.7 0 1.2 0.5 1.2 1.2V334.2z"/><path class="st34" d="M173.2 322.9c0 0.7-0.5 1.2-1.2 1.2h-7.1c-0.7 0-1.2-0.5-1.2-1.2v-4.7c0-0.7 0.5-1.2 1.2-1.2h7.1c0.7 0 1.2 0.5 1.2 1.2V322.9z"/><path class="st52" d="M187.1 345.6c0 0.7-0.5 1.2-1.2 1.2h-7.1c-0.7 0-1.2-0.5-1.2-1.2v-13.1c0-0.7 0.5-1.2 1.2-1.2h7.1c0.7 0 1.2 0.5 1.2 1.2V345.6z"/><path class="st52" d="M187.1 334.2c0 0.7-0.5 1.2-1.2 1.2h-7.1c-0.7 0-1.2-0.5-1.2-1.2v-4.7c0-0.7 0.5-1.2 1.2-1.2h7.1c0.7 0 1.2 0.5 1.2 1.2V334.2z"/><path class="st34" d="M187.1 322.9c0 0.7-0.5 1.2-1.2 1.2h-7.1c-0.7 0-1.2-0.5-1.2-1.2v-4.7c0-0.7 0.5-1.2 1.2-1.2h7.1c0.7 0 1.2 0.5 1.2 1.2V322.9z"/><path class="st32" d="M187.1 307.7c0 0.7-0.5 1.2-1.2 1.2H151c-0.7 0-1.2-0.5-1.2-1.2v-10c0-0.7 0.5-1.2 1.2-1.2h34.9c0.7 0 1.2 0.5 1.2 1.2L187.1 307.7 187.1 307.7z"/><rect x="38.8" y="193.8" class="st53" width="120.3" height="73.3"/><polygon class="st54" points="159.1 193.8 38.8 193.8 98.9 150.3 "/><path class="st34" d="M148.9 146v91.1H49V146c0-6.8-5.5-12.2-12.2-12.2h99.9C143.4 133.8 148.9 139.3 148.9 146z"/><rect x="61.1" y="153" class="st55" width="36.3" height="36.3"/><path class="st34" d="M80.5 160C74 160 68 165.6 68 172.4c0 5.6 4.2 9.9 10 9.9 2.3 0 4.6-0.7 6.5-2l-0.6-0.8c-1.7 1.1-3.6 1.8-5.8 1.8 -5.2 0-9-3.9-9-8.9 0-5.9 5.2-11.3 11.3-11.3 5.3 0 8.9 3.7 8.9 8.9 0 4.3-2.2 5.7-3.4 5.7 -0.8 0-1.5-0.6-1.5-1.6 0-0.2 0-0.5 0.1-0.7l1.8-8.5h-2.1l-0.4 1.9c-0.6-1.4-2-2.5-4-2.5 -3.7 0-7.4 3.5-7.4 7.9 0 3 1.9 5.1 4.8 5.1 2 0 3.9-1.2 5-2.8v0.2c0.1 1.3 1.1 2.5 2.9 2.5 2.6 0 5.4-2.5 5.4-7.4C90.4 164.5 86.4 160 80.5 160zM82.4 172.8c-0.9 1.3-2.5 2.8-4.7 2.8 -2 0-3.2-1.5-3.2-3.5 0-3 2.4-6 5.5-6 1.9 0 2.9 1.3 3.2 2.3L82.4 172.8z"/><rect x="104.2" y="153" class="st56" width="34.6" height="3.9"/><rect x="104.2" y="163.8" class="st56" width="34.6" height="3.9"/><rect x="104.2" y="174.6" class="st56" width="34.6" height="3.9"/><rect x="104.2" y="185.4" class="st56" width="34.6" height="3.9"/><rect x="61.1" y="196.2" class="st56" width="77.8" height="3.9"/><rect x="61.1" y="207" class="st56" width="38.9" height="3.9"/><path class="st56" d="M36.8 133.8c-6.8 0-12.2 5.5-12.2 12.2v6.9c0 6.8-5.5 12.2-12.2 12.2h36.7V146C49 139.3 43.5 133.8 36.8 133.8z"/><path class="st57" d="M12.3 165.1c6.8 0 12.2-5.5 12.2-12.2H0C0 159.7 5.5 165.1 12.3 165.1z"/><polygon class="st58" points="98.9 225.9 38.8 193.8 38.8 267 159.1 267 159.1 193.8 "/><polygon class="st59" points="159.1 193.8 159.1 267 98.9 230.4 "/><polygon class="st59" points="98.9 230.4 38.8 267 38.8 193.8 "/><polygon class="st54" points="159.1 267 38.8 267 98.9 230.4 "/><polygon class="st60" points="522.9 489.5 541 529.1 632.3 420.5 "/><polygon class="st34" points="536.4 493.3 585.9 507.4 632.3 420.5 "/><polygon class="st34" points="492.8 480.9 522.9 489.5 632.3 420.5 "/><polygon class="st61" points="541 529.1 536.4 493.3 564.4 501.3 "/><path class="st37" d="M591.4 374.5c0 1.4-1.1 2.6-2.4 2.6h-4.7v9.7l-11.5-9.7H543c-1.3 0-2.4-1.2-2.4-2.6v-29.3c0-1.4 1.1-2.6 2.4-2.6h46c1.3 0 2.4 1.2 2.4 2.6V374.5L591.4 374.5z"/><path class="st34" d="M520.2 365.2c0 1.4 1.1 2.6 2.4 2.6h4.7v9.7l11.5-9.7h29.8c1.3 0 2.4-1.2 2.4-2.6v-29.3c0-1.4-1.1-2.6-2.4-2.6h-46c-1.3 0-2.4 1.2-2.4 2.6V365.2z"/><rect x="527.8" y="342.7" class="st36" width="35.6" height="2.2"/><rect x="527.8" y="349.8" class="st36" width="35.6" height="2.2"/><rect x="527.8" y="356.8" class="st36" width="27.7" height="2.2"/><path class="st62" d="M339.2 73.2c0 33.5-27.2 60.7-60.7 60.7s-60.7-27.2-60.7-60.7 27.2-60.7 60.7-60.7C312 12.5 339.2 39.7 339.2 73.2z"/><path class="st34" d="M323.4 73.2c0 24.8-20.1 44.9-44.9 44.9S233.6 98 233.6 73.2s20.1-44.9 44.9-44.9C303.3 28.3 323.4 48.4 323.4 73.2z"/><path class="st62" d="M307.6 73.2c0 16-13 29.1-29.1 29.1s-29.1-13-29.1-29.1 13-29.1 29.1-29.1S307.6 57.1 307.6 73.2z"/><path class="st34" d="M291.8 73.2c0 7.3-5.9 13.2-13.2 13.2 -7.3 0-13.3-5.9-13.3-13.2 0-7.3 5.9-13.3 13.3-13.3C285.8 59.9 291.8 65.9 291.8 73.2z"/><path class="st34" d="M278.5 59.9c7.3 0 13.2 5.9 13.2 13.3 0 7.3-5.9 13.2-13.2 13.2V59.9z"/><path class="st32" d="M291.8 73.2c0-7.3-5.9-13.3-13.2-13.3v26.5C285.8 86.4 291.8 80.5 291.8 73.2z"/><path class="st32" d="M278.5 28.3v15.8c16 0 29.1 13 29.1 29.1 0 16-13 29.1-29.1 29.1v15.8c24.8 0 44.9-20.1 44.9-44.9S303.3 28.3 278.5 28.3z"/><polygon class="st32" points="332.8 33.7 342.3 24.1 331.5 21.3 328.7 10.5 319.1 20.1 321.5 28.8 289.1 61.2 284.5 52 281.5 63.1 278.5 74.3 289.7 71.3 300.8 68.3 291.7 63.7 324 31.3 "/><polygon class="st34" points="331.5 21.3 328.7 10.5 319.1 20.1 321.5 28.8 289.1 61.2 284.5 52 281.5 63.1 278.5 74.3 "/><path class="st55" d="M404.3 67.5c-3.7 3.7-8.8 6-14.5 6 -11.3 0-20.5-9.2-20.5-20.5s9.2-20.5 20.5-20.5V53L404.3 67.5z"/><path class="st53" d="M410.3 53h-20.5V32.5C401.2 32.5 410.3 41.7 410.3 53z"/><path class="st34" d="M410.3 53c0 5.7-2.3 10.8-6 14.5L389.8 53H410.3z"/><path class="st34" d="M523.5 26.1l78.8 52.8 -74.7 111.5 -78.9-52.8L523.5 26.1z"/><rect x="528.9" y="37.7" transform="matrix(0.5559 -0.8313 0.8313 0.5559 199.4056 460.4542)" class="st39" width="3.5" height="11.9"/><rect x="524.5" y="44.3" transform="matrix(0.5559 -0.8313 0.8313 0.5559 191.939 459.771)" class="st36" width="3.5" height="11.9"/><rect x="520.1" y="50.9" transform="matrix(0.5558 -0.8313 0.8313 0.5558 184.5724 459.0461)" class="st31" width="3.5" height="11.9"/><rect x="515.7" y="57.5" transform="matrix(0.5559 -0.8312 0.8312 0.5559 177.0149 458.3063)" class="st63" width="3.5" height="11.9"/><rect x="563" y="39.6" transform="matrix(0.5559 -0.8313 0.8313 0.5559 195.0207 499.5267)" class="st60" width="3.9" height="55.3"/><rect x="556.6" y="49.1" transform="matrix(0.5559 -0.8313 0.8313 0.5559 184.2567 498.4252)" class="st60" width="3.9" height="55.3"/><rect x="550.1" y="58.9" transform="matrix(0.5559 -0.8313 0.8313 0.5559 173.2665 497.3619)" class="st60" width="3.9" height="55.3"/><rect x="553.3" y="54.1" transform="matrix(0.5559 -0.8313 0.8313 0.5559 178.6555 497.9111)" class="st60" width="3.9" height="55.3"/><rect x="559.8" y="44.4" transform="matrix(0.5559 -0.8313 0.8313 0.5559 189.6312 498.9782)" class="st60" width="3.9" height="55.3"/><rect x="506.1" y="95.7" transform="matrix(0.5559 -0.8313 0.8313 0.5559 114.498 481.6754)" class="st60" width="3.9" height="76"/><rect x="499.7" y="105.5" transform="matrix(0.5559 -0.8313 0.8313 0.5559 103.4973 480.7055)" class="st60" width="3.9" height="76"/><rect x="493.1" y="115.1" transform="matrix(0.5559 -0.8313 0.8313 0.5559 92.6043 479.5135)" class="st60" width="3.9" height="76"/><rect x="496.4" y="110.2" transform="matrix(0.5559 -0.8313 0.8313 0.5559 98.1227 480.0615)" class="st60" width="3.9" height="76"/><rect x="502.8" y="100.6" transform="matrix(0.5559 -0.8313 0.8313 0.5559 108.9766 481.1277)" class="st60" width="3.9" height="76"/><rect x="480" y="89.8" transform="matrix(0.5559 -0.8313 0.8313 0.5559 143.398 450.5161)" class="st60" width="26.7" height="2.5"/><rect x="514.1" y="85.9" transform="matrix(0.5558 -0.8313 0.8313 0.5558 126.2614 483.2735)" class="st60" width="2.5" height="75.2"/><rect x="492.6" y="100" transform="matrix(0.5559 -0.8313 0.8313 0.5559 135.4734 460.3587)" class="st36" width="11.9" height="6.7"/><rect x="500.5" y="92.7" transform="matrix(0.5559 -0.8313 0.8313 0.5559 143.7598 461.143)" class="st31" width="5.9" height="6.7"/><rect x="502" y="105" transform="matrix(0.5559 -0.8313 0.8313 0.5559 136.6552 472.4313)" class="st36" width="17" height="6.7"/><rect x="514.3" y="96.5" transform="matrix(0.5557 -0.8314 0.8314 0.5557 146.2412 473.3531)" class="st31" width="3.4" height="6.7"/><rect x="514.1" y="115.5" transform="matrix(0.5559 -0.8312 0.8312 0.5559 131.4359 483.6508)" class="st36" width="8.6" height="6.7"/><rect x="519.5" y="109.3" transform="matrix(0.5559 -0.8313 0.8313 0.5559 138.461 484.4885)" class="st31" width="6.2" height="6.7"/><rect x="525.4" y="124.1" transform="matrix(0.5559 -0.8312 0.8312 0.5559 128.4872 495.3156)" class="st36" width="4.9" height="6.7"/><rect x="528.2" y="119.8" transform="matrix(0.5559 -0.8313 0.8313 0.5559 133.325 495.7874)" class="st31" width="4.9" height="6.7"/><polygon class="st30" points="562.6 64.6 562.6 29.7 562.6 8.4 555 3.3 551.7 3.3 478 113.3 511.8 135.9 562.6 135.9 "/><polygon class="st34" points="460.7 132.6 460.7 61.3 460.7 25.6 486.3 0 557.7 0 557.7 26.4 557.7 61.3 557.7 132.6 "/><polygon class="st39" points="486.3 25.6 460.7 25.6 486.3 0 "/><polygon class="st32" points="460.7 25.6 486.3 25.6 460.7 51.2 "/><path class="st37" d="M484.2 104V87.3c-8.2 0.5-14.7 7.3-14.7 15.7 0 8.7 7 15.7 15.7 15.7 8.3 0 15.1-6.5 15.7-14.7H484.2z"/><path class="st39" d="M500.2 100.1c0-6.5-5.3-11.7-11.7-11.7v11.7H500.2z"/><path class="st31" d="M491.9 55.5c-0.3 1-0.8 1.8-1.5 2.6l5.1 7.1c2.6-2.2 4.4-5.3 5.1-8.7L491.9 55.5z"/><path class="st39" d="M486.7 46.5c3 0.6 5.2 3.1 5.5 6.2l8.7 1c0-0.1 0-0.2 0-0.3 0-8.2-6.3-14.9-14.3-15.6L486.7 46.5 486.7 46.5z"/><path class="st36" d="M480.1 48.7c1-1.1 2.3-1.9 3.7-2.2v-8.7c-4.7 0.4-8.7 2.9-11.3 6.5L480.1 48.7z"/><path class="st37" d="M488.1 59.8c-0.9 0.4-1.8 0.6-2.8 0.6 -3.9 0-7-3.1-7-7 0-0.8 0.2-1.5 0.4-2.2l-7.6-4.5c-1 2-1.5 4.3-1.5 6.7 0 8.7 7 15.7 15.7 15.7 2.9 0 5.6-0.8 7.9-2.2L488.1 59.8z"/><rect x="508.3" y="37.8" class="st36" width="37.8" height="3.9"/><rect x="508.3" y="49.9" class="st31" width="37.8" height="3.9"/><rect x="508.3" y="62.1" class="st31" width="37.8" height="3.9"/><rect x="508.3" y="87.3" class="st36" width="26.3" height="3.9"/><rect x="508.3" y="99.5" class="st31" width="37.8" height="3.9"/><rect x="508.3" y="111.7" class="st31" width="37.8" height="3.9"/><path class="st35" d="M534.3 131.1l36.8-74.3c-1.3-0.3-2.8 0.6-3.8 2.3L532.2 130 534.3 131.1z"/><path class="st64" d="M527 127.5l5.1 2.5 35.2-70.9 0 0 0 0 0 0c0.8-2 0.5-4-0.9-4.7 -1.3-0.6-3.1 0.3-4.2 2.1l0 0 0 0 0 0L527 127.5z"/><path class="st35" d="M562.2 56.6c0.7-1.8 0.5-3.6-0.5-4.4l-36.8 74.3 2.2 1.1L562.2 56.6z"/><path class="st65" d="M561.7 52.2c1 0.8 1.2 2.6 0.5 4.4l0 0 0 0 0 0c1.1-1.8 2.9-2.8 4.2-2.1s1.7 2.7 0.9 4.7l0 0 0 0 0 0c1-1.6 2.6-2.6 3.8-2.3l-0.2-11.4L561.7 52.2z"/><path class="st26" d="M571 51l-0.1-5.6 -4.5 3.3c0.6 0.6 1.3 1.2 2.1 1.6C569.3 50.7 570.1 50.9 571 51z"/><rect x="529.8" y="131.6" transform="matrix(0.444 -0.896 0.896 0.444 176.9233 550.7399)" class="st66" width="4.8" height="2.4"/><rect x="526.1" y="128.1" transform="matrix(0.4439 -0.8961 0.8961 0.4439 176.5518 546.4244)" class="st67" width="4.8" height="5.7"/><rect x="522.4" y="127.9" transform="matrix(0.4442 -0.8959 0.8959 0.4442 176.0562 541.9654)" class="st66" width="4.8" height="2.4"/></svg>
 