<svg xmlns="http://www.w3.org/2000/svg" viewBox="0 0 677.6 609.2"><style type="text/css">
	.st0{fill:#D4EFF2;}
	.st1{fill:#FFFFFF;}
	.st2{fill:none;stroke:#CCCCCC;stroke-width:0.9601;stroke-miterlimit:22.9256;}
	.st3{fill:#009CA0;}
	.st4{fill:#EF4136;}
	.st5{fill:#FCD8D6;}
	.st6{fill:#F9B3AF;}
	.st7{fill:#F48C85;}
	.st8{fill:#F2675D;}
	.st9{fill:#CCCCCC;}
	.st10{fill:#4C8EB4;}
	.st11{fill:#609DC1;}
	.st12{fill:#73ACCD;}
	.st13{fill:#87BBDA;}
	.st14{fill:#9ACAE6;}
	.st15{fill:#1A1A1A;}
	.st16{fill:#E5E5E5;}
	.st17{fill:#B5B7B7;}
	.st18{fill:#4D4D4D;}
	.st19{fill:#808080;}
	.st20{fill:#666969;}
	.st21{fill:#004568;}
	.st22{fill:#FFEEC9;}
	.st23{fill:#FFCD61;}
	.st24{fill:#C0F7FC;}
	.st25{fill:#A2EDF4;}
	.st26{fill:#3786A5;}
	.st27{fill:#415F79;}
</style><path class="st0" d="M469.1 220.8c6.6 0 13.3 0.4 20 1.1l9.1-29.8 62.8 19.1 -9 29.8c22.8 11.8 42.3 28.1 57.7 47.4l27.5-14.7 30.9 57.9 -27.5 14.7c7.5 23.6 10.1 48.8 7.3 74.3l29.8 9.1 -19.1 62.8 -29.8-9.1c-11.8 22.8-28.1 42.3-47.4 57.7l14.7 27.5 -57.9 30.9L523.5 572c-17.4 5.5-35.7 8.4-54.3 8.4v-47c57 0 109.6-36.9 127.1-94.2 21.3-70.2-18.3-144.4-88.4-165.7 -12.9-3.9-25.8-5.8-38.6-5.8v-46.9H469.1zM356.9 260.1l-14.7-27.5 57.9-30.9 14.7 27.5c17.4-5.5 35.7-8.4 54.3-8.4v47c-57 0-109.6 36.9-127.1 94.2 -21.3 70.2 18.3 144.4 88.4 165.7l0 0c12.9 3.9 25.9 5.8 38.6 5.8v47c-6.6 0-13.3-0.4-20-1.1l-9.1 29.8 -62.8-19.1 9.1-29.8c-22.8-11.8-42.3-28.1-57.7-47.4L301 527.5l-30.9-57.9 27.5-14.7c-7.5-23.6-10.1-48.8-7.3-74.3l-29.8-9.1 19.1-62.8 29.8 9.1C321.3 295 337.5 275.5 356.9 260.1z"/><path class="st0" d="M126.2 37.6c4 0 8.1 0.2 12.1 0.7l5.5-18 38 11.6 -5.5 18c13.8 7.1 25.6 17 34.9 28.7l16.6-8.9 18.7 35.1 -16.6 8.9c4.5 14.3 6.1 29.5 4.4 45l18 5.5 -11.6 38 -18-5.5c-7.1 13.8-17 25.6-28.7 34.9l8.9 16.6 -35.1 18.7 -8.9-16.6c-10.5 3.3-21.6 5.1-32.9 5.1v-28.5c34.5 0 66.4-22.3 76.9-57C216 127.4 192 82.5 149.6 69.6c-7.8-2.4-15.6-3.5-23.4-3.5C126.2 66.1 126.2 37.6 126.2 37.6zM58.3 61.4l-8.9-16.6 35.1-18.7 8.9 16.6c10.5-3.3 21.6-5.1 32.9-5.1v28.5c-34.5 0-66.4 22.3-76.9 57 -12.9 42.5 11 87.4 53.5 100.3l0 0c7.8 2.4 15.6 3.5 23.4 3.5v28.5c-4 0-8.1-0.2-12.1-0.7l-5.5 18 -38-11.6 5.5-18c-13.8-7.1-25.6-17-34.9-28.7l-16.6 8.9L5.8 188.2l16.6-8.9c-4.5-14.3-6.1-29.5-4.4-45l-18-5.5 11.6-38 18 5.5C36.7 82.6 46.6 70.8 58.3 61.4z"/><polygon class="st1" points="475.2 86.2 613.4 86.2 636.6 109.4 636.6 86.2 636.6 314.5 475.2 314.5 "/><line class="st2" x1="573.2" y1="248.1" x2="573.2" y2="262.4"/><line class="st2" x1="607.9" y1="248.1" x2="607.9" y2="276.7"/><rect x="516.7" y="110.7" class="st3" width="78.4" height="5.6"/><rect x="490" y="124.6" class="st3" width="131.8" height="5.6"/><rect x="490" y="134.4" class="st3" width="131.8" height="5.6"/><rect x="490" y="144.1" class="st3" width="131.8" height="5.6"/><rect x="490" y="153.9" class="st3" width="61.8" height="5.6"/><circle class="st4" cx="604.7" cy="201.7" r="17.1"/><path class="st5" d="M595.3 216c-2.5-1.6-4.5-3.9-5.8-6.5l15.2-7.8L595.3 216z"/><path class="st6" d="M589.5 209.5c-1.2-2.3-1.9-5-1.9-7.8 0-5.5 2.6-10.3 6.6-13.5l10.5 13.5L589.5 209.5z"/><path class="st7" d="M594.1 188.2c2.9-2.3 6.6-3.6 10.5-3.6v17.1L594.1 188.2z"/><path class="st8" d="M604.7 184.6v17.1l12.2-12C613.8 186.6 609.5 184.6 604.7 184.6z"/><rect x="490" y="221.7" class="st9" width="78.4" height="2"/><rect x="490" y="179.7" class="st10" width="13.9" height="42"/><rect x="506.1" y="195.5" class="st11" width="13.9" height="26.2"/><rect x="522.2" y="204.4" class="st12" width="13.9" height="17.3"/><rect x="538.3" y="196.3" class="st13" width="13.9" height="25.4"/><rect x="554.5" y="203.5" class="st14" width="13.9" height="18.2"/><rect x="588.7" y="221.7" class="st9" width="7" height="2"/><rect x="599" y="221.7" class="st9" width="20.9" height="2"/><polygon class="st3" points="613.4 109.4 636.6 109.4 613.4 86.2 "/><rect x="490" y="243.9" class="st4" width="27.8" height="8.5"/><rect x="524.7" y="243.9" class="st14" width="27.8" height="8.5"/><rect x="559.3" y="243.9" class="st11" width="27.8" height="8.5"/><rect x="594" y="243.9" class="st14" width="27.8" height="8.5"/><rect x="490" y="258.1" class="st8" width="27.8" height="8.5"/><rect x="490" y="272.4" class="st7" width="27.8" height="8.5"/><rect x="490" y="286.7" class="st5" width="27.8" height="8.5"/><rect x="559.3" y="258.1" class="st11" width="27.8" height="8.5"/><rect x="594" y="258.1" class="st14" width="27.8" height="8.5"/><rect x="594" y="272.4" class="st14" width="27.8" height="8.5"/><path class="st15" d="M144.1 234.4h347c7.1 0 12.9 5.8 12.9 12.9v219.2c0 7.1-5.8 12.9-12.9 12.9h-347c-7.1 0-12.9-5.8-12.9-12.9V247.3C131.2 240.2 137 234.4 144.1 234.4z"/><rect x="150.6" y="260" class="st1" width="334.1" height="179.4"/><rect x="309.7" y="450.5" class="st16" width="15.9" height="15.9"/><polygon class="st17" points="131.2 479.4 504 479.4 568.8 521.8 66.5 521.8 "/><path class="st18" d="M66.5 521.8h502.3v14.5c0 5.1-4.2 9.3-9.3 9.3H75.8c-5.1 0-9.3-4.2-9.3-9.3V521.8z"/><rect x="266.9" y="534.2" class="st19" width="101.5" height="6.5"/><rect x="66.5" y="521.8" class="st20" width="502.3" height="7.2"/><path class="st16" d="M471.6 516.7v-9l64.6-0.1c2.3 1.5 4.5 3 6.7 4.4 2.3 1.5 4.5 3 6.7 4.4C523.6 516.6 497.6 516.7 471.6 516.7L471.6 516.7zM471.6 504v-9h4.6c1.7 1.5 3.5 3 5.3 4.5 1.7 1.5 3.5 3 5.2 4.5H471.6L471.6 504zM471.6 491.6v-0.4l0.5 0.4H471.6L471.6 491.6zM471.6 483c1.7 1.4 3.4 2.7 5.2 4.1 1.9 1.5 3.7 3 5.5 4.5 9.9 0 19.8 0 29.8 0 -2.2-1.5-4.4-3-6.7-4.4 -2.2-1.5-4.5-3-6.7-4.4h-27.1V483L471.6 483zM486.6 495.1c10.2 0 20.4 0 30.6 0 2.2 1.5 4.5 3 6.7 4.4 2.2 1.5 4.5 3 6.7 4.4 -10.9 0-21.9 0-32.8 0.1 -1.9-1.5-3.7-3-5.6-4.5C490.4 498 488.5 496.6 486.6 495.1zM164.1 508.4l38.4-0.1c35.7-0.1 71.5-0.2 107.4-0.2 -0.2 1.5-0.4 3-0.7 4.6 -0.2 1.5-0.5 3-0.7 4.6 -38.1 0.1-76.3 0.2-114.4 0.3l-30.1 0.1v-9.3H164.1zM471.6 482.7v0.4l-0.5-0.4H471.6L471.6 482.7zM471.6 491.2c-1.5-1.4-3.1-2.7-4.7-4.1 -1.7-1.5-3.5-3-5.3-4.5 -9.2 0-18.4 0-27.5 0 1.4 1.5 2.8 3 4.1 4.5 1.4 1.5 2.8 3 4.1 4.5 9.7 0 19.5 0 29.2 0L471.6 491.2 471.6 491.2zM471.6 495.1v9h-17.8c-1.4-1.5-2.7-3-4.1-4.5s-2.8-3-4.1-4.5C454.2 495.1 462.9 495.1 471.6 495.1L471.6 495.1zM471.6 507.8v9h-12.2c-30.1 0.1-60.2 0.2-90.2 0.3 -0.4-1.5-0.8-3-1.2-4.5 -0.4-1.5-0.8-3-1.2-4.5 28.2-0.1 56.5-0.1 84.7-0.2L471.6 507.8 471.6 507.8zM164.1 504.6v-9.3c8.1 0 16.2 0 24.4 0 -1.7 1.6-3.4 3.1-5.1 4.6 -1.7 1.5-3.3 3.1-5.1 4.6L164.1 504.6 164.1 504.6zM164.1 491.6v-1.1c1.6-1.2 3.2-2.4 4.7-3.6 2-1.5 4.1-3.1 6.2-4.7 9.2 0 18.3 0 27.5 0 -1.7 1.5-3.4 3.1-5.1 4.6 -1.7 1.5-3.4 3.1-5.1 4.6C183 491.6 173.5 491.6 164.1 491.6L164.1 491.6zM164.1 483.3c0.5-0.3 0.9-0.7 1.4-1h-1.4V483.3L164.1 483.3zM321.5 508.1c11.2 0 22.4 0 33.7-0.1 0.2 1.5 0.5 3 0.8 4.5s0.6 3 0.8 4.5c-12 0-23.9 0.1-35.8 0.1 0.1-1.5 0.2-3 0.2-4.6C321.2 511.1 321.4 509.6 321.5 508.1L321.5 508.1zM199 495.2c10.1 0 20.4 0 30.6 0 -1.2 1.5-2.4 3.1-3.6 4.6 -1.2 1.5-2.4 3.1-3.6 4.6 -10.9 0-21.9 0-32.8 0.1 1.6-1.5 3.2-3.1 4.7-4.6C195.9 498.3 197.4 496.8 199 495.2L199 495.2zM240.1 495.2c10.2 0 20.4 0 30.6 0 -0.8 1.5-1.5 3.1-2.2 4.6s-1.4 3.1-2.1 4.6c-10.9 0-21.9 0-32.8 0.1 1.1-1.5 2.2-3.1 3.2-4.6C237.9 498.3 239 496.8 240.1 495.2L240.1 495.2zM281.2 495.2c10.2 0 20.3 0 30.5 0 -0.2 1.5-0.4 3-0.7 4.6 -0.2 1.5-0.4 3-0.7 4.6 -10.9 0-21.8 0-32.7 0.1 0.6-1.5 1.2-3 1.8-4.6C280.1 498.3 280.6 496.7 281.2 495.2L281.2 495.2zM322.3 495.2c10.1 0 20.3 0 30.5 0 0.2 1.5 0.5 3 0.8 4.5s0.6 3 0.8 4.5c-10.9 0-21.8 0-32.7 0.1 0.1-1.5 0.3-3 0.3-4.6C322.1 498.2 322.2 496.7 322.3 495.2L322.3 495.2zM363.3 495.1c10.2 0 20.4 0 30.6 0 0.7 1.5 1.5 3 2.3 4.5s1.5 3 2.3 4.5c-10.9 0-21.9 0-32.8 0.1 -0.4-1.5-0.8-3-1.2-4.5C364.2 498.2 363.7 496.7 363.3 495.1L363.3 495.1zM404.4 495.1c10.2 0 20.4 0 30.6 0 1.2 1.5 2.5 3 3.8 4.5s2.5 3 3.8 4.5c-10.9 0-21.9 0-32.8 0.1 -0.8-1.5-1.8-3-2.6-4.5C406.2 498.1 405.3 496.6 404.4 495.1L404.4 495.1zM212 482.4c9.2 0 18.4 0 27.6 0 -1.2 1.5-2.4 3.1-3.6 4.6 -1.2 1.5-2.4 3.1-3.6 4.6 -9.9 0-19.8 0-29.7 0 1.5-1.5 3.1-3.1 4.7-4.6C208.9 485.5 210.4 483.9 212 482.4L212 482.4zM249 482.4c9.2 0 18.4 0 27.5 0 -0.7 1.5-1.4 3.1-2.1 4.6s-1.5 3.1-2.1 4.6c-10 0-19.9 0-29.7 0 1-1.5 2.1-3.1 3.2-4.6C246.9 485.5 247.9 483.9 249 482.4L249 482.4zM286 482.4c9.2 0 18.3 0 27.5 0 -0.2 1.5-0.4 3-0.7 4.6 -0.2 1.5-0.5 3-0.7 4.6 -9.9 0-19.8 0-29.7 0 0.6-1.5 1.2-3.1 1.7-4.6C284.9 485.5 285.5 484 286 482.4L286 482.4zM323.1 482.5c9.2 0 18.3 0 27.5 0 0.3 1.5 0.5 3 0.8 4.5s0.6 3 0.8 4.5c-9.9 0-19.8 0-29.7 0 0.1-1.5 0.2-3 0.3-4.6C322.9 485.5 323 484 323.1 482.5L323.1 482.5zM360.1 482.5c9.2 0 18.4 0 27.5 0 0.8 1.5 1.5 3 2.3 4.5s1.5 3 2.3 4.5c-10 0-19.9 0-29.8 0 -0.4-1.5-0.8-3-1.2-4.5C360.8 485.6 360.4 484.1 360.1 482.5L360.1 482.5zM397.1 482.6c9.2 0 18.3 0 27.5 0 1.3 1.5 2.5 3 3.8 4.5s2.5 3 3.8 4.5c-9.9 0-19.9 0-29.7 0 -0.9-1.5-1.8-3-2.7-4.5C398.8 485.6 398 484.1 397.1 482.6zM146.5 508.4h17.6v9.3l-17.6 0.1V508.4L146.5 508.4zM164.1 482.3v1c-1.7 1.2-3.4 2.5-5.1 3.7 -2.2 1.6-4.4 3.1-6.5 4.7h-6v-9.4C152.4 482.3 158.2 482.3 164.1 482.3L164.1 482.3zM164.1 490.6c-0.5 0.4-0.9 0.7-1.4 1.1h1.4V490.6L164.1 490.6zM164.1 495.3v9.3h-17.6v-0.7c1.8-1.3 3.5-2.6 5.3-4 2-1.5 4.1-3.1 6.2-4.7L164.1 495.3 164.1 495.3zM146.5 495.9l0.9-0.6h-0.9V495.9zM95.3 508.5l51.2-0.1v9.3c-22.2 0.1-44.4 0.1-66.5 0.2 2.6-1.6 5.1-3.1 7.7-4.7C90.1 511.7 92.7 510.1 95.3 508.5L95.3 508.5zM146.5 482.3v9.4c-7.9 0-15.8 0-23.7 0 2.5-1.6 5.1-3.1 7.6-4.7 2.5-1.6 5.1-3.1 7.7-4.7L146.5 482.3 146.5 482.3zM146.5 495.3v0.6c-1.9 1.3-3.8 2.7-5.7 4 -2.2 1.5-4.3 3.1-6.5 4.7 -10.9 0-21.8 0-32.7 0.1 2.6-1.6 5.1-3.1 7.7-4.7 2.5-1.6 5.1-3.1 7.7-4.7C126.7 495.3 136.6 495.3 146.5 495.3L146.5 495.3zM146.5 503.9l-0.9 0.7h0.9V503.9z"/><polygon class="st21" points="74.3 308.3 92 308.4 91.7 423.1 74 423 "/><polygon class="st21" points="77.8 313.5 77.5 417.9 88.3 418 88.6 313.5 "/><path class="st21" d="M94.5 279.5c6.1 3.8 10.2 10.6 10.2 18.3 -0.1 11.8-9.7 21.4-21.5 21.3 -11.8 0-21.4-9.7-21.3-21.5 0-7.7 4.2-14.5 10.3-18.2l-0.1 12.1v6.4l5.6 3.2 5.6 3.2 5.6-3.2 5.6-3.2v-6.4L94.5 279.5z"/><path class="st21" d="M93.9 448.1c6.2-3.7 10.3-10.5 10.3-18.2 0-11.8-9.5-21.5-21.3-21.5 -11.8-0.1-21.5 9.5-21.5 21.3 0 7.7 4 14.5 10.2 18.3l0.1-12.1v-6.4l5.6-3.2 5.6-3.2 5.6 3.2 5.6 3.2v6.4L93.9 448.1z"/><path class="st21" d="M97.4 440.3c2.2-3 3.4-6.6 3.4-10.4 0-9.9-8-18-17.9-18s-18 8-18 17.9c0 3.8 1.2 7.5 3.3 10.5l0.1-12.7 14.7-8.4 14.6 8.5L97.4 440.3z"/><path class="st21" d="M68.6 287.1c-2.2 3-3.4 6.6-3.4 10.4 0 9.9 8 18 17.9 18s18-8 18-17.9c0-3.8-1.2-7.5-3.3-10.5l-0.1 12.7L83 308.2l-14.6-8.5L68.6 287.1z"/><path class="st22" d="M546.2 298l-8.1-18.5L530 298v145.7c0 2.4 2 4.4 4.4 4.4h7.4c2.4 0 4.4-2 4.4-4.4L546.2 298 546.2 298z"/><path class="st23" d="M546.2 298l-8.1-18.5 3.5 19.2v149.4h0.2c2.4 0 4.4-2 4.4-4.4L546.2 298z"/><path class="st24" d="M546.2 298l-8.1-18.5L530 298v139.2c5.7 1 11.1 0.9 16.3 0L546.2 298 546.2 298z"/><path class="st25" d="M546.2 298l-8.1-18.5 3.5 19.2v139.1c2.8 0 2-0.2 4.6-0.7V298z"/><path class="st26" d="M546.2 298l-8.1-18.5L530 298v134c5.8 1 11.2 1 16.3 0L546.2 298 546.2 298z"/><path class="st21" d="M546.2 298.6l-8.1-18.3 4 18.4V432c2.8 0 1.4 0.5 4.1-0.1V298.6z"/><path class="st1" d="M546.2 298l-8.1-18.5L530 298c2.6 0.5 5.3 0.7 8.1 0.7C540.9 298.7 543.7 298.5 546.2 298z"/><path class="st9" d="M546.2 298l-8.1-18.5 4.1 19.2C545 298.7 543.7 298.5 546.2 298z"/><path class="st18" d="M540.8 285.6l-2.7-6.1 -2.7 6.1c0.9 0.2 1.8 0.2 2.7 0.2C539 285.9 539.9 285.8 540.8 285.6z"/><path class="st3" d="M89.4 147l3.9 3.2 -8 9.6 -3.9-3.2c-2.7 2.1-5.8 3.7-9 4.7l0.4 5 -9.1 0.8V153c5.7 0 11.2-2.5 14.9-7 6.9-8.2 5.8-20.5-2.4-27.5l0 0c-2-1.7-4.3-3-6.8-3.7 -1.9-0.6-3.8-0.8-5.7-0.8v-14l3.3-0.3 0.4 5c3.4 0.4 6.7 1.5 9.7 3.1l3.2-3.9 9.6 8 -3.2 3.9c2.1 2.7 3.7 5.8 4.7 9.1l5-0.4 1.1 12.4 -5 0.4C92.1 140.7 91 144 89.4 147zM63.7 167.1l-3.3 0.3 -0.4-5c-3.4-0.4-6.7-1.5-9.7-3.1l-3.2 3.9 -9.6-8 3.2-3.9c-2.1-2.7-3.7-5.8-4.7-9.1l-5 0.4 -1.1-12.4 5-0.4c0.4-3.4 1.5-6.7 3.1-9.7l-3.9-3.2 8-9.6 3.9 3.2c2.7-2.1 5.8-3.7 9.1-4.7l-0.4-5 9.1-0.8v14c-5.7 0-11.2 2.5-14.9 7 -6.9 8.2-5.8 20.5 2.4 27.5 2 1.7 4.3 3 6.8 3.7 1.9 0.6 3.8 0.8 5.7 0.8L63.7 167.1 63.7 167.1z"/><path class="st0" d="M510.8 18c7.9 1.6 13.9 7.7 13.9 14.8l0 0c0 7.3-6.1 14.9-14.5 14.9h-36.8c-9 0-15.9-7.2-15.9-14.9l0 0c0-7.1 5.9-13.2 13.9-14.8 0-0.1 0-0.3 0-0.4 0-9.2 8.9-16.6 19.8-16.6S511 8.4 511 17.6C510.8 17.7 510.8 17.8 510.8 18z"/><path class="st1" d="M481.3 11.9c5.5 1.1 9.7 5.4 9.7 10.3l0 0c0 5.1-4.3 10.4-10.2 10.4h-25.7c-6.3 0-11.1-5-11.1-10.4l0 0c0-5 4.1-9.2 9.7-10.3 0-0.1 0-0.2 0-0.3 0-6.4 6.2-11.6 13.8-11.6 7.6 0 13.8 5.2 13.8 11.6C481.3 11.7 481.3 11.8 481.3 11.9z"/><rect x="191.2" y="86.2" class="st27" width="252.8" height="353.1"/><rect x="209.7" y="106.6" class="st8" width="121.4" height="4.6"/><rect x="209.7" y="118" class="st14" width="38.9" height="4.6"/><rect x="209.7" y="129.3" class="st9" width="62.7" height="4.6"/><rect x="238.9" y="140.7" class="st14" width="36.6" height="4.6"/><rect x="238.9" y="152.1" class="st14" width="36.6" height="4.6"/><rect x="264.3" y="163.5" class="st14" width="35.6" height="4.6"/><rect x="261.7" y="118" class="st9" width="66.3" height="4.6"/><rect x="337.4" y="118" class="st9" width="31.7" height="4.6"/><rect x="381.1" y="118" class="st9" width="42.8" height="4.6"/><rect x="282.9" y="129.3" class="st14" width="37.3" height="4.6"/><rect x="286.6" y="140.7" class="st9" width="21.4" height="4.6"/><rect x="286.6" y="152.1" class="st9" width="36.6" height="4.6"/><rect x="318.2" y="140.7" class="st9" width="40.7" height="4.6"/><rect x="367" y="140.7" class="st9" width="21.3" height="4.6"/><rect x="397.5" y="140.7" class="st9" width="26.4" height="4.6"/><rect x="331.4" y="152.1" class="st9" width="46.2" height="4.6"/><rect x="384.5" y="152.1" class="st9" width="13.8" height="4.6"/><rect x="310" y="163.5" class="st9" width="26.5" height="4.6"/><rect x="238.9" y="186.3" class="st14" width="36.6" height="4.6"/><rect x="238.9" y="197.7" class="st14" width="36.6" height="4.6"/><rect x="286.6" y="186.3" class="st9" width="21.4" height="4.6"/><rect x="286.6" y="197.7" class="st9" width="33" height="4.6"/><rect x="318.2" y="186.3" class="st9" width="31.3" height="4.6"/><rect x="355.7" y="186.3" class="st9" width="16.4" height="4.6"/><rect x="379.2" y="186.3" class="st9" width="20.3" height="4.6"/><rect x="351.7" y="197.7" class="st9" width="36.6" height="4.6"/><rect x="238.9" y="209" class="st14" width="36.6" height="4.6"/><rect x="238.9" y="220.4" class="st14" width="36.6" height="4.6"/><rect x="286.6" y="209" class="st9" width="21.4" height="4.6"/><rect x="286.6" y="220.4" class="st9" width="67.1" height="4.6"/><rect x="318.2" y="209" class="st9" width="40.7" height="4.6"/><rect x="367" y="209" class="st9" width="21.3" height="4.6"/><rect x="397.5" y="209" class="st9" width="26.4" height="4.6"/><rect x="361.9" y="220.4" class="st9" width="37.6" height="4.6"/><rect x="326.9" y="197.7" class="st9" width="15.6" height="4.6"/><rect x="209.7" y="243.2" class="st14" width="38.9" height="4.6"/><rect x="209.7" y="254.6" class="st9" width="62.7" height="4.6"/><rect x="238.9" y="266" class="st14" width="36.6" height="4.6"/><rect x="238.9" y="277.3" class="st14" width="36.6" height="4.6"/><rect x="264.3" y="288.7" class="st14" width="35.6" height="4.6"/><rect x="261.7" y="243.2" class="st9" width="36.8" height="4.6"/><rect x="307.9" y="243.2" class="st9" width="18.6" height="4.6"/><rect x="338.5" y="243.2" class="st9" width="59.1" height="4.6"/><rect x="282.9" y="254.6" class="st14" width="37.3" height="4.6"/><rect x="286.6" y="266" class="st9" width="41.7" height="4.6"/><rect x="286.6" y="277.3" class="st9" width="28.5" height="4.6"/><rect x="338.5" y="266" class="st9" width="31" height="4.6"/><rect x="323.2" y="277.3" class="st9" width="54.4" height="4.6"/><rect x="384.5" y="277.3" class="st9" width="13.8" height="4.6"/><rect x="310" y="288.7" class="st9" width="26.5" height="4.6"/><rect x="342.4" y="288.7" class="st9" width="49.3" height="4.6"/><rect x="398.9" y="288.7" class="st9" width="14.7" height="4.6"/><rect x="238.9" y="311.5" class="st14" width="36.6" height="4.6"/><rect x="238.9" y="322.9" class="st14" width="36.6" height="4.6"/><rect x="286.6" y="311.5" class="st9" width="60.3" height="4.6"/><rect x="286.6" y="322.9" class="st9" width="33" height="4.6"/><rect x="355.7" y="311.5" class="st9" width="16.4" height="4.6"/><rect x="379.2" y="311.5" class="st9" width="20.3" height="4.6"/><rect x="351.7" y="322.9" class="st9" width="36.6" height="4.6"/><rect x="326.9" y="322.9" class="st9" width="15.6" height="4.6"/><rect x="209.7" y="341.6" class="st14" width="38.9" height="4.6"/><rect x="209.7" y="352.9" class="st9" width="62.7" height="4.6"/><rect x="238.9" y="364.3" class="st14" width="36.6" height="4.6"/><rect x="238.9" y="375.7" class="st14" width="36.6" height="4.6"/><rect x="264.3" y="387.1" class="st14" width="35.6" height="4.6"/><rect x="261.7" y="341.6" class="st9" width="36.8" height="4.6"/><rect x="307.9" y="341.6" class="st9" width="18.6" height="4.6"/><rect x="338.5" y="341.6" class="st9" width="85.4" height="4.6"/><rect x="282.9" y="352.9" class="st14" width="37.3" height="4.6"/><rect x="286.6" y="364.3" class="st9" width="41.7" height="4.6"/><rect x="286.6" y="375.7" class="st9" width="28.5" height="4.6"/><rect x="338.5" y="364.3" class="st9" width="31" height="4.6"/><rect x="377.6" y="364.3" class="st9" width="18.8" height="4.6"/><rect x="405.6" y="364.3" class="st9" width="18.3" height="4.6"/><rect x="323.2" y="375.7" class="st9" width="54.4" height="4.6"/><rect x="384.5" y="375.7" class="st9" width="13.8" height="4.6"/><rect x="310" y="387.1" class="st9" width="26.5" height="4.6"/><rect x="238.9" y="409.9" class="st14" width="36.6" height="4.6"/><rect x="238.9" y="421.3" class="st14" width="36.6" height="4.6"/><rect x="286.6" y="409.9" class="st9" width="60.3" height="4.6"/><rect x="286.6" y="421.3" class="st9" width="33" height="4.6"/><rect x="355.7" y="409.9" class="st9" width="16.4" height="4.6"/><rect x="379.2" y="409.9" class="st9" width="20.3" height="4.6"/><rect x="351.7" y="421.3" class="st9" width="36.6" height="4.6"/><rect x="326.9" y="421.3" class="st9" width="15.6" height="4.6"/></svg>
 