<?xml version="1.0" encoding="UTF-8" standalone="no"?>
<!DOCTYPE svg PUBLIC "-//W3C//DTD SVG 1.1//EN" "http://www.w3.org/Graphics/SVG/1.1/DTD/svg11.dtd">
<svg width="100%" height="100%" viewBox="0 0 2080 1440" version="1.1" xmlns="http://www.w3.org/2000/svg" xmlns:xlink="http://www.w3.org/1999/xlink" xml:space="preserve" style="fill-rule:evenodd;clip-rule:evenodd;stroke-linejoin:round;stroke-miterlimit:1.41421;">
    <g id="Page-3" transform="matrix(2.66667,0,0,2.66667,0,0)">
        <rect x="0" y="0" width="780" height="540" style="fill:none;"/>
        <clipPath id="_clip1">
            <rect x="0" y="0" width="780" height="540"/>
        </clipPath>
        <g clip-path="url(#_clip1)">
            <rect x="0" y="0" width="780" height="540" style="fill:white;"/>
            <rect x="0" y="0" width="780" height="540" style="fill:white;"/>
            <rect x="0" y="0" width="780" height="540" style="fill:white;"/>
            <rect x="0" y="0" width="780" height="540" style="fill:white;"/>
            <g transform="matrix(1,0,0,1,0,0.00012207)">
                <rect x="0" y="0" width="780" height="540" style="fill:white;"/>
            </g>
            <g transform="matrix(1,0,0,1,0,0.00012207)">
                <rect x="0" y="0" width="780" height="540" style="fill:white;"/>
            </g>
            <g transform="matrix(1,0,0,1,0,0.00012207)">
                <rect x="0" y="0" width="780" height="540" style="fill:white;"/>
            </g>
            <g transform="matrix(1,0,0,1,-11.7435,24.8046)">
                <clipPath id="_clip2">
                    <rect x="215.4" y="11.162" width="373.914" height="468.598"/>
                </clipPath>
                <g clip-path="url(#_clip2)">
                    <path d="M473.33,450.828L534.328,415.876C541.073,412.984 550.479,410.574 557.224,413.948C563.497,417.323 573.619,423.831 578.2,426.482C581.576,428.411 593.39,435.401 585.913,439.499C564.221,451.311 542.766,464.568 520.822,476.62C516.485,478.79 510.456,479.754 503.947,479.031C497.682,478.549 491.173,476.861 485.868,473.728C482.256,471.559 478.635,469.63 475.259,467.461C470.442,464.568 467.789,461.434 467.545,458.301C467.301,455.408 469.238,452.515 473.33,450.828Z" style="fill:rgb(193,202,209);"/>
                    <path d="M445.366,275.107C387.752,308.608 272.997,379.239 215.139,412.742C222.612,417.082 272.756,444.802 279.989,448.9C337.844,415.395 452.355,344.77 510.22,311.26C480.319,293.907 489.481,300.652 445.366,275.107Z" style="fill:rgb(193,203,210);"/>
                    <path d="M440.305,84.674L440.549,84.918L440.305,84.674ZM441.989,85.398C442.233,85.398 442.477,85.162 442.957,84.918C442.477,85.162 442.233,85.398 441.989,85.398ZM437.896,85.878L431.867,89.498C430.899,89.978 431.623,90.458 432.592,90.946C432.592,91.182 432.827,91.182 433.072,91.426C433.316,91.426 433.552,91.426 433.552,91.67C434.52,92.15 435.244,92.63 436.204,91.906L437.896,90.946L437.896,85.878Z" style="fill:rgb(247,244,244);"/>
                    <path d="M436.204,91.906L436.204,307.404L437.896,306.444L437.896,90.946L436.204,91.906Z" style="fill:rgb(201,199,199);"/>
                    <path d="M434.52,92.15L433.796,106.851L434.276,307.404C434.52,307.648 435,307.648 435.244,307.648C435.48,307.648 435.968,307.648 436.204,307.404L436.204,91.906C435.724,92.386 435.244,92.386 434.52,92.15Z" style="fill:rgb(184,180,180);"/>
                    <path d="M433.552,91.67C433.552,91.426 433.316,91.426 433.072,91.426C432.827,91.182 432.592,91.182 432.592,90.946C431.867,90.702 431.387,90.222 431.387,89.978L431.387,305.476C431.143,305.956 433.796,307.404 434.276,307.404L434.52,92.15C434.276,91.906 434.04,91.906 433.552,91.67Z" style="fill:rgb(156,153,153);"/>
                    <path d="M338.812,143.736C338.812,143.736 339.056,143.736 339.056,143.972C339.056,143.736 338.812,143.736 338.812,143.736ZM340.496,144.216C340.74,144.216 340.984,144.216 341.22,143.972C340.984,144.216 340.74,144.216 340.496,144.216ZM336.404,144.941L330.375,148.317C329.406,149.033 329.895,149.521 330.855,150.001C331.099,150.001 331.335,150.245 331.579,150.245C331.579,150.481 331.823,150.481 332.059,150.725C333.027,151.205 333.751,151.449 334.711,150.961L336.404,150.001L336.404,144.941Z" style="fill:rgb(247,244,244);"/>
                    <path d="M334.711,150.961L334.711,366.459L336.16,365.255L336.404,150.001L334.711,150.961Z" style="fill:rgb(201,199,199);"/>
                    <path d="M332.783,150.961L332.303,165.905L332.783,366.459C333.027,366.703 333.263,366.703 333.751,366.703C333.987,366.703 334.231,366.459 334.711,366.459L334.711,150.961C334.231,151.205 333.507,151.205 332.783,150.961Z" style="fill:rgb(184,180,180);"/>
                    <path d="M332.059,150.725C331.823,150.481 331.579,150.481 331.579,150.245C331.335,150.245 331.099,150.001 330.855,150.001C330.375,149.521 329.895,149.277 329.895,149.033L329.651,364.295C329.651,365.019 332.059,366.223 332.783,366.459L332.783,150.961C332.547,150.961 332.303,150.725 332.059,150.725Z" style="fill:rgb(156,153,153);"/>
                    <path d="M333.027,293.907C332.547,293.663 331.823,293.427 331.099,292.939C330.611,292.703 330.131,292.215 329.895,291.979C329.651,291.735 329.406,291.499 329.406,291.255C329.406,291.255 329.406,291.011 329.406,290.775C329.406,289.327 329.17,288.359 329.17,287.155L331.823,286.195L333.751,287.399L333.507,293.183L333.027,293.907Z" style="fill:rgb(156,153,153);"/>
                    <path d="M328.682,286.919L332.059,284.991L333.263,285.471L329.651,287.635L328.682,286.919Z" style="fill:rgb(184,180,180);"/>
                    <path d="M328.926,76.237C328.926,75.513 328.682,74.073 329.17,73.349C329.406,73.105 329.651,72.861 330.131,72.861C330.375,72.861 330.855,72.861 331.099,72.861C331.335,73.105 331.579,73.349 331.579,73.585C331.823,73.829 332.059,74.553 332.303,75.513C332.547,76.237 332.547,77.205 332.783,78.409L329.895,76.961L328.926,76.237Z" style="fill:rgb(156,153,153);"/>
                    <path d="M439.581,16.459L439.337,20.315L439.581,61.057L439.825,61.057L439.825,60.813C440.061,60.813 440.061,60.813 440.061,60.569L440.305,15.734C440.305,16.223 439.825,16.223 439.581,16.459Z" style="fill:rgb(242,237,237);"/>
                    <path d="M439.101,14.775C438.857,14.775 438.857,14.775 438.621,14.53C438.376,14.53 438.132,14.286 437.896,14.286C437.172,13.57 436.204,13.326 435.244,13.806C400.282,34.299 365.328,54.548 330.375,74.789C329.406,75.277 329.895,75.757 330.855,76.481C331.099,76.481 331.335,76.481 331.579,76.725C331.579,76.725 331.823,76.961 332.059,76.961C333.027,77.441 333.751,77.929 334.711,77.441C369.665,56.956 404.627,36.707 439.581,16.459C440.785,15.979 440.061,15.499 439.101,14.775Z" style="fill:rgb(247,244,244);"/>
                    <path d="M334.711,77.441L334.711,292.703C369.665,272.454 404.383,252.205 439.581,231.956L439.581,16.459C404.627,36.707 369.909,56.956 334.711,77.441Z" style="fill:rgb(242,237,237);"/>
                    <path d="M332.783,77.441L332.303,92.386L332.783,292.939C333.027,292.939 333.263,293.183 333.751,293.183C333.987,292.939 334.231,292.939 334.711,292.703L334.711,77.441C334.231,77.685 333.507,77.685 332.783,77.441Z" style="fill:rgb(237,232,232);"/>
                    <path d="M332.059,76.961C331.823,76.961 331.579,76.725 331.579,76.725C331.335,76.481 331.099,76.481 330.855,76.481C330.375,76.001 329.895,75.757 329.895,75.277L329.651,290.775C329.651,291.499 332.059,292.703 332.783,292.939L332.783,77.441C332.547,77.441 332.303,77.205 332.059,76.961Z" style="fill:rgb(227,220,220);"/>
                    <path d="M329.406,73.105C329.651,72.861 329.895,72.861 330.131,72.625C330.375,72.625 331.579,71.657 331.823,71.657L437.172,11.642C438.132,11.154 439.101,10.674 439.825,11.878C440.549,13.082 440.549,15.01 440.549,17.183L332.783,78.409C332.059,76.237 332.303,72.861 329.406,73.105Z" style="fill:rgb(201,199,199);"/>
                    <path d="M329.406,73.105C329.651,72.861 329.895,72.861 330.131,72.625C330.375,72.625 331.579,71.657 331.823,71.657L437.172,11.642C438.132,11.154 439.101,10.674 439.825,11.878C439.825,12.122 440.061,12.358 440.061,12.602L331.579,74.553C331.335,73.585 330.611,73.105 329.406,73.105Z" style="fill:rgb(184,180,180);"/>
                    <path d="M328.926,76.237C328.926,75.513 328.682,74.073 329.17,73.349C329.406,73.105 329.651,72.861 330.131,72.861C330.375,72.861 330.855,72.861 331.099,72.861C331.335,73.105 331.579,73.349 331.579,73.585C331.823,73.829 332.059,74.553 332.303,75.513C332.547,76.237 332.547,77.205 332.783,78.409L331.823,77.929C331.579,76.961 331.579,76.237 331.335,75.513C331.099,74.789 331.099,74.309 330.855,74.073C330.611,73.585 330.131,73.585 329.895,73.829C329.651,74.309 329.895,76.001 329.895,76.237L329.895,76.961L328.926,76.237Z" style="fill:rgb(173,171,171);"/>
                    <path d="M333.507,290.531L440.305,228.1L440.305,230.988C440.061,231.476 440.061,231.712 440.061,231.956L439.581,232.201L333.507,294.143L333.507,290.531Z" style="fill:rgb(201,199,199);"/>
                    <path d="M333.507,290.531L440.305,228.1L439.581,227.856L333.027,289.807L333.507,290.531Z" style="fill:rgb(184,180,180);"/>
                    <path d="M333.987,290.051L333.751,292.939C333.751,293.427 333.751,293.663 333.507,293.907C333.507,294.143 333.027,294.387 332.547,294.143C332.059,293.907 331.335,293.663 330.855,293.183C330.375,292.939 329.406,292.459 329.17,291.979C328.926,291.735 328.926,291.735 328.682,291.499C328.682,291.255 328.682,291.011 328.682,290.775L328.682,286.919L329.651,287.635L329.651,291.011C329.651,291.255 329.651,291.255 329.895,291.499C330.131,291.735 330.855,292.215 331.335,292.459L332.783,293.183L333.027,293.183L333.027,292.939L333.027,289.807L333.987,290.051Z" style="fill:rgb(173,171,171);"/>
                    <path d="M336.16,107.819C353.514,97.454 370.633,87.326 387.988,77.205C405.351,66.841 422.706,56.712 439.825,46.592C439.825,70.933 439.825,95.282 439.825,119.867C439.581,144.216 439.581,168.558 439.581,193.151C422.226,203.271 404.863,213.4 387.508,223.764C370.389,233.885 353.034,244.249 335.68,254.378C335.916,230.028 335.916,205.443 335.916,181.094C336.16,156.753 336.16,132.16 336.16,107.819Z" style="fill:white;"/>
                    <path d="M374.97,182.542C374.97,192.183 368.461,203.751 360.268,208.575C352.074,213.4 345.565,207.127 345.565,199.895C345.565,192.907 347.249,189.775 349.902,184.95C351.106,185.918 352.31,186.642 353.759,187.366C351.83,190.255 350.862,192.183 350.862,196.763C350.862,201.587 354.963,205.443 360.268,202.311C365.572,199.171 369.665,191.703 369.665,185.674C371.602,184.714 373.286,183.502 374.97,182.542Z" style="fill:rgb(3,169,245);"/>
                    <path d="M370.877,172.902C373.53,174.35 374.97,177.718 374.97,182.542C373.286,183.502 371.602,184.714 369.665,185.674C369.665,182.542 368.705,180.37 367.021,179.41C368.225,177.238 369.429,175.066 370.877,172.902Z" style="fill:rgb(235,31,100);"/>
                    <path d="M360.268,173.862C364.368,171.454 367.981,171.21 370.877,172.902C369.429,175.066 368.225,177.238 367.021,179.41C365.328,178.442 362.92,178.686 360.268,180.134C357.615,181.574 355.443,184.226 353.514,187.366C352.31,186.642 351.106,185.918 349.902,185.194C352.554,180.37 356.167,176.278 360.268,173.862Z" style="fill:rgb(255,190,0);"/>
                    <path d="M409.444,179.41C401.25,184.226 394.741,180.37 394.741,170.73C394.741,161.333 401.494,149.757 409.688,144.941C409.688,156.265 409.444,167.842 409.444,179.41Z" style="fill:rgb(3,169,245);"/>
                    <path d="M420.053,143.736C422.706,145.176 424.39,146.145 424.39,153.377C424.39,160.609 417.645,174.586 409.444,179.41C409.444,173.626 409.444,167.842 409.688,162.049C413.064,156.029 416.441,149.757 420.053,143.736Z" style="fill:rgb(235,31,100);"/>
                    <path d="M410.412,142.044C414.513,139.636 418.125,139.392 420.778,141.084C417.401,147.105 413.788,153.133 410.412,159.397C410.412,153.613 410.412,147.829 410.412,142.044Z" style="fill:rgb(255,190,0);"/>
                    <path d="M340.74,110.471C356.647,101.31 372.318,91.906 387.988,82.746C403.659,73.349 419.573,64.189 435.244,54.784C435.244,56.712 435.244,58.64 435.244,60.569C419.573,69.729 403.659,79.133 387.988,88.294C372.318,97.69 356.647,106.851 340.74,116.255C340.74,114.327 340.74,112.399 340.74,110.471Z" style="fill:rgb(235,232,232);"/>
                    <path d="M340.496,230.272C356.167,220.868 372.082,211.708 387.752,202.311C403.423,193.151 419.093,183.746 434.756,174.35C434.756,172.658 434.756,170.73 434.756,169.046C419.093,178.442 403.423,187.602 387.752,197.007C372.082,206.167 356.167,215.564 340.496,224.724C340.496,226.652 340.496,228.344 340.496,230.272Z" style="fill:rgb(235,232,232);"/>
                    <path d="M340.496,244.729C356.167,235.569 371.837,226.172 387.752,217.012C403.423,207.607 419.093,198.211 434.756,189.051C434.756,185.43 434.756,182.062 434.756,178.442C419.093,187.846 403.423,197.243 387.752,206.403C371.837,215.808 356.167,224.968 340.496,234.365C340.496,237.741 340.496,241.361 340.496,244.729Z" style="fill:rgb(235,232,232);"/>
                    <path d="M342.189,150.001C344.597,148.317 347.249,146.869 349.658,145.42C349.658,154.825 349.658,164.221 349.658,173.626C347.005,175.31 344.597,176.758 342.189,178.206C342.189,168.802 342.189,159.397 342.189,150.001Z" style="fill:rgb(3,169,245);"/>
                    <path d="M352.79,135.3C355.443,133.608 357.859,132.16 360.512,130.72C360.268,136.74 360.268,143.012 360.268,149.033C360.268,155.305 360.268,161.333 360.268,167.353C357.859,168.802 355.207,170.486 352.79,171.934L352.79,135.3Z" style="fill:rgb(3,169,245);"/>
                    <path d="M363.4,142.524C366.053,141.084 368.461,139.636 371.113,138.188C370.877,145.9 370.877,153.377 370.877,161.089C368.461,162.537 365.808,163.977 363.4,165.669C363.4,157.957 363.4,150.245 363.4,142.524Z" style="fill:rgb(3,169,245);"/>
                    <path d="M374.01,145.42C376.662,143.736 379.071,142.288 381.723,140.84C381.723,145.665 381.723,150.245 381.479,154.825C379.071,156.265 376.662,157.713 374.01,159.397C374.01,154.581 374.01,150.001 374.01,145.42Z" style="fill:rgb(3,169,245);"/>
                    <path d="M342.189,150.001C344.597,148.317 347.249,146.869 349.658,145.42C349.658,143.012 349.658,140.36 349.658,137.944C347.249,139.392 344.597,140.84 342.189,142.288C342.189,144.941 342.189,147.349 342.189,150.001Z" style="fill:rgb(255,190,0);"/>
                    <path d="M342.189,139.156C344.597,137.708 347.249,136.016 349.658,134.576C349.658,135.78 349.658,136.74 349.658,137.944C347.249,139.392 344.597,140.84 342.189,142.288C342.189,141.32 342.189,140.116 342.189,139.156Z" style="fill:rgb(235,31,100);"/>
                    <path d="M352.79,135.3C355.443,133.608 357.859,132.16 360.512,130.72C360.512,127.58 360.512,124.692 360.512,121.559C357.859,122.999 355.443,124.447 352.79,125.896C352.79,129.028 352.79,132.16 352.79,135.3Z" style="fill:rgb(255,190,0);"/>
                    <path d="M363.4,142.524C366.053,141.084 368.461,139.636 371.113,138.188C371.113,135.78 371.113,133.608 371.113,131.2C368.461,132.648 366.053,134.088 363.4,135.78C363.4,137.944 363.4,140.36 363.4,142.524Z" style="fill:rgb(255,190,0);"/>
                    <path d="M352.79,123.243C355.443,121.795 357.859,120.347 360.512,118.907C360.512,119.631 360.512,120.591 360.512,121.559C357.859,122.999 355.443,124.447 352.79,125.896C352.79,125.172 352.79,124.212 352.79,123.243Z" style="fill:rgb(235,31,100);"/>
                    <path d="M363.4,132.16C366.053,130.72 368.461,129.028 371.113,127.58C371.113,128.792 371.113,129.996 371.113,131.2C368.461,132.648 366.053,134.088 363.4,135.78C363.4,134.576 363.4,133.364 363.4,132.16Z" style="fill:rgb(235,31,100);"/>
                    <path d="M374.01,145.42C376.662,143.736 379.071,142.288 381.723,140.84C381.723,137.708 381.723,134.576 381.723,131.436C379.071,133.128 376.662,134.576 374.246,136.016C374.01,139.156 374.01,142.288 374.01,145.42Z" style="fill:rgb(255,190,0);"/>
                    <path d="M374.246,129.996C376.662,128.548 379.071,126.856 381.723,125.416C381.723,127.58 381.723,129.508 381.723,131.436C379.071,133.128 376.662,134.576 374.246,136.016C374.246,133.852 374.246,131.924 374.246,129.996Z" style="fill:rgb(235,31,100);"/>
                    <path d="M383.896,125.172C386.304,123.723 388.956,122.283 391.365,120.835C391.365,130.232 391.365,139.636 391.365,149.033C388.712,150.481 386.304,151.929 383.896,153.613C383.896,144.216 383.896,134.576 383.896,125.172Z" style="fill:rgb(3,169,245);"/>
                    <path d="M394.497,110.471C397.15,109.023 399.566,107.575 402.21,106.127C402.21,112.155 401.974,118.419 401.974,124.447C401.974,130.476 401.974,136.74 401.974,142.768C399.566,144.216 396.914,145.665 394.497,147.349L394.497,110.471Z" style="fill:rgb(3,169,245);"/>
                    <path d="M405.107,117.939C407.759,116.491 410.168,115.051 412.82,113.603C412.584,121.071 412.584,128.792 412.584,136.504C410.168,137.944 407.515,139.392 405.107,140.84C405.107,133.364 405.107,125.652 405.107,117.939Z" style="fill:rgb(3,169,245);"/>
                    <path d="M415.717,120.591C418.369,119.143 420.778,117.703 423.43,116.255C423.43,120.835 423.186,125.652 423.186,130.232C420.778,131.68 418.369,133.128 415.717,134.576C415.717,129.996 415.717,125.416 415.717,120.591Z" style="fill:rgb(3,169,245);"/>
                    <path d="M383.896,125.172C386.304,123.723 388.956,122.283 391.365,120.835C391.365,118.419 391.365,115.775 391.365,113.359C388.956,114.807 386.548,116.255 383.896,117.703C383.896,120.347 383.896,122.763 383.896,125.172Z" style="fill:rgb(255,190,0);"/>
                    <path d="M383.896,114.563C386.548,112.879 388.956,111.431 391.365,109.983C391.365,111.195 391.365,112.155 391.365,113.359C388.956,114.807 386.548,116.255 383.896,117.703C383.896,116.735 383.896,115.531 383.896,114.563Z" style="fill:rgb(235,31,100);"/>
                    <path d="M394.497,110.471C397.15,109.023 399.566,107.575 402.21,106.127C402.21,102.995 402.21,100.106 402.21,96.966C399.566,98.414 397.15,99.862 394.497,101.31C394.497,104.443 394.497,107.575 394.497,110.471Z" style="fill:rgb(255,190,0);"/>
                    <path d="M405.107,117.939C407.759,116.491 410.168,115.051 412.82,113.603C412.82,111.195 412.82,109.023 412.82,106.615C410.168,108.055 407.759,109.503 405.107,110.951C405.107,113.359 405.107,115.775 405.107,117.939Z" style="fill:rgb(255,190,0);"/>
                    <path d="M394.741,98.658C397.15,97.21 399.566,95.762 402.21,94.078C402.21,95.038 402.21,96.006 402.21,96.966C399.566,98.414 397.15,99.862 394.497,101.31C394.741,100.586 394.741,99.618 394.741,98.658Z" style="fill:rgb(235,31,100);"/>
                    <path d="M405.351,107.575C407.759,105.891 410.168,104.443 412.82,102.995C412.82,104.199 412.82,105.403 412.82,106.615C410.168,108.055 407.759,109.503 405.107,110.951C405.351,109.747 405.351,108.779 405.351,107.575Z" style="fill:rgb(235,31,100);"/>
                    <path d="M415.717,120.591C418.369,119.143 420.778,117.703 423.43,116.255C423.43,113.123 423.43,109.983 423.43,106.851C420.778,108.299 418.369,109.983 415.953,111.431C415.953,114.563 415.953,117.703 415.717,120.591Z" style="fill:rgb(255,190,0);"/>
                    <path d="M415.953,105.403C418.369,103.719 420.778,102.27 423.43,100.822C423.43,102.995 423.43,104.923 423.43,106.851C420.778,108.299 418.369,109.983 415.953,111.431C415.953,109.267 415.953,107.331 415.953,105.403Z" style="fill:rgb(235,31,100);"/>
                    <path d="M426.563,91.67C429.215,90.222 431.623,88.774 434.04,87.09L434.04,123.968C431.623,125.416 428.971,126.856 426.563,128.304L426.563,91.67Z" style="fill:rgb(3,169,245);"/>
                    <path d="M426.563,91.67C429.215,90.222 431.623,88.774 434.04,87.09C434.04,84.194 434.276,81.062 434.276,77.929C431.623,79.613 429.215,81.062 426.563,82.51C426.563,85.398 426.563,88.53 426.563,91.67Z" style="fill:rgb(255,190,0);"/>
                    <path d="M426.563,79.613C429.215,78.165 431.623,76.725 434.276,75.277C434.276,76.237 434.276,77.205 434.276,77.929C431.623,79.613 429.215,81.062 426.563,82.51C426.563,81.542 426.563,80.582 426.563,79.613Z" style="fill:rgb(235,31,100);"/>
                    <path d="M367.981,128.304C367.737,126.376 366.533,126.856 364.848,127.824C363.88,128.304 363.4,129.028 361.472,129.028C357.371,128.792 356.647,131.68 356.411,134.812C356.411,136.016 355.931,136.74 354.963,138.188C353.759,139.872 353.514,143.248 353.514,144.452L360.748,148.073L363.4,141.808C366.777,140.596 373.53,138.188 375.694,136.016C377.142,134.576 379.071,124.927 377.622,123.243C375.938,121.559 374.01,121.795 372.806,123.243C372.318,123.968 368.705,127.1 367.981,128.304Z" style="fill:rgb(241,178,135);"/>
                    <path d="M355.687,135.536C357.135,138.668 360.268,141.084 363.4,142.044L362.196,144.696C357.371,145.42 352.074,143.492 353.759,138.668C354.003,137.944 355.207,136.74 355.687,135.536Z" style="fill:rgb(206,230,245);"/>
                    <path d="M354.003,137.944C354.483,140.116 360.268,144.452 362.44,144.216C358.339,160.609 353.514,174.106 343.873,187.602C342.669,189.051 341.7,189.53 340.26,190.01C338.088,190.499 335.435,188.806 332.783,187.602L334.955,170.974C337.12,163.261 346.281,149.277 354.003,137.944Z" style="fill:rgb(0,30,48);"/>
                    <path d="M343.873,187.122C342.669,188.806 341.7,189.775 340.26,190.01C337.844,190.499 334.955,189.051 332.783,187.846C325.55,183.99 313.256,168.322 300.962,144.216C302.41,143.972 311.327,139.156 312.296,139.156C320.733,139.392 322.173,146.869 326.754,155.785C328.926,160.365 335.191,165.189 338.812,170.974L343.873,187.122Z" style="fill:rgb(0,30,48);"/>
                    <path d="M342.425,188.806C341.7,189.53 340.984,189.775 340.26,190.01C337.844,190.499 334.955,189.051 332.783,187.846C325.55,183.99 313.256,168.322 300.962,144.216C302.41,143.972 311.327,139.156 312.296,139.156C313.02,139.156 313.5,139.156 314.224,139.392C317.837,142.768 321.213,145.665 323.386,149.757C325.794,154.581 327.242,168.802 328.446,173.626C330.855,179.646 335.191,186.154 342.425,188.806Z" style="fill:rgb(0,22,36);"/>
                    <path d="M313.256,368.631C314.46,372.487 314.704,374.415 316.388,376.823C319.529,381.403 324.346,384.544 331.335,389.604C334.711,392.012 335.435,394.184 332.059,396.112C329.406,397.796 322.897,396.592 318.805,395.632C311.327,393.696 308.195,389.124 305.543,387.912L303.614,388.4C302.166,388.4 295.659,385.984 294.453,384.3C294.212,382.851 293.729,380.443 293.489,378.271C293.248,372.007 294.212,372.487 295.899,367.663C301.93,367.907 307.471,368.387 313.256,368.631Z" style="fill:rgb(17,18,20);"/>
                    <path d="M269.381,391.768C268.416,394.664 267.693,396.836 267.693,398.521C267.693,400.449 268.176,402.378 268.176,404.547C268.176,406.717 268.176,408.404 267.935,410.574C267.693,412.984 267.935,413.948 268.899,414.912C270.586,416.359 275.408,418.769 277.819,419.492C279.024,419.974 280.23,420.215 281.917,420.215C283.845,419.974 285.533,419.974 287.462,419.01C287.944,419.01 288.426,417.082 288.426,415.395C288.667,411.778 288.185,412.019 286.739,406.476C286.256,404.547 285.774,402.619 285.292,400.449C284.328,397.56 283.364,395.144 283.122,392.256L272.756,392.012L269.381,391.768Z" style="fill:rgb(17,18,20);"/>
                    <path d="M269.381,391.768C268.416,394.664 267.693,396.836 267.693,398.521C267.693,400.449 268.176,402.378 268.176,404.547C268.176,406.717 268.176,408.404 267.935,410.574C267.693,412.984 267.935,413.948 268.899,414.912C270.586,416.359 275.408,418.769 277.819,419.492C279.024,419.974 280.23,420.215 281.917,420.215C283.845,419.974 285.533,419.974 287.462,419.01C287.944,419.01 288.426,417.323 288.426,415.876C285.292,416.84 282.158,417.323 279.024,415.876C272.756,412.742 273.48,410.091 274.202,402.619C278.3,401.896 279.989,401.172 282.158,398.762C278.542,399.967 274.685,399.967 272.756,397.796L272.274,392.012L269.381,391.768Z"/>
                    <path d="M334.231,393.216C334.231,394.184 333.751,395.144 332.059,396.112C329.406,397.796 322.897,396.592 318.805,395.632C311.327,393.696 308.195,389.124 305.543,387.912L303.614,388.4C302.166,388.4 295.659,385.984 294.453,384.3C294.212,382.851 293.729,380.443 293.489,378.271C293.248,372.007 294.212,372.487 295.899,367.663C298.553,367.663 301.206,367.907 303.614,368.151C304.094,372.243 303.614,379.719 306.991,382.371C310.847,385.259 313.98,386.228 316.632,387.676C324.826,392.736 330.375,396.836 334.231,393.216Z"/>
                    <path d="M283.605,399.485C280.711,401.655 281.676,402.86 277.336,403.342C278.3,407.681 278.542,407.921 280.711,412.019C280.953,413.706 280.953,415.876 284.328,415.876C290.354,415.876 286.015,410.814 286.015,410.574C285.774,407.921 285.051,402.86 283.605,399.485Z" style="fill:rgb(32,35,46);"/>
                    <path d="M315.184,375.863C314.46,377.067 312.776,377.547 310.123,378.271C314.46,383.331 314.948,382.851 320.733,385.984C323.866,389.36 324.102,390.084 326.038,391.052C328.202,392.492 331.579,393.696 332.783,392.736C333.263,392.492 332.547,391.288 330.131,389.36C327.242,387.432 324.59,385.259 321.937,383.331C319.285,381.167 317.112,378.751 315.184,375.863Z" style="fill:rgb(32,35,46);"/>
                    <path d="M309.399,138.668C314.948,138.432 317.357,139.392 320.245,143.736C325.314,151.205 326.038,167.353 325.794,181.818C325.55,190.01 324.346,197.007 324.102,207.371C324.102,219.42 327.722,240.873 327.242,253.654C326.038,256.062 318.317,260.162 317.112,259.918C318.317,247.145 318.561,229.784 318.081,212.188C317.592,195.079 316.388,177.482 313.02,164.465C308.439,145.42 300.238,143.248 301.206,140.596C301.206,140.116 309.155,138.668 309.399,138.668Z" style="fill:rgb(0,38,61);"/>
                    <path d="M287.22,215.084C287.462,217.972 287.462,220.624 287.462,223.04C279.506,216.044 272.033,206.891 265.283,196.763C261.667,186.878 258.532,176.994 258.532,169.77L287.22,215.084Z" style="fill:rgb(17,16,26);"/>
                    <path d="M305.787,146.38C314.46,153.133 320.009,178.442 319.765,195.315C319.529,219.908 319.765,234.129 318.317,258.47C321.457,257.266 324.102,255.582 326.274,253.409C325.314,232.925 321.937,212.676 323.386,192.427C324.826,175.066 325.794,151.685 315.908,141.808C309.399,138.432 307.471,144.696 305.787,146.38Z" style="fill:rgb(0,43,69);"/>
                    <path d="M291.56,261.122C290.837,255.818 290.596,250.757 290.837,245.941C295.417,244.249 300.482,242.321 305.298,240.149L304.818,239.913C310.123,237.497 314.46,233.885 320.245,230.508C322.661,238.221 323.621,241.597 323.386,247.869C323.141,256.306 322.173,264.498 320.733,272.934C319.765,285.471 318.805,298.968 317.837,307.648C315.664,329.825 316.152,351.758 314.704,373.935C312.052,378.271 298.789,378.515 294.212,372.243C293.489,354.646 292.284,340.914 292.765,331.265C293.248,323.317 293.729,318.737 296.14,311.74C294.453,299.936 292.284,277.995 291.56,261.122Z" style="fill:rgb(0,22,36);"/>
                    <path d="M306.991,311.504C302.646,332.233 301.686,346.698 304.338,377.067C300.482,376.823 296.382,375.139 294.212,372.243C293.489,354.646 292.284,340.914 292.765,331.265C293.248,323.317 293.729,318.737 296.14,311.74C293.971,296.559 290.837,264.978 291.56,247.869L300.718,244.249C303.37,269.322 305.063,282.339 306.991,311.504Z" style="fill:rgb(0,16,26);"/>
                    <path d="M297.585,270.038C295.899,287.155 292.765,310.78 290.837,323.073C287.22,345.006 286.739,370.803 284.81,392.98C281.917,397.56 270.586,398.521 266.247,392.736C266.006,375.139 264.318,355.614 265.041,345.974C265.765,338.017 266.971,333.193 269.863,326.205C269.381,312.464 262.39,256.306 271.791,245.453C272.274,244.249 272.756,243.525 273.48,242.801L287.22,241.841L303.37,239.913C304.574,245.217 305.063,252.205 303.37,259.194C303.37,259.438 303.134,259.674 302.89,259.918C302.89,261.122 302.646,262.326 302.41,263.53C302.166,264.498 299.514,267.63 297.585,270.038Z" style="fill:rgb(0,30,48);"/>
                    <path d="M282.64,258.714C280.953,263.05 279.506,270.282 279.265,277.759C279.024,288.123 278.3,312.708 277.336,324.277C275.408,347.178 271.069,366.223 274.444,396.836C271.31,396.592 267.935,395.388 266.247,392.736C266.006,375.139 264.318,355.614 265.041,345.974C265.765,338.017 266.971,333.193 269.863,326.205C269.381,312.228 261.907,254.134 272.274,244.729L287.944,243.769C286.015,249.553 285.292,252.929 282.64,258.714Z" style="fill:rgb(0,22,36);"/>
                    <path d="M319.765,235.333C316.152,238.945 313.02,240.873 308.439,243.289C308.439,251.237 308.439,265.466 308.675,279.923C308.675,288.359 308.919,297.039 309.155,304.272C309.399,310.056 307.715,319.696 307.471,325.969C306.991,342.354 307.471,358.51 307.715,374.895C310.603,374.895 313.5,372.967 313.98,372.243L314.704,318.737C314.948,310.056 316.388,297.039 317.357,283.779C319.765,267.874 321.937,249.309 319.765,235.333Z" style="fill:rgb(0,30,48);"/>
                    <path d="M321.213,218.216C323.141,216.044 323.621,215.564 325.55,214.84L326.998,233.405C326.038,234.853 322.897,236.057 321.937,235.569L321.213,218.216Z" style="fill:rgb(0,38,61);"/>
                    <path d="M321.213,218.216C323.141,216.044 323.621,215.564 325.55,214.84C325.794,220.144 326.038,219.908 324.346,221.836C321.693,224.968 322.661,225.204 322.661,235.813C322.417,235.813 322.173,235.813 321.937,235.569L321.213,218.216Z" style="fill:rgb(0,30,48);"/>
                    <path d="M325.794,221.112L323.386,224.968L323.621,235.089C324.826,234.609 325.314,234.365 326.518,232.925L325.794,221.112Z" style="fill:rgb(0,43,69);"/>
                    <path d="M320.245,213.88C322.661,212.912 323.621,211.952 325.314,211.463L326.038,218.46C325.794,219.664 322.897,221.836 320.969,220.388L320.245,213.88Z" style="fill:rgb(0,38,61);"/>
                    <path d="M320.245,213.88C322.661,212.912 323.621,211.952 325.314,211.463C323.866,213.88 320.969,214.36 321.693,220.624C321.457,220.624 321.213,220.388 320.969,220.388L320.245,213.88Z" style="fill:rgb(0,30,48);"/>
                    <path d="M325.314,212.432C324.102,214.116 322.417,216.768 322.173,220.144C323.866,219.908 324.346,219.664 325.794,218.216C325.55,216.288 325.314,214.604 325.314,212.432Z" style="fill:rgb(0,43,69);"/>
                    <path d="M320.489,230.988C320.489,231.476 320.245,231.712 320.009,232.201C314.948,239.189 283.364,249.797 276.855,249.073C281.917,203.515 234.184,164.701 285.533,149.757L300.238,157.957L305.298,156.989L306.023,150.481C313.256,157.469 316.388,166.873 317.837,179.89C319.529,197.007 315.908,212.432 320.489,230.988Z" style="fill:rgb(206,230,245);"/>
                    <path d="M297.105,244.249C288.426,247.145 279.747,249.553 276.855,249.073C281.917,203.515 234.184,164.701 285.533,149.757L300.238,157.957L305.298,156.989L306.023,150.481C309.155,153.613 311.572,156.989 313.5,161.333L313.02,161.569C309.155,160.365 307.227,158.917 305.063,159.885C303.614,160.609 301.686,163.017 300.962,167.118C298.789,166.629 294.212,164.945 292.042,164.221C300.482,176.994 308.439,204.239 302.646,232.925C301.686,236.293 298.789,240.393 297.105,244.249Z" style="fill:rgb(184,212,230);"/>
                    <path d="M269.381,155.785C272.033,154.101 277.578,150.725 283.845,147.349C278.542,153.377 290.837,168.078 296.623,186.398C300.238,197.967 301.442,219.184 298.553,231.956C296.623,241.597 292.042,243.289 284.569,249.309C279.747,253.654 277.819,265.702 273.72,269.078C270.104,267.394 265.765,264.254 263.836,262.57C266.247,242.565 273.238,239.669 273.72,227.376C274.202,216.044 258.051,185.674 258.292,169.77C258.292,163.017 264.318,158.681 269.381,155.785Z" style="fill:rgb(0,38,61);"/>
                    <path d="M269.381,155.785L283.364,147.829C281.194,151.205 275.649,154.825 269.622,159.885C272.997,163.017 275.89,167.842 277.336,173.626C280.711,186.154 285.533,202.547 286.256,214.116C288.426,244.493 272.515,247.145 272.515,268.354C269.381,266.67 265.524,264.254 263.836,262.57C266.006,243.525 272.756,241.361 273.72,227.376C274.444,216.044 258.051,185.674 258.292,169.77C258.292,163.017 264.318,158.681 269.381,155.785Z" style="fill:rgb(0,30,48);"/>
                    <path d="M291.319,261.122C292.042,262.57 291.56,270.762 284.569,267.15C278.783,264.254 276.613,263.774 274.685,260.886C273.238,258.47 273.48,256.062 271.069,253.654L277.578,247.625C279.747,251.001 281.435,249.553 284.328,251.237C287.703,252.929 289.149,255.582 291.319,261.122Z" style="fill:rgb(241,178,135);"/>
                    <path d="M273.48,258.958C277.819,256.542 279.265,253.409 280.711,249.553C279.506,248.585 278.783,248.349 277.819,247.145L270.827,255.338C272.033,256.786 272.515,257.266 273.48,258.958Z" style="fill:rgb(206,230,245);"/>
                    <path d="M305.298,142.524C310.603,144.941 312.296,145.9 315.664,151.205L312.776,153.377L316.876,155.305C318.561,171.21 320.245,188.806 318.317,204.955C317.357,189.295 314.704,173.138 310.847,159.885C309.399,154.825 307.227,152.653 303.858,147.829C303.37,146.869 304.338,142.044 305.298,142.524Z" style="fill:rgb(0,52,84);"/>
                    <path d="M273.48,258.958C274.925,258.234 275.89,257.266 276.613,256.542C276.131,256.062 276.131,255.818 275.649,255.338C276.613,254.378 279.747,249.073 279.024,248.349L270.827,255.338C272.033,256.786 272.515,257.266 273.48,258.958Z" style="fill:rgb(177,210,230);"/>
                    <path d="M285.051,247.869C284.569,253.889 282.881,259.918 279.265,264.978L279.747,270.526C284.328,271.006 288.667,271.25 290.114,270.762C291.801,270.282 295.899,259.918 294.694,254.134C293.971,249.797 288.908,249.073 286.015,247.625C285.774,247.625 285.292,247.869 285.051,247.869Z" style="fill:rgb(0,30,48);"/>
                    <path d="M288.426,246.901C286.498,254.858 284.81,265.222 282.158,272.934C279.989,290.051 279.747,309.088 279.506,322.349C278.3,346.934 277.578,371.527 276.372,395.868C278.542,395.632 280.953,394.664 282.158,393.46C283.364,373.691 283.845,345.494 286.256,326.929C286.739,323.073 293.007,291.979 295.176,272.21C295.899,265.702 300.962,264.978 301.442,261.366C302.41,253.409 303.37,250.513 302.646,242.077C298.065,243.769 293.248,245.453 288.426,246.901Z" style="fill:rgb(0,38,61);"/>
                    <path d="M272.756,228.824C279.265,230.752 281.194,231.232 286.498,234.129L278.542,249.073C274.444,249.309 269.381,247.145 265.524,243.769L272.756,228.824Z" style="fill:rgb(0,38,61);"/>
                    <path d="M272.756,228.824C279.265,230.752 281.194,231.232 286.498,234.129C284.087,238.709 284.569,238.709 279.265,237.261C270.346,234.853 272.756,236.781 266.729,244.729C266.488,244.973 265.765,244.005 265.524,243.769L272.756,228.824Z" style="fill:rgb(0,30,48);"/>
                    <path d="M273.72,226.896C280.47,228.824 283.605,229.304 288.426,230.988L285.051,236.781C283.122,237.017 274.202,235.333 270.827,232.201L273.72,226.896Z" style="fill:rgb(0,38,61);"/>
                    <path d="M273.72,226.896C280.47,228.824 283.605,229.304 288.426,230.988C283.122,231.232 275.167,228.1 272.033,233.161C271.551,232.681 271.069,232.436 270.827,232.201L273.72,226.896Z" style="fill:rgb(0,30,48);"/>
                    <path d="M283.364,239.189L274.685,237.741L268.658,244.973C272.515,246.901 273.961,247.381 277.578,248.349L283.364,239.189Z" style="fill:rgb(0,43,69);"/>
                    <path d="M287.462,231.476C283.364,231.476 277.336,231.232 274.202,233.405C278.3,235.333 279.989,235.569 284.328,236.057C285.774,234.853 286.498,233.161 287.462,231.476Z" style="fill:rgb(0,43,69);"/>
                    <path d="M304.818,165.189C304.338,167.118 304.094,168.558 303.858,170.486C309.155,185.918 312.052,198.691 315.184,216.768C315.428,198.447 314.46,184.226 310.603,164.945C308.919,164.221 307.715,163.977 306.991,163.741C306.511,163.741 306.511,163.741 305.787,163.741L304.818,165.189Z" style="fill:rgb(4,30,46);"/>
                    <path d="M261.426,162.049C260.702,163.017 259.738,164.221 259.015,165.669C253.711,176.278 247.925,197.487 246.72,210.503C246.238,213.636 245.514,215.328 245.997,217.492C246.478,221.836 256.845,216.532 260.943,219.184C265.041,210.748 267.211,201.823 277.578,183.502C281.194,176.758 272.756,156.753 261.426,162.049Z" style="fill:rgb(0,38,61);"/>
                    <path d="M261.426,162.049C260.702,163.017 259.738,164.221 259.015,165.669C253.711,176.278 247.925,197.487 246.72,210.503C246.238,213.636 245.514,215.328 245.997,217.492C246.238,219.908 249.613,219.184 253.229,218.696C252.506,216.768 252.747,216.532 253.47,213.156C257.327,195.559 263.354,179.41 269.14,162.049C266.729,160.845 264.077,160.609 261.426,162.049Z" style="fill:rgb(0,30,48);"/>
                    <path d="M280.711,153.613L273.961,159.161C281.194,170.73 289.631,193.631 289.873,215.808C290.114,226.416 289.149,236.057 283.364,245.697C302.89,238.709 299.758,210.259 293.971,188.571C290.114,173.862 283.364,163.017 280.711,153.613Z" style="fill:rgb(0,43,69);"/>
                    <path d="M249.131,209.299C247.202,212.676 245.273,214.116 245.997,218.216C246.238,220.144 247.443,221.836 248.408,224C252.265,233.641 260.943,246.901 270.827,256.062C274.202,256.062 278.783,250.277 279.506,247.145C275.167,236.537 268.416,229.06 262.631,219.42C261.426,217.256 260.943,216.044 259.738,214.36L249.131,209.299Z" style="fill:rgb(0,38,61);"/>
                    <path d="M249.131,209.299C247.202,212.676 245.273,214.116 245.997,218.216C246.238,220.144 247.443,221.836 248.408,224C252.265,233.641 260.943,246.901 270.827,256.062C272.274,256.062 273.961,255.093 275.649,253.409C268.658,242.321 261.667,231.956 254.193,221.112C252.506,216.768 252.506,217.492 253.47,213.156C253.711,212.676 253.711,211.952 253.952,211.463L249.131,209.299Z" style="fill:rgb(0,30,48);"/>
                    <path d="M283.845,145.42C282.158,147.593 280.711,149.521 280.23,150.961C278.06,156.029 278.3,163.497 280.711,171.934L285.774,170.25L283.364,175.554C293.248,188.571 298.789,207.607 299.514,227.376C306.023,176.034 281.917,163.261 283.845,145.42Z" style="fill:rgb(0,52,84);"/>
                    <path d="M300.718,159.397C301.442,163.017 301.686,162.773 305.063,165.425L307.227,164.221C308.195,160.121 307.715,157.469 306.747,156.989C303.858,156.753 302.646,157.233 300.718,159.397Z" style="fill:rgb(4,30,46);"/>
                    <path d="M303.858,157.233C304.094,156.265 304.338,154.337 304.574,152.653C305.063,151.205 305.543,150.001 306.023,149.277C307.951,149.521 308.919,155.541 310.603,159.161C307.951,157.233 306.747,157.233 303.858,157.233Z" style="fill:rgb(232,246,255);"/>
                    <path d="M284.81,144.452C284.569,150.961 296.861,155.541 303.858,157.233C302.166,159.161 299.758,161.813 300.002,163.977C294.935,162.537 286.498,160.365 283.122,153.857C280.711,149.521 282.64,146.145 284.81,144.452Z" style="fill:rgb(232,246,255);"/>
                    <path d="M305.063,151.449C305.298,150.725 305.543,150.001 305.787,149.521C306.511,147.593 306.511,143.492 307.715,138.912L290.114,131.2L286.256,129.028C287.703,135.78 286.739,139.872 284.81,144.452C284.569,150.961 296.861,155.541 303.858,157.233C304.338,155.541 304.338,153.377 305.063,151.449Z" style="fill:rgb(232,164,118);"/>
                    <path d="M286.498,148.797C293.007,146.38 298.065,149.277 306.267,147.105C306.747,144.941 306.991,142.044 307.715,138.912L290.114,131.2L286.256,129.028C287.703,135.78 286.739,139.872 284.81,144.452C284.81,146.145 285.533,147.349 286.498,148.797Z" style="fill:rgb(219,150,105);"/>
                    <path d="M302.89,145.9C300.482,144.941 295.176,143.972 293.007,143.012C288.426,140.84 287.944,136.016 285.774,130.476C281.435,128.548 279.747,126.62 278.783,124.212C276.855,118.663 278.783,111.911 282.64,107.575C285.774,103.719 290.114,102.035 295.176,102.035C305.298,102.27 310.603,108.779 313.02,116.979C313.02,117.703 313.02,118.419 313.02,119.143C312.776,120.835 312.296,121.795 312.052,122.999C311.808,125.896 313.02,125.416 313.256,128.068C313.736,132.648 313.02,136.984 312.296,142.044C312.052,143.492 311.808,144.216 310.847,144.696C310.123,145.176 309.155,145.42 307.951,145.9C306.747,146.38 305.787,146.625 302.89,145.9Z" style="fill:rgb(241,178,135);"/>
                    <path d="M302.89,145.9C300.482,144.941 295.176,143.972 293.007,143.012C288.426,140.84 287.944,136.016 285.774,130.476C281.435,128.548 279.747,126.62 278.783,124.212C276.855,118.663 278.783,111.911 282.64,107.575C285.774,103.719 290.114,102.035 295.176,102.035C303.858,102.27 309.155,107.095 311.808,113.839C311.572,114.807 303.37,119.143 295.899,119.143C295.417,122.519 297.105,125.172 297.105,126.856C297.349,128.548 297.349,129.752 297.349,130.72C297.585,132.16 299.033,133.128 299.278,135.056C300.002,141.32 303.37,145.176 306.023,146.38C305.298,146.38 304.338,146.145 302.89,145.9Z" style="fill:rgb(232,164,118);"/>
                    <path d="M308.195,110.227C309.155,110.227 310.847,111.431 311.808,113.603C311.083,109.983 309.879,107.819 307.471,107.575L308.195,110.227Z" style="fill:rgb(54,29,7);"/>
                    <path d="M291.078,117.703C288.426,112.155 279.506,110.707 278.06,108.055C274.202,114.807 274.925,125.652 280.953,131.68C283.845,135.056 284.81,136.504 286.015,141.32C286.979,138.432 286.979,137.944 287.22,134.812L288.185,127.58L288.426,127.1C288.908,128.068 289.873,129.996 290.114,130.956C290.596,130.956 291.319,130.232 292.042,129.996C289.873,122.999 292.765,121.559 291.078,117.703Z" style="fill:rgb(54,29,7);"/>
                    <path d="M299.278,114.563C307.951,113.359 315.908,109.023 308.919,104.199C304.094,100.822 298.309,98.414 290.837,99.138C284.81,99.618 278.06,102.759 277.819,108.055C279.747,110.471 290.596,124.212 291.078,118.419C291.319,117.703 289.873,116.011 290.354,115.051C290.837,113.839 293.971,115.287 299.278,114.563Z" style="fill:rgb(54,29,7);"/>
                    <path d="M297.349,113.603C294.694,112.635 291.319,113.603 287.22,111.911C283.122,110.227 279.024,106.851 278.06,108.055C276.613,110.227 275.649,113.839 275.649,116.735C280.23,119.387 285.051,120.347 291.078,118.663C289.873,116.491 289.631,115.531 290.354,114.563C290.837,113.839 291.56,114.327 297.349,113.603Z" style="fill:rgb(79,43,12);"/>
                    <path d="M299.278,114.563C307.471,113.359 314.704,109.503 310.123,105.167C309.399,106.127 308.439,106.851 307.227,107.575L307.951,106.127C303.858,107.575 301.93,110.707 297.829,110.951L299.278,109.503C294.453,110.227 291.319,110.707 288.667,109.983L289.873,109.267C285.533,109.503 280.953,108.299 278.3,105.891C278.06,106.615 277.819,107.331 277.819,108.055C280.23,111.675 288.185,114.327 291.319,114.563C292.524,114.563 295.417,115.051 299.278,114.563Z" style="fill:rgb(36,19,4);"/>
                    <path d="M286.015,125.172C281.917,124.212 282.399,128.548 283.364,131.2C283.845,133.128 285.292,132.884 286.015,134.088C286.979,135.78 288.426,136.504 289.39,136.26C291.801,136.016 290.114,132.648 289.631,131.436C289.631,129.028 288.426,125.652 286.015,125.172Z" style="fill:rgb(232,164,118);"/>
                    <path d="M280.711,102.995C283.364,99.862 288.908,98.658 292.524,98.658C295.899,98.658 299.758,99.382 301.93,99.618C301.206,99.862 300.962,99.862 300.482,100.106C303.37,100.822 306.747,102.515 308.439,103.963C302.89,102.759 298.789,102.759 296.382,103.239C296.861,103.239 296.861,103.475 297.829,103.963C292.524,103.719 288.426,100.106 280.711,102.995Z" style="fill:rgb(74,43,18);"/>
                    <path d="M354.003,137.944C354.239,138.912 355.443,140.36 357.135,141.564C351.106,151.449 341.465,162.773 339.056,173.626C338.088,176.994 338.812,179.41 339.772,182.062C336.64,177.962 335.68,173.138 335.68,168.322C339.056,160.365 347.249,148.073 354.003,137.944Z" style="fill:rgb(0,22,36);"/>
                    <path d="M541.073,180.614C526.851,190.01 533.604,249.553 537.941,267.394C538.185,271.486 549.991,275.342 551.683,270.762L561.081,232.436C561.081,225.204 559.876,217.256 558.428,209.055C555.296,190.979 553.612,182.298 541.073,180.614Z" style="fill:rgb(15,30,56);"/>
                    <path d="M540.593,194.591C526.371,203.995 533.604,249.553 537.941,267.394C538.185,270.038 543.482,272.69 547.582,272.934C549.991,255.338 553.612,243.289 554.816,234.609C554.816,227.62 554.572,222.072 553.856,213.88C552.163,197.967 546.858,196.283 540.593,194.591Z" style="fill:rgb(12,24,46);"/>
                    <path d="M547.347,277.271C552.407,289.807 549.511,293.183 545.41,305.956L541.073,306.2L540.593,285.951L540.349,277.995L547.347,277.271Z" style="fill:rgb(219,150,105);"/>
                    <path d="M536.737,441.428C537.941,442.633 539.389,443.115 542.278,444.802L542.278,447.454C545.174,452.515 548.063,454.926 551.683,453.962C556.988,452.275 558.672,451.069 558.672,447.213C559.152,440.945 559.396,439.74 557.712,434.919C552.407,431.544 549.991,430.822 546.378,429.616C543.246,428.652 538.665,426.001 534.328,424.795C531.676,424.313 530.228,426.482 529.984,428.17C529.748,432.027 533.36,437.812 536.737,441.428Z" style="fill:rgb(17,18,20);"/>
                    <path d="M536.737,441.428C537.941,442.633 539.389,443.115 542.278,444.802L542.278,447.454C545.174,452.515 548.063,454.926 551.683,453.962C556.988,452.275 558.672,451.069 558.672,447.213C558.916,443.838 559.152,441.909 558.916,439.981C551.919,443.597 546.134,443.115 539.625,436.607C537.697,434.437 531.912,429.375 531.432,425.518C530.708,426.001 529.984,427.205 529.984,428.17C529.748,432.027 533.36,437.812 536.737,441.428Z"/>
                    <path d="M521.066,452.275C519.618,452.034 515.761,446.248 510.456,447.213C504.191,448.659 496.714,445.043 491.173,445.043C489.969,445.043 488.765,444.802 488.041,445.284C485.388,447.213 485.144,449.382 487.553,452.034C489.245,453.962 492.377,456.613 495.03,458.301C497.918,459.988 500.091,461.676 503.467,463.122C506.12,464.086 507.804,464.086 510.22,464.809L510.22,466.738C512.149,468.425 514.313,469.389 515.517,469.63C518.894,469.871 522.75,467.702 525.403,464.809C525.647,461.434 526.851,458.06 525.167,453.239L521.066,452.275Z" style="fill:rgb(17,18,20);"/>
                    <path d="M486.592,446.73C485.388,448.418 485.624,450.105 487.553,452.034C489.245,453.962 492.377,456.613 495.03,458.301C497.918,459.988 500.091,461.676 503.467,463.122C506.12,464.086 507.804,464.086 510.22,464.809L510.22,466.738C512.149,468.425 514.313,469.389 515.517,469.63C518.894,469.871 522.75,467.702 525.403,464.809C525.647,462.157 526.371,459.747 525.883,456.372C518.894,461.917 514.557,458.06 511.905,458.06C507.804,457.819 502.019,458.301 493.102,451.792C490.929,450.347 488.765,448.659 486.592,446.73Z"/>
                    <path d="M506.6,454.203C504.915,451.311 504.915,449.382 505.64,448.177L494.306,446.007C488.765,444.802 487.553,446.007 489.001,447.213C494.062,451.551 500.571,452.756 506.6,454.203Z" style="fill:rgb(32,35,46);"/>
                    <path d="M519.374,299.212C521.066,312.708 524.443,362.122 529.023,373.455C535.533,390.084 537.461,415.635 541.553,434.196C542.278,436.365 544.206,439.017 547.102,440.463C551.919,442.873 558.428,443.115 559.641,439.74C558.672,422.626 558.916,401.172 558.428,391.768C557.712,381.167 555.296,370.803 550.959,364.775C550.479,357.062 550.959,325.725 551.203,311.74C551.203,298.968 550.959,291.011 547.347,282.819L519.374,299.212Z" style="fill:rgb(12,24,46);"/>
                    <path d="M519.374,304.272C521.066,317.768 526.851,361.642 529.023,373.455C532.392,392.736 537.461,415.635 541.553,434.196C542.278,436.365 544.206,439.017 547.102,440.463C548.063,440.945 549.031,441.428 549.991,441.669C548.307,428.411 546.622,395.868 543.002,380.923C541.317,374.171 541.553,372.731 537.697,368.151C537.217,344.046 536.737,319.461 542.522,295.355L550.235,298.968C549.755,294.867 548.787,291.255 547.347,287.635L519.374,304.272Z" style="fill:rgb(9,18,36);"/>
                    <path d="M494.55,299.692C493.582,304.028 491.897,310.536 491.653,314.88C490.449,338.497 498.642,368.151 501.295,382.851C504.671,402.86 504.191,430.822 506.12,450.587C507.324,456.372 521.31,461.917 526.851,456.132C527.819,439.258 529.984,413.948 529.023,404.547C528.299,396.836 528.055,392.256 525.167,385.504C525.403,378.035 525.403,344.046 526.607,330.061C527.575,318.492 533.604,297.284 527.095,282.819L499.847,278.239L494.55,299.692Z" style="fill:rgb(15,30,56);"/>
                    <path d="M494.786,310.056C489.725,334.405 498.162,365.499 501.295,382.851C504.671,402.86 504.191,430.822 506.12,450.587C506.6,453.479 510.456,456.372 514.801,457.577C515.281,440.463 515.281,416.118 514.801,403.101C514.077,388.88 512.865,393.46 511.425,387.188C510.7,366.703 508.528,335.845 507.568,314.392L504.671,315.36L494.786,310.056Z" style="fill:rgb(12,24,46);"/>
                    <path d="M496.714,305.476L497.682,308.852C496.234,314.392 494.786,319.696 493.102,325.245L492.133,324.277C493.102,317.288 494.306,312.464 495.99,305.476L496.714,305.476Z" style="fill:rgb(0,12,20);"/>
                    <path d="M542.278,179.41C555.296,184.714 554.816,201.587 552.643,215.808C550.235,229.784 547.102,239.913 546.622,250.757C545.898,262.326 553.367,273.902 553.131,303.068C551.439,308.128 538.665,313.912 534.808,316.084C535.769,308.372 534.808,303.792 533.84,295.111C533.36,305.956 533.604,309.576 531.188,317.044C522.994,322.105 505.64,326.929 496.234,321.869C495.754,301.864 500.815,285.951 498.642,266.67C497.438,245.697 488.277,223.04 490.449,212.676C491.409,208.095 494.306,204.239 497.682,201.343C505.151,195.559 524.443,180.37 536.493,178.922C538.665,178.442 540.837,178.686 542.278,179.41Z" style="fill:rgb(21,39,71);"/>
                    <path d="M507.804,324.041C504.191,324.277 499.847,323.553 496.234,321.625C495.754,300.652 501.539,284.023 498.162,263.05C498.162,262.326 498.162,261.366 498.162,260.642C497.918,249.073 482.972,222.072 489.001,206.403C489.969,203.751 491.897,202.311 494.062,200.619C497.682,197.967 507.804,193.151 514.801,189.53L514.557,193.151C509.008,196.763 507.324,196.519 502.743,201.099C514.077,210.748 516.005,245.453 514.077,260.398C512.385,273.414 507.568,306.2 507.804,324.041Z" style="fill:rgb(15,30,56);"/>
                    <path d="M525.403,324.521L514.801,329.101C515.037,344.77 515.281,372.967 516.965,389.604C521.066,400.208 520.098,443.356 519.138,457.577C522.27,457.096 522.994,457.096 525.647,455.649C526.127,429.375 529.259,395.388 523.239,387.188C522.514,367.427 523.239,344.046 525.403,324.521Z" style="fill:rgb(21,39,71);"/>
                    <path d="M541.073,319.941C540.837,331.989 541.317,355.858 541.798,367.907C545.898,373.691 547.582,379.963 548.787,386.952C551.439,401.896 551.439,425.759 552.407,440.945C555.06,441.186 556.02,441.186 558.672,439.74C557.712,424.313 557.224,399.726 555.06,384.3C554.092,378.035 552.887,372.967 548.307,365.255C548.307,351.278 548.787,328.133 549.031,314.156C545.898,317.288 544.93,317.768 541.073,319.941Z" style="fill:rgb(21,39,71);"/>
                    <path d="M491.173,203.027C480.808,210.024 490.693,233.641 493.337,252.929C495.03,262.814 507.568,266.906 510.7,253.654C509.976,244.005 509.496,238.221 508.528,230.508C507.324,221.836 505.396,205.443 496.478,202.311C495.03,201.823 492.621,202.311 491.173,203.027Z" style="fill:rgb(21,39,71);"/>
                    <path d="M516.965,180.858L508.048,179.646L502.019,179.166C501.539,184.47 500.815,186.878 502.019,187.122C504.671,187.366 508.772,186.878 511.661,185.194C514.077,183.746 514.313,182.298 516.965,180.858Z" style="fill:rgb(36,19,4);"/>
                    <path d="M502.499,181.338C504.191,182.062 511.425,179.646 511.18,180.37C511.425,185.43 510.22,188.326 510.22,196.519C519.862,203.027 532.88,195.315 531.912,190.499C531.912,187.366 530.464,178.206 531.912,175.31C533.84,172.414 537.697,169.046 539.145,164.465C541.317,156.989 540.593,148.797 533.604,143.492C521.066,133.364 505.151,140.596 501.059,155.061C500.335,157.957 502.499,159.397 502.499,161.813C502.499,162.293 501.783,162.773 501.295,163.977C500.571,165.425 500.571,180.37 502.499,181.338Z" style="fill:rgb(232,164,118);"/>
                    <path d="M502.743,181.094C504.191,182.062 511.18,179.646 510.936,180.37C511.425,184.95 510.22,188.326 510.22,196.519C516.005,188.326 518.17,183.746 531.188,179.166C531.188,177.718 531.432,176.278 531.912,175.31C533.84,172.414 537.697,169.046 539.145,164.465C541.317,156.989 540.593,148.797 533.604,143.492C521.066,133.364 505.151,140.596 501.059,155.061C500.335,157.957 502.499,159.397 502.499,161.813C502.499,162.293 501.783,162.773 501.295,163.977C500.571,165.425 500.571,180.134 502.743,181.094Z" style="fill:rgb(219,150,105);"/>
                    <path d="M502.987,181.338C503.711,181.818 507.08,181.338 509.732,180.37C511.425,179.89 512.629,178.442 512.865,178.206C513.833,177.962 516.241,174.586 512.629,169.046C514.557,163.741 530.952,177.238 531.912,175.31C533.84,172.414 537.697,169.046 539.145,164.465C541.317,156.989 540.593,148.797 533.604,143.492C521.066,133.364 505.151,140.596 501.059,155.061C500.335,157.957 502.499,159.397 502.499,161.813C502.499,162.293 501.783,162.773 501.295,163.977C500.571,165.425 501.059,180.134 502.987,181.338Z" style="fill:rgb(232,164,118);"/>
                    <path d="M531.676,177.238C533.604,172.902 537.461,170.25 539.145,164.465C541.317,156.989 540.593,148.797 533.604,143.492C523.719,135.536 511.905,138.188 505.151,146.869C504.671,147.349 508.528,149.277 507.324,151.929C505.396,156.753 505.151,158.437 505.876,159.641C508.048,163.741 508.048,164.465 507.804,170.486L510.7,171.698C511.425,166.873 513.353,167.353 515.281,168.802C518.894,171.698 520.342,177.962 526.371,179.166C528.535,179.646 530.464,178.686 531.676,177.238Z" style="fill:rgb(54,29,7);"/>
                    <path d="M502.499,181.094C502.743,181.338 504.915,181.338 505.876,181.094C506.844,179.89 508.048,177.238 508.048,176.034C507.804,171.21 505.396,167.353 505.396,165.425C505.396,161.333 506.844,163.497 505.151,158.917C503.947,155.541 505.64,155.061 506.356,152.173C504.671,151.449 503.711,150.245 503.467,149.277C502.499,150.961 501.539,152.889 501.059,155.061C500.335,157.957 502.499,159.397 502.499,161.813C502.499,162.293 501.783,162.773 501.295,163.977C500.571,165.425 500.571,180.134 502.499,181.094Z" style="fill:rgb(241,178,135);"/>
                    <path d="M511.905,169.282C516.241,164.945 520.586,178.442 513.353,178.206C516.241,175.31 514.077,170.486 511.905,169.282Z" style="fill:rgb(219,150,105);"/>
                    <path d="M511.905,171.21C511.18,169.282 511.661,168.558 512.629,168.802C513.589,169.046 514.801,170.25 515.517,172.178C516.485,175.31 515.037,179.41 511.905,177.718C514.557,177.962 514.313,174.83 513.589,172.902C513.109,171.698 512.149,170.73 511.905,171.21Z" style="fill:rgb(241,178,135);"/>
                    <path d="M513.109,171.934C512.385,173.382 512.149,174.106 512.385,174.586C512.385,175.066 512.865,175.31 513.833,174.586C513.833,173.626 513.589,172.658 513.109,171.934Z" style="fill:rgb(219,150,105);"/>
                    <path d="M529.748,159.641C529.748,163.261 529.504,164.701 528.055,168.078C527.819,165.905 527.575,163.741 527.095,161.569C527.095,161.089 526.851,160.365 526.607,159.641C526.127,162.773 525.883,165.905 525.403,169.046C524.679,165.669 523.955,162.293 523.474,158.917C522.026,160.845 521.79,164.945 521.31,167.353C520.586,164.221 520.098,161.333 519.862,158.193C518.414,159.397 518.17,163.017 517.69,164.945C517.21,162.293 516.729,160.121 516.241,157.233C515.517,158.437 515.281,161.569 515.037,163.017C514.557,161.089 513.833,158.917 513.833,156.989C512.385,159.397 512.385,162.049 512.149,164.701C511.425,162.049 510.7,158.917 510.936,156.029C510.456,156.989 509.732,159.641 509.252,160.845C509.252,158.917 509.008,156.753 509.008,154.581C508.048,155.785 506.844,158.193 506.6,159.885C505.64,157.957 506.12,153.613 507.324,150.961L507.568,150.481L507.804,150.481C509.976,150.725 512.149,150.961 514.313,150.961C515.761,150.961 516.965,151.205 518.414,151.205C519.138,151.205 519.862,151.449 520.586,151.449C520.822,151.449 521.31,151.205 521.546,151.205C522.27,151.205 522.75,150.961 523.474,150.961C525.403,150.725 527.575,150.481 529.504,150.245C532.392,149.757 535.288,149.033 538.185,148.553C542.278,155.785 539.389,163.017 537.697,166.629C537.697,164.221 538.185,161.813 537.697,159.397C537.697,161.569 536.493,164.221 535.769,166.149C535.769,163.741 535.769,161.813 535.288,159.397C535.533,162.773 534.808,164.465 533.36,167.353C533.36,164.465 533.84,162.049 532.88,159.161C532.88,162.773 532.156,164.945 530.952,168.322C530.708,165.425 530.708,162.537 529.748,159.641Z" style="fill:rgb(84,50,30);"/>
                    <path d="M537.941,149.033C539.625,152.653 540.837,155.305 538.665,162.537C539.145,157.233 537.697,153.613 536.737,152.889C537.217,156.753 537.217,157.713 536.493,161.333C536.737,157.469 535.533,156.029 534.564,153.857C534.564,155.541 535.288,159.161 534.084,163.497C534.328,161.089 533.604,156.989 532.392,154.825C532.392,158.437 532.392,160.365 531.432,163.741C531.432,160.609 530.708,157.713 529.259,155.541C529.023,158.681 529.259,161.333 528.535,164.465C528.055,161.089 527.575,158.917 526.607,155.785C525.883,158.917 525.883,160.365 525.403,163.977C524.923,161.333 524.199,158.437 523.719,155.541C522.026,157.233 521.79,159.641 521.31,162.537C520.822,159.641 520.586,158.193 520.342,155.061C518.658,156.509 518.17,157.713 517.69,161.089C517.21,158.917 517.21,156.753 516.965,154.337C515.517,155.541 515.281,157.233 515.037,160.121C514.313,157.233 514.557,155.541 514.801,153.857C513.353,154.825 512.149,157.713 511.905,160.609C511.425,157.957 511.661,155.061 512.149,152.653C510.936,154.101 510.7,154.337 509.976,156.753C509.732,155.061 509.732,153.613 509.976,151.929C508.772,152.409 507.568,154.101 507.08,156.029C506.844,152.889 507.568,151.449 508.292,150.245C508.292,150.245 520.098,151.449 520.822,151.449C521.31,151.449 537.941,149.033 537.941,149.033Z" style="fill:rgb(107,64,39);"/>
                    <path d="M539.625,157.469C537.461,156.029 532.392,154.337 522.75,153.613C516.241,153.133 511.661,151.685 507.568,149.521C501.539,146.38 502.263,140.84 504.915,138.668C509.732,134.088 522.514,134.576 530.952,138.912C537.217,142.288 540.837,147.349 539.625,157.469Z" style="fill:rgb(79,43,12);"/>
                    <path d="M542.042,160.365C540.113,158.917 536.013,155.785 532.88,155.061C530.464,154.337 527.095,153.857 522.75,153.613C516.241,153.133 511.661,151.685 507.568,149.521C501.539,146.38 502.263,140.84 504.915,138.668C507.324,136.26 511.905,135.3 516.965,135.536C517.445,135.536 517.69,135.78 518.17,135.78C513.833,136.016 512.865,136.26 509.008,137.464C512.149,136.984 512.629,137.228 515.517,137.708C512.629,137.708 510.22,138.188 507.568,139.636C509.976,139.156 512.629,138.668 515.761,139.636C512.865,139.872 509.732,140.36 507.568,142.288C510.22,141.32 511.661,141.32 514.313,141.32C511.425,142.044 510.22,142.044 508.048,144.216C511.425,143.492 513.353,143.012 516.241,143.248C513.109,143.972 511.661,144.452 508.528,146.38C512.149,145.665 515.761,144.941 519.374,145.176C516.241,145.9 515.037,146.38 512.149,147.593C515.517,147.593 516.965,147.105 520.342,146.625C517.69,147.593 517.445,147.829 515.281,149.277C518.894,148.553 521.546,148.073 525.167,147.829C522.75,148.553 521.546,149.277 520.342,150.481C524.679,149.277 525.403,149.033 529.984,148.797C528.055,149.277 526.371,150.001 524.679,151.205C527.095,150.725 530.464,149.757 534.328,149.757C531.676,150.481 531.188,150.725 529.259,151.685C532.392,151.205 535.288,150.961 538.665,151.205C536.257,151.685 535.533,151.929 533.84,152.889C536.737,152.653 538.665,152.653 540.837,154.825C538.421,154.101 537.461,154.101 535.533,154.337C538.901,155.785 540.349,156.509 542.042,160.365Z" style="fill:rgb(54,29,7);"/>
                    <path d="M511.905,139.872C509.496,139.872 506.6,140.596 504.191,141.32C506.12,139.872 508.048,138.668 510.456,138.188C509.008,138.188 507.568,138.432 506.12,138.668C508.772,136.984 510.22,136.74 513.109,135.78C509.732,136.016 505.876,137.708 504.915,138.432C503.711,139.636 502.743,141.808 502.987,143.972C503.223,146.625 505.151,148.317 507.324,149.521C512.149,151.929 516.965,153.133 522.27,153.613C530.228,154.101 536.257,155.061 540.113,158.917C538.665,156.265 536.257,155.061 533.116,154.101C534.808,153.857 536.493,153.857 537.941,154.101C534.564,153.133 531.676,153.377 529.748,153.613C530.708,153.133 533.604,152.409 534.564,151.929C531.432,152.173 528.779,152.653 525.883,153.133C527.095,152.409 528.535,151.449 529.984,150.961C527.095,151.205 524.199,151.929 521.31,152.653C522.75,151.685 524.199,150.725 525.883,150.001C523.239,150.245 520.822,151.205 518.414,151.929C519.374,150.725 520.098,150.001 521.546,149.277C518.414,149.521 515.761,151.205 512.385,150.725C513.833,150.001 515.037,149.277 516.485,148.073C513.833,149.277 511.18,148.797 508.772,149.033C510.936,147.829 512.629,146.869 515.037,146.145C511.905,146.38 509.008,146.625 505.64,147.349C507.804,146.145 509.496,145.176 511.905,144.216C509.976,144.452 508.048,144.941 506.12,145.42C507.08,144.216 508.048,143.248 509.252,142.524C507.804,142.768 506.12,143.248 504.671,143.736C507.324,141.808 508.528,140.596 511.905,139.872Z" style="fill:rgb(36,19,4);"/>
                    <path d="M508.048,166.149C508.048,169.046 507.568,174.586 503.947,176.034C503.223,173.626 502.987,170.73 500.815,169.282C500.571,169.77 500.571,171.454 500.815,171.698C501.783,172.658 502.019,174.83 502.019,176.278C501.295,176.514 501.539,175.554 501.059,175.31C499.611,177.718 500.335,186.642 501.539,186.878C502.987,187.366 507.568,184.47 509.252,183.022C511.18,181.094 511.661,180.37 511.18,177.238C510.936,175.066 509.732,168.558 513.109,167.353L508.048,166.149Z" style="fill:rgb(54,29,7);"/>
                    <path d="M531.432,180.134C532.392,179.89 533.604,179.41 534.564,179.166C537.217,180.134 538.421,189.051 537.461,191.223C534.564,197.487 528.779,198.935 520.586,200.619C510.936,202.311 499.131,197.731 496.234,199.171C495.754,199.415 504.915,194.111 506.12,193.875C514.557,192.427 529.748,189.775 531.432,183.746L531.432,180.134Z" style="fill:rgb(27,52,99);"/>
                    <path d="M531.432,182.786C531.676,187.602 518.17,191.223 510.7,188.326C508.528,189.53 506.844,193.875 506.844,196.039C516.005,198.211 529.984,197.243 533.36,190.01C534.084,188.571 533.116,184.714 531.432,182.786Z" style="fill:rgb(226,239,247);"/>
                    <path d="M496.478,307.884C495.99,311.504 494.306,318.248 492.377,323.797C488.041,313.912 487.553,315.116 489.001,304.028L494.55,300.652C496.478,304.516 495.99,305.72 496.478,307.884Z" style="fill:rgb(232,164,118);"/>
                    <path d="M494.062,254.378C490.205,265.222 486.592,296.559 486.112,303.548C485.624,308.372 495.03,306.68 496.234,303.068C502.743,288.603 510.7,255.582 510.456,253.654L494.062,254.378Z" style="fill:rgb(21,39,71);"/>
                    <path d="M539.869,193.151C534.808,201.587 523.955,204.955 510.22,203.995C519.374,219.184 518.894,248.585 516.005,270.526C514.077,285.707 510.7,308.128 510.7,321.625C519.374,320.421 520.822,319.696 529.023,316.32C532.636,296.559 533.84,293.907 532.88,274.862C536.737,291.499 536.493,296.071 536.973,312.228C543.97,309.088 544.93,307.404 551.203,303.304C552.887,278.963 542.522,263.53 544.45,248.349C546.858,227.856 559.396,195.079 546.378,184.95C542.522,181.818 541.073,190.979 539.869,193.151Z" style="fill:rgb(26,48,89);"/>
                    <path d="M491.173,203.027C480.808,210.024 490.693,233.641 493.337,252.929C493.582,253.654 493.582,254.134 493.826,254.858C489.969,266.182 486.592,296.559 486.112,303.548C485.868,305.72 487.797,306.68 490.205,306.444C492.377,291.979 495.274,276.791 498.886,262.326C500.571,256.062 501.059,252.205 500.571,250.033C496.714,235.089 495.03,217.012 495.754,202.311C494.306,202.067 492.377,202.311 491.173,203.027Z" style="fill:rgb(15,30,56);"/>
                </g>
            </g>
        </g>
    </g>
</svg>
