<?xml version="1.0" encoding="UTF-8" standalone="no"?>
<!DOCTYPE svg PUBLIC "-//W3C//DTD SVG 1.1//EN" "http://www.w3.org/Graphics/SVG/1.1/DTD/svg11.dtd">
<svg width="100%" height="100%" viewBox="0 0 2080 1440" version="1.1" xmlns="http://www.w3.org/2000/svg" xmlns:xlink="http://www.w3.org/1999/xlink" xml:space="preserve" style="fill-rule:evenodd;clip-rule:evenodd;stroke-linejoin:round;stroke-miterlimit:1.41421;">
    <g id="Page-3" transform="matrix(2.66667,0,0,2.66667,0,0)">
        <rect x="0" y="0" width="780" height="540" style="fill:none;"/>
        <clipPath id="_clip1">
            <rect x="0" y="0" width="780" height="540"/>
        </clipPath>
        <g clip-path="url(#_clip1)">
            <rect x="0" y="0" width="780" height="540" style="fill:white;"/>
            <g transform="matrix(1,0,0,1,-109.223,-6.94065)">
                <clipPath id="_clip2">
                    <path d="M250.32,486.24L749.158,486.24L749.158,68.268L250.32,68.268L250.32,486.24Z"/>
                </clipPath>
                <g clip-path="url(#_clip2)">
                    <path d="M432.248,217.592C535.151,272.508 645.233,331.01 748.127,385.926C735.301,392.854 579.033,475.738 566.199,482.667C463.305,427.752 353.214,369.246 250.32,314.329C263.15,307.661 419.422,224.52 432.248,217.592Z" style="fill:rgb(193,203,210);"/>
                    <path d="M469.462,344.355C420.444,370.527 367.841,398.501 318.577,424.674C324.735,428.01 424.809,482.41 430.967,485.746C480.236,459.572 532.839,431.602 581.848,405.428C575.69,402.092 475.62,347.69 469.462,344.355Z" style="fill:rgb(193,203,210);"/>
                    <path d="M491.018,385.155C489.476,386.696 487.424,387.467 483.83,389.26L483.83,392.343C479.984,398.501 476.39,401.322 471.515,400.04C464.837,398.241 462.785,396.699 462.534,392.083C461.763,384.644 461.763,383.362 463.816,377.716C470.484,373.61 473.818,372.84 478.443,371.558C482.288,370.276 488.195,367.193 494.092,365.911C497.426,364.881 499.228,367.453 499.479,369.505C499.739,374.121 495.123,381.05 491.018,385.155Z" style="fill:rgb(17,18,20);"/>
                    <path d="M491.018,385.155C489.476,386.696 487.424,387.467 483.83,389.26L483.83,392.343C479.984,398.501 476.39,401.322 471.515,400.04C464.837,398.241 462.785,396.699 462.534,392.083C462.274,387.978 462.014,385.666 462.274,383.613C471.255,387.718 478.694,387.467 487.164,379.508C489.727,377.205 496.916,371.047 497.686,366.422C498.708,367.193 499.479,368.475 499.479,369.505C499.739,374.121 495.123,381.05 491.018,385.155Z"/>
                    <path d="M501.021,321.518C495.123,341.272 489.987,356.93 483.319,376.685C482.548,379.257 480.236,382.591 476.642,384.384C470.995,386.956 463.045,387.207 461.503,383.362C462.785,363.088 463.556,352.314 465.357,341.272C466.89,332.291 467.661,323.83 472.796,316.382C478.443,298.68 507.178,300.992 501.021,321.518Z" style="fill:rgb(17,16,26);"/>
                    <path d="M492.551,348.971C489.727,357.952 486.653,366.682 483.319,376.685C482.548,379.257 480.236,382.591 476.642,384.384C474.078,385.415 470.995,386.185 468.432,386.437C469.462,380.028 471.766,370.787 473.567,364.63C469.713,366.682 465.097,368.475 462.274,368.735C462.534,365.651 462.785,364.37 463.045,361.806L492.551,348.971Z" style="fill:rgb(10,9,15);"/>
                    <path d="M503.073,394.136C505.126,393.625 510.001,386.956 516.678,388.238C524.889,389.771 534.38,385.666 541.82,385.415C543.101,385.415 544.643,385.155 545.414,385.666C549.008,387.978 549.519,390.542 546.444,393.625C544.132,396.188 540.027,399.012 536.693,401.066C533.099,403.375 530.015,405.171 525.659,406.711C522.316,407.994 520.264,407.994 517.189,409.021L516.93,411.329C514.626,413.127 511.803,414.409 510.261,414.409C505.896,414.665 501.021,412.357 497.426,408.764C497.175,404.915 495.634,401.066 497.686,395.166L503.073,394.136Z" style="fill:rgb(17,18,20);"/>
                    <path d="M547.726,387.718C549.008,389.52 548.748,391.313 546.444,393.625C544.132,396.188 540.027,399.012 536.693,401.066C533.099,403.375 530.015,405.171 525.659,406.711C522.316,407.994 520.264,407.994 517.189,409.021L516.93,411.329C514.626,413.127 511.803,414.409 510.261,414.409C505.896,414.665 501.021,412.357 497.426,408.764C497.175,405.941 496.145,402.862 496.656,399.012C505.896,405.428 511.543,401.066 514.877,400.809C520.264,400.552 527.712,401.066 539.256,393.365C541.82,391.572 544.643,389.771 547.726,387.718Z"/>
                    <path d="M521.554,396.188C523.858,392.854 523.858,390.802 523.087,389.26L537.715,386.696C544.643,385.415 546.184,386.696 544.392,388.238C537.974,393.365 529.505,394.647 521.554,396.188Z" style="fill:rgb(32,35,46);"/>
                    <path d="M523.347,306.119C522.836,326.653 522.065,371.558 520.013,392.594C518.731,399.271 501.28,405.685 494.603,399.012C493.581,378.997 491.018,362.317 492.04,351.284C492.81,342.303 493.07,314.849 496.656,306.89C499.479,296.627 523.858,288.158 523.347,306.119Z" style="fill:rgb(24,22,36);"/>
                    <path d="M523.858,308.943C523.347,329.477 522.065,371.558 520.013,392.594C519.493,395.677 515.388,398.761 510.512,400.296C511.803,385.155 512.825,369.505 514.626,354.618C515.648,347.949 516.678,341.792 517.189,336.656C518.211,329.217 519.242,304.067 515.908,296.887C514.877,294.575 513.336,292.522 511.032,290.981C514.626,291.752 517.189,293.293 519.242,295.346C521.805,298.169 523.347,301.763 523.607,305.349C523.858,306.379 523.858,307.401 523.858,308.943Z" style="fill:rgb(17,16,26);"/>
                    <path d="M507.178,399.782C502.051,401.066 497.686,400.04 495.374,397.99C494.092,360.265 492.551,354.367 501.28,339.99C504.355,334.863 508.46,329.728 514.877,319.725C510.512,348.46 511.283,367.964 507.178,399.782Z" style="fill:rgb(31,28,46);"/>
                    <path d="M501.021,331.269C499.999,329.728 496.656,327.935 495.894,327.164C484.6,319.725 462.534,308.432 449.448,301.763C444.312,299.451 439.437,296.887 434.301,294.575C434.05,294.575 433.79,294.575 433.79,294.575C429.945,293.033 429.425,292.263 425.84,293.804C424.558,294.315 423.017,295.086 421.735,295.597C410.953,300.473 398.127,307.401 387.855,313.308L363.996,326.653L434.561,365.141L434.821,365.4C437.384,364.119 440.718,362.057 443.031,360.776C457.658,352.566 468.432,346.668 476.642,342.303C477.672,341.792 478.694,341.272 479.465,340.761C482.799,339.22 486.142,337.427 489.987,335.634C491.78,334.863 493.581,334.093 495.634,333.062C499.739,331.529 499.999,333.582 498.968,335.634C499.228,335.634 499.739,335.374 499.739,335.374C500.25,335.115 500.51,334.604 500.769,334.093C501.28,333.322 501.531,332.04 501.021,331.269Z" style="fill:rgb(237,232,232);"/>
                    <path d="M365.018,326.134C363.736,326.905 354.244,328.706 352.703,328.706C372.466,345.637 412.754,358.212 425.069,367.453C426.091,368.475 428.143,366.933 429.425,366.933C431.227,367.193 433.79,366.171 434.821,365.4C435.072,365.141 434.301,364.881 434.301,364.63C417.881,348.72 379.134,333.582 365.018,326.134Z" style="fill:rgb(217,208,208);"/>
                    <path d="M501.021,331.269C499.999,329.728 496.656,327.935 495.894,327.164C482.548,318.183 464.067,309.202 449.448,301.763C444.312,299.451 439.437,296.887 434.301,294.575C434.05,294.575 433.79,294.575 433.79,294.575C430.456,293.033 429.425,292.522 426.862,293.544C442,301.503 487.935,323.57 501.021,333.833C501.531,333.062 501.531,332.04 501.021,331.269Z" style="fill:rgb(227,220,220);"/>
                    <path d="M433.539,370.527C431.997,371.047 430.456,371.558 429.174,371.809L428.914,371.809C428.143,371.809 427.122,371.809 426.091,371.558C424.038,370.527 423.787,367.704 424.038,365.4L410.182,358.212C390.938,347.949 371.695,337.687 352.192,327.415C351.932,329.217 351.932,330.758 352.963,332.291C354.244,334.344 358.609,336.656 360.142,337.938C375.54,347.439 403.254,362.317 419.933,369.505C422.246,370.787 424.809,371.558 426.611,371.809C427.892,372.069 429.174,371.809 430.456,371.558C431.486,371.298 432.508,370.787 433.539,370.527Z" style="fill:rgb(237,232,232);"/>
                    <path d="M499.228,331.269C488.705,336.145 479.725,340.51 470.744,345.386C459.711,351.024 448.928,357.441 435.591,365.141C435.332,365.141 435.332,365.4 434.821,365.4C430.716,367.704 428.663,367.193 428.143,366.171C427.633,365.141 428.143,363.348 429.174,361.546L425.58,360.524C423.527,364.63 423.268,367.964 424.558,370.016C425.84,372.58 429.685,372.329 435.072,369.757C435.332,369.505 435.591,369.246 435.843,369.246C449.188,361.546 459.711,355.389 470.744,349.491C479.725,344.866 488.446,340.51 499.228,335.634C500.25,335.115 501.021,333.833 501.28,332.551C501.28,331.529 500.51,330.758 499.228,331.269Z" style="fill:rgb(226,217,217);"/>
                    <path d="M426.091,376.945L423.017,375.403C423.017,377.205 422.497,379.257 421.475,381.05C419.933,384.384 417.11,387.978 414.036,389.52L417.11,391.312C419.163,390.291 420.444,389.009 421.986,387.467C423.017,386.185 424.298,384.384 425.069,382.591C425.58,381.31 426.351,378.737 426.091,376.945Z" style="fill:rgb(168,165,163);"/>
                    <path d="M414.036,389.52L362.714,416.719L365.789,418.515L417.11,391.312L414.036,389.52Z" style="fill:rgb(201,199,197);"/>
                    <path d="M425.32,315.36L422.246,313.559L423.017,375.403L426.091,376.945L425.32,315.36Z" style="fill:rgb(168,165,163);"/>
                    <path d="M425.84,311.766C425.84,310.224 425.58,308.943 425.32,307.401C424.298,301.763 421.735,297.138 418.652,293.293C416.859,291.241 414.547,289.439 411.723,287.906L408.64,286.105C415.569,289.959 420.193,296.627 421.735,305.868C421.986,307.15 421.986,308.692 422.246,309.973C422.246,310.995 422.246,313.559 422.246,313.559L425.32,315.36C425.32,315.36 425.84,312.537 425.84,311.766Z" style="fill:rgb(145,142,140);"/>
                    <path d="M413.005,286.105C405.306,282 400.69,280.458 391.449,280.978C381.698,281.74 371.695,285.334 363.485,289.699C361.944,290.47 360.402,291.492 358.86,292.263L361.944,294.064C363.736,293.033 365.278,292.263 366.819,291.492C369.894,289.699 372.977,288.417 376.311,287.136C381.698,285.083 387.093,283.541 392.48,283.031C396.325,282.511 399.919,282.771 403.513,283.282C406.337,283.541 409.16,284.312 411.983,285.594C412.234,285.845 412.754,285.845 413.005,286.105Z" style="fill:rgb(168,165,163);"/>
                    <path d="M426.862,315.62C426.862,315.36 427.122,311.506 426.862,310.224C426.862,308.943 426.611,307.15 426.351,305.608C424.298,295.346 418.652,288.158 410.182,284.823C398.638,280.458 382.728,282.771 366.819,291.492C365.278,292.263 363.736,293.033 361.944,294.064L362.203,295.597C363.736,294.835 365.278,293.804 366.819,293.033C382.469,284.823 397.867,282.26 409.16,286.616C417.63,289.959 423.017,297.138 424.809,307.661C425.069,308.943 425.32,310.224 425.32,311.766C425.32,312.537 425.32,315.36 425.32,315.36L426.091,376.945C426.091,378.737 425.58,380.79 424.809,382.591C423.268,386.185 420.444,389.52 417.11,391.312L365.789,418.515L365.789,420.055L417.11,393.114C423.017,390.031 427.892,382.332 427.633,376.174L426.862,315.62Z" style="fill:rgb(83,75,72);"/>
                    <path d="M361.944,294.064L358.86,292.263L358.86,294.064L362.203,295.597L361.944,294.064Z" style="fill:rgb(145,142,140);"/>
                    <path d="M412.754,288.928L406.588,285.845C411.212,288.158 414.547,291.752 416.859,296.887L423.017,299.962C420.704,295.086 417.37,291.241 412.754,288.928Z" style="fill:rgb(217,208,208);"/>
                    <path d="M377.342,282L376.822,283.793L381.187,285.845L380.927,287.136L382.728,287.906L383.499,285.083L377.342,282Z" style="fill:rgb(217,208,208);"/>
                    <path d="M403.773,283.541C407.359,284.052 410.953,284.563 414.287,286.105C410.442,284.312 406.848,282 402.483,280.718C399.408,279.947 396.074,279.436 392.731,279.436C388.375,279.436 383.499,280.207 379.394,281.489C378.623,281.489 377.853,281.74 377.342,282L383.239,285.083C389.657,283.541 397.096,282.771 403.773,283.541Z" style="fill:rgb(247,244,244);"/>
                    <path d="M383.239,285.083L382.728,287.906C401.712,282.26 416.859,286.876 423.017,299.962L425.069,297.909C418.652,284.052 403.002,279.436 383.239,285.083Z" style="fill:rgb(226,217,217);"/>
                    <path d="M360.662,421.338C358.609,422.364 357.579,423.647 357.579,425.186L357.579,426.726C357.579,425.443 358.609,423.904 360.662,422.877L360.662,421.851L360.662,421.338Z" style="fill:rgb(102,92,89);"/>
                    <path d="M391.969,404.658L360.662,421.338L360.662,422.877L391.969,406.454L391.969,404.658Z" style="fill:rgb(83,75,72);"/>
                    <path d="M357.328,432.115L357.328,430.576C356.297,430.062 355.526,429.292 354.755,428.522C354.244,428.01 354.244,428.01 353.734,427.24L353.734,426.983C353.214,426.47 353.214,425.7 353.214,425.186C353.214,425.7 352.963,426.726 353.214,427.24C353.214,428.266 353.734,429.292 354.504,430.062C355.275,430.832 356.037,431.602 357.328,432.115Z" style="fill:rgb(102,92,89);"/>
                    <path d="M407.878,457.263L357.328,430.576L357.328,432.115L407.878,459.059L407.878,457.263Z" style="fill:rgb(145,142,140);"/>
                    <path d="M459.962,440.84L428.663,457.263L428.663,459.059L459.962,442.636L459.962,440.84Z" style="fill:rgb(83,75,72);"/>
                    <path d="M428.663,459.059L428.663,457.263C426.862,458.289 425.069,458.802 423.268,459.059C420.193,459.828 417.11,459.828 414.036,459.315C411.983,459.059 409.931,458.289 407.878,457.263L407.878,459.059C409.931,460.085 411.983,460.598 414.287,461.112C417.11,461.368 420.444,461.368 423.527,460.855C425.32,460.342 427.122,459.828 428.663,459.059Z" style="fill:rgb(102,92,89);"/>
                    <path d="M456.627,439.043L425.58,455.723C421.475,457.776 415.058,457.776 411.212,455.723L360.662,428.779C356.557,426.726 356.557,423.39 360.662,421.338L391.969,404.658L388.626,403.118L357.328,419.541C351.681,422.621 351.681,427.496 357.328,430.576L407.878,457.263C413.776,460.342 423.017,460.342 428.663,457.263L459.962,440.84L456.627,439.043Z" style="fill:rgb(201,199,197);"/>
                    <path d="M489.476,309.713C497.175,305.608 512.565,295.346 505.385,288.928C498.197,273.279 474.338,280.207 465.097,282.771C451.241,286.365 415.569,294.575 401.972,307.921L377.853,285.845C375.289,297.398 370.413,312.797 372.977,325.363C374.518,333.322 375.8,335.634 382.988,339.48C387.855,342.043 393.762,344.615 397.096,345.126C403.002,346.148 409.16,345.637 415.058,343.074C431.997,335.634 479.465,314.849 489.476,309.713Z" style="fill:rgb(17,16,26);"/>
                    <path d="M455.086,311.255C460.481,308.432 491.269,302.525 494.603,296.887C495.374,295.597 493.841,293.033 493.07,291.752C478.694,291.752 446.365,299.451 426.862,306.63L455.086,311.255Z" style="fill:rgb(10,9,15);"/>
                    <path d="M516.419,315.1C524.118,310.995 524.118,300.733 517.96,293.804C514.106,289.959 507.178,287.906 497.946,289.439C483.57,291.752 435.843,309.454 422.246,318.435L393.762,291.752C390.938,303.045 390.428,323.31 392.991,335.885C394.533,343.585 396.074,345.897 403.513,350.002C408.389,352.566 414.287,354.878 417.63,355.389C423.268,356.671 429.425,355.9 435.591,353.336C452.522,345.897 506.407,320.236 516.419,315.1Z" style="fill:rgb(24,22,36);"/>
                    <path d="M439.948,308.943C433.279,312.026 426.862,315.36 422.246,318.435L393.762,291.752C390.938,303.045 390.428,323.31 392.991,335.885C394.533,343.585 396.074,345.897 403.513,350.002C408.389,352.566 414.287,354.878 417.63,355.389C423.268,356.671 429.425,355.9 435.591,353.336C444.572,349.231 487.935,329.477 500.51,322.799C506.156,318.435 512.054,306.119 511.283,306.379C491.269,321.007 460.992,329.728 449.699,335.115C448.677,332.04 448.928,314.589 439.948,308.943Z" style="fill:rgb(17,16,26);"/>
                    <path d="M508.46,289.188C520.783,290.981 528.734,305.868 518.471,314.589C518.731,309.973 518.211,305.349 517.441,302.525C516.419,297.398 513.336,292.774 508.46,289.188Z" style="fill:rgb(17,16,26);"/>
                    <path d="M507.698,303.556C515.137,300.473 511.283,292.774 506.667,291.752C496.656,289.439 459.451,303.556 445.854,308.943C450.21,312.277 452.522,320.236 453.293,325.363C464.067,321.518 496.405,308.432 507.698,303.556Z" style="fill:rgb(31,28,46);"/>
                    <path d="M453.553,221.697L446.876,218.623C446.876,222.468 445.854,226.313 444.312,229.907C441.229,236.584 435.843,243.253 429.425,246.587L435.591,249.922C443.282,245.565 447.906,240.941 451.241,233.241C452.271,230.418 453.804,224.78 453.553,221.697Z" style="fill:rgb(168,165,163);"/>
                    <path d="M445.854,146.256L446.876,218.623L453.033,221.957L452.522,149.85L452.522,142.661C450.47,143.943 448.158,144.974 445.854,146.256Z" style="fill:rgb(168,165,163);"/>
                    <path d="M333.46,296.887L335.512,298.169L339.877,299.962C406.588,265.32 369.132,285.083 435.591,249.922L429.425,246.587C362.965,281.74 400.179,261.726 333.46,296.887Z" style="fill:rgb(201,199,197);"/>
                    <path d="M339.877,299.962L333.46,296.887C329.611,298.94 323.965,299.451 319.859,297.398C328.071,302.785 332.176,304.327 339.877,299.962Z" style="fill:rgb(191,189,187);"/>
                    <path d="M318.32,292.263L311.648,288.417C311.648,294.575 313.701,298.94 317.55,300.992L324.735,304.838C320.886,302.785 318.32,298.42 318.32,292.263Z" style="fill:rgb(201,199,197);"/>
                    <path d="M311.391,218.103L311.648,288.417L318.32,292.263L319.089,215.028C316.267,216.05 313.701,217.332 311.391,218.103Z" style="fill:rgb(214,212,210);"/>
                    <path d="M321.399,213.998L321.655,290.47C321.655,300.992 329.867,305.349 339.877,299.962C406.337,264.809 369.132,285.083 435.591,249.922C441.749,246.336 447.395,239.919 450.47,232.99C452.271,229.396 453.033,225.551 453.033,221.957L452.011,149.339L452.011,142.921C453.033,142.41 454.064,141.891 455.086,141.12L456.116,220.155C456.116,232.219 446.876,247.098 435.591,253.005C369.132,288.158 406.337,268.403 339.877,303.556C328.071,309.713 318.32,304.578 318.32,292.263C318.32,266.861 317.55,241.2 317.293,215.799C318.577,215.028 320.117,214.509 321.399,213.998Z" style="fill:rgb(83,75,72);"/>
                    <path d="M706.557,355.129L699.889,352.314C699.889,356.16 698.867,360.005 697.325,363.599C694.242,370.276 688.855,376.945 682.438,380.279L688.596,383.362C696.295,379.257 700.919,374.632 704.254,366.933C705.275,364.119 706.817,358.472 706.557,355.129Z" style="fill:rgb(168,165,163);"/>
                    <path d="M698.867,279.947L699.889,352.314L706.046,355.649L705.795,283.542L705.535,276.353C703.483,277.635 701.17,278.666 698.867,279.947Z" style="fill:rgb(168,165,163);"/>
                    <path d="M586.472,430.576L588.525,431.858L592.89,433.654C659.601,398.761 622.136,418.771 688.596,383.362L682.438,380.279C615.978,415.435 653.192,395.418 586.472,430.576Z" style="fill:rgb(201,199,197);"/>
                    <path d="M592.89,433.654L586.472,430.576C582.619,432.628 576.981,433.142 572.867,431.088C581.086,436.478 585.191,438.017 592.89,433.654Z" style="fill:rgb(191,189,187);"/>
                    <path d="M571.334,425.956L564.657,422.107C564.657,428.266 566.709,432.628 570.563,434.681L577.743,438.53C573.898,436.478 571.585,432.115 571.334,425.956Z" style="fill:rgb(201,199,197);"/>
                    <path d="M564.406,351.795L564.657,422.107L571.334,425.956L572.105,348.72C569.533,349.742 566.969,350.773 564.406,351.795Z" style="fill:rgb(214,212,210);"/>
                    <path d="M574.409,347.69L574.668,424.16C574.668,434.681 582.878,439.043 592.89,433.654C659.35,398.501 622.136,418.515 688.596,383.362C695.013,380.028 700.4,373.61 703.483,366.682C705.275,363.088 706.046,359.243 706.046,355.649L705.275,283.031L705.024,276.613C706.046,276.102 707.077,275.583 708.099,274.812L709.129,353.847C709.38,365.911 699.889,380.79 688.596,386.696C622.136,421.851 659.35,401.836 592.89,437.247C581.086,443.406 571.585,438.274 571.334,425.956C571.334,400.552 570.563,374.892 570.304,349.491C571.845,348.72 573.127,348.201 574.409,347.69Z" style="fill:rgb(83,75,72);"/>
                    <path d="M445.594,116.23L436.613,120.854L427.632,125.73C376.06,153.184 346.545,169.093 294.969,196.547C292.916,197.578 286.758,201.172 284.192,202.964C282.139,204.506 281.626,207.069 281.626,209.382L281.626,211.434C281.626,215.028 283.422,218.103 285.988,219.385L303.694,228.885C357.579,257.37 411.212,285.845 465.097,314.329C517.441,341.792 487.424,325.363 539.767,353.076L544.132,355.389L562.093,364.63L571.074,360.005L589.036,350.262L598.277,345.386L607.257,340.51L616.489,335.634C634.711,325.883 652.932,316.131 671.405,306.379C689.626,296.887 685.521,298.68 703.743,288.928L712.723,284.312L721.704,279.436C722.215,279.177 722.475,279.177 722.726,278.917C722.726,278.666 722.986,278.666 722.986,278.666C724.779,277.124 725.038,276.102 725.809,274.05C726.32,272.248 726.06,271.226 726.06,269.425L726.06,267.883C726.06,267.632 726.06,267.372 725.809,267.121C725.809,266.861 725.809,266.602 725.809,266.602C725.549,266.35 725.549,266.091 725.549,265.831C725.549,265.58 725.29,265.58 725.29,265.32C725.29,265.06 725.038,264.809 725.038,264.809C724.779,264.549 724.779,264.298 724.779,264.298C724.527,264.038 724.527,264.038 724.527,263.778C724.268,263.778 724.268,263.527 724.008,263.527C724.008,263.267 724.008,263.267 723.757,263.008L723.497,262.756L723.237,262.497L722.986,262.245L722.726,262.245L722.726,261.986C722.475,261.986 722.475,261.986 722.475,261.726C721.955,261.475 721.185,261.215 720.674,260.955L703.994,251.974L686.032,242.742C616.749,205.788 684.239,241.971 714.776,258.391L696.814,248.9L678.844,239.408C642.921,220.415 606.998,201.423 571.074,182.439L553.113,172.939L535.151,163.447L517.189,153.955L499.228,144.463L481.517,134.962L445.594,116.23Z" style="fill:rgb(71,26,11);"/>
                    <path d="M445.594,117L445.594,116.749L445.594,116.49L445.594,116.23L436.613,121.106L427.632,125.73C376.06,153.444 346.545,169.353 294.969,196.807L285.988,201.423C285.988,201.423 286.244,201.423 286.501,201.423C286.501,201.172 286.758,201.172 286.758,201.172L287.014,201.172L287.271,200.912L288.554,200.912L288.81,200.652L445.594,117Z" style="fill:rgb(71,26,11);"/>
                    <path d="M703.994,252.234L686.032,242.742C616.749,206.048 683.98,241.971 714.516,258.651L696.814,249.151L678.844,239.659C642.921,220.675 606.998,201.423 571.074,182.439L553.113,172.939L535.151,163.447L517.189,153.955L499.228,144.463L481.266,135.222L445.594,116.23L445.594,117L718.881,260.704C719.903,260.704 720.933,261.215 721.704,261.475L703.994,252.234Z" style="fill:rgb(56,20,8);"/>
                    <path d="M281.626,211.694C281.626,215.028 283.422,218.103 285.731,219.385C397.867,278.666 427.633,293.804 539.767,353.076L544.132,355.389L562.093,364.881C562.093,364.881 562.093,362.828 562.093,359.243L303.18,222.208L281.626,211.694Z" style="fill:rgb(15,5,2);"/>
                    <path d="M562.093,359.243L562.093,364.881C619.572,334.093 654.985,315.1 712.723,284.312L721.704,279.436C724.527,277.895 726.06,274.561 726.06,271.737C663.965,304.838 624.188,326.134 562.093,359.243Z" style="fill:rgb(23,8,3);"/>
                    <path d="M562.093,357.19L562.093,359.243L726.06,271.737L726.06,269.425L713.745,273.79L562.093,357.19Z" style="fill:rgb(36,12,4);"/>
                    <path d="M281.626,209.382L281.626,211.694L562.093,359.243L562.093,357.19L304.464,220.155L281.626,209.382Z" style="fill:rgb(28,9,3);"/>
                    <path d="M724.779,264.298L704.254,271.477L562.093,351.024L562.093,357.19L726.06,269.425C726.32,267.632 725.549,265.831 724.779,264.298Z" style="fill:rgb(43,15,6);"/>
                    <path d="M283.165,203.995C282.139,205.528 281.626,207.58 281.626,209.382L562.093,357.19L562.093,350.773L291.89,206.818L283.165,203.995Z" style="fill:rgb(36,12,4);"/>
                    <path d="M562.093,348.971C562.093,348.72 562.093,348.46 562.093,348.201C562.093,348.201 562.093,347.949 562.093,347.69L562.093,347.439C562.093,347.179 562.093,346.919 562.093,346.919L562.093,346.668C562.093,346.408 562.093,346.408 562.093,346.148L562.093,345.897L562.093,345.637L562.093,345.386C562.093,345.126 562.093,344.866 562.093,344.615L316.011,212.205L288.81,200.652C288.554,200.652 288.041,200.912 287.784,200.912C287.528,200.912 287.528,200.912 287.271,200.912C287.014,200.912 287.014,201.172 287.014,201.172C286.758,201.172 286.758,201.172 286.501,201.172L286.244,201.423L285.988,201.423C285.731,201.683 285.731,201.683 285.475,201.683C285.475,201.942 285.218,201.942 285.218,201.942C284.961,202.194 284.961,202.194 284.705,202.194C284.705,202.453 284.448,202.453 284.192,202.705C284.192,202.964 283.935,202.964 283.935,203.224C283.678,203.475 283.422,203.735 283.165,203.995L562.093,350.773L562.093,348.971Z" style="fill:rgb(71,26,11);"/>
                    <path d="M562.093,350.002L562.093,351.024L724.779,264.298C723.497,262.245 721.185,260.704 718.881,260.704L698.347,268.654L562.093,344.615L562.093,350.002Z" style="fill:rgb(56,20,8);"/>
                    <path d="M445.594,117C387.344,148.308 347.316,169.604 288.81,200.652C406.077,262.756 444.823,282.511 562.093,344.615C620.343,313.308 660.371,292.011 718.881,260.704C601.611,198.859 562.864,179.105 445.594,117Z" style="fill:rgb(43,15,6);"/>
                    <path d="M361.433,228.625C424.298,196.036 663.965,244.535 560.812,335.374L361.433,228.625Z" style="fill:rgb(1,1,1);"/>
                    <path d="M544.643,231.449L459.962,186.284L459.962,186.544C459.962,187.055 460.221,187.315 460.221,187.315L460.481,187.566L545.154,232.99C545.154,232.73 544.903,231.96 544.643,231.449Z" style="fill:rgb(217,208,208);"/>
                    <path d="M547.466,229.396L462.785,184.232C462.274,183.981 461.503,184.232 460.992,184.492L545.673,229.907C546.184,229.656 546.955,229.396 547.466,229.396Z" style="fill:rgb(247,244,244);"/>
                    <path d="M514.626,249.151C514.626,248.9 514.877,248.389 515.137,248.129L469.462,214.769L430.456,202.964C430.196,202.964 429.945,203.475 429.945,203.735C429.945,203.995 429.945,203.995 430.196,203.995L514.877,249.411C514.626,249.411 514.626,249.151 514.626,249.151Z" style="fill:rgb(237,232,232);"/>
                    <path d="M460.992,184.492C460.992,184.492 460.732,184.492 460.732,184.743L490.247,201.423L545.414,229.907L545.673,229.907L491.269,200.141L460.992,184.492Z" style="fill:rgb(247,244,244);"/>
                    <path d="M515.137,248.129L430.456,202.964L460.732,184.743L545.414,229.907L515.137,248.129Z" style="fill:rgb(242,237,237);"/>
                    <path d="M547.726,230.418C547.726,229.396 547.206,229.136 545.673,229.907L545.414,229.907L515.137,248.129C514.877,248.389 514.626,248.9 514.626,249.151C514.626,249.411 514.877,249.411 515.137,249.411L544.643,231.449C544.643,231.709 544.643,231.96 544.643,231.96C544.643,232.99 545.414,233.241 546.184,232.73C547.466,232.219 547.726,231.189 547.726,230.418Z" style="fill:rgb(226,217,217);"/>
                    <path d="M516.419,207.069L506.407,200.401L493.321,195.014C493.07,195.265 492.551,195.776 492.551,196.296C492.551,196.547 492.81,196.547 492.81,196.807L515.908,208.871C515.648,208.871 516.159,207.329 516.419,207.069Z" style="fill:rgb(227,220,220);"/>
                    <path d="M515.137,183.461L493.321,195.014L516.678,207.329L538.225,195.776L524.889,188.337L515.137,183.461Z" style="fill:rgb(237,232,232);"/>
                    <path d="M543.621,177.303L533.61,171.406L520.524,165.248C521.294,168.322 522.316,171.657 521.805,174.991L532.588,181.157L544.903,187.055C545.154,183.981 544.392,180.638 543.621,177.303Z" style="fill:rgb(227,220,220);"/>
                    <path d="M535.662,147.537L512.565,135.222C513.336,135.733 513.855,137.015 514.366,139.067L534.64,150.101L537.463,151.131C536.944,149.079 536.433,147.797 535.662,147.537Z" style="fill:rgb(227,220,220);"/>
                    <path d="M521.805,174.991C521.294,178.845 518.982,181.408 515.137,183.461L538.225,195.776C542.339,193.983 544.903,191.42 544.903,187.055L521.805,174.991Z" style="fill:rgb(217,208,208);"/>
                    <path d="M537.463,151.131L514.366,139.067L520.524,165.248L543.621,177.303L537.463,151.131Z" style="fill:rgb(237,232,232);"/>
                    <path d="M536.693,145.485L513.595,133.421C512.565,132.659 510.772,133.421 509.75,133.94C508.72,134.192 507.949,134.711 507.178,134.962L530.015,147.278C531.297,146.767 535.151,144.714 536.693,145.485Z" style="fill:rgb(237,232,232);"/>
                    <path d="M545.673,178.845L545.154,176.281L538.996,149.85C537.463,144.463 536.173,144.203 530.015,147.278C529.504,147.537 529.245,148.048 529.245,148.568C529.245,149.079 529.504,149.339 530.015,149.079C535.662,146.256 536.173,146.767 537.463,151.131L543.621,177.303L544.132,179.867C544.903,183.21 545.673,187.055 543.621,190.649C542.59,192.702 540.798,194.243 538.225,195.776L516.419,207.069C515.908,207.329 515.648,208.1 515.648,208.611C515.648,208.871 515.648,209.122 515.908,209.122L516.159,209.122L516.419,208.871L538.225,197.318C541.309,195.776 543.621,193.473 544.903,190.909C547.206,186.795 546.695,182.179 545.673,178.845Z" style="fill:rgb(226,217,217);"/>
                    <path d="M530.015,147.278L507.178,134.962C506.667,135.222 506.407,135.993 506.156,136.244C506.156,136.504 506.407,136.764 506.407,136.764L529.504,149.079C528.994,148.819 529.504,147.537 530.015,147.278Z" style="fill:rgb(226,217,217);"/>
                    <path d="M489.727,73.637C485.622,71.836 481.517,70.043 477.412,68.251C477.161,67.991 476.901,68.251 476.642,68.251L488.446,73.637L488.705,73.637C488.965,73.637 489.216,73.378 489.727,73.637Z" style="fill:rgb(252,250,250);"/>
                    <path d="M486.913,158.571C487.424,131.117 487.164,103.914 486.653,76.972C486.653,76.712 486.653,76.461 486.653,76.201L475.62,69.784C475.62,70.043 475.62,70.043 475.62,70.303C476.131,97.246 476.131,124.44 475.871,151.902C475.871,152.413 476.131,152.673 476.131,152.924L487.424,159.853C487.164,159.853 486.913,159.342 486.913,158.571Z" style="fill:rgb(242,237,237);"/>
                    <path d="M476.642,68.251C476.131,68.502 475.871,69.273 475.62,69.784L486.653,76.461C486.913,75.43 487.675,74.148 488.446,73.637L476.642,68.251Z" style="fill:rgb(247,244,244);"/>
                    <path d="M554.905,108.279L489.727,73.637L489.476,73.637L489.216,73.637L488.965,73.637L488.705,73.637L488.446,73.637L553.883,108.279C554.135,108.02 554.654,108.02 554.905,108.279Z" style="fill:rgb(252,250,250);"/>
                    <path d="M552.082,193.213C552.602,165.759 552.602,138.556 551.831,111.614C551.831,111.354 552.082,111.354 552.082,111.103L486.653,76.461C486.653,76.712 486.393,76.972 486.393,77.232C486.913,104.174 487.164,130.857 486.653,158.32C486.653,159.082 487.164,159.853 487.424,159.853L552.853,194.494C552.342,194.243 552.082,193.983 552.082,193.213Z" style="fill:rgb(242,237,237);"/>
                    <path d="M488.446,73.637C487.424,74.408 486.913,75.43 486.653,76.461L552.082,111.103C552.082,110.072 552.853,109.05 553.883,108.279L488.446,73.637Z" style="fill:rgb(252,250,250);"/>
                    <path d="M566.198,115.459C562.604,112.895 558.759,110.583 555.165,108.279C554.654,108.02 554.135,108.02 553.883,108.279L565.688,115.459C565.688,115.459 566.198,115.208 566.198,115.459Z" style="fill:rgb(252,250,250);"/>
                    <path d="M564.657,199.119C565.688,196.036 565.939,193.473 565.939,190.389C566.198,166.01 564.917,141.64 564.406,117.511C564.406,117.511 564.406,117.26 564.657,117.26L552.082,111.103C551.831,111.354 551.831,111.873 551.831,112.125C552.342,138.816 552.342,165.759 552.082,193.213C552.082,193.983 552.602,194.494 552.853,194.494L565.177,200.141C564.917,199.89 564.657,199.63 564.657,199.119Z" style="fill:rgb(242,237,237);"/>
                    <path d="M553.883,108.279C552.853,108.79 552.082,110.072 552.082,111.103L564.657,117.26C564.657,116.49 564.917,115.719 565.688,115.459L553.883,108.279Z" style="fill:rgb(247,244,244);"/>
                    <path d="M566.709,116.49C566.709,115.208 566.198,115.208 565.688,115.459C565.177,115.719 564.406,116.49 564.406,117.511C565.177,144.463 565.177,171.657 564.657,199.119C564.657,200.141 565.428,200.141 565.939,199.89C566.458,199.63 566.969,199.119 566.969,197.837L569.022,155.747C568.251,142.661 567.229,129.575 566.709,116.49Z" style="fill:rgb(226,217,217);"/>
                    <path d="M561.323,118.542L478.954,74.408L479.214,141.891L561.583,185.773L561.323,118.542Z" style="fill:white;"/>
                    <path d="M646.775,232.22C639.587,228.114 632.407,224.261 625.219,220.155C618.031,216.31 610.851,212.205 603.663,208.1C594.172,213.227 584.671,218.363 575.179,223.49C565.688,228.366 556.196,233.501 546.955,238.377C554.394,242.482 561.583,246.336 569.022,250.181C576.21,254.027 583.649,257.88 590.837,261.726C600.069,256.85 609.31,251.974 618.55,247.098C628.042,241.971 637.274,237.095 646.775,232.22Z" style="fill:white;"/>
                    <path d="M592.89,243.253C589.296,245.046 589.036,248.129 592.63,249.922C595.964,251.974 602.633,251.203 605.205,249.922C608.028,248.389 608.028,247.618 608.279,246.336C606.998,246.336 605.976,246.336 604.945,246.336C604.945,247.098 604.945,247.618 603.152,248.64C601.351,249.67 596.995,249.922 594.942,248.9C592.63,247.618 592.89,245.565 595.193,244.275C594.423,244.024 593.652,243.513 592.89,243.253Z" style="fill:rgb(3,169,245);"/>
                    <path d="M599.558,241.711C597.246,241.711 594.682,242.222 592.89,243.253C593.652,243.513 594.423,244.024 595.193,244.275C596.475,243.764 597.766,243.513 599.298,243.513C599.298,242.742 599.558,242.222 599.558,241.711Z" style="fill:rgb(235,31,100);"/>
                    <path d="M605.716,242.993C604.174,242.222 601.871,241.711 599.558,241.711C599.558,242.222 599.298,242.742 599.298,243.513C600.84,243.513 602.382,243.764 603.403,244.275C604.434,244.795 604.945,245.565 604.945,246.336C605.976,246.336 606.998,246.336 608.279,246.336C608.279,245.046 607.508,244.024 605.716,242.993Z" style="fill:rgb(255,190,0);"/>
                    <path d="M586.983,231.189C590.318,232.99 596.224,232.99 599.818,230.938C603.663,228.885 603.663,225.802 600.329,224.009C595.964,226.313 591.348,228.885 586.983,231.189Z" style="fill:rgb(3,169,245);"/>
                    <path d="M593.912,222.728C591.599,222.728 590.066,222.728 587.494,224.261C584.671,225.551 583.649,229.136 586.983,231.189C589.296,229.907 591.348,228.885 593.652,227.603C593.652,226.062 593.912,224.261 593.912,222.728Z" style="fill:rgb(235,31,100);"/>
                    <path d="M600.84,223.49C599.298,222.468 596.995,221.957 594.423,221.957C594.423,223.75 594.423,225.291 594.172,226.833C596.475,225.802 598.787,224.52 600.84,223.49Z" style="fill:rgb(255,190,0);"/>
                    <path d="M642.67,232.219C636.252,228.625 629.835,225.031 623.166,221.437C616.489,217.852 610.081,213.998 603.403,210.404C602.633,210.923 601.871,211.175 601.1,211.694C607.768,215.28 614.437,218.874 620.854,222.468C627.531,226.313 633.94,229.907 640.617,233.501C641.128,232.99 641.899,232.73 642.67,232.219Z" style="fill:rgb(235,232,232);"/>
                    <path d="M630.866,238.377C624.448,234.783 618.031,231.189 611.362,227.603C604.694,224.009 598.277,220.415 591.599,216.821C592.63,216.05 593.912,215.539 595.193,214.769C601.871,218.623 608.279,222.208 614.956,225.802C621.625,229.396 628.042,232.99 634.46,236.584C633.429,237.095 632.147,237.866 630.866,238.377Z" style="fill:rgb(235,232,232);"/>
                    <path d="M629.835,239.148C626.761,237.606 623.937,235.814 621.114,234.272C618.031,232.73 615.208,231.189 612.133,229.396C611.622,229.907 610.851,230.167 610.332,230.418C613.155,232.219 616.238,233.761 619.061,235.294C621.885,236.836 624.959,238.637 627.782,240.17C628.293,239.659 629.064,239.408 629.835,239.148Z" style="fill:rgb(235,232,232);"/>
                    <path d="M615.467,246.587C612.644,245.046 609.561,243.513 606.746,241.971C603.923,240.17 600.84,238.637 598.017,237.095C601.611,235.043 605.456,232.99 609.05,231.189C612.133,232.73 614.956,234.272 618.031,235.814C620.854,237.606 623.677,239.148 626.761,240.689C622.907,242.742 619.313,244.535 615.467,246.587Z" style="fill:rgb(235,232,232);"/>
                    <path d="M592.119,235.554C589.296,234.012 586.213,232.479 583.389,230.938C580.315,229.136 577.232,227.603 574.409,226.062C573.638,226.313 573.127,226.573 572.356,226.833C575.439,228.625 578.514,230.167 581.337,231.709C584.42,233.501 587.494,235.043 590.318,236.584C591.088,236.325 591.599,236.065 592.119,235.554Z" style="fill:rgb(235,232,232);"/>
                    <path d="M578.773,242.742C575.95,241.2 572.867,239.659 569.793,237.866C566.969,236.325 563.886,234.783 560.812,233.241C564.406,231.189 567.991,229.396 571.334,227.603C574.409,229.136 577.492,230.678 580.315,232.479C583.389,234.012 586.472,235.554 589.296,237.095C585.961,239.148 582.367,240.941 578.773,242.742Z" style="fill:rgb(235,232,232);"/>
                    <path d="M596.995,256.339C590.318,253.005 583.909,249.411 577.232,245.816C570.563,242.222 563.886,238.637 557.218,235.043C557.729,234.783 558.499,234.532 559.27,234.012C565.939,237.606 572.616,241.2 579.284,244.795C585.961,248.389 592.37,251.974 599.047,255.317C598.277,255.828 597.506,256.079 596.995,256.339Z" style="fill:rgb(235,232,232);"/>
                    <path d="M591.348,259.422C584.931,255.828 578.262,252.494 571.585,248.9C564.917,245.305 558.248,241.711 551.571,238.117C552.853,237.346 554.135,236.836 555.425,236.065C562.353,239.659 569.022,243.253 575.69,246.847C582.108,250.181 588.776,253.775 595.453,257.37C593.912,257.88 592.63,258.651 591.348,259.422Z" style="fill:rgb(235,232,232);"/>
                    <path d="M635.992,235.814C629.584,232.219 622.907,228.625 616.489,225.031C609.821,221.437 603.152,217.852 596.475,213.998C597.506,213.487 598.528,212.976 599.558,212.456C605.976,216.31 612.644,219.904 619.313,223.49C625.73,227.084 632.407,230.678 638.816,234.272C637.794,234.783 637.023,235.294 635.992,235.814Z" style="fill:rgb(235,232,232);"/>
                    <path d="M554.394,155.236C552.602,154.206 550.549,153.184 548.748,152.153C548.748,158.571 548.748,164.988 548.748,171.657C550.549,172.687 552.602,173.709 554.394,174.74C554.394,168.063 554.394,161.654 554.394,155.236Z" style="fill:rgb(3,169,245);"/>
                    <path d="M546.444,144.974C544.392,143.943 542.59,142.921 540.798,141.891L540.798,167.301C542.59,168.322 544.643,169.353 546.444,170.375L546.444,144.974Z" style="fill:rgb(3,169,245);"/>
                    <path d="M538.485,150.101C536.433,149.079 534.64,148.048 532.588,147.026C532.839,152.413 532.839,157.549 532.839,162.936C534.64,163.958 536.433,164.988 538.485,166.01C538.485,160.623 538.485,155.496 538.485,150.101Z" style="fill:rgb(3,169,245);"/>
                    <path d="M530.275,151.902C528.483,150.872 526.681,149.85 524.629,148.819C524.629,152.153 524.629,155.236 524.629,158.571C526.681,159.601 528.483,160.623 530.275,161.654C530.275,158.32 530.275,155.236 530.275,151.902Z" style="fill:rgb(3,169,245);"/>
                    <path d="M554.394,155.236C552.602,154.206 550.549,153.184 548.748,152.153C548.748,150.361 548.748,148.568 548.748,146.767C550.549,147.797 552.602,148.819 554.394,149.85C554.394,151.642 554.394,153.444 554.394,155.236Z" style="fill:rgb(255,190,0);"/>
                    <path d="M554.394,147.797C552.602,146.767 550.549,145.745 548.748,144.714C548.748,145.485 548.748,146.256 548.748,146.767C550.549,147.797 552.602,148.819 554.394,149.85C554.394,149.339 554.394,148.568 554.394,147.797Z" style="fill:rgb(235,31,100);"/>
                    <path d="M546.444,144.974C544.392,143.943 542.59,142.921 540.798,141.891C540.798,139.838 540.798,137.786 540.798,135.482C542.59,136.504 544.392,137.534 546.444,138.556C546.444,140.869 546.444,142.921 546.444,144.974Z" style="fill:rgb(255,190,0);"/>
                    <path d="M538.485,150.101C536.433,149.079 534.64,148.048 532.588,147.026C532.588,145.485 532.588,143.943 532.588,142.151C534.64,143.172 536.433,144.203 538.225,145.225C538.225,147.026 538.225,148.568 538.485,150.101Z" style="fill:rgb(255,190,0);"/>
                    <path d="M546.444,136.764C544.392,135.733 542.59,134.711 540.798,133.681C540.798,134.451 540.798,134.962 540.798,135.482C542.59,136.504 544.392,137.534 546.444,138.556C546.444,138.045 546.444,137.534 546.444,136.764Z" style="fill:rgb(235,31,100);"/>
                    <path d="M538.225,142.921C536.433,141.891 534.64,140.869 532.588,139.838C532.588,140.609 532.588,141.38 532.588,142.151C534.64,143.172 536.433,144.203 538.225,145.225C538.225,144.463 538.225,143.692 538.225,142.921Z" style="fill:rgb(235,31,100);"/>
                    <path d="M530.275,151.902C528.483,150.872 526.681,149.85 524.629,148.819C524.629,146.767 524.629,144.714 524.629,142.41C526.681,143.432 528.483,144.463 530.275,145.485C530.275,147.797 530.275,149.85 530.275,151.902Z" style="fill:rgb(255,190,0);"/>
                    <path d="M530.275,141.38C528.483,140.349 526.681,139.327 524.629,138.297C524.629,139.587 524.629,141.12 524.629,142.41C526.681,143.432 528.483,144.463 530.275,145.485C530.275,144.203 530.275,142.661 530.275,141.38Z" style="fill:rgb(235,31,100);"/>
                    <path d="M523.087,138.045C521.035,137.015 519.242,135.993 517.441,135.222C517.441,141.64 517.441,148.048 517.441,154.466C519.242,155.496 521.294,156.518 523.087,157.549C523.087,151.131 523.087,144.714 523.087,138.045Z" style="fill:rgb(3,169,245);"/>
                    <path d="M514.877,128.034C513.084,127.012 511.283,125.981 509.231,124.959C509.231,129.065 509.231,133.421 509.231,137.534C509.231,141.891 509.49,145.996 509.49,150.361C511.283,151.391 513.084,152.153 515.137,153.184C515.137,149.079 515.137,144.974 514.877,140.609C514.877,136.504 514.877,132.139 514.877,128.034Z" style="fill:rgb(3,169,245);"/>
                    <path d="M506.927,133.17C505.126,132.139 503.333,131.117 501.28,130.086C501.28,135.222 501.28,140.609 501.28,145.996C503.333,147.026 505.126,148.048 506.927,149.079C506.927,143.692 506.927,138.297 506.927,133.17Z" style="fill:rgb(3,169,245);"/>
                    <path d="M498.968,134.962C497.175,133.94 495.123,132.91 493.321,131.888C493.321,135.222 493.321,138.297 493.321,141.64C495.374,142.661 497.175,143.692 498.968,144.714C498.968,141.38 498.968,138.297 498.968,134.962Z" style="fill:rgb(3,169,245);"/>
                    <path d="M523.087,138.045C521.035,137.015 519.242,135.993 517.441,135.222C517.441,133.421 517.441,131.628 517.441,129.835C519.242,130.857 521.035,131.888 523.087,132.91C523.087,134.711 523.087,136.504 523.087,138.045Z" style="fill:rgb(255,190,0);"/>
                    <path d="M523.087,130.606C521.035,129.575 519.242,128.554 517.189,127.523C517.189,128.294 517.189,129.065 517.441,129.835C519.242,130.857 521.035,131.888 523.087,132.91C523.087,132.139 523.087,131.368 523.087,130.606Z" style="fill:rgb(235,31,100);"/>
                    <path d="M514.877,128.034C513.084,127.012 511.283,125.981 509.231,124.959C509.231,122.907 509.231,120.854 509.231,118.542C511.283,119.564 513.084,120.595 514.877,121.625C514.877,123.678 514.877,125.981 514.877,128.034Z" style="fill:rgb(255,190,0);"/>
                    <path d="M506.927,133.17C505.126,132.139 503.333,131.117 501.28,130.086C501.28,128.554 501.28,127.012 501.28,125.211C503.073,126.241 505.126,127.263 506.927,128.294C506.927,129.835 506.927,131.628 506.927,133.17Z" style="fill:rgb(255,190,0);"/>
                    <path d="M514.877,119.824C513.084,118.802 511.283,117.771 509.231,116.749C509.231,117.26 509.231,118.031 509.231,118.542C511.283,119.564 513.084,120.595 514.877,121.625C514.877,121.106 514.877,120.335 514.877,119.824Z" style="fill:rgb(235,31,100);"/>
                    <path d="M506.927,125.981C505.126,124.959 503.073,123.929 501.28,122.907C501.28,123.678 501.28,124.44 501.28,125.211C503.073,126.241 505.126,127.263 506.927,128.294C506.927,127.523 506.927,126.752 506.927,125.981Z" style="fill:rgb(235,31,100);"/>
                    <path d="M498.968,134.962C497.175,133.94 495.123,132.91 493.321,131.888C493.321,129.835 493.321,127.783 493.321,125.47C495.123,126.492 497.175,127.523 498.968,128.554C498.968,130.606 498.968,132.91 498.968,134.962Z" style="fill:rgb(255,190,0);"/>
                    <path d="M498.968,124.44C497.175,123.418 495.123,122.387 493.321,121.365C493.321,122.647 493.321,124.189 493.321,125.47C495.123,126.492 497.175,127.523 498.968,128.554C498.968,127.263 498.968,125.73 498.968,124.44Z" style="fill:rgb(235,31,100);"/>
                    <path d="M490.758,114.948C488.965,113.926 487.164,112.895 485.111,111.873C485.111,116.23 485.111,120.335 485.371,124.44C485.371,128.805 485.371,132.91 485.371,137.275C487.164,138.297 488.965,139.327 491.018,140.349C491.018,135.993 491.018,131.888 491.018,127.523C490.758,123.418 490.758,119.053 490.758,114.948Z" style="fill:rgb(3,169,245);"/>
                    <path d="M490.758,114.948C488.965,113.926 487.164,112.895 485.111,111.873C485.111,109.821 485.111,107.768 485.111,105.456C487.164,106.478 488.965,107.509 490.758,108.531C490.758,110.843 490.758,112.895 490.758,114.948Z" style="fill:rgb(255,190,0);"/>
                    <path d="M490.758,106.738C488.965,105.707 487.164,104.685 485.111,103.655C485.111,104.425 485.111,104.945 485.111,105.456C487.164,106.478 488.965,107.509 490.758,108.531C490.758,108.02 490.758,107.249 490.758,106.738Z" style="fill:rgb(235,31,100);"/>
                    <path d="M380.676,192.962C397.607,202.453 378.112,240.17 388.115,254.027C380.416,256.079 365.278,257.621 362.455,254.027C360.913,252.234 360.402,251.203 360.142,248.129C359.631,242.482 360.913,234.012 361.433,229.907C363.225,216.821 361.433,195.265 380.676,192.962Z" style="fill:rgb(31,28,46);"/>
                    <path d="M380.676,192.962C397.607,202.453 378.112,240.17 388.115,254.027C383.239,255.568 375.029,256.599 369.132,256.079C368.101,248.389 364.256,231.96 363.996,229.907C363.485,226.573 362.965,223.49 362.455,220.155C363.485,208.1 365.789,194.754 380.676,192.962Z" style="fill:rgb(31,28,46);"/>
                    <path d="M378.112,193.472C370.924,196.296 366.819,200.912 365.278,207.58C360.913,226.833 375.289,253.005 376.571,274.05C377.342,287.906 367.841,312.537 372.977,335.885C375.029,341.021 384.27,345.386 389.397,348.46C389.917,348.72 391.969,349.491 392.48,349.742C391.709,345.126 391.449,342.814 391.709,339.22C392.22,343.074 394.022,347.439 395.554,350.773C403.773,355.129 418.392,358.983 430.456,357.701C433.019,357.19 444.053,324.341 444.053,324.081C440.467,313.819 433.79,300.222 434.05,290.21C434.561,264.549 447.647,243.253 444.823,230.167C443.542,224.78 439.696,220.155 435.332,217.081C424.038,208.611 390.938,188.597 378.112,193.472Z" style="fill:rgb(24,22,36);"/>
                    <path d="M430.716,353.076C438.415,348.201 449.188,327.675 442.26,314.078C440.207,310.224 434.821,295.857 435.072,286.105C435.843,260.444 447.647,243.253 444.572,230.167C443.542,224.78 439.696,220.155 435.332,217.081C430.716,213.747 422.497,208.871 413.265,204.506L413.516,207.329C420.704,211.434 423.268,213.747 429.174,219.385C410.953,235.043 421.215,274.05 423.787,292.011C424.558,297.909 429.174,326.653 430.716,353.076Z" style="fill:rgb(24,22,36);"/>
                    <path d="M428.663,194.494C426.611,195.265 416.088,193.983 416.339,195.014C416.599,200.141 418.652,202.964 418.652,212.205C406.337,220.155 389.657,211.175 390.679,205.277C390.679,201.423 392.731,190.649 390.679,187.566C388.115,183.981 383.239,179.867 381.447,174.48C378.623,165.759 379.645,156.267 388.626,149.85C404.795,138.045 425.32,146.256 430.456,163.447C431.486,166.781 428.663,168.833 428.663,171.657C428.914,172.176 429.685,172.687 430.196,173.969C431.227,175.762 431.227,193.213 428.663,194.494Z" style="fill:rgb(232,164,118);"/>
                    <path d="M428.403,194.243C426.351,195.265 416.088,193.983 416.339,195.014C416.599,200.141 418.652,202.964 418.652,212.205C411.464,202.705 408.389,197.318 391.709,192.191C391.449,190.138 391.198,188.597 390.679,187.566C388.115,183.981 383.239,179.867 381.447,174.48C378.623,165.759 379.645,156.267 388.626,149.85C404.795,138.045 425.32,146.256 430.456,163.447C431.486,166.781 428.663,168.833 428.663,171.657C428.914,172.176 429.685,172.687 430.196,173.969C431.227,175.762 430.967,193.213 428.403,194.243Z" style="fill:rgb(219,150,105);"/>
                    <path d="M428.143,194.494C427.122,195.014 422.497,194.754 419.163,193.473C417.11,192.702 415.569,191.16 415.317,190.909C414.036,190.389 410.953,186.544 415.569,180.127C420.193,173.969 392.22,189.619 390.679,187.566C388.115,183.981 383.239,179.867 381.447,174.48C378.623,165.759 379.645,156.267 388.626,149.85C404.795,138.045 425.32,146.256 430.456,163.447C431.486,166.781 428.663,168.833 428.663,171.657C428.914,172.176 429.685,172.687 430.196,173.969C431.227,175.762 430.716,193.213 428.143,194.494Z" style="fill:rgb(232,164,118);"/>
                    <path d="M428.663,194.494C428.143,194.494 425.58,194.494 424.558,194.243C423.017,192.702 421.475,189.878 421.475,188.337C421.735,182.69 424.809,178.074 424.809,175.762C424.809,170.886 423.017,173.458 425.069,168.063C426.611,163.958 424.558,163.447 423.787,160.112C425.84,159.342 426.862,157.8 427.373,156.778C428.663,158.831 429.685,161.134 430.456,163.447C431.486,166.781 428.663,168.833 428.663,171.657C428.914,172.176 429.685,172.687 430.196,173.969C431.227,175.762 430.967,192.962 428.663,194.494Z" style="fill:rgb(241,178,135);"/>
                    <path d="M416.599,180.127C410.953,175.251 405.306,190.909 414.547,190.909C410.953,187.315 413.776,181.668 416.599,180.127Z" style="fill:rgb(219,150,105);"/>
                    <path d="M416.599,182.439C417.37,180.387 416.599,179.616 415.569,179.867C414.547,180.127 412.754,181.668 411.983,183.981C410.701,187.566 412.494,192.191 416.339,190.389C413.265,190.649 413.516,186.795 414.547,184.492C415.058,182.95 416.088,181.919 416.599,182.439Z" style="fill:rgb(241,178,135);"/>
                    <path d="M415.058,183.461C416.088,185.003 416.339,186.033 416.088,186.544C415.828,187.055 415.058,187.315 414.036,186.544C414.036,185.514 414.547,184.492 415.058,183.461Z" style="fill:rgb(219,150,105);"/>
                    <path d="M391.198,189.619C388.375,184.492 383.75,181.408 381.447,174.48C378.623,165.759 379.645,156.267 388.626,149.85C401.201,140.609 416.599,143.692 425.32,153.955C425.84,154.466 420.964,156.518 422.497,159.853C424.809,165.499 424.809,167.812 423.787,169.093C420.193,173.709 420.193,174.48 420.444,181.668L418.392,183.21C417.37,177.563 414.806,177.814 411.983,179.867C407.359,183.21 405.566,190.649 397.867,191.931C395.044,192.442 392.731,191.42 391.198,189.619Z" style="fill:rgb(54,29,7);"/>
                    <path d="M420.193,179.867C420.964,183.461 421.215,185.773 422.757,187.566C423.527,188.086 425.069,188.337 426.611,188.597C426.862,187.055 427.122,186.033 427.632,184.743C428.143,182.95 429.174,181.408 430.967,180.638C430.967,180.897 430.967,182.69 430.716,182.95C429.945,183.461 429.685,184.232 429.425,185.514C429.174,186.544 428.914,187.566 428.914,189.108C429.425,189.108 429.685,189.108 429.945,189.108C430.196,189.108 430.196,188.086 430.456,188.086C430.716,191.16 430.716,195.014 429.945,195.265C428.914,195.525 423.527,194.494 420.964,193.473C417.881,192.442 418.912,191.931 418.652,188.848C418.392,186.284 418.392,183.21 417.881,180.638L420.193,179.867Z" style="fill:rgb(54,29,7);"/>
                    <path d="M421.735,186.033C421.986,186.544 422.497,187.055 422.757,187.566C423.527,188.086 425.069,188.337 426.611,188.597C426.862,187.055 427.122,186.033 427.632,184.743C428.143,182.95 429.174,181.408 430.967,180.638C430.967,180.897 430.967,182.69 430.716,182.95C429.945,183.461 429.685,184.232 429.425,185.514C429.174,186.544 428.914,187.566 428.914,189.108C429.425,189.108 429.685,189.108 429.945,189.108C430.196,189.108 430.196,188.086 430.456,188.086C430.716,191.16 430.716,195.014 429.945,195.265C429.174,195.525 426.091,195.014 423.268,194.243C422.246,192.191 421.475,189.367 421.475,188.337C421.735,187.566 421.735,186.795 421.735,186.033Z" style="fill:rgb(79,43,12);"/>
                    <path d="M393.502,169.093C393.762,173.198 394.022,174.991 395.554,178.845C396.074,176.281 396.325,173.709 396.845,171.406C397.096,170.375 397.356,169.604 397.607,168.833C398.127,172.687 398.638,176.281 399.149,180.127C399.919,176.022 400.95,172.176 401.712,168.063C403.513,170.375 403.773,174.991 404.535,178.074C405.306,174.229 406.077,170.886 406.337,167.041C408.129,168.582 408.64,172.939 409.16,175.251C409.931,172.176 410.442,169.353 410.701,166.27C411.983,167.552 412.234,171.146 412.494,172.939C413.265,170.635 414.287,168.063 414.287,165.759C415.828,168.582 416.088,171.657 416.339,174.991C417.11,171.657 418.141,168.063 417.63,164.728C418.392,165.759 419.422,169.093 419.933,170.375C419.933,168.063 420.193,165.499 420.193,162.936C421.735,164.477 423.017,167.301 423.268,169.353C424.558,166.781 424.038,161.905 422.497,158.571L422.246,158.32L421.735,158.32C418.911,158.32 416.339,158.571 413.516,158.831C411.723,158.831 409.931,158.831 408.129,159.082L404.284,159.082C403.254,158.831 402.483,158.831 401.461,158.571C399.149,158.32 396.585,158.06 394.022,157.8C390.168,157.289 386.574,156.267 382.728,155.747C377.342,164.477 381.187,172.939 383.499,177.052C383.239,174.48 382.728,171.406 383.239,168.833C383.499,171.146 384.781,174.229 385.803,176.533C385.803,173.709 385.803,171.406 386.323,168.582C386.323,172.428 387.093,174.74 389.146,178.074C388.886,174.48 388.375,171.917 389.397,168.322C389.657,172.687 390.428,175.251 391.969,179.356C392.22,175.762 392.48,172.176 393.502,169.093Z" style="fill:rgb(84,50,30);"/>
                    <path d="M381.447,168.833C384.27,167.041 390.679,164.988 403.002,164.217C411.464,163.706 417.37,161.905 422.497,159.342C430.196,155.747 429.174,147.797 425.84,145.225C419.422,139.838 403.002,140.609 392.22,145.745C384.27,149.339 379.905,156.778 381.447,168.833Z" style="fill:rgb(54,29,7);"/>
                    <path d="M381.447,168.833C384.27,167.041 390.679,164.988 403.002,164.217C411.464,163.706 417.37,161.905 422.497,159.342C430.196,155.747 429.174,147.797 425.84,145.225C425.32,144.714 424.558,144.203 423.787,143.692C421.735,157.289 414.547,153.695 399.919,158.32C401.972,156.518 400.95,156.778 403.002,155.747C398.378,157.289 394.784,157.029 389.397,160.112C391.198,158.831 391.449,157.8 392.731,157.289C390.428,157.8 385.552,159.082 382.469,163.706L381.958,157.289C381.187,161.134 381.447,164.988 381.447,168.833Z" style="fill:rgb(36,19,4);"/>
                    <path d="M426.611,156.007C424.298,158.831 414.036,152.413 399.659,154.977C402.743,146.256 404.535,144.463 408.64,141.891C414.287,138.556 423.787,139.838 426.862,144.463C429.685,148.819 428.663,153.955 426.611,156.007Z" style="fill:rgb(79,43,12);"/>
                    <path d="M406.337,153.695C410.953,149.59 417.63,150.361 423.527,151.902C419.933,148.819 413.005,149.85 409.411,151.642C414.036,147.537 417.11,147.797 423.017,148.568C418.652,146.515 413.265,147.026 410.182,149.339C414.287,144.714 416.088,144.974 422.246,145.485C417.881,143.432 411.464,143.943 408.9,146.256C411.983,142.921 414.547,142.15 420.444,142.15C415.317,140.869 411.464,140.869 407.359,144.974C410.701,139.587 417.37,139.587 421.986,141.12C425.84,142.661 428.403,146.515 428.663,149.85C428.663,153.184 427.122,154.977 426.351,155.236C421.475,156.267 419.163,152.673 406.337,153.695Z" style="fill:rgb(54,29,7);"/>
                    <path d="M380.165,196.296C379.134,212.205 400.95,220.155 423.527,218.874C411.723,236.836 415.828,265.06 419.422,291.241C421.986,308.943 427.892,326.905 427.633,342.814C417.37,344.615 408.389,340.25 399.149,336.656C387.604,300.992 391.449,294.835 395.303,278.155C387.344,296.627 388.626,308.692 389.397,333.322C382.218,329.477 380.676,328.186 374.77,322.799C369.132,298.68 381.698,276.864 379.905,270.196C370.665,236.065 354.504,203.735 380.165,196.296Z" style="fill:rgb(38,35,56);"/>
                    <path d="M391.449,194.243C389.917,193.983 388.626,193.472 387.344,193.213C384.01,194.243 383.499,201.683 384.521,204.246C387.344,209.893 394.784,214.258 405.566,216.05C417.63,218.103 432.248,215.799 436.102,217.592C436.613,217.852 425.58,209.893 424.038,209.633C411.983,207.58 389.146,202.964 391.449,194.243Z" style="fill:rgb(47,44,69);"/>
                    <path d="M391.969,193.983C391.709,199.63 408.389,203.735 418.141,200.401C420.964,201.683 423.268,207.069 423.527,209.633C411.723,212.205 393.762,210.923 389.146,202.453C388.115,200.652 389.657,196.296 391.969,193.983Z" style="fill:rgb(230,237,255);"/>
                    <path d="M359.38,235.294C364.256,237.866 369.643,240.689 375.289,243.764C376.311,243.253 377.082,243.253 377.853,243.513C377.853,243.513 377.853,243.253 377.593,243.253C376.06,242.222 374.259,241.46 372.717,240.689C370.413,239.408 368.101,238.377 365.789,237.095C364.256,236.325 362.965,235.814 361.684,235.043C357.839,233.241 353.985,231.449 350.139,229.656C348.347,228.885 346.805,228.366 346.034,228.366C345.264,228.114 345.004,227.855 344.233,228.114C343.722,228.114 343.211,228.366 343.211,228.625C343.982,228.114 347.316,229.656 349.369,230.678C352.703,232.219 356.037,233.761 359.38,235.294Z" style="fill:rgb(252,250,250);"/>
                    <path d="M389.917,318.694C390.168,298.94 380.927,274.301 375.289,259.422C373.999,255.828 372.717,252.745 371.946,250.441C371.184,247.869 373.488,244.794 375.289,243.764C374.77,243.253 374.259,242.993 373.748,242.742C366.819,239.148 359.631,235.294 352.452,231.96C350.139,230.938 347.827,229.656 345.264,228.885C344.493,228.366 343.722,228.366 343.471,228.366C342.7,228.625 341.929,229.656 341.67,230.418C341.159,231.449 341.67,232.479 341.929,233.501C343.722,238.117 345.523,242.742 347.056,247.358C349.88,255.057 353.474,265.06 356.037,275.072C356.808,278.917 357.579,282.511 358.35,286.365C359.631,294.315 360.402,302.525 358.35,310.484C357.328,314.589 355.786,319.465 353.985,323.059C352.703,325.883 351.161,329.728 352.963,332.291C354.244,334.344 358.609,336.656 360.142,337.938C367.071,342.303 375.029,346.668 382.218,350.513C382.988,350.773 384.01,351.544 384.781,351.795C382.728,350.773 382.218,348.46 382.469,346.668C382.469,344.355 383.499,342.303 384.521,340.25C387.604,333.322 389.657,326.134 389.917,318.694Z" style="fill:rgb(242,237,237);"/>
                    <path d="M352.192,327.415C351.932,329.217 351.932,330.758 352.963,332.291C354.244,334.344 358.609,336.656 360.142,337.938C367.071,342.303 375.029,346.668 382.218,350.513C382.988,350.773 384.01,351.544 384.781,351.795C382.728,350.773 382.218,348.46 382.469,346.668C382.469,345.637 382.728,344.615 382.988,343.844C372.717,338.198 362.455,332.811 352.192,327.415Z" style="fill:rgb(237,232,232);"/>
                    <path d="M371.946,248.389C372.206,246.587 373.999,244.535 375.289,243.764C374.77,243.253 374.259,242.993 373.748,242.742C366.819,239.148 359.631,235.294 352.452,231.96C350.139,230.938 347.827,229.656 345.264,228.885C344.493,228.366 343.722,228.366 343.471,228.366C342.7,228.625 341.929,229.656 341.67,230.418C341.418,231.189 341.418,231.709 341.67,232.479L351.161,237.346L362.203,243.253L371.946,248.389Z" style="fill:rgb(247,244,244);"/>
                    <path d="M386.063,247.869L377.853,243.513C377.342,243.253 376.571,242.993 375.289,243.764L383.239,247.869C384.27,247.618 385.292,247.358 386.063,247.869Z" style="fill:rgb(252,250,250);"/>
                    <path d="M384.781,263.778C382.988,259.162 380.165,253.775 383.239,247.869L375.289,243.764C373.237,244.794 368.101,247.869 368.872,250.181C369.643,252.494 370.665,255.828 371.946,259.422C382.728,287.647 393.762,308.172 380.416,336.656C378.364,341.021 380.165,349.491 384.781,351.795L392.731,356.16C389.397,354.367 391.709,350.002 392.991,346.408C405.566,314.589 397.867,298.94 384.781,263.778Z" style="fill:rgb(242,237,237);"/>
                    <path d="M382.728,343.585C381.698,346.919 381.447,350.002 384.781,351.795L392.731,356.16C389.917,354.618 389.917,351.024 390.938,347.949L382.728,343.585Z" style="fill:rgb(237,232,232);"/>
                    <path d="M380.165,252.745C380.165,252.234 380.165,251.723 380.416,251.203C381.187,249.67 382.217,248.64 383.239,247.869L375.289,243.764C370.665,243.764 363.736,244.275 371.946,248.389L372.977,249.151L380.165,252.745Z" style="fill:rgb(247,244,244);"/>
                    <path d="M417.11,267.121C417.11,266.861 417.11,266.861 417.11,266.602C416.599,265.58 412.754,263.007 411.464,262.245C410.442,261.475 409.411,260.955 408.389,260.444C400.95,255.828 393.502,251.723 386.063,247.618C385.041,247.358 384.27,247.358 383.239,247.869C384.781,248.64 386.063,249.411 387.604,250.181L387.855,250.181C391.198,252.234 394.533,254.027 397.867,255.828C401.461,257.88 414.036,265.06 415.317,266.602C415.828,266.35 416.859,266.35 417.11,267.121Z" style="fill:rgb(252,250,250);"/>
                    <path d="M435.332,339.99L435.332,334.604C435.332,333.062 435.072,331.269 435.072,329.477C433.79,315.62 429.425,300.992 425.58,289.959C425.32,289.188 425.069,288.668 424.809,288.158C423.017,282.511 420.964,276.613 418.392,270.456C418.392,270.196 418.392,270.196 418.392,269.936C418.141,269.425 417.881,268.914 417.63,268.403L417.11,267.121L417.11,266.861L417.11,267.121C417.881,269.174 418.912,271.737 419.933,274.812C421.475,279.177 423.017,283.282 424.298,287.136C429.425,301.763 433.019,314.078 434.561,325.363C434.821,327.164 435.072,328.957 435.072,330.758L435.072,331.78C435.332,333.062 435.332,334.093 435.332,335.115C435.332,338.198 435.072,341.021 434.821,344.096C434.561,344.866 434.561,345.637 434.301,346.408C433.279,351.795 430.967,357.952 429.174,361.295L429.425,361.035L429.685,360.524C431.997,356.16 433.539,351.284 434.561,346.148C434.561,345.637 434.561,344.866 434.821,344.355C434.821,344.096 434.821,343.844 434.821,343.844C435.072,343.074 435.072,342.303 435.072,341.532C435.072,341.272 435.072,341.021 435.072,340.761C435.332,340.25 435.332,340.25 435.332,339.99Z" style="fill:rgb(247,244,244);"/>
                    <path d="M435.072,369.757C424.558,375.152 424.558,367.193 428.663,358.472C442.26,328.706 413.005,267.632 415.317,266.602C415.317,266.091 408.129,261.475 407.359,261.215C399.659,256.599 386.063,249.411 383.239,247.869C380.676,249.151 379.134,252.234 379.905,254.797C380.676,257.11 381.958,260.193 383.239,263.527C388.886,278.917 398.378,304.067 397.867,324.341C397.607,329.477 396.325,334.604 394.273,339.739C393.762,341.272 392.731,342.814 391.969,344.615C390.168,348.46 388.886,352.566 391.969,355.389C392.22,355.649 392.48,355.9 392.731,356.16C395.044,357.441 397.356,358.472 399.659,359.754C405.566,362.828 413.516,366.933 419.933,369.505C422.246,370.787 424.809,371.558 426.611,371.809C427.892,372.069 429.174,371.809 430.456,371.558C431.997,371.047 433.279,370.527 434.301,370.016C434.561,370.016 434.821,369.757 434.821,369.757L435.072,369.757L434.821,369.757L435.072,369.757L434.821,369.757L435.072,369.757Z" style="fill:rgb(242,237,237);"/>
                    <path d="M433.539,370.527C431.997,371.047 430.456,371.558 429.174,371.809L428.914,371.809C428.143,371.809 427.122,371.809 426.091,371.558C424.038,370.527 423.787,367.704 424.038,365.4L410.182,358.212C403.773,354.618 397.356,351.284 390.679,347.949C389.917,350.773 389.917,353.336 391.969,355.389C392.22,355.649 392.48,355.9 392.731,356.16C395.044,357.441 397.356,358.472 399.659,359.754C405.566,362.828 413.516,366.933 419.933,369.505C422.246,370.787 424.809,371.558 426.611,371.809C427.892,372.069 429.174,371.809 430.456,371.558C431.486,371.298 432.508,370.787 433.539,370.527Z" style="fill:rgb(237,232,232);"/>
                    <path d="M413.776,270.707C413.776,270.196 413.516,269.685 413.265,268.914C413.265,267.883 414.036,267.121 415.317,266.602C415.317,266.091 408.129,261.475 407.359,261.215C399.659,256.599 386.063,249.411 383.239,247.869C381.447,248.9 380.165,250.692 379.905,252.745L384.01,255.057L395.044,260.704L406.077,266.602L413.776,270.707Z" style="fill:rgb(247,244,244);"/>
                    <path d="M438.666,363.348C437.644,363.859 436.613,364.37 435.591,365.141C435.332,365.141 435.332,365.4 434.821,365.4C430.716,367.704 428.663,367.193 428.143,366.171C427.633,365.141 428.143,363.348 429.174,361.546C431.486,357.19 434.561,347.69 435.072,341.532C436.873,319.725 426.611,292.522 420.444,275.842C418.912,272.508 417.881,269.425 417.11,267.121C416.859,266.35 415.828,266.091 414.806,266.35C413.265,267.121 413.005,269.174 413.265,270.196C414.036,272.508 415.317,275.583 416.599,279.177C422.497,295.346 432.768,322.288 430.967,343.333C430.716,348.72 428.143,356.419 425.58,360.524C423.527,364.63 423.268,367.964 424.558,370.016C425.84,372.58 429.685,372.329 435.072,369.757C435.332,369.505 435.591,369.246 435.843,369.246C437.644,368.224 439.177,367.193 440.718,366.171L438.666,363.348Z" style="fill:rgb(226,217,217);"/>
                    <path d="M493.321,413.639L489.987,411.843C489.987,413.896 489.476,415.949 488.705,417.745C487.164,421.081 484.341,424.417 481.006,426.213L484.341,427.752C486.142,426.726 487.675,425.443 489.216,423.904C490.247,422.621 491.269,421.081 492.04,419.285C492.81,417.745 493.581,415.179 493.321,413.639Z" style="fill:rgb(168,165,163);"/>
                    <path d="M481.006,426.213L429.945,453.413L433.019,454.953L484.341,427.753L481.006,426.213Z" style="fill:rgb(201,199,197);"/>
                    <path d="M492.551,351.795L489.216,350.262L489.987,411.843L493.321,413.639L492.551,351.795Z" style="fill:rgb(168,165,163);"/>
                    <path d="M493.07,348.201C492.81,346.919 492.551,345.386 492.551,344.096C491.529,338.198 488.965,333.582 485.882,329.988C483.83,327.675 481.517,325.883 478.954,324.341L475.871,322.799C482.799,326.394 487.164,333.322 488.705,342.563C488.965,343.844 489.216,345.126 489.216,346.668C489.216,347.439 489.216,350.002 489.216,350.262L492.551,351.795C492.551,351.795 493.07,349.231 493.07,348.201Z" style="fill:rgb(145,142,140);"/>
                    <path d="M480.236,322.548C472.537,318.435 467.661,316.902 458.68,317.672C448.677,318.183 438.926,321.778 430.716,326.134C429.174,327.164 427.633,327.935 426.091,328.957L429.174,330.499C430.716,329.728 432.248,328.706 433.79,327.935C437.124,326.394 440.207,324.852 443.542,323.57C448.928,321.518 454.064,320.236 459.711,319.465C463.556,319.205 467.15,319.205 470.744,319.725C473.567,320.236 476.39,320.747 478.954,322.029C479.465,322.288 479.725,322.548 480.236,322.548Z" style="fill:rgb(168,165,163);"/>
                    <path d="M494.092,352.055C494.092,352.055 494.092,347.949 494.092,346.668C494.092,345.386 493.581,343.585 493.321,342.043C491.529,331.78 485.882,324.601 477.161,321.258C465.868,316.902 449.959,319.465 433.79,327.935C432.248,328.706 430.716,329.728 429.174,330.499L429.174,332.291C430.716,331.269 432.508,330.499 434.05,329.477C449.699,321.258 465.097,318.954 476.131,323.059C484.852,326.394 490.247,333.833 492.04,344.096C492.3,345.386 492.3,346.919 492.551,348.201C492.551,349.231 492.551,351.795 492.551,351.795L493.321,413.639C493.321,415.435 492.81,417.232 492.04,419.285C490.247,422.877 487.424,426.213 484.341,427.752L433.019,454.953L433.019,456.749L484.341,429.549C490.247,426.47 494.863,418.771 494.863,412.613L494.092,352.055Z" style="fill:rgb(83,75,72);"/>
                    <path d="M429.174,330.499L426.091,328.957L426.091,330.499L429.174,332.291L429.174,330.499Z" style="fill:rgb(145,142,140);"/>
                    <path d="M479.984,325.363L473.818,322.288C478.183,324.601 481.777,328.446 484.089,333.322L489.987,336.405C487.675,331.529 484.6,327.675 479.984,325.363Z" style="fill:rgb(217,208,208);"/>
                    <path d="M444.312,318.435L444.053,320.236L448.158,322.288L447.906,323.83L449.699,324.341L450.47,321.518L444.312,318.435Z" style="fill:rgb(217,208,208);"/>
                    <path d="M470.995,319.976C474.589,320.487 478.183,321.007 481.266,322.799C477.672,320.747 473.818,318.435 469.713,317.413C466.639,316.382 463.045,316.131 459.962,316.131C455.606,316.131 450.73,316.642 446.365,317.924C445.854,318.183 445.083,318.183 444.312,318.435L450.47,321.778C456.627,319.976 464.327,319.205 470.995,319.976Z" style="fill:rgb(247,244,244);"/>
                    <path d="M450.47,321.778L449.699,324.341C468.942,318.954 483.83,323.31 489.987,336.405L492.3,334.344C485.882,320.747 470.233,315.871 450.47,321.778Z" style="fill:rgb(226,217,217);"/>
                    <path d="M527.963,265.58C527.192,269.936 519.242,272.248 513.084,273.53C508.46,274.301 503.333,275.331 498.457,274.561C494.092,273.79 491.529,267.372 494.092,265.06C502.051,257.88 519.753,255.828 527.963,265.58Z" style="fill:rgb(242,237,237);"/>
                    <path d="M508.209,268.914C513.336,268.654 525.14,267.121 526.17,265.06L525.659,262.497C525.14,261.215 520.524,259.673 515.388,258.132C510.261,256.85 506.667,256.339 504.874,256.079C499.739,255.057 496.145,255.828 493.581,259.422C491.018,263.267 489.987,263.267 483.57,266.35L484.852,274.301C493.581,277.895 499.479,277.124 502.302,271.477C503.073,269.936 504.615,269.174 508.209,268.914Z" style="fill:rgb(232,164,118);"/>
                    <path d="M445.343,266.35L486.142,259.933C494.863,261.726 492.551,275.842 487.424,277.635L447.395,286.365C441.489,286.616 435.843,287.906 433.019,281.489C431.486,278.155 433.279,274.301 435.843,271.226C438.155,268.403 440.978,267.121 445.343,266.35Z" style="fill:rgb(31,28,46);"/>
                    <path d="M439.948,221.697C448.677,227.344 451.241,255.568 453.553,276.864C453.553,277.124 449.959,284.823 441.749,286.616C438.926,287.387 432.768,286.616 431.997,283.031C430.196,274.05 424.558,253.264 423.527,244.535C422.246,235.043 421.475,227.084 432.248,222.468C433.79,221.697 438.155,220.675 439.948,221.697Z" style="fill:rgb(31,28,46);"/>
                    <path d="M440.467,221.957C447.136,226.062 449.699,239.919 451.241,254.797C451.5,256.599 452.011,261.215 452.271,265.58C452.782,270.966 447.647,277.124 443.801,278.917C449.699,264.549 439.177,230.938 434.821,221.437C436.353,220.926 438.415,220.675 440.467,221.957Z" style="fill:rgb(24,22,36);"/>
                    <path d="M492.04,268.143C492.04,272.248 490.247,276.613 487.424,277.635L446.876,286.365C440.978,286.876 434.821,289.188 431.997,283.031C431.486,282 431.486,281.229 431.486,280.207C437.644,285.334 475.62,274.561 492.04,268.143Z" style="fill:rgb(24,22,36);"/>
                </g>
            </g>
        </g>
    </g>
</svg>
