<?xml version="1.0" encoding="UTF-8" standalone="no"?>
<!DOCTYPE svg PUBLIC "-//W3C//DTD SVG 1.1//EN" "http://www.w3.org/Graphics/SVG/1.1/DTD/svg11.dtd">
<svg width="100%" height="100%" viewBox="0 0 2080 1440" version="1.1" xmlns="http://www.w3.org/2000/svg" xmlns:xlink="http://www.w3.org/1999/xlink" xml:space="preserve" style="fill-rule:evenodd;clip-rule:evenodd;stroke-linejoin:round;stroke-miterlimit:1.41421;">
    <g id="Page-3" transform="matrix(2.66667,0,0,2.66667,0,0)">
        <rect x="0" y="0" width="780" height="540" style="fill:none;"/>
        <clipPath id="_clip1">
            <rect x="0" y="0" width="780" height="540"/>
        </clipPath>
        <g clip-path="url(#_clip1)">
            <rect x="0" y="0" width="780" height="540" style="fill:white;"/>
            <rect x="0" y="0" width="780" height="540" style="fill:white;"/>
            <rect x="0" y="0" width="780" height="540" style="fill:white;"/>
            <rect x="0" y="0" width="780" height="540" style="fill:white;"/>
            <g transform="matrix(1,0,0,1,-83.2053,-12.8637)">
                <clipPath id="_clip2">
                    <path d="M252.6,481.08L694.784,481.08L694.784,85.307L252.6,85.307L252.6,481.08Z"/>
                </clipPath>
                <g clip-path="url(#_clip2)">
                    <path d="M506.191,289.588C585.893,336.012 614.325,352.065 694.027,398.489C683.966,404.293 562.873,474.512 552.812,480.315C472.922,433.89 444.679,417.835 364.984,371.409C375.038,365.605 496.131,295.392 506.191,289.588Z" style="fill:rgb(193,203,210);"/>
                    <path d="M629.223,388.624L572.927,356.518C566.934,353.808 558.035,351.68 551.846,354.774C546.238,357.869 536.758,363.869 532.691,366.186C529.597,367.929 518.57,374.503 525.536,378.179C545.461,389.016 565.191,401.394 585.501,412.42C589.373,414.549 594.981,415.13 600.981,414.738C606.785,414.157 612.778,412.61 617.42,409.711C620.906,407.779 624.19,405.84 627.48,403.907C631.926,401.394 634.25,398.3 634.446,395.59C634.636,392.881 632.899,390.367 629.223,388.624Z" style="fill:rgb(193,203,210);"/>
                    <path d="M544.88,193.646C547.785,192.288 551.65,201.572 548.752,202.349C545.846,203.511 541.981,194.998 544.88,193.646Z" style="fill:rgb(19,26,48);"/>
                    <path d="M547.008,192.869C545.657,193.836 543.718,194.031 542.948,194.802C538.887,199.639 547.975,203.511 548.36,203.315C549.522,202.545 550.684,199.835 552.812,197.511L547.008,192.869Z" style="fill:rgb(219,150,105);"/>
                    <path d="M578.346,183.201C571.576,189.005 563.643,195.775 548.941,202.545C551.069,201.187 548.171,193.255 544.684,193.646C553.198,186.485 562.873,177.782 571.772,173.14C576.799,171.012 581.055,172.755 582.021,175.458C582.798,177.397 582.217,179.715 578.346,183.201Z" style="fill:rgb(29,38,69);"/>
                    <path d="M578.346,183.201C571.576,189.005 563.643,195.775 548.941,202.545C549.907,201.768 549.907,199.45 548.941,197.322C554.941,193.255 559.968,190.16 560.353,189.194C560.745,187.457 560.164,183.971 560.353,180.491C564.224,177.586 568.096,175.073 571.772,173.14C576.799,171.012 581.055,172.755 582.021,175.458C582.798,177.397 582.217,179.715 578.346,183.201Z" style="fill:rgb(19,26,48);"/>
                    <path d="M583.954,217.821C586.278,225.172 584.15,237.361 582.021,250.13C581.055,257.09 579.312,264.245 578.346,270.44C577.575,277.399 576.994,281.852 577.38,285.136C577.961,293.264 581.245,295.007 582.603,305.452C584.15,318.215 577.38,332.917 577.961,347.038C578.15,348.2 578.731,349.362 579.508,350.518C585.312,357.288 579.508,356.518 579.893,365.605C580.089,366.382 576.994,380.307 576.994,380.307C576.994,380.307 568.481,382.631 567.9,382.631C567.319,382.435 562.096,380.699 562.096,380.699C562.481,379.922 563.062,378.179 563.258,377.409C567.13,369.476 567.515,359.612 567.704,350.518C567.704,338.336 564.224,309.128 561.13,297.324C557.839,290.169 556.684,289.392 557.258,276.818C557.839,256.319 556.488,241.036 559.002,219.368L583.954,217.821Z" style="fill:rgb(241,178,135);"/>
                    <path d="M577.38,278.757C577.184,281.271 577.184,283.399 577.38,285.136C577.961,293.264 581.245,295.007 582.603,305.452C584.15,318.215 577.38,332.917 577.961,347.038C578.15,348.2 578.731,349.362 579.508,350.518C585.312,357.288 579.508,356.518 579.893,365.605C580.089,366.382 576.994,380.307 576.994,380.307C576.994,380.307 571.772,381.854 569.251,382.435C572.353,378.375 574.67,373.733 575.055,367.348C575.636,361.159 573.508,351.876 573.508,348.39C573.508,337.559 573.9,313.574 573.508,309.317C572.738,302.162 570.224,296.554 567.515,286.689C566.738,283.98 567.704,282.237 574.285,281.467L577.38,278.757Z" style="fill:rgb(232,164,118);"/>
                    <path d="M564.42,374.895C563.454,376.442 562.481,378.956 561.711,380.699C560.745,383.016 560.164,384.368 559.583,386.307C559.387,387.273 559.387,388.043 559.778,388.624C561.907,391.334 571.961,386.307 575.447,383.212C577.575,381.273 577.575,379.145 578.15,376.246C578.927,371.99 578.927,371.605 580.089,367.348L581.245,378.956L582.021,379.537C582.407,374.895 582.798,368.51 583.569,364.45C583.765,362.902 584.346,360.963 584.346,359.997C584.92,354.774 582.217,352.065 579.893,350.714C580.67,353.808 578.346,359.227 577.38,365.801C576.218,372.571 572.353,380.118 569.447,380.888C568.096,381.084 565.387,379.537 563.839,378.571C563.258,378.375 563.839,376.246 564.42,374.895Z" style="fill:rgb(35,46,84);"/>
                    <path d="M562.677,389.205C566.549,388.82 572.738,385.53 575.447,383.212C577.575,381.273 577.575,379.145 578.15,376.246C578.927,371.99 578.927,371.605 580.089,367.348L581.245,378.956L582.217,379.726L582.988,378.76C583.184,374.314 582.988,368.125 583.569,364.45C583.765,362.902 584.346,360.963 584.346,359.997C584.92,354.774 582.217,352.065 579.893,350.714C580.67,353.808 578.346,359.227 577.38,365.801C576.413,371.409 573.704,377.598 570.995,379.922C568.866,383.402 565.968,386.307 562.677,389.205Z" style="fill:rgb(19,26,48);"/>
                    <path d="M592.467,300.034C594.791,303.513 597.305,306.999 598.467,309.898C602.528,320.925 600.785,340.268 601.947,356.707C602.136,358.45 603.109,359.997 603.69,361.544C604.46,363.869 605.237,366.578 605.622,370.058C606.393,374.314 606.785,379.537 606.589,385.922C606.393,388.043 605.622,389.205 605.427,392.3L593.048,396.556C593.244,393.847 593.629,389.786 593.629,385.341C593.629,381.469 593.433,377.023 593.433,373.152C593.244,368.51 593.629,364.45 593.244,361.93C590.724,346.072 586.467,340.653 581.636,324.6C579.697,318.026 579.697,315.121 576.603,309.128C575.447,306.027 574.67,300.804 575.447,295.196C576.022,290.169 585.116,294.811 592.467,300.034Z" style="fill:rgb(241,178,135);"/>
                    <path d="M605.622,260.961C599.623,280.109 594.981,287.075 594.21,295.196C593.819,297.905 594.4,301.385 595.177,304.871L576.799,305.837C576.218,303.709 575.832,300.804 575.251,296.939C574.67,292.487 575.251,287.845 576.022,285.136C577.575,278.947 580.278,269.663 584.535,257.475L605.812,259.022L605.622,260.961Z" style="fill:rgb(241,178,135);"/>
                    <path d="M587.825,286.108C588.021,288.622 588.406,290.75 588.987,293.068C590.339,298.29 596.528,305.06 598.467,310.094C602.717,321.12 600.981,340.268 602.136,356.903C602.136,358.45 603.298,359.997 603.69,361.544C604.46,364.058 605.237,366.767 605.812,370.058C606.393,374.503 606.785,379.537 606.589,385.922C606.393,388.239 605.622,389.205 605.427,392.3L600.981,394.043C601.947,385.922 600.785,375.084 599.623,365.031C597.305,347.619 593.629,327.89 588.792,314.54C587.048,310.094 585.501,306.804 582.021,304.479C586.278,303.709 581.055,299.838 578.346,293.459L587.825,286.108Z" style="fill:rgb(232,164,118);"/>
                    <path d="M603.298,360.578C604.46,362.902 605.427,364.254 606.203,367.733C606.785,371.22 606.008,376.827 606.974,381.084L608.136,388.043C608.913,391.915 608.332,394.813 604.46,398.881C600.785,402.556 596.913,404.488 594.596,403.712C592.852,403.137 591.116,400.617 592.467,392.692C593.433,386.111 593.244,379.922 593.433,373.152C594.015,379.726 594.21,382.05 593.629,388.82C593.434,390.753 593.434,393.658 595.758,393.658C604.846,393.462 604.846,391.144 605.237,388.239C606.008,380.503 605.237,367.348 603.298,360.578Z" style="fill:rgb(35,46,84);"/>
                    <path d="M603.298,360.578C604.46,362.902 605.427,364.254 606.203,367.733C606.785,371.22 606.008,376.827 606.974,381.084L608.136,388.043C608.913,391.915 608.332,394.813 604.46,398.881C602.332,400.813 600.4,402.36 598.467,403.137C598.075,403.326 601.751,396.752 600.981,393.077C604.846,392.3 604.846,390.367 605.237,388.239C606.008,380.503 605.237,367.348 603.298,360.578Z" style="fill:rgb(19,26,48);"/>
                    <path d="M602.136,187.066C598.852,193.646 596.913,200.997 597.494,205.443C597.69,205.828 597.69,206.409 597.886,206.795C598.852,209.896 600.589,212.409 602.332,215.118C605.427,219.76 607.359,223.044 608.717,228.658C610.649,236.009 609.102,247.225 606.393,259.995C604.846,266.954 602.717,274.305 601.562,280.494C600.4,286.108 596.339,294.23 598.467,300.034C595.758,302.547 594.791,304.094 589.954,304.094C577.38,304.479 561.326,297.52 558.231,292.487C557.258,289.784 556.873,287.656 556.684,284.169C556.488,281.656 556.684,278.562 556.488,270.44C556.103,255.738 556.873,241.806 557.069,227.111C557.454,222.854 557.839,218.402 558.035,214.146C558.035,213.179 558.231,212.213 558.231,211.247C558.42,210.281 558.616,209.119 558.806,208.152C559.778,202.734 562.096,198.673 563.062,194.612C564.224,188.228 561.515,181.843 562.096,174.688C562.292,172.559 562.481,170.627 562.677,168.688C563.454,161.918 563.454,155.925 564.224,150.121C565.191,142.574 566.157,136.196 567.13,133.102C567.319,131.94 567.9,130.973 568.481,130.007C570.609,127.298 574.089,125.751 580.474,128.453C586.082,130.777 593.433,133.872 600.014,137.933C602.717,139.676 611.812,146.446 613.744,149.155C614.71,150.506 615.291,152.054 615.487,154.182C616.068,164.046 606.393,178.559 602.136,187.066Z" style="fill:rgb(206,221,240);"/>
                    <path d="M571.576,172.174C574.474,173.721 577.38,178.167 582.217,180.681C585.312,182.424 591.886,183.586 596.528,177.782C597.494,175.269 598.075,172.945 598.271,170.431C598.656,160.763 600.014,155.729 605.427,147.993C601.947,146.061 598.656,144.122 596.724,142L575.251,130.392L568.285,132.129C565.968,138.71 564.61,142 560.353,148.189C558.035,151.864 557.069,155.925 558.035,160.371C559.583,167.141 566.157,169.465 571.576,172.174Z" style="fill:rgb(226,236,248);"/>
                    <path d="M608.717,228.658C610.649,236.009 609.102,247.225 606.393,259.995C604.846,266.954 602.717,274.305 601.562,280.494C600.785,284.365 599.237,292.487 598.852,300.229C597.305,302.547 593.048,304.29 589.954,304.094C586.278,282.237 593.629,258.056 594.21,239.489C594.596,230.01 589.177,231.557 579.123,226.915C569.447,222.463 566.353,214.922 574.474,217.436C584.535,220.53 590.92,218.017 590.339,212.99C590.143,210.666 589.758,208.348 589.758,206.22L589.373,205.828C592.082,206.024 594.791,205.828 597.494,205.058C597.69,205.639 597.69,206.22 597.886,206.795C598.852,209.896 600.589,212.409 602.332,215.118C605.427,219.564 607.359,223.24 608.717,228.658Z" style="fill:rgb(206,221,240);"/>
                    <path d="M589.373,246.84C588.021,259.218 587.048,270.244 585.697,282.818C585.116,288.811 584.731,295.777 586.278,301.777C577.575,300.034 566.738,296.554 561.515,293.264C557.069,290.169 557.839,281.467 557.839,276.244C557.454,258.637 557.839,240.84 558.231,223.24C558.42,213.956 558.806,207.957 562.096,199.835C568.096,204.673 574.474,207.376 584.535,209.7C581.055,214.922 578.731,216.666 575.251,215.693C572.353,214.922 569.062,214.537 567.319,215.503C565.387,216.47 565.387,219.368 568.677,223.435C570.609,225.949 579.893,231.942 587.048,234.651C591.69,236.199 589.954,242.198 589.373,246.84Z" style="fill:rgb(226,236,248);"/>
                    <path d="M602.136,187.066C598.467,194.612 596.528,202.93 597.886,206.795C599.237,211.247 612.778,223.821 610.46,240.455C607.94,246.84 600.4,250.515 590.92,248.772C588.021,248.191 567.319,237.942 567.319,236.584C566.353,219.949 566.157,189.194 572.927,175.458C578.542,164.627 586.467,159.019 591.886,152.635C593.433,150.506 596.339,146.446 598.075,143.155C598.656,142.77 599.042,142.385 599.433,141.608C599.818,140.453 600.014,139.095 599.237,137.547C603.109,139.872 606.589,142.385 609.298,145.284C612.778,147.412 615.102,149.925 615.487,154.182C616.068,164.046 606.393,178.559 602.136,187.066ZM582.217,132.129C583.569,131.744 584.92,131.359 586.467,130.973C584.346,130.007 582.217,129.23 580.474,128.453C574.089,125.751 570.609,127.298 568.481,130.196C567.9,130.973 567.319,131.94 567.13,133.102C566.157,136.196 565.191,142.574 564.224,150.121C563.454,156.121 562.677,162.695 562.096,169.465C561.907,171.397 561.711,173.336 561.515,175.458C560.745,182.809 563.454,188.032 562.096,194.417C561.13,199.45 559.002,202.153 557.65,210.085C557.069,213.179 556.292,221.888 556.103,228.462C556.873,229.814 559.583,232.719 564.029,234.847C563.643,219.949 565.001,205.247 567.13,190.16C568.285,172.755 567.515,155.344 573.9,138.71C575.832,134.453 578.927,132.521 582.217,132.129Z" style="fill:rgb(29,38,69);"/>
                    <path d="M602.136,187.066C598.467,194.612 596.528,202.93 597.886,206.795C599.237,211.247 612.778,223.821 610.46,240.455C608.913,244.326 605.427,247.225 600.785,248.576C600.785,234.07 588.987,223.044 589.758,205.058C589.954,198.869 593.048,194.227 588.406,189.194C587.44,188.032 584.535,187.261 582.217,186.295C576.217,184.167 574.089,181.262 571.576,179.134C576.022,168.884 582.217,163.08 587.63,157.668L599.237,162.114C600.589,155.54 603.109,150.506 606.974,146.061L606.974,144.122C611.426,146.446 615.102,148.77 615.487,154.182C616.068,164.046 606.393,178.559 602.136,187.066ZM567.704,176.62C565.576,175.654 563.643,174.688 561.711,173.721L561.711,173.526C561.711,172.174 561.907,170.816 562.096,169.465L562.292,168.114C563.258,161.918 565.772,155.729 567.704,149.925L571.38,151.283C569.062,159.986 568.285,167.918 567.704,176.62Z" style="fill:rgb(19,26,48);"/>
                    <path d="M573.9,173.911C576.217,175.85 578.731,178.944 582.217,180.681C585.312,182.424 591.886,183.586 596.528,177.978C597.494,175.458 598.075,172.945 598.271,170.431C598.656,160.952 600.014,155.729 605.427,147.993C602.332,146.25 599.623,145.479 597.69,143.736C592.271,154.763 582.407,159.6 573.9,173.911ZM582.217,132.129C578.731,133.487 575.636,139.095 574.67,142C570.609,152.054 569.062,161.148 568.285,170.627C563.643,168.303 559.197,165.985 558.035,160.371C557.069,156.121 558.035,151.864 560.353,148.189C564.61,142 565.968,138.71 568.285,132.129L575.251,130.392L582.217,132.129Z" style="fill:rgb(29,38,69);"/>
                    <path d="M601.17,146.446L603.109,148.378C600.981,151.473 598.075,156.121 597.886,161.344C597.69,166.756 596.724,171.789 595.177,174.884C592.852,179.91 588.792,180.877 583.765,179.525C580.474,178.559 577.38,176.431 575.636,172.364C579.312,165.594 597.69,149.925 601.17,146.446Z" style="fill:rgb(35,46,84);"/>
                    <path d="M569.062,137.352L572.157,139.872L568.285,141.223C567.13,150.121 566.934,157.668 568.096,170.627C569.251,159.215 571.38,148.378 576.217,138.71C576.994,137.162 579.508,131.94 586.278,130.973L582.217,129.23C576.022,128.068 571.771,131.94 569.062,137.352Z" style="fill:rgb(44,58,107);"/>
                    <path d="M600.4,156.891C602.913,158.053 608.521,171.593 610.845,168.499C615.872,161.344 618.386,152.635 611.231,146.061C607.94,143.155 603.879,140.453 599.433,137.743L599.433,142.574C601.366,144.513 603.298,146.446 605.427,148.378C603.298,151.473 601.751,153.216 600.4,156.891Z" style="fill:rgb(19,26,48);"/>
                    <path d="M598.271,136.196C600.589,137.743 601.562,139.291 602.136,141.419C603.298,145.675 601.17,149.736 597.494,155.344L593.048,153.993L594.4,158.634C584.346,163.465 580.278,166.566 573.9,174.303C582.021,157.472 594.981,151.087 597.494,141.608C598.656,137.547 597.109,136.385 596.143,134.838C596.143,134.649 598.271,136.385 598.271,136.196Z" style="fill:rgb(44,58,107);"/>
                    <path d="M588.021,201.382C587.244,209.504 588.021,216.084 588.792,219.564C590.92,227.3 596.143,236.394 598.467,247.806C588.021,247.61 569.251,236.009 569.251,236.009C568.866,224.591 565.968,201.382 572.157,181.654C576.022,185.714 580.089,187.457 583.373,189.39C590.535,193.255 588.792,194.031 588.021,201.382Z" style="fill:rgb(35,46,84);"/>
                    <path d="M562.096,175.654C563.643,176.431 565.191,177.012 566.738,177.782C566.353,184.937 566.157,191.518 565.191,197.903C563.258,212.213 562.481,217.436 562.677,232.334C560.164,230.395 559.197,229.624 557.069,227.3C557.454,210.085 560.745,204.862 562.677,194.998C563.643,190.356 562.096,185.133 562.096,175.654Z" style="fill:rgb(35,46,84);"/>
                    <path d="M602.528,122.264C603.69,106.792 597.886,80.097 575.251,87.252C568.285,89.381 563.839,94.603 562.292,103.893C558.616,124.589 572.738,137.547 575.832,141.608C582.602,140.453 601.751,132.906 602.528,122.264Z" style="fill:rgb(36,19,4);"/>
                    <path d="M596.143,137.352C596.724,141.804 586.859,143.932 580.67,143.155C579.893,142.966 579.312,142.77 578.927,142.574C578.346,142.385 578.15,142 578.15,142C577.575,140.453 577.38,138.324 577.184,137.933C576.799,134.068 576.022,130.392 573.508,125.555L589.758,119.17L593.819,117.433C591.69,125.94 593.244,130.007 596.143,137.352Z" style="fill:rgb(232,164,118);"/>
                    <path d="M596.339,136C596.339,136.196 596.339,136.385 596.339,136.385C590.535,131.163 582.407,134.649 576.799,134.257C576.603,133.872 575.251,127.487 575.055,127.298C574.474,125.94 574.285,126.136 573.704,124.203L589.758,117.819L594.015,116.075C591.886,124.589 593.433,128.649 596.339,136Z" style="fill:rgb(219,150,105);"/>
                    <path d="M570.799,116.656L577.765,112.211L574.866,100.022L569.251,91.124C559.778,97.117 565.001,115.886 570.799,116.656Z" style="fill:rgb(36,19,4);"/>
                    <path d="M578.346,131.163C587.244,127.487 589.758,123.041 591.69,113.947C595.562,111.434 597.305,109.116 597.69,106.792C598.467,100.988 595.366,94.799 591.116,91.32C587.244,88.225 582.988,87.252 577.961,88.225C568.285,90.158 564.61,96.347 564.029,104.664C563.839,106.211 564.805,109.691 565.191,111.238C565.968,113.947 564.805,113.366 565.001,116.075C565.001,117.238 565.772,121.494 567.515,126.332C568.481,129.034 568.677,131.744 570.028,132.129C571.576,132.521 574.285,132.906 578.346,131.163Z" style="fill:rgb(241,178,135);"/>
                    <path d="M578.346,131.163C587.244,127.487 589.758,123.041 591.69,113.947C595.562,111.434 597.305,109.116 597.69,106.792C598.467,100.988 595.366,94.799 591.116,91.32C587.244,88.225 582.988,87.252 577.961,88.225C571.961,89.381 566.157,104.279 564.42,108.724C567.9,106.211 575.636,102.731 578.927,104.083C581.055,105.049 581.44,108.339 581.636,109.886C582.407,113.177 578.731,113.366 578.542,114.913C578.542,116.461 582.798,120.136 582.021,124.393C581.826,125.555 579.123,130.007 577.765,131.359C577.961,131.359 578.15,131.359 578.346,131.163Z" style="fill:rgb(232,164,118);"/>
                    <path d="M565.191,96.732C567.319,95.765 578.542,93.056 581.636,98.475C584.731,103.502 587.44,108.339 590.143,112.596C591.305,114.339 592.082,113.947 592.082,116.656C592.271,119.562 596.528,110.272 597.494,107.373C600.204,99.441 597.886,93.056 590.535,88.61C581.055,83.002 568.285,88.225 565.191,96.732Z" style="fill:rgb(54,29,7);"/>
                    <path d="M592.467,107.954C595.947,106.211 596.528,110.468 596.339,113.177C596.143,115.109 594.596,115.109 594.21,116.656C593.819,118.4 592.663,119.366 591.501,119.562C589.177,119.751 590.143,116.075 590.339,114.724C589.758,112.596 590.143,109.116 592.467,107.954Z" style="fill:rgb(232,164,118);"/>
                    <path d="M591.501,113.366C592.082,111.434 592.082,109.116 594.596,109.116C592.467,109.501 592.271,111.63 591.501,113.366Z" style="fill:rgb(219,150,105);"/>
                    <path d="M563.062,112.596C563.062,110.082 565.576,107.177 566.353,106.407C570.224,103.502 577.38,101.569 582.407,98.671C587.244,101.765 589.177,106.988 593.048,104.468C601.17,98.86 599.237,88.61 584.535,85.516C576.022,84.739 557.65,91.705 563.062,112.596Z" style="fill:rgb(54,29,7);"/>
                    <path d="M585.501,144.898C615.487,137.743 611.035,79.516 579.312,85.901C580.474,88.996 578.542,93.637 580.859,96.928C584.346,101.954 588.211,110.663 589.373,120.332C590.339,128.068 589.954,138.899 585.501,144.898Z" style="fill:rgb(54,29,7);"/>
                    <path d="M585.501,144.898C608.913,139.291 611.426,102.921 596.339,89.962C595.758,89.577 595.177,89.191 594.596,88.61C597.886,92.286 598.852,94.218 600.785,100.022C599.042,96.151 597.494,94.414 595.562,92.475C597.305,96.151 598.656,98.86 599.433,103.117C597.886,99.826 596.913,98.279 595.562,96.732C597.109,99.826 598.075,102.731 598.271,106.211C597.494,103.502 596.724,102.34 595.366,100.218C596.913,104.083 596.913,104.86 597.69,108.339C596.724,105.63 595.758,104.279 594.596,102.731C596.528,107.373 596.913,110.082 597.494,114.913C596.339,110.663 596.143,108.724 593.819,104.86C595.562,110.082 595.562,112.4 596.143,117.623C595.366,114.913 594.4,111.63 593.048,108.92C594.21,113.758 595.562,118.4 596.143,123.231C594.596,118.4 592.852,114.143 591.116,109.886C592.271,113.947 593.244,119.947 594.015,126.136C593.048,122.845 591.305,116.852 590.339,113.947C591.116,117.433 591.501,122.845 591.305,126.906C589.569,114.143 588.021,110.272 585.697,106.407C587.44,110.663 588.792,115.305 589.373,120.332C590.339,128.068 589.954,138.899 585.501,144.898Z" style="fill:rgb(36,19,4);"/>
                    <path d="M585.697,94.022C582.021,103.698 564.224,102.15 563.062,112.785C561.711,99.826 576.799,99.826 585.697,94.022Z" style="fill:rgb(36,19,4);"/>
                    <path d="M586.467,85.901C585.893,85.705 585.312,85.516 584.535,85.516C576.413,84.739 559.387,91.124 562.481,109.886C563.062,98.86 582.602,96.151 587.63,91.32C582.798,92.475 576.799,94.799 571.19,97.313C577.38,92.671 585.116,90.347 589.758,88.61C584.535,89.191 579.508,90.739 574.474,93.056C579.697,89.772 583.184,88.61 589.177,87.063C584.15,87.063 580.67,88.225 576.217,89.577C579.697,87.448 583.954,86.286 586.467,85.901Z" style="fill:rgb(74,43,18);"/>
                    <path d="M616.453,153.412C620.129,164.046 617.616,180.296 617.42,195.579C617.23,203.7 606.393,203.315 605.041,195.579C603.298,186.295 602.913,175.073 602.717,165.985C602.332,157.668 602.528,148.959 608.332,147.608C612.582,146.831 615.102,149.54 616.453,153.412Z" style="fill:rgb(29,38,69);"/>
                    <path d="M616.453,153.412C620.129,164.046 617.616,180.296 617.42,195.579C617.42,201.768 610.845,202.93 607.359,199.639C612.582,195.193 610.649,197.126 610.649,191.518C610.649,176.039 611.035,163.276 608.717,147.608C612.778,147.027 615.102,149.736 616.453,153.412Z" style="fill:rgb(19,26,48);"/>
                    <path d="M579.893,212.99C582.798,211.828 586.663,220.916 583.765,221.888C580.859,222.854 576.994,214.341 579.893,212.99Z" style="fill:rgb(19,26,48);"/>
                    <path d="M583.954,211.632C582.798,212.598 580.67,213.179 579.893,213.375C578.927,213.375 577.38,213.76 576.413,213.956C574.67,214.341 572.542,215.693 569.643,216.855C570.995,219.76 574.285,217.436 575.832,217.24C577.184,217.24 578.731,217.24 579.893,217.051C581.826,216.47 584.346,213.76 583.954,211.632Z" style="fill:rgb(241,178,135);"/>
                    <path d="M536.948,194.998C535.792,195.193 534.63,195.579 533.272,195.775C533.853,198.288 536.177,197.707 538.306,197.322L536.948,194.998Z" style="fill:rgb(219,150,105);"/>
                    <path d="M578.731,224.591C578.731,224.983 579.312,226.334 577.184,225.564L550.88,209.896L546.813,206.22L517.995,180.877C516.056,179.134 515.475,177.397 519.347,179.715L544.684,194.612C546.427,195.579 546.813,195.775 547.394,196.349L578.731,224.591Z" style="fill:rgb(235,232,232);"/>
                    <path d="M538.691,196.741C536.948,197.903 536.948,197.126 537.144,198.288C537.725,200.22 541.981,204.281 544.11,205.058C544.11,205.058 545.076,205.247 545.657,204.673C546.042,204.281 545.461,204.092 544.684,202.93L541.204,197.903C540.238,196.545 539.853,196.16 538.691,196.741Z" style="fill:rgb(219,150,105);"/>
                    <path d="M585.501,209.896C584.535,211.247 582.407,212.794 581.055,213.571C579.893,214.341 579.312,214.537 578.346,214.727C575.447,215.889 574.089,218.983 572.157,218.794C570.414,218.598 565.387,215.693 565.576,216.47C565.772,217.24 566.934,219.564 567.515,220.341C568.677,221.888 569.833,222.659 571.772,223.821C573.508,224.983 575.251,225.753 576.413,226.138C577.765,226.53 578.15,226.138 578.731,225.753C579.697,225.368 582.407,222.854 582.988,222.078C585.501,218.983 586.082,218.402 588.792,216.666L585.501,209.896Z" style="fill:rgb(241,178,135);"/>
                    <path d="M585.501,209.896L585.501,210.085L585.893,211.443C585.116,211.632 581.245,215.503 580.67,216.084C577.575,218.983 576.217,221.692 573.704,220.726C570.609,219.564 568.677,218.983 565.968,217.632C566.353,218.598 567.13,219.76 567.515,220.341C568.677,221.888 569.833,222.659 571.772,223.821C573.508,224.983 575.251,225.753 576.413,226.138C577.765,226.53 578.15,226.138 578.731,225.753C579.697,225.368 582.407,222.854 582.988,222.078C585.501,218.983 586.082,218.402 588.792,216.666L585.501,209.896Z" style="fill:rgb(232,164,118);"/>
                    <path d="M613.359,202.545C606.589,208.538 598.656,215.308 583.954,221.888C586.082,220.53 583.373,212.598 579.893,212.99C586.663,207.957 597.886,197.126 606.785,192.484C611.812,190.356 616.068,192.099 617.034,194.998C617.805,196.93 617.42,199.254 613.359,202.545Z" style="fill:rgb(29,38,69);"/>
                    <path d="M613.359,202.545C606.589,208.538 598.656,215.308 583.954,221.888C585.116,221.111 584.92,218.794 583.954,216.666C592.082,211.443 600.204,205.828 607.359,199.639C612.582,195.193 610.649,197.126 610.649,191.518C613.94,191.518 616.258,192.869 617.034,194.998C617.805,196.93 617.42,199.254 613.359,202.545Z" style="fill:rgb(19,26,48);"/>
                    <path d="M505.225,301.196L500.002,298.682C500.002,301.966 499.232,305.452 498.07,308.351C495.746,313.959 491.489,319.573 486.462,322.276L491.3,325.181C497.293,321.506 500.779,317.634 503.293,311.06C504.259,308.736 505.421,304.094 505.225,301.196Z" style="fill:rgb(168,165,163);"/>
                    <path d="M499.232,237.556L500.002,298.682L504.84,301.581L504.455,240.651L504.455,234.462C502.712,235.428 500.969,236.394 499.232,237.556Z" style="fill:rgb(168,165,163);"/>
                    <path d="M412.179,365.031L413.537,365.997L417.017,367.733C468.861,338.14 439.652,354.97 491.3,325.181L486.462,322.276C434.814,352.261 463.638,335.241 412.179,365.031Z" style="fill:rgb(201,199,197);"/>
                    <path d="M417.017,367.733L412.179,365.031C409.085,366.767 404.639,367.152 401.348,365.416C407.733,370.058 411.017,371.22 417.017,367.733Z" style="fill:rgb(191,189,187);"/>
                    <path d="M400.382,360.963L394.963,357.869C394.963,363.092 396.511,366.767 399.605,368.51L405.22,371.801C402.119,370.058 400.382,366.382 400.382,360.963Z" style="fill:rgb(201,199,197);"/>
                    <path d="M394.963,298.29L394.963,357.869L400.382,360.963L400.963,295.581C398.835,296.554 396.706,297.52 394.963,298.29Z" style="fill:rgb(214,212,210);"/>
                    <path d="M402.7,294.811L402.896,359.612C402.896,368.51 409.281,372.186 417.017,367.733C468.665,337.944 439.652,354.97 491.3,325.181C496.131,322.276 500.388,316.864 502.901,310.864C504.063,307.77 504.84,304.479 504.84,301.581L504.063,240.259L504.063,234.651C504.84,234.266 505.61,233.685 506.387,233.3L507.354,300.229C507.354,310.283 500.198,322.857 491.3,327.89C439.652,357.68 468.665,340.849 417.017,370.639C407.923,375.861 400.382,371.605 400.382,360.963C400.186,339.491 399.605,317.83 399.605,296.358C400.571,295.777 401.544,295.392 402.7,294.811Z" style="fill:rgb(83,75,72);"/>
                    <path d="M651.466,384.368L646.439,381.854C646.439,384.949 645.663,388.435 644.311,391.334C641.987,396.942 637.73,402.556 632.899,405.455L637.541,408.164C643.73,404.684 647.21,400.617 649.723,394.043C650.696,391.719 651.852,387.077 651.466,384.368Z" style="fill:rgb(168,165,163);"/>
                    <path d="M645.663,320.539L646.439,381.854L651.271,384.564L650.885,323.634L650.696,317.634C649.142,318.6 647.406,319.573 645.663,320.539Z" style="fill:rgb(168,165,163);"/>
                    <path d="M558.42,448.011L559.968,449.172L563.454,450.719C615.291,421.317 586.082,437.953 637.541,408.164L632.899,405.455C581.245,435.245 610.068,418.222 558.42,448.011Z" style="fill:rgb(201,199,197);"/>
                    <path d="M563.454,450.719L558.42,448.011C555.522,449.752 551.069,450.332 547.785,448.398C554.164,453.04 557.454,454.201 563.454,450.719Z" style="fill:rgb(191,189,187);"/>
                    <path d="M546.813,444.142L541.4,440.854C541.4,446.27 542.948,449.752 546.042,451.493L551.65,454.781C548.556,453.04 546.813,449.365 546.813,444.142Z" style="fill:rgb(201,199,197);"/>
                    <path d="M541.4,381.469L541.4,440.854L546.813,444.142L547.204,378.76C545.076,379.726 543.137,380.699 541.4,381.469Z" style="fill:rgb(214,212,210);"/>
                    <path d="M549.137,377.794L549.333,442.595C549.333,451.686 555.711,455.361 563.454,450.719C614.906,420.93 586.082,437.953 637.541,408.164C642.568,405.455 646.825,399.847 649.338,394.043C650.5,390.948 651.271,387.658 651.271,384.564L650.5,323.249L650.5,317.83C651.271,317.249 652.048,316.864 652.818,316.283L653.595,383.212C653.791,393.462 646.439,405.84 637.73,411.063C586.082,440.854 615.102,423.832 563.454,453.621C554.36,459.037 546.813,454.588 546.813,444.142C546.623,422.478 546.042,401.009 545.846,379.341C547.008,378.956 547.975,378.375 549.137,377.794Z" style="fill:rgb(83,75,72);"/>
                    <path d="M505.421,214.537L498.455,218.598L491.489,222.659C451.253,245.874 428.429,259.414 388.389,282.622C386.842,283.588 382.004,286.298 380.071,288.041C378.524,289.392 377.943,291.52 377.943,293.264L377.943,295.196C377.943,298.101 379.295,300.804 381.423,301.777L395.159,309.898C436.942,334.079 422.436,325.566 464.219,349.552C504.84,372.956 481.624,359.031 522.245,382.435L525.536,384.368L539.461,392.3L546.427,388.239L560.353,380.118L567.515,376.051L574.474,371.99L581.636,367.733C595.758,359.612 610.068,351.295 624.19,342.978C638.311,334.85 635.217,336.397 649.338,328.276L656.494,324.215L663.46,320.148C663.655,319.958 663.845,319.762 664.041,319.573C664.236,319.573 664.236,319.573 664.426,319.377C665.784,318.026 665.973,317.249 666.554,315.506C666.75,314.155 666.75,312.992 666.75,311.641L666.75,310.283C666.75,310.094 666.554,309.898 666.554,309.702C666.554,309.513 666.554,309.317 666.554,309.128C666.365,308.932 666.365,308.736 666.365,308.547C666.169,308.547 666.169,308.351 666.169,308.155C665.973,307.966 665.973,307.77 665.973,307.58C665.784,307.58 665.784,307.385 665.588,307.189C665.588,307.189 665.588,306.999 665.392,306.804C665.392,306.804 665.392,306.608 665.203,306.608C665.203,306.418 665.007,306.418 665.007,306.223C665.007,306.223 664.811,306.223 664.811,306.027L664.622,305.837L664.426,305.641C664.426,305.641 664.236,305.641 664.236,305.452L664.041,305.452C664.041,305.256 663.845,305.256 663.845,305.256C663.46,304.871 663.074,304.675 662.493,304.479L649.534,296.939L635.798,289.007C582.021,257.866 634.25,288.426 657.851,302.358L643.919,294.426L629.994,286.298C602.136,270.244 574.285,254.191 546.427,237.942L532.502,230.01L518.57,221.888L560.934,246.455L547.008,238.523L533.083,230.395L505.421,214.537Z" style="fill:rgb(71,26,11);"/>
                    <path d="M505.421,215.118L505.421,214.922L505.421,214.727L505.421,214.537L498.455,218.598L491.3,222.659C451.253,245.874 428.429,259.414 388.389,282.622L381.423,286.689C381.423,286.689 381.619,286.689 381.808,286.494L382.004,286.494L382.2,286.298L382.774,286.298L382.774,286.108L383.747,286.108L505.421,215.308L505.421,215.118Z" style="fill:rgb(71,26,11);"/>
                    <path d="M649.534,296.939L635.798,289.007C581.826,257.866 634.25,288.426 657.851,302.547L643.919,294.426L629.994,286.298C602.136,270.244 574.285,254.191 546.427,238.131L532.502,230.01L518.57,222.078L560.745,246.455L547.008,238.523L533.083,230.591L505.421,214.537L505.421,215.308L661.142,304.29C661.912,304.29 662.689,304.675 663.46,305.06L649.534,296.939Z" style="fill:rgb(56,20,8);"/>
                    <path d="M377.943,295.196C377.943,298.29 379.295,300.804 381.227,301.966C468.28,352.065 435.199,332.336 522.245,382.435L525.536,384.368L539.461,392.496C539.461,392.496 539.461,390.753 539.461,387.658L394.774,304.29L377.943,295.196Z" style="fill:rgb(15,5,2);"/>
                    <path d="M539.461,387.658L539.461,392.496C584.15,366.382 611.616,350.329 656.304,324.215L663.46,320.148C665.588,318.992 666.75,315.898 666.75,313.574C618.582,341.62 587.63,359.612 539.461,387.658Z" style="fill:rgb(23,8,3);"/>
                    <path d="M539.461,385.922L539.461,387.658L666.75,313.574L666.75,311.641L657.075,315.317L539.461,385.922Z" style="fill:rgb(36,12,4);"/>
                    <path d="M377.943,293.459L377.943,295.196L539.461,387.658L539.461,385.922L395.74,302.358L377.943,293.459Z" style="fill:rgb(28,9,3);"/>
                    <path d="M665.588,307.385L649.723,313.378L539.461,380.888L539.461,385.922L666.75,311.641C666.939,310.094 666.365,308.736 665.588,307.385Z" style="fill:rgb(43,15,6);"/>
                    <path d="M379.295,288.811C378.328,290.169 377.943,291.716 377.943,293.459L539.461,385.922L539.461,380.503L386.065,291.135L379.295,288.811Z" style="fill:rgb(36,12,4);"/>
                    <path d="M539.461,378.956C539.461,378.76 539.461,378.571 539.461,378.375C539.461,378.179 539.461,378.179 539.461,377.99C539.461,377.794 539.461,377.794 539.461,377.598C539.461,377.409 539.461,377.409 539.461,377.213L539.461,377.023C539.461,376.827 539.461,376.827 539.461,376.632L539.461,376.442L539.461,376.246C539.461,376.051 539.461,376.051 539.461,375.861C539.461,375.665 539.461,375.476 539.461,375.28L404.828,295.777L383.747,286.108C383.355,286.108 383.166,286.108 382.774,286.298C382.585,286.298 382.585,286.298 382.389,286.298L382.2,286.298C382.004,286.494 382.004,286.494 381.808,286.494C381.808,286.494 381.619,286.494 381.619,286.689L381.423,286.689C381.227,286.879 381.227,286.879 381.038,286.879C381.038,287.075 380.842,287.075 380.842,287.075C380.652,287.264 380.652,287.264 380.457,287.46C380.261,287.46 380.261,287.656 380.071,287.656C380.071,287.845 379.876,288.041 379.68,288.237C379.49,288.426 379.49,288.622 379.295,288.811L539.461,380.503L539.461,378.956Z" style="fill:rgb(71,26,11);"/>
                    <path d="M539.461,379.922L539.461,380.888L665.588,307.385C664.811,305.641 663.074,304.29 661.142,304.29L645.277,311.06L539.461,375.28L539.461,379.922Z" style="fill:rgb(56,20,8);"/>
                    <path d="M505.421,215.308C459.962,241.617 429.01,259.799 383.747,286.108C474.665,338.721 448.354,322.668 539.461,375.28C584.731,348.971 615.683,330.789 661.142,304.29C570.028,251.867 596.339,267.731 505.421,215.308Z" style="fill:rgb(43,15,6);"/>
                    <path d="M627.48,298.486C622.062,295.196 616.453,291.912 610.845,288.426C605.427,285.136 599.623,281.656 594.015,278.176C586.663,282.433 579.312,286.879 571.961,291.135C564.61,295.392 557.258,299.648 550.103,303.905C555.711,307.189 561.515,310.479 567.13,313.769C572.927,317.053 578.542,320.344 584.15,323.634C591.305,319.377 598.467,315.317 605.812,311.06C612.974,306.999 620.325,302.743 627.48,298.486Z" style="fill:white;"/>
                    <path d="M585.893,307.966C582.988,309.513 582.798,312.026 585.501,313.574C588.021,315.317 593.244,314.736 595.366,313.574C597.494,312.222 597.494,311.641 597.69,310.479C596.724,310.479 595.947,310.675 595.177,310.675C594.981,311.249 594.981,311.641 593.629,312.411C592.271,313.378 588.987,313.574 587.244,312.607C585.697,311.641 585.697,309.898 587.44,308.932C587.048,308.547 586.467,308.155 585.893,307.966Z" style="fill:rgb(3,169,245);"/>
                    <path d="M590.92,306.608C588.987,306.608 587.244,306.999 585.893,307.966C586.467,308.155 587.048,308.547 587.44,308.932C588.406,308.351 589.569,308.155 590.724,308.155C590.724,307.58 590.724,306.999 590.92,306.608Z" style="fill:rgb(235,31,100);"/>
                    <path d="M595.758,307.77C594.4,306.999 592.663,306.608 590.92,306.608C590.92,306.999 590.724,307.58 590.724,308.155C591.886,307.966 593.048,308.351 593.819,308.736C594.791,309.317 595.177,309.898 595.177,310.675C595.947,310.675 596.724,310.675 597.69,310.675C597.69,309.513 597.109,308.547 595.758,307.77Z" style="fill:rgb(255,190,0);"/>
                    <path d="M581.245,297.709C583.765,299.257 588.211,299.257 591.116,297.52C594.015,295.777 594.21,293.264 591.501,291.716C588.021,293.649 584.535,295.581 581.245,297.709Z" style="fill:rgb(3,169,245);"/>
                    <path d="M586.663,290.554C584.731,290.554 583.569,290.554 581.44,291.716C579.312,293.068 578.542,296.162 581.245,297.709C582.798,296.743 584.535,295.581 586.278,294.615C586.467,293.264 586.467,291.912 586.663,290.554Z" style="fill:rgb(235,31,100);"/>
                    <path d="M591.886,291.135C590.535,290.358 588.792,289.973 587.048,289.973C586.859,291.331 586.859,292.683 586.859,294.034C588.596,293.068 590.143,292.102 591.886,291.135Z" style="fill:rgb(255,190,0);"/>
                    <path d="M624.386,298.682C619.359,295.581 614.325,292.487 609.298,289.392C604.075,286.298 599.042,283.203 593.819,280.109C593.244,280.494 592.663,280.886 592.082,281.075C597.305,284.169 602.528,287.264 607.555,290.358C612.582,293.459 617.616,296.554 622.643,299.648C623.224,299.257 623.805,298.872 624.386,298.682Z" style="fill:rgb(235,232,232);"/>
                    <path d="M615.291,303.905C610.264,300.804 605.237,297.709 600.014,294.811C594.981,291.716 589.758,288.622 584.731,285.527C585.697,284.946 586.467,284.365 587.44,283.784C592.663,286.879 597.69,289.973 602.913,293.068C607.94,296.162 612.974,299.257 618.001,302.162C617.034,302.743 616.258,303.324 615.291,303.905Z" style="fill:rgb(235,232,232);"/>
                    <path d="M614.325,304.479C612.007,303.128 609.879,301.777 607.555,300.419C605.237,299.067 603.109,297.709 600.785,296.358C600.204,296.554 599.818,296.939 599.237,297.135C601.562,298.486 603.69,299.838 606.008,301.196C608.332,302.547 610.649,303.905 612.778,305.256C613.359,305.06 613.744,304.675 614.325,304.479Z" style="fill:rgb(235,232,232);"/>
                    <path d="M603.298,310.864C600.981,309.513 598.852,308.155 596.528,306.804C594.21,305.452 591.886,304.094 589.569,302.743C592.467,301 595.366,299.257 598.467,297.709C600.589,299.067 602.913,300.419 605.237,301.777C607.359,303.128 609.683,304.479 612.007,305.837C609.102,307.385 606.203,309.128 603.298,310.864Z" style="fill:rgb(235,232,232);"/>
                    <path d="M585.312,301.581C582.988,300.229 580.67,298.682 578.346,297.324C576.022,295.973 573.704,294.615 571.38,293.264C570.799,293.649 570.414,293.845 569.833,294.034C572.157,295.581 574.474,296.939 576.799,298.29C579.123,299.648 581.44,301 583.765,302.358C584.346,301.966 584.731,301.777 585.312,301.581Z" style="fill:rgb(235,232,232);"/>
                    <path d="M574.866,307.58C572.542,306.223 570.224,304.871 567.9,303.513C565.576,302.162 563.258,300.804 560.934,299.257C563.643,297.709 566.353,296.162 569.062,294.615C571.38,295.973 573.704,297.324 576.022,298.682C578.346,300.034 580.67,301.385 582.988,302.743C580.278,304.29 577.575,306.027 574.866,307.58Z" style="fill:rgb(235,232,232);"/>
                    <path d="M588.988,319.181C583.765,316.087 578.731,313.188 573.508,310.094C568.481,307.189 563.258,304.094 558.035,301C558.42,300.804 559.002,300.419 559.583,300.034C564.805,303.128 570.028,306.223 575.251,309.317C580.278,312.222 585.312,315.121 590.535,318.215C589.954,318.411 589.373,318.796 588.988,319.181Z" style="fill:rgb(235,232,232);"/>
                    <path d="M584.535,321.695C579.508,318.6 574.285,315.702 569.251,312.607C564.029,309.702 558.806,306.608 553.583,303.513C554.745,302.932 555.711,302.358 556.684,301.777C561.907,304.871 567.13,307.77 572.353,310.864C577.38,313.769 582.603,316.864 587.63,319.762C586.663,320.344 585.697,320.925 584.535,321.695Z" style="fill:rgb(235,232,232);"/>
                    <path d="M619.163,301.581C614.136,298.486 609.102,295.581 604.075,292.487C598.852,289.392 593.819,286.298 588.596,283.203C589.373,282.818 590.143,282.433 590.92,281.852C595.947,284.946 601.17,288.041 606.203,291.135C611.231,294.23 616.258,297.324 621.291,300.419C620.71,300.804 619.933,301.196 619.163,301.581Z" style="fill:rgb(235,232,232);"/>
                    <path d="M572.927,238.523C572.927,236.975 572.353,236.009 571.772,235.232C571.576,235.232 571.38,235.037 571.38,235.037L526.117,208.733C525.921,209.314 526.117,210.281 526.117,211.247L526.117,222.659L559.778,257.285L572.927,249.934L572.927,238.523Z" style="fill:rgb(79,38,13);"/>
                    <path d="M574.089,240.07L560.353,248.002L562.096,249.353L576.022,241.232L574.089,240.07Z" style="fill:rgb(143,76,34);"/>
                    <path d="M561.711,250.515L564.029,249.158L564.029,247.806L517.603,220.916L515.475,221.888L561.711,250.515Z" style="fill:rgb(143,76,34);"/>
                    <path d="M562.677,280.494L562.481,256.704L562.292,249.158L515.475,221.888L515.475,253.225C515.475,253.995 515.671,254.772 515.867,255.353C515.867,255.738 516.056,256.123 516.252,256.319C516.448,256.509 516.448,256.704 516.637,256.9C516.833,257.09 517.218,257.285 517.414,257.475L564.42,284.751C563.062,283.98 562.677,282.622 562.677,280.494Z" style="fill:rgb(110,55,21);"/>
                    <path d="M576.022,241.232L562.292,249.158L562.292,280.494C562.292,284.751 565.387,286.494 569.062,284.365L569.251,284.169C573.123,282.041 576.022,276.818 576.022,272.568L576.022,241.232Z" style="fill:rgb(120,60,24);"/>
                    <path d="M568.096,234.651C571.19,234.266 573.9,236.009 573.9,240.07L573.9,243.354L570.995,241.806C570.995,240.07 570.414,238.908 569.447,238.327C566.549,236.78 562.677,241.036 561.515,243.164C560.745,244.712 560.353,246.455 560.353,248.002L560.164,251.286L557.069,253.029L557.258,249.739C557.454,246.259 558.42,242.388 560.549,239.293C562.481,236.78 564.805,235.037 568.096,234.651Z" style="fill:rgb(133,69,29);"/>
                    <path d="M538.691,258.056L540.819,256.704L540.819,264.636L538.691,265.798L538.495,261.346L538.691,258.056Z" style="fill:rgb(242,147,14);"/>
                    <path d="M526.698,208.923C526.313,208.538 525.346,208.348 524.765,208.348C522.441,208.152 520.124,209.7 518.57,211.051C517.218,212.213 516.056,213.571 515.09,215.118C513.543,217.436 512.576,220.341 512.191,223.044L512.191,233.3L533.468,256.509L537.725,259.022L559.002,260.38L559.387,260.184L559.387,255.927C559.387,253.414 560.549,245.678 561.711,243.354C563.643,240.07 569.643,234.07 573.508,236.199L526.698,208.923Z" style="fill:rgb(143,76,34);"/>
                    <path d="M570.609,235.618C573.704,235.232 576.022,237.361 576.022,241.421L576.022,252.833L573.123,254.576L573.123,243.164C573.123,241.421 572.542,240.259 571.576,239.685C568.481,237.942 564.42,242.583 563.258,244.516C562.481,246.063 562.096,247.806 562.096,249.353L562.096,258.637L559.002,260.38L559.002,251.096C559.197,247.61 560.164,243.745 562.292,240.651C564.224,238.131 567.515,236.199 570.609,235.618Z" style="fill:rgb(120,60,24);"/>
                    <path d="M538.691,258.056L539.461,257.475L539.461,265.407L538.691,265.798L538.495,261.346L538.691,258.056Z" style="fill:rgb(242,147,14);"/>
                    <path d="M532.691,254.38L536.177,256.9L538.691,258.056L539.461,257.475L533.468,253.995L532.691,254.38Z" style="fill:rgb(255,213,99);"/>
                    <path d="M532.691,254.38L538.691,258.056L538.691,265.798L532.691,262.312L532.691,254.38Z" style="fill:rgb(255,197,38);"/>
                    <path d="M537.34,214.146C537.34,213.956 537.34,213.76 537.34,213.76L537.34,213.571L537.34,213.375L537.34,213.179C537.529,213.179 537.529,212.99 537.529,212.99C537.529,212.794 537.725,212.598 537.725,212.598C537.914,212.409 537.914,212.409 538.11,212.213C538.306,212.017 538.306,212.017 538.495,211.828L534.434,214.146C534.238,214.341 534.049,214.341 534.049,214.537L533.853,214.537C533.853,214.727 533.664,214.922 533.664,214.922C533.664,215.118 533.468,215.118 533.468,215.308C533.468,215.308 533.468,215.503 533.272,215.503L533.272,216.084C533.272,216.274 533.083,216.274 533.083,216.47L533.083,219.179L537.144,216.855L537.144,214.537C537.144,214.537 537.144,214.341 537.34,214.146Z" style="fill:rgb(120,60,24);"/>
                    <path d="M541.4,209.314C541.204,209.314 541.204,209.314 541.015,209.119L540.819,209.119C540.819,208.923 540.623,208.923 540.623,208.923C540.434,208.923 540.434,208.923 540.238,208.923L540.238,208.733L540.042,208.733C539.853,208.733 539.853,208.733 539.657,208.733L539.461,208.733L539.461,208.538C539.272,208.538 539.272,208.538 539.076,208.538L538.887,208.538C538.691,208.538 538.691,208.538 538.495,208.538L538.306,208.538C538.11,208.538 537.914,208.538 537.914,208.538C537.725,208.538 537.725,208.538 537.725,208.733C537.529,208.733 537.529,208.733 537.34,208.733C537.144,208.733 536.948,208.923 536.758,208.923L532.691,211.443C534.434,211.051 536.177,211.443 537.529,212.213L539.853,210.666L541.59,209.504C541.59,209.314 541.4,209.314 541.4,209.314Z" style="fill:rgb(140,73,31);"/>
                    <path d="M552.231,226.915L552.617,226.719C552.617,226.915 552.617,227.3 552.617,227.496C552.617,227.881 552.812,228.077 552.812,228.267L556.873,225.949C556.873,225.753 556.873,225.753 556.873,225.564C556.873,224.983 556.684,224.402 556.488,223.625L556.488,223.435L556.488,223.24C556.292,222.463 556.103,221.692 555.711,220.916C555.13,219.949 554.556,218.794 553.974,217.821C553.779,217.821 553.583,217.436 553.583,217.436L553.393,217.24C553.008,216.47 550.88,214.922 550.299,214.537C550.299,214.341 550.103,214.341 550.103,214.341L548.171,215.308L545.846,216.855C549.333,218.794 551.65,222.854 552.231,226.915Z" style="fill:rgb(140,73,31);"/>
                    <path d="M546.042,216.855L537.529,211.828C533.853,209.7 530.759,211.443 530.759,215.693L530.759,217.821L533.083,219.179L533.083,217.051C533.083,214.341 535.015,213.179 537.529,214.537L546.042,219.564C548.36,220.916 550.299,224.206 550.299,226.915L550.299,229.239L552.812,230.591L552.812,228.267C552.812,224.017 549.718,218.983 546.042,216.855Z" style="fill:rgb(133,66,25);"/>
                    <path d="M552.812,228.267L552.812,230.591L556.873,228.077L556.873,225.949C556.873,225.753 556.873,225.753 556.873,225.564L556.873,225.368L556.873,225.172C556.873,224.983 556.873,224.983 556.684,224.983C556.684,224.983 556.684,224.787 556.684,224.591L552.617,226.719C552.617,226.915 552.617,227.3 552.617,227.496C552.617,227.881 552.812,228.077 552.812,228.267Z" style="fill:rgb(120,60,24);"/>
                    <path d="M541.59,209.504L537.34,211.828L545.846,216.855L550.103,214.341L541.59,209.504Z" style="fill:rgb(143,76,34);"/>
                    <path d="M257.815,429.054L314.687,396.752C320.876,393.847 329.775,391.53 336.16,394.813C341.964,397.914 351.437,404.103 355.504,406.421C358.788,408.164 369.815,414.934 362.855,418.609C342.734,429.635 322.62,442.015 301.919,453.234C298.05,455.361 292.441,456.136 286.444,455.555C280.447,455.168 274.451,453.427 269.615,450.526C266.133,448.591 262.844,446.657 259.556,444.723C255.107,442.015 252.592,439.113 252.398,436.211C252.205,433.503 253.946,430.795 257.815,429.054Z" style="fill:rgb(193,202,209);"/>
                    <path d="M384.713,138.324C384.517,136.581 383.166,136.777 381.619,137.933C380.457,138.514 380.071,139.095 378.132,139.095C373.686,138.899 372.91,142 372.91,145.094C372.72,146.446 372.139,147.223 371.362,148.574C370.011,150.506 369.815,153.797 369.815,155.148L377.166,158.824L379.876,152.445C383.551,151.283 390.707,148.77 392.835,146.446C394.382,144.898 396.321,134.838 394.774,133.291C392.835,131.554 391.098,131.744 389.74,133.291C389.159,134.068 385.484,137.162 384.713,138.324Z" style="fill:rgb(232,164,118);"/>
                    <path d="M371.943,146.061C373.491,148.959 376.977,151.668 380.071,152.831L378.713,155.344C373.686,156.121 368.268,154.182 370.207,149.155C370.396,148.378 371.558,147.027 371.943,146.061Z" style="fill:rgb(206,230,245);"/>
                    <path d="M370.207,148.574C370.781,150.506 376.781,154.959 379.105,154.763C374.849,171.789 369.626,185.714 359.761,199.639C358.599,201.187 357.437,201.768 356.275,202.153C353.957,202.545 351.052,200.997 348.342,199.639L350.471,182.424C352.795,174.492 362.464,159.986 370.207,148.574Z" style="fill:rgb(0,30,48);"/>
                    <path d="M359.95,199.254C358.599,200.997 357.437,201.963 356.085,202.153C353.761,202.734 350.666,200.997 348.342,199.835C340.991,195.964 328.423,179.91 315.653,154.959C317.007,154.763 326.099,149.54 327.261,149.54C335.964,149.736 337.511,157.668 342.153,166.756C344.477,171.593 351.052,176.431 354.538,182.424L359.95,199.254Z" style="fill:rgb(0,30,48);"/>
                    <path d="M358.403,200.997C357.633,201.572 356.856,201.963 356.085,202.153C353.761,202.734 350.666,200.997 348.342,199.835C340.991,195.964 328.423,179.91 315.653,154.959C317.007,154.763 326.099,149.54 327.261,149.54C328.032,149.736 328.613,149.736 329.194,149.736C333.065,153.412 336.545,156.31 338.673,160.567C341.187,165.594 342.734,180.296 343.896,185.133C346.41,191.322 350.862,198.288 358.403,200.997Z" style="fill:rgb(0,22,36);"/>
                    <path d="M370.207,148.574C370.396,149.54 371.943,150.898 373.686,152.249C367.497,162.31 357.437,174.107 354.923,185.133C353.957,188.613 354.727,191.322 355.694,194.031C352.41,189.775 351.437,184.748 351.437,179.715C354.923,171.397 363.241,158.824 370.207,148.574Z" style="fill:rgb(0,22,36);"/>
                    <path d="M324.356,149.155C329.971,148.77 332.484,149.925 335.579,154.378C340.606,162.114 341.572,178.748 341.187,193.646C340.991,202.153 339.64,209.504 339.444,219.949C339.444,232.523 340.221,252.448 339.64,265.798C338.478,268.312 333.451,274.69 332.288,274.501C333.255,261.15 333.646,243.354 333.065,225.172C332.674,207.376 331.322,189.194 328.032,175.654C323.201,155.925 314.88,153.797 315.653,151.283C315.847,150.702 323.971,149.155 324.356,149.155Z" style="fill:rgb(0,38,61);"/>
                    <path d="M282.769,410.873C281.801,413.772 281.028,416.094 281.028,417.835C281.221,419.77 281.608,421.704 281.608,424.025C281.608,426.153 281.415,427.894 281.221,430.215C281.028,432.73 281.221,433.89 282.382,434.857C284.123,436.405 289.152,438.726 291.473,439.5C292.827,440.08 293.988,440.273 295.729,440.08C297.857,439.887 299.404,439.887 301.339,439.113C301.919,438.919 302.5,436.792 302.5,435.051C302.693,431.376 302.306,431.762 300.758,425.959C300.178,424.025 299.792,422.09 299.018,419.77C298.244,416.868 297.083,414.353 297.083,411.454L286.25,411.063L282.769,410.873Z" style="fill:rgb(17,18,20);"/>
                    <path d="M282.769,410.873C281.801,413.772 281.028,416.094 281.028,417.835C281.221,419.77 281.608,421.704 281.608,424.025C281.608,426.153 281.415,427.894 281.221,430.215C281.028,432.73 281.221,433.89 282.382,434.857C284.123,436.405 289.152,438.726 291.473,439.5C292.827,440.08 293.988,440.273 295.729,440.08C297.857,439.887 299.404,439.887 301.339,439.113C301.919,438.919 302.306,437.179 302.5,435.631C299.211,436.792 295.923,437.179 292.827,435.631C286.25,432.343 287.024,429.635 287.605,422.09C292.054,421.317 293.795,420.543 295.923,418.028C292.247,419.189 288.185,419.382 286.25,417.062L285.67,411.063L282.769,410.873Z"/>
                    <path d="M328.228,386.888C329.39,390.948 329.579,392.881 331.322,395.394C334.802,400.036 339.64,403.326 346.795,408.549C350.281,410.873 351.052,413.191 347.572,415.319C344.863,417.062 338.092,415.704 334.032,414.738C326.099,412.806 323.005,408.164 320.295,407.002L318.167,407.387C316.621,407.387 310.044,404.874 308.689,403.137C308.303,401.59 307.916,399.07 307.722,396.942C307.529,390.367 308.496,390.948 310.237,385.922C316.234,386.307 322.228,386.692 328.228,386.888Z" style="fill:rgb(17,18,20);"/>
                    <path d="M349.89,412.42C349.89,413.387 349.119,414.353 347.572,415.319C344.863,417.062 338.092,415.704 334.032,414.738C326.099,412.806 323.005,408.164 320.295,407.002L318.167,407.387C316.621,407.387 310.044,404.874 308.689,403.137C308.303,401.59 307.916,399.07 307.722,396.942C307.529,390.367 308.496,390.948 310.237,385.922C312.945,386.111 315.653,386.111 318.167,386.307C318.748,390.753 317.978,398.3 321.653,401.009C325.714,404.293 328.809,405.069 331.518,406.617C340.025,411.839 345.829,416.094 349.89,412.42Z"/>
                    <path d="M339.254,258.447C340.606,273.92 335.383,305.256 332.869,323.823C329.971,346.653 330.937,369.476 329.579,392.3C326.68,396.942 313.139,397.137 308.303,390.753C307.722,372.571 306.562,358.254 307.142,348.39C307.529,340.072 307.916,335.431 310.624,328.08C308.303,312.411 305.014,282.433 305.595,264.826L320.295,259.022L328.228,252.644L339.254,258.447Z" style="fill:rgb(0,22,36);"/>
                    <path d="M339.254,258.447C339.64,263.089 339.444,268.501 338.869,274.305C335.579,281.075 329.194,287.075 323.005,290.554C321.843,301.385 321.843,317.053 321.653,327.89C317.201,349.167 316.041,364.254 318.944,395.59C314.88,395.394 310.624,393.847 308.303,390.753C307.722,372.571 306.562,358.254 307.142,348.39C307.529,340.072 307.916,335.431 310.624,328.08C308.303,312.411 305.014,282.433 305.595,264.826L320.295,259.022L328.228,252.644L339.254,258.447Z" style="fill:rgb(0,16,26);"/>
                    <path d="M312.945,266.569C313.912,282.041 307.722,321.12 304.821,339.687C301.339,362.511 300.758,389.205 298.824,412.035C295.536,416.868 283.93,417.835 279.48,411.839C279.286,393.658 277.546,373.537 278.32,363.477C279.093,355.355 280.447,350.329 283.349,343.167C282.769,328.661 275.224,271.211 285.863,261.542L301.919,260.576L312.945,266.569Z" style="fill:rgb(0,30,48);"/>
                    <path d="M312.945,266.569C313.333,272.954 312.558,282.237 311.204,292.102C304.241,294.811 298.437,295.581 293.021,295.581C292.827,306.223 292.054,329.046 291.086,341.039C290.7,344.329 291.667,347.423 292.054,350.133C288.185,368.125 288.185,400.428 287.992,416.094C284.703,415.704 281.415,414.549 279.48,411.839C279.286,393.658 277.546,373.537 278.32,363.477C279.093,355.355 280.447,350.329 283.349,343.167C282.769,328.661 275.224,271.211 285.863,261.542L301.919,260.576L312.945,266.569Z" style="fill:rgb(0,22,36);"/>
                    <path d="M283.542,168.884C290.119,165.208 313.333,150.506 320.099,151.473C338.288,154.182 340.606,170.816 340.025,195.579C339.835,203.896 338.478,211.247 338.478,221.497C338.288,233.685 340.606,254.961 340.025,267.92C336.545,275.467 336.741,274.69 330.937,279.528C331.707,271.021 331.903,263.089 331.707,254.38C330.356,263.278 329.39,272.177 327.261,281.075C317.395,288.041 288.378,291.912 279.286,280.494C279.286,257.866 287.024,257.475 287.992,242.969C288.765,231.172 271.936,199.835 272.129,183.586C272.129,176.431 278.126,171.789 283.542,168.884Z" style="fill:rgb(0,38,61);"/>
                    <path d="M283.542,168.884L298.05,160.952C295.729,164.438 288.765,169.85 282.575,175.073C290.119,186.485 299.792,211.828 300.952,229.239C303.273,260.765 294.955,266.569 294.955,288.426C288.572,287.46 282.769,284.946 279.286,280.494C279.286,257.866 287.024,257.475 287.992,242.969C288.765,231.172 271.936,199.835 272.129,183.586C272.129,176.431 278.126,171.789 283.542,168.884Z" style="fill:rgb(0,30,48);"/>
                    <path d="M321.457,158.053C326.876,160.567 327.451,161.344 331.126,167.141L327.842,169.661L331.903,171.012C333.45,187.457 332.484,209.896 331.518,226.334C329.579,209.896 329.775,186.099 324.356,171.397C322.809,167.722 321.262,165.594 319.133,162.31C318.552,161.533 320.491,157.668 321.457,158.053Z" style="fill:rgb(0,52,84);"/>
                    <path d="M297.277,159.986C296.89,165.985 312.945,173.721 319.133,170.627C319.714,170.235 320.099,168.884 320.491,168.303C320.099,166.952 319.714,165.985 319.91,164.438C320.099,162.695 320.681,161.344 321.262,159.79C322.038,157.857 322.038,153.601 323.201,148.959L304.821,141.027L300.952,138.899C302.887,147.993 300.758,152.249 297.277,159.986Z" style="fill:rgb(232,164,118);"/>
                    <path d="M297.277,159.986C297.277,160.371 297.277,160.763 297.47,160.952C306.175,155.54 311.591,160.182 321.843,157.472C322.038,155.148 322.424,152.249 323.201,148.959L304.821,141.027L300.952,138.899C302.887,147.993 300.758,152.249 297.277,159.986Z" style="fill:rgb(219,150,105);"/>
                    <path d="M300.178,162.695C298.631,187.066 324.552,185.518 331.322,221.692C329.775,201.572 330.741,186.485 322.62,167.533L320.876,170.046L315.267,171.208L300.178,162.695Z" style="fill:rgb(206,230,245);"/>
                    <path d="M320.295,178.748C319.91,180.681 319.525,182.235 319.329,184.167C325.903,200.025 327.261,203.896 331.322,222.078C331.126,219.179 331.707,221.307 331.518,218.794C330.741,206.22 329.194,193.255 326.099,178.559C324.356,177.586 323.201,177.586 322.424,177.201C322.038,177.201 321.843,177.201 321.072,177.201L320.295,178.748Z" style="fill:rgb(4,30,46);"/>
                    <path d="M315.847,172.559C316.814,176.431 316.814,176.235 320.295,178.944L322.62,177.782C323.586,173.526 323.005,170.627 322.228,170.235C319.329,170.046 317.978,170.431 315.847,172.559Z" style="fill:rgb(4,30,46);"/>
                    <path d="M319.133,170.431C319.714,168.688 319.329,165.208 320.099,163.465C322.228,163.661 324.356,168.688 326.099,172.559C323.39,170.627 322.228,170.431 319.133,170.431Z" style="fill:rgb(232,246,255);"/>
                    <path d="M298.437,158.243C295.923,160.567 293.988,161.533 293.215,163.276C291.28,168.303 297.277,177.012 299.792,185.714L304.627,184.552L303.08,189.39C321.653,203.511 329.579,210.281 332.484,230.591C329.194,180.681 296.89,179.91 298.437,158.243Z" style="fill:rgb(0,52,84);"/>
                    <path d="M297.47,418.609C294.375,421.124 295.536,422.284 290.893,422.865C292.054,427.313 292.247,427.507 294.569,431.762C294.762,433.31 294.762,435.631 298.244,435.631C304.434,435.631 300.178,430.602 299.985,430.408C299.792,427.507 299.018,422.284 297.47,418.609Z" style="fill:rgb(32,35,46);"/>
                    <path d="M305.595,295.581C301.726,297.135 299.598,297.324 295.923,297.709C294.375,318.411 294.181,332.336 293.988,351.484L289.346,414.353C290.507,414.549 291.861,414.157 293.021,413.583C295.536,375.28 298.824,333.498 305.595,295.581Z" style="fill:rgb(0,38,61);"/>
                    <path d="M330.16,394.239C329.194,395.59 327.647,396.171 324.748,396.942C329.194,401.975 329.971,401.59 335.964,404.874C339.059,408.36 339.444,409.13 341.383,410.096C343.7,411.454 346.991,412.806 348.342,411.839C348.923,411.454 348.153,410.292 345.639,408.36C342.734,406.421 339.64,404.293 337.126,401.975C334.417,399.847 332.099,397.333 330.16,394.239Z" style="fill:rgb(32,35,46);"/>
                    <path d="M298.631,156.695C298.244,163.465 311.978,168.688 319.133,170.431C317.395,172.559 315.073,175.269 315.073,177.397C310.044,176.039 300.178,172.755 296.696,165.985C294.181,161.533 296.309,158.634 298.631,156.695Z" style="fill:rgb(232,246,255);"/>
                    <path d="M337.511,282.041C333.836,285.717 331.518,287.845 327.261,290.939C326.295,307.385 325.322,330.404 323.586,346.653L323.971,394.428C327.066,393.847 328.613,392.496 329.194,391.719L329.971,335.627C332.288,320.148 334.802,297.52 337.511,282.041Z" style="fill:rgb(0,30,48);"/>
                    <path d="M303.854,194.802C307.529,211.828 310.818,223.044 311.398,233.489C312.172,248.576 310.624,261.731 306.755,286.298L323.39,282.237C325.714,267.346 330.741,250.515 329.579,234.07C328.423,218.017 321.262,202.153 303.854,194.802Z" style="fill:rgb(0,43,69);"/>
                    <path d="M304.821,252.063C311.978,248.772 313.912,247.806 320.099,246.455L317.395,264.441C313.526,267.92 307.916,269.859 302.887,269.859L304.821,252.063Z" style="fill:rgb(0,38,61);"/>
                    <path d="M304.821,252.063C311.978,248.772 313.912,247.806 320.099,246.455C319.329,251.867 319.714,251.482 314.299,254.191C304.627,259.022 307.529,258.637 304.434,269.859C304.241,270.244 303.273,269.859 302.887,269.859L304.821,252.063Z" style="fill:rgb(0,30,48);"/>
                    <path d="M322.038,157.668C323.971,159.986 329.39,165.594 330.545,168.303C335.383,178.748 334.613,191.903 334.613,206.024C334.221,231.361 334.032,251.677 332.674,276.629C335.383,274.305 337.707,271.406 339.444,267.346C338.478,246.259 336.741,222.659 338.288,201.768C339.254,189.005 340.025,174.884 336.545,164.823C334.998,160.763 330.356,152.831 324.167,151.087L322.038,157.668Z" style="fill:rgb(0,43,69);"/>
                    <path d="M305.401,249.739C312.558,246.455 315.653,244.516 320.876,242.198L319.714,249.549C317.978,251.286 308.303,256.319 304.241,256.123L305.401,249.739Z" style="fill:rgb(0,38,61);"/>
                    <path d="M305.401,249.739C312.558,246.455 315.653,244.516 320.876,242.198C315.847,246.259 307.142,249.549 305.595,256.123C305.014,256.123 304.627,256.319 304.241,256.123L305.401,249.739Z" style="fill:rgb(0,30,48);"/>
                    <path d="M334.417,241.036C336.741,238.327 337.511,237.746 339.444,236.584L339.254,255.353C338.092,257.09 334.802,259.022 333.836,258.833L334.417,241.036Z" style="fill:rgb(0,38,61);"/>
                    <path d="M334.417,241.036C336.741,238.327 337.511,237.746 339.444,236.584C339.254,242.002 339.254,241.806 337.511,244.131C334.417,248.002 335.383,248.002 334.417,258.833C334.221,258.833 334.032,258.833 333.836,258.833L334.417,241.036Z" style="fill:rgb(0,30,48);"/>
                    <path d="M339.059,242.969L336.16,247.61L335.383,258.056C336.93,257.285 337.511,256.704 338.869,255.157L339.059,242.969Z" style="fill:rgb(0,43,69);"/>
                    <path d="M318.944,252.833L309.85,258.056L306.368,268.501C310.818,267.346 312.365,266.765 316.427,264.826L318.944,252.833Z" style="fill:rgb(0,43,69);"/>
                    <path d="M320.295,243.354C316.041,246.455 310.237,250.705 307.722,254.961C312.558,253.225 314.106,252.252 318.748,249.549C319.525,247.421 319.714,245.482 320.295,243.354Z" style="fill:rgb(0,43,69);"/>
                    <path d="M334.032,236.78C336.545,235.232 337.707,234.07 339.444,233.104L339.64,240.259C339.059,241.617 335.964,244.326 334.221,243.164L334.032,236.78Z" style="fill:rgb(0,38,61);"/>
                    <path d="M334.032,236.78C336.545,235.232 337.707,234.07 339.444,233.104C337.896,236.009 334.802,236.975 334.802,243.354C334.613,243.354 334.417,243.354 334.221,243.164L334.032,236.78Z" style="fill:rgb(0,30,48);"/>
                    <path d="M339.254,234.266C337.896,236.199 336.16,239.104 335.579,242.779C337.126,242.198 337.707,241.806 339.254,240.07C339.444,238.131 339.254,236.199 339.254,234.266Z" style="fill:rgb(0,43,69);"/>
                    <path d="M318.167,156.695C315.653,155.729 310.237,154.763 307.916,153.797C303.273,151.668 302.887,146.642 300.372,140.838C295.923,138.899 294.181,136.966 293.408,134.453C291.28,128.649 293.408,121.683 297.083,117.238C300.565,113.366 304.821,111.63 310.237,111.63C320.68,111.819 326.295,118.589 328.613,126.906C328.809,127.683 328.809,128.453 328.613,129.23C328.423,130.973 327.842,131.94 327.842,133.291C327.451,136.196 328.613,135.615 328.998,138.514C329.39,143.155 328.613,147.608 327.842,152.831C327.647,154.378 327.451,155.148 326.484,155.729C325.714,156.121 324.748,156.506 323.39,157.087C322.228,157.472 321.262,157.668 318.167,156.695Z" style="fill:rgb(241,178,135);"/>
                    <path d="M318.167,156.695C315.653,155.729 310.237,154.763 307.916,153.797C303.273,151.668 302.887,146.642 300.372,140.838C295.923,138.899 294.181,136.966 293.408,134.453C291.28,128.649 293.408,121.683 297.083,117.238C300.565,113.366 304.821,111.63 310.237,111.63C319.329,111.819 324.748,116.852 327.451,123.812C327.065,124.784 318.552,129.23 311.011,129.23C310.431,132.71 312.172,135.419 312.365,137.162C312.365,138.899 312.365,140.257 312.558,141.223C312.752,142.574 314.106,143.736 314.299,145.675C315.073,152.054 318.552,156.31 321.457,157.472C320.681,157.472 319.714,157.276 318.167,156.695Z" style="fill:rgb(232,164,118);"/>
                    <path d="M323.586,120.136C324.748,120.136 326.484,121.298 327.451,123.622C326.68,119.751 325.322,117.623 323.005,117.238L323.586,120.136Z" style="fill:rgb(54,29,7);"/>
                    <path d="M305.981,127.879C303.273,122.075 293.988,120.528 292.441,117.623C288.572,124.784 289.346,136 295.535,142.189C298.437,145.479 299.404,147.223 300.565,152.249C301.919,149.155 301.726,148.574 302.112,145.284L302.887,137.933L303.273,137.547C303.66,138.324 304.627,140.453 305.014,141.419C305.595,141.419 306.368,140.838 306.949,140.453C304.821,133.291 307.916,131.744 305.981,127.879Z" style="fill:rgb(54,29,7);"/>
                    <path d="M314.493,124.393C323.586,123.231 331.707,118.589 324.356,113.758C319.329,110.468 313.333,107.758 305.788,108.535C299.404,109.116 292.634,112.4 292.247,117.819C294.181,120.332 305.401,134.453 305.981,128.453C306.175,127.683 304.821,125.94 305.208,124.974C305.788,123.812 309.077,125.17 314.493,124.393Z" style="fill:rgb(54,29,7);"/>
                    <path d="M312.365,123.622C309.657,122.656 306.368,123.622 302.112,121.879C297.857,119.947 293.601,116.656 292.441,117.623C291.086,120.136 290.119,123.622 290.119,126.717C294.762,129.426 299.792,130.392 305.981,128.649C304.821,126.521 304.434,125.555 305.208,124.589C305.788,123.622 306.562,124.203 312.365,123.622Z" style="fill:rgb(79,43,12);"/>
                    <path d="M314.493,124.393C322.809,123.231 330.545,119.366 325.714,114.724C324.937,115.69 323.971,116.656 322.809,117.238L323.39,115.69C319.133,117.433 317.201,120.528 312.945,120.717L314.493,119.366C309.464,119.947 306.368,120.528 303.466,119.751L304.821,118.981C300.178,119.17 295.535,118.008 292.827,115.494C292.634,116.271 292.441,117.042 292.247,117.819C294.762,121.494 302.887,124.393 306.175,124.393C307.529,124.589 310.431,124.974 314.493,124.393Z" style="fill:rgb(36,19,4);"/>
                    <path d="M300.565,135.419C296.503,134.453 297.083,139.095 297.857,141.804C298.437,143.547 299.985,143.351 300.758,144.703C301.726,146.446 303.08,147.223 304.241,147.027C306.755,146.642 304.821,143.351 304.434,141.804C304.434,139.48 303.273,136 300.565,135.419Z" style="fill:rgb(232,164,118);"/>
                    <path d="M295.149,112.4C298.05,109.501 303.66,108.143 307.529,107.954C310.818,107.954 314.88,108.724 317.201,109.116C316.234,109.305 316.234,109.501 315.653,109.501C318.552,110.272 322.038,112.015 323.971,113.562C318.363,112.4 313.912,112.4 311.591,112.596C311.978,112.981 311.978,112.981 312.945,113.562C307.335,113.366 303.08,109.501 295.149,112.4Z" style="fill:rgb(74,43,18);"/>
                    <path d="M288.185,287.264C288.765,287.845 290.507,297.52 293.601,294.426C292.441,289.588 293.021,283.784 289.539,280.109C287.992,278.562 286.638,277.21 285.284,274.305C277.932,279.724 287.798,286.879 288.185,287.264Z" style="fill:rgb(241,178,135);"/>
                    <path d="M275.418,274.886C276.772,278.366 276.385,283.203 276.385,286.494C276.385,289.973 276.385,289.588 278.126,292.487C279.867,295.777 281.221,297.905 283.542,299.648C285.863,301.385 293.021,304.094 294.375,302.358C294.955,300.419 291.667,299.838 290.893,298.486C290.507,297.52 289.539,295.196 289.152,292.683C288.765,291.331 288.765,289.588 288.765,289.203C287.992,280.305 285.67,281.075 285.67,276.629L275.418,274.886Z" style="fill:rgb(241,178,135);"/>
                    <path d="M275.418,274.886C276.772,278.366 276.385,283.203 276.385,286.494C276.385,289.973 276.385,289.588 278.126,292.487C279.867,295.777 281.221,297.905 283.542,299.648C285.863,301.196 293.021,304.094 294.375,302.358C291.861,301.581 289.152,299.838 287.024,298.101C285.67,296.939 283.93,295.581 283.155,293.264C281.221,288.237 281.415,282.041 280.64,276.244L280.834,275.663L275.418,274.886Z" style="fill:rgb(232,164,118);"/>
                    <path d="M276.192,278.366L276.385,281.271C280.254,284.169 286.444,283.98 289.926,280.886L289.346,277.21L276.192,278.366Z" style="fill:rgb(206,230,245);"/>
                    <path d="M275.805,174.884C266.906,180.681 269.421,214.146 268.067,233.489C270.775,249.549 271.355,262.697 275.224,278.366C276.965,281.656 286.638,283.203 290.119,278.947C288.378,265.217 287.798,247.806 285.477,234.07C287.218,225.753 289.152,209.7 290.7,199.058C292.054,190.356 285.09,176.039 275.805,174.884Z" style="fill:rgb(0,38,61);"/>
                    <path d="M275.805,174.884C266.906,180.681 269.228,213.956 267.874,233.3C270.582,249.353 271.355,262.508 275.031,278.176C275.998,279.724 278.32,281.271 283.542,281.467C280.061,275.663 276.965,243.164 275.224,234.266C277.739,212.409 276.772,198.869 282.188,177.782C280.447,176.235 278.32,175.269 275.805,174.884Z" style="fill:rgb(0,30,48);"/>
                </g>
            </g>
        </g>
    </g>
</svg>
