<?xml version="1.0" encoding="UTF-8" standalone="no"?>
<!DOCTYPE svg PUBLIC "-//W3C//DTD SVG 1.1//EN" "http://www.w3.org/Graphics/SVG/1.1/DTD/svg11.dtd">
<svg width="100%" height="100%" viewBox="0 0 187 42" version="1.1" xmlns="http://www.w3.org/2000/svg" xmlns:xlink="http://www.w3.org/1999/xlink" xml:space="preserve" style="fill-rule:evenodd;clip-rule:evenodd;stroke-linejoin:round;stroke-miterlimit:1.41421;">
    <g transform="matrix(0.0368627,0,0,0.0368627,46.5,2.36513)">
        <g transform="matrix(15.6671,0,0,15.6671,-666.162,-666.116)">
            <path d="M44.091,100.88C43.207,99.406 42.717,97.935 42.52,96.266L42.52,93.421C43.6,82.625 56.856,68.198 75.708,56.028C80.028,53.279 84.448,50.924 88.67,48.961C107.915,40.324 125.687,40.324 130.89,49.256C131.677,50.63 132.07,52.102 132.266,53.671L132.266,55.929C131.383,66.431 118.912,80.858 99.765,93.224C96.132,95.58 92.401,97.64 88.67,99.406C68.639,109.025 49.492,109.613 44.091,100.88ZM77.476,59.364C57.346,72.123 41.637,89.985 47.921,100.486C53.125,109.123 70.995,107.259 88.67,98.916C92.597,97.15 96.427,94.991 100.158,92.537C121.073,79.091 136.194,61.72 129.222,50.924C124.411,43.465 106.246,45.232 88.67,53.279C84.84,54.948 81.109,57.009 77.476,59.364" style="fill:rgb(0,117,191);"/>
        </g>
        <g transform="matrix(15.6671,0,0,15.6671,-666.162,-666.116)">
            <path d="M164.589,87.826C164.589,85.471 165.374,83.508 166.946,82.036C168.615,80.465 170.677,79.778 173.426,79.778C176.567,79.778 178.826,80.662 180.397,82.428C181.674,83.9 182.263,85.667 182.263,87.728C182.263,90.083 181.478,92.046 179.906,93.518C178.434,95.089 176.175,95.874 173.426,95.874C170.971,95.874 168.909,95.187 167.436,93.911C165.57,92.439 164.589,90.378 164.589,87.826ZM173.426,83.801C172.64,83.801 171.953,84.097 171.363,84.784C170.775,85.471 170.48,86.452 170.48,87.826C170.48,89.199 170.775,90.182 171.363,90.868C171.953,91.556 172.64,91.85 173.426,91.85C174.31,91.85 174.997,91.556 175.586,90.868C176.076,90.182 176.371,89.199 176.371,87.728C176.371,86.452 176.076,85.471 175.586,84.784C174.997,84.097 174.31,83.801 173.523,83.801L173.426,83.801ZM144.87,88.415L151.155,88.022C151.253,89.102 151.547,89.887 151.94,90.378C152.627,91.261 153.609,91.654 154.886,91.654C155.77,91.654 156.457,91.457 157.046,90.967C157.536,90.574 157.733,90.083 157.733,89.494C157.733,88.906 157.536,88.415 157.046,88.022C156.555,87.532 155.475,87.139 153.707,86.747C150.763,86.158 148.7,85.275 147.522,84.195C146.245,83.115 145.656,81.741 145.656,80.073C145.656,78.993 145.95,77.914 146.638,77.03C147.227,76.049 148.209,75.264 149.485,74.674C150.763,74.184 152.529,73.89 154.69,73.89C157.439,73.89 159.501,74.38 160.875,75.362C162.348,76.343 163.232,78.011 163.428,80.171L157.242,80.563C157.144,79.582 156.751,78.895 156.26,78.503C155.671,78.011 154.984,77.816 154.002,77.816C153.315,77.816 152.726,78.011 152.333,78.306C151.94,78.6 151.744,78.993 151.744,79.484C151.744,79.778 151.94,80.171 152.234,80.366C152.529,80.662 153.216,80.956 154.395,81.153C157.34,81.839 159.304,82.428 160.58,83.017C161.858,83.704 162.741,84.489 163.33,85.373C163.92,86.354 164.115,87.434 164.115,88.61C164.115,89.887 163.821,91.163 163.035,92.341C162.251,93.518 161.17,94.402 159.893,94.991C158.52,95.58 156.751,95.874 154.788,95.874C151.155,95.874 148.602,95.187 147.227,93.715C145.852,92.341 145.066,90.574 144.87,88.415ZM190.002,80.073L192.849,80.073L192.849,84.391L190.002,84.391L190.002,95.481L184.11,95.481L184.11,84.391L181.851,84.391L181.851,80.073L184.11,80.073L184.11,79.386C184.11,78.797 184.11,78.109 184.306,77.325C184.405,76.539 184.699,75.951 184.994,75.46C185.386,74.97 185.976,74.577 186.565,74.282C187.252,73.988 188.234,73.89 189.51,73.89C190.59,73.89 192.063,73.988 194.027,74.184L193.439,77.816C192.75,77.717 192.162,77.619 191.67,77.619C191.18,77.619 190.787,77.717 190.59,77.914C190.296,78.109 190.199,78.306 190.1,78.699C190.002,78.993 190.002,79.386 190.002,80.073ZM201.844,74.184L201.844,80.073L205.084,80.073L205.084,84.391L201.844,84.391L201.844,89.887C201.844,90.476 201.844,90.967 202.04,91.163C202.237,91.457 202.531,91.654 203.022,91.654C203.415,91.654 204.102,91.556 204.888,91.261L205.281,95.383C203.807,95.678 202.433,95.874 201.157,95.874C199.683,95.874 198.603,95.678 197.916,95.285C197.229,94.893 196.738,94.304 196.443,93.518C196.05,92.832 195.854,91.556 195.854,89.789L195.854,84.391L193.695,84.391L193.695,80.073L195.854,80.073L195.854,77.227L201.844,74.184Z" style="fill:rgb(0,117,191);"/>
        </g>
        <g transform="matrix(15.6671,0,0,15.6671,-666.162,-666.116)">
            <rect x="137.524" y="74.086" width="6.088" height="21.494" style="fill:rgb(36,31,33);fill-rule:nonzero;"/>
        </g>
        <g transform="matrix(15.6671,0,0,15.6671,-666.162,-666.116)">
            <path d="M114.515,74.086L114.515,79.975L117.855,79.975L117.855,84.391L114.515,84.391L114.515,89.887C114.515,90.574 114.614,90.967 114.712,91.261C114.908,91.556 115.202,91.752 115.793,91.752C116.186,91.752 116.775,91.556 117.559,91.359L118.05,95.482C116.578,95.776 115.202,95.971 113.926,95.971C112.356,95.971 111.275,95.776 110.588,95.383C109.901,94.991 109.41,94.402 109.018,93.616C108.723,92.832 108.526,91.556 108.526,89.887L108.526,84.391L106.366,84.391L106.366,79.975L108.526,79.975L108.526,77.129L114.515,74.086Z" style="fill:rgb(36,31,33);fill-rule:nonzero;"/>
        </g>
        <g transform="matrix(15.6671,0,0,15.6671,-666.162,-666.116)">
            <path d="M70.308,74.086L90.535,74.086L90.535,79.386L83.76,79.386L83.76,95.58L77.084,95.58L77.084,79.386L70.308,79.386L70.308,74.086Z" style="fill:rgb(36,31,33);fill-rule:nonzero;"/>
        </g>
        <g transform="matrix(15.6671,0,0,15.6671,-666.162,-666.116)">
            <path d="M97.35,95.971C94.798,95.971 92.835,95.285 91.262,94.009C89.398,92.439 88.415,90.378 88.415,87.826C88.415,85.471 89.202,83.508 90.772,81.937C92.441,80.465 94.602,79.68 97.35,79.68C100.493,79.68 102.849,80.563 104.42,82.33C105.697,83.801 106.286,85.667 106.286,87.728C106.286,90.182 105.5,92.145 103.93,93.616C102.359,95.187 100.199,95.971 97.35,95.971ZM97.35,83.801C96.467,83.801 95.779,84.097 95.288,84.784C94.699,85.471 94.405,86.452 94.405,87.826C94.405,89.199 94.699,90.279 95.288,90.868C95.779,91.556 96.467,91.948 97.35,91.948C98.234,91.948 98.922,91.556 99.511,90.967C100.003,90.279 100.297,89.199 100.297,87.728C100.297,86.452 100.003,85.373 99.511,84.784C98.922,84.097 98.234,83.801 97.449,83.801L97.35,83.801Z" style="fill:rgb(36,31,33);"/>
        </g>
        <g transform="matrix(15.6671,0,0,15.6671,-666.162,-666.116)">
            <path d="M127.135,95.58C126.251,95.776 125.17,95.971 124.091,95.971C122.225,95.971 120.85,95.481 119.868,94.696C118.886,93.813 118.395,92.733 118.395,91.457C118.395,90.279 118.788,89.298 119.475,88.513C120.163,87.826 121.44,87.236 123.305,86.845C125.072,86.55 126.349,86.255 127.135,86.06C127.331,85.962 127.528,85.962 127.724,85.863C128.312,85.765 129.098,85.471 129.785,85.175C129.785,84.489 129.687,83.9 129.392,83.606C129,83.312 128.509,83.212 127.724,83.212L127.135,83.212C126.448,83.312 125.955,83.409 125.563,83.704C125.17,83.9 124.875,84.391 124.581,85.078L118.886,84.489C119.084,83.409 119.475,82.625 119.868,82.134C120.261,81.545 120.85,81.054 121.635,80.563C122.128,80.269 122.912,80.073 123.894,79.875C124.778,79.778 125.857,79.68 126.938,79.68C128.844,79.683 130.193,79.781 131.258,79.975C132.338,80.171 133.32,80.563 134.008,81.25C134.499,81.643 134.892,82.232 135.186,83.115C135.48,83.9 135.676,84.684 135.676,85.373L135.676,92.243C135.676,93.028 135.676,93.616 135.775,94.009C135.873,94.402 136.069,94.991 136.364,95.58L130.768,95.58C130.572,95.187 130.375,94.893 130.375,94.696C130.276,94.5 130.179,94.107 130.179,93.715C129.392,94.402 128.607,94.991 127.822,95.285C127.625,95.383 127.331,95.481 127.135,95.58ZM127.327,88.977C126.102,89.292 125.258,89.599 124.875,89.887C124.581,90.279 124.385,90.574 124.385,91.065C124.385,91.457 124.581,91.85 124.875,92.145C125.268,92.439 125.76,92.635 126.349,92.635C126.644,92.635 126.84,92.635 127.135,92.537C127.528,92.439 127.822,92.341 128.214,92.145C128.804,91.85 129.196,91.457 129.392,90.967C129.687,90.476 129.785,89.887 129.785,89.199L129.785,88.219C129.028,88.503 128.179,88.699 127.327,88.977" style="fill:rgb(36,31,33);"/>
        </g>
    </g>
</svg>
